<?xml version="1.0" encoding="utf-8"?>
<!-- Generator: Adobe Illustrator 24.3.0, SVG Export Plug-In . SVG Version: 6.00 Build 0)  -->
<svg version="1.1" id="Layer_1" xmlns="http://www.w3.org/2000/svg" xmlns:xlink="http://www.w3.org/1999/xlink" x="0px" y="0px"
	 viewBox="0 0 150 150" style="enable-background:new 0 0 150 150;" xml:space="preserve">
<style type="text/css">
	.st0{fill:#FFFBFA;}
</style>
<path class="st0" d="M105.9,99.7c1.7,1.7,1.7,4.5,0,6.2s-4.5,1.7-6.2,0L75,81.2l-24.7,24.7c-1.7,1.7-4.5,1.7-6.2,0
	c-1.7-1.7-1.7-4.5,0-6.2l0,0L68.8,75L44.1,50.3c-1.7-1.7-1.7-4.5,0-6.2s4.5-1.7,6.2,0L75,68.8l24.7-24.7c1.7-1.7,4.5-1.7,6.2,0
	c1.7,1.7,1.7,4.5,0,6.2L81.2,75L105.9,99.7z"/>
</svg>
