<svg id="Layer_3" data-name="Layer 3" xmlns="http://www.w3.org/2000/svg" viewBox="0 0 150 150"><defs><style>.cls-1{fill:#fffbfa;}</style></defs><path class="cls-1" d="M117.53,77.94,115,75.45l3.17-2.77A27.38,27.38,0,1,0,82,31.61L74.78,38l-5.56-5.21A27.37,27.37,0,0,0,22.53,52.13l0,45.52A27.38,27.38,0,0,0,68,116.92L73.57,112,80,117.85a27.38,27.38,0,0,0,37.5-39.91ZM64,112.42a21.41,21.41,0,0,1-30.17-1.91,21,21,0,0,1-5.29-13.13l0-45.25A21.37,21.37,0,0,1,65,37L70.3,42,57.86,54.4a2.68,2.68,0,0,1-2,.79,2.53,2.53,0,0,1-.73-.11,2.66,2.66,0,0,0-2.62.5l-.3.27a2.92,2.92,0,0,0,1.09,4.95,8.11,8.11,0,0,0,2.41.39,8.56,8.56,0,0,0,6.37-2.55L74.84,45.92,86,36.11a21.37,21.37,0,0,1,35.5,16,21.36,21.36,0,0,1-7.25,16.05Zm50.32.06a21.39,21.39,0,0,1-30.26,1l-6-5.41,32.43-28.59,2.82,2.82A21.43,21.43,0,0,1,114.35,112.48Z"/></svg>