<?xml version="1.0" encoding="utf-8"?>
<!-- Generator: Adobe Illustrator 25.0.0, SVG Export Plug-In . SVG Version: 6.00 Build 0)  -->
<svg version="1.1" id="Layer_3" xmlns="http://www.w3.org/2000/svg" xmlns:xlink="http://www.w3.org/1999/xlink" x="0px" y="0px"
	 viewBox="0 0 150 150" style="enable-background:new 0 0 150 150;" xml:space="preserve">
<style type="text/css">
	.st0{fill:#FFFFF5;}
</style>
<path class="st0" d="M117.5,77.9l-2.5-2.5l3.2-2.8c11.7-9.6,13.4-26.8,3.8-38.5s-26.8-13.4-38.5-3.8c-0.5,0.4-1,0.8-1.4,1.3L74.8,38
	l-5.6-5.2c-10.7-10.7-28-10.6-38.7,0.1c-5.1,5.1-8,12-8,19.3v45.5c0.7,15.1,13.5,26.8,28.6,26.1c6.2-0.3,12.2-2.7,16.9-6.8l5.6-4.9
	l6.4,5.8c11,10.4,28.3,9.8,38.7-1.2S128.5,88.3,117.5,77.9L117.5,77.9L117.5,77.9z M64,112.4c-8.9,7.8-22.4,6.9-30.2-1.9
	c-3.2-3.6-5.1-8.3-5.3-13.1V52.1c0-11.8,9.6-21.4,21.4-21.4C55.6,30.8,61,33,65,37l5.3,5L57.9,54.4c-0.5,0.5-1.3,0.8-2,0.8
	c-0.2,0-0.5,0-0.7-0.1c-0.9-0.3-1.9-0.1-2.6,0.5l-0.3,0.3c-1.3,1-1.4,2.9-0.3,4.1c0.3,0.4,0.8,0.7,1.3,0.8c0.8,0.3,1.6,0.4,2.4,0.4
	c2.4,0.1,4.7-0.8,6.4-2.5L74.9,46L86,36.1c8.9-7.8,22.4-7,30.2,1.9c3.4,3.9,5.3,8.9,5.3,14.1c0,6.1-2.6,12-7.2,16.1L64,112.4z
	 M114.3,112.5c-8.1,8.6-21.6,9.1-30.2,1l0,0l-6-5.4l32.4-28.6l2.8,2.8C121.9,90.4,122.4,103.8,114.3,112.5L114.3,112.5z"/>
</svg>
