<?xml version="1.0" encoding="utf-8"?>
<!-- Generator: Adobe Illustrator 25.0.0, SVG Export Plug-In . SVG Version: 6.00 Build 0)  -->
<svg version="1.1" id="Layer_3" xmlns="http://www.w3.org/2000/svg" xmlns:xlink="http://www.w3.org/1999/xlink" x="0px" y="0px"
	 viewBox="0 0 150 150" style="enable-background:new 0 0 150 150;" xml:space="preserve">
<style type="text/css">
	.st0{fill:#555555;}
</style>
<path class="st0" d="M111.6,77.8l-2.2-2.2l2.8-2.4c10.2-8.3,11.6-23.3,3.3-33.4s-23.3-11.6-33.4-3.3c-0.4,0.3-0.9,0.7-1.2,1.1
	l-6.3,5.6l-4.9-4.5c-9.3-9.3-24.3-9.2-33.6,0.1c-4.4,4.4-6.9,10.4-6.9,16.8V95c0.6,13.1,11.7,23.3,24.8,22.7
	c5.4-0.3,10.6-2.3,14.7-5.9l4.9-4.3l5.6,5c9.6,9,24.6,8.5,33.6-1S121.1,86.8,111.6,77.8L111.6,77.8L111.6,77.8z M65.1,107.7
	c-7.7,6.8-19.5,6-26.2-1.6c-2.8-3.1-4.4-7.2-4.6-11.4V55.4c0-10.2,8.3-18.6,18.6-18.6c4.9,0.1,9.6,2,13.1,5.5l4.6,4.3L59.8,57.4
	c-0.4,0.4-1.1,0.7-1.7,0.7c-0.2,0-0.4,0-0.6-0.1c-0.8-0.3-1.6-0.1-2.3,0.4L55,58.7c-1.1,0.9-1.2,2.5-0.3,3.6
	c0.3,0.3,0.7,0.6,1.1,0.7c0.7,0.3,1.4,0.3,2.1,0.3c2.1,0.1,4.1-0.7,5.6-2.2l11.1-11l9.6-8.6c7.7-6.8,19.5-6.1,26.2,1.6
	c3,3.4,4.6,7.7,4.6,12.2c0,5.3-2.3,10.4-6.3,14L65.1,107.7z M108.8,107.8c-7,7.5-18.8,7.9-26.2,0.9l0,0l-5.2-4.7l28.1-24.8l2.4,2.4
	C115.4,88.6,115.8,100.3,108.8,107.8L108.8,107.8z"/>
</svg>
