<?xml version="1.0" encoding="utf-8"?>
<!-- Generator: Adobe Illustrator 24.1.2, SVG Export Plug-In . SVG Version: 6.00 Build 0)  -->
<svg version="1.1" xmlns="http://www.w3.org/2000/svg" xmlns:xlink="http://www.w3.org/1999/xlink" x="0px" y="0px"
	 viewBox="0 0 150 150" style="enable-background:new 0 0 150 150;" xml:space="preserve">
<style type="text/css">
	.st0{fill:#BDDBDB;}
</style>
<g id="Layer_2">
</g>
<g id="Layer_1">
	<g>
		<g>
			<path class="st0" d="M65.47,112.59c-4.14,5.61-10.79,9.17-18.12,9.17c-12.4,0-22.49-10.09-22.49-22.49v-0.05l-1.44-48.68
				c0.01-5.97,2.35-11.57,6.58-15.76c4.24-4.2,9.89-6.52,15.91-6.52c6.03,0,11.68,2.31,15.91,6.52c1.07,1.06,2.02,2.21,2.84,3.44
				l5-5.18c-0.86-1.15-1.82-2.25-2.85-3.28c-5.58-5.52-12.99-8.57-20.9-8.57c-7.9,0-15.32,3.04-20.89,8.57
				c-5.59,5.54-8.67,12.94-8.67,20.83v0.05l1.44,48.68c0.03,16.28,13.28,29.51,29.56,29.51c9.26,0,17.7-4.32,23.17-11.21
				L65.47,112.59z"/>
		</g>
		<g>
			<path class="st0" d="M67.82,45.49L67.82,45.49c-0.21,0.22-0.42,0.43-0.63,0.65C67.4,45.93,67.61,45.71,67.82,45.49z M58.59,55.08
				c-0.51,0.53-1,1.05-1.49,1.56C57.59,56.12,58.08,55.6,58.59,55.08z"/>
			<path class="st0" d="M121.94,74.7l3.05-3.05c5.59-5.58,8.66-13.01,8.66-20.9c0-7.9-3.07-15.32-8.66-20.91
				c-11.53-11.53-30.28-11.53-41.81,0l-5.55,5.55l-0.03,0.03c-0.02,0.02-1.65,1.7-4.19,4.31c-1.25,1.28-2.71,2.79-4.31,4.45
				c-0.43,0.44-0.85,0.88-1.27,1.32v0c-0.21,0.22-0.42,0.43-0.63,0.65c-0.42,0.43-0.83,0.85-1.23,1.28
				c-0.2,0.21-0.41,0.42-0.61,0.63c-2.43,2.51-4.69,4.86-6.77,7.03c-0.51,0.53-1,1.05-1.49,1.56c-0.04,0.04-0.08,0.09-0.12,0.13
				c-0.35,0.37-0.7,0.73-1.03,1.08c-1.7,1.78-3.26,3.41-4.67,4.91c-3.01,3.18-5.35,5.69-6.94,7.45c-0.93,1.02-1.6,1.8-2.08,2.37
				c-0.3,0.36-0.52,0.65-0.69,0.89c-1.26,1.83-0.76,3.71,0.29,4.77l27.15,27.15l14.18,14.18c5.58,5.58,13.01,8.66,20.9,8.66
				c7.9,0,15.32-3.08,20.9-8.66c11.53-11.53,11.53-30.28,0-41.81L121.94,74.7z M119.99,114.56c-4.25,4.25-9.9,6.59-15.91,6.59
				s-11.66-2.34-15.91-6.59l-11.45-11.45L49.09,75.47c2.1-2.34,6.7-7.29,16.76-17.75c0.2-0.2,0.39-0.41,0.59-0.61
				c0.25-0.26,0.5-0.52,0.76-0.78c0.15-0.16,0.31-0.32,0.47-0.49c1.97-2.05,4.14-4.29,6.51-6.74c0.31-0.32,0.61-0.63,0.91-0.94
				l0.31-0.32c4.07-4.19,7.01-7.22,7.25-7.46l5.54-5.54c8.77-8.77,23.04-8.77,31.81,0c4.25,4.25,6.59,9.9,6.59,15.91
				c0,6.01-2.34,11.66-6.59,15.9l-8.05,8.05l8.05,8.05C128.76,91.52,128.76,105.79,119.99,114.56z"/>
		</g>
	</g>
</g>
<g id="Layer_3">
</g>
</svg>
