<?xml version="1.0" encoding="utf-8"?>
<!-- Generator: Adobe Illustrator 25.2.1, SVG Export Plug-In . SVG Version: 6.00 Build 0)  -->
<svg version="1.1" id="Layer_3" xmlns="http://www.w3.org/2000/svg" xmlns:xlink="http://www.w3.org/1999/xlink" x="0px" y="0px"
	 viewBox="0 0 150 150" style="enable-background:new 0 0 150 150;" xml:space="preserve">
<style type="text/css">
	.st0{fill:#555555;}
</style>
<g>
	<g>
		<path class="st0" d="M75,147.6C34,147.6,0.6,115,0.6,75S34,2.4,75,2.4c41,0,74.4,32.6,74.4,72.6S116,147.6,75,147.6z M75,7.3
			C36.7,7.3,5.5,37.7,5.5,75s31.2,67.7,69.5,67.7s69.5-30.4,69.5-67.7S113.3,7.3,75,7.3z"/>
	</g>
	<g>
		<path class="st0" d="M105.9,77.4l-1.9-1.9l2.4-2.1c8.6-7.1,9.8-19.7,2.7-28.3c-7.1-8.5-19.7-9.8-28.3-2.7c-0.3,0.3-0.8,0.6-1,0.9
			L74.6,48l-4.1-3.8C62.6,36.3,50,36.4,42,44.3c-3.7,3.7-5.8,8.8-5.8,14.2v33.4c0.5,11.1,9.9,19.7,21,19.2c4.6-0.3,8.9-2,12.5-5
			l4.1-3.6l4.7,4.2c8.1,7.7,20.8,7.2,28.5-0.9S114,84.9,105.9,77.4L105.9,77.4L105.9,77.4z M66.6,102.6c-6.5,5.8-16.5,5.1-22.2-1.4
			c-2.4-2.6-3.7-6.1-3.9-9.6V58.4c0-8.6,7.1-15.7,15.7-15.7c4.1,0.1,8.1,1.7,11.1,4.6l3.9,3.6L62,60.1c-0.3,0.3-0.9,0.6-1.5,0.6
			c-0.2,0-0.3,0-0.5-0.1c-0.7-0.3-1.4-0.1-2,0.3l-0.2,0.3c-0.9,0.8-1,2.2-0.3,3c0.3,0.3,0.6,0.5,0.9,0.6c0.6,0.3,1.2,0.3,1.8,0.3
			c2,0.1,3.7-0.6,4.9-1.9l9.4-9.3l8.1-7.3c6.5-5.8,16.5-5.2,22.2,1.4c2.6,2.8,3.9,6.5,3.9,10.3c0,4.5-2,8.8-5.3,11.9L66.6,102.6z
			 M103.6,102.7c-5.9,6.4-15.9,6.7-22.2,0.8l0,0L77,99.5l23.7-21l2.1,2.1C109.2,86.5,109.4,96.4,103.6,102.7L103.6,102.7z"/>
	</g>
</g>
</svg>
