<?xml version="1.0" encoding="utf-8"?>
<!-- Generator: Adobe Illustrator 25.2.1, SVG Export Plug-In . SVG Version: 6.00 Build 0)  -->
<svg version="1.1" id="Layer_3" xmlns="http://www.w3.org/2000/svg" xmlns:xlink="http://www.w3.org/1999/xlink" x="0px" y="0px"
	 viewBox="0 0 150 150" style="enable-background:new 0 0 150 150;" xml:space="preserve">
<style type="text/css">
	.st0{fill:#555555;}
	.st1{fill:#FBFBF8;}
</style>
<g>
	<g>
		<path class="st0" d="M75,2.9C34,2.9,0.6,35.5,0.6,75.5S34,148.1,75,148.1s74.4-32.6,74.4-72.6S116,2.9,75,2.9z M75,143.2
			c-38.3,0-69.5-30.4-69.5-67.7S36.7,7.8,75,7.8s69.5,30.4,69.5,67.7S113.3,143.2,75,143.2z"/>
		<path class="st1" d="M75,7.8C36.7,7.8,5.5,38.2,5.5,75.5s31.2,67.7,69.5,67.7s69.5-30.4,69.5-67.7S113.3,7.8,75,7.8z M105.9,77.9
			c8.1,7.5,8.7,20.4,1.1,28.5c-7.6,8-20.3,8.5-28.5,0.9l-4.7-4.2l-4.1,3.6c-3.5,3-7.9,4.7-12.5,5c-11.1,0.5-20.5-8.1-21-19.2V59
			c0-5.4,2.1-10.5,5.8-14.2c7.9-7.9,20.6-7.9,28.5-0.1l4.1,3.8l5.3-4.7c0.2-0.3,0.7-0.6,1-0.9c8.5-7.1,21.2-5.8,28.3,2.8
			c7.1,8.5,5.9,21.2-2.8,28.3L104,76L105.9,77.9z"/>
	</g>
	<g>
		<path class="st0" d="M104,76l2.4-2.1c8.6-7.1,9.8-19.7,2.8-28.3c-7.1-8.5-19.7-9.8-28.3-2.8c-0.3,0.3-0.8,0.6-1,0.9l-5.3,4.7
			l-4.1-3.8C62.6,36.8,50,36.9,42,44.8c-3.7,3.7-5.8,8.8-5.8,14.2v33.4c0.5,11.1,9.9,19.7,21,19.2c4.6-0.3,8.9-2,12.5-5l4.1-3.6
			l4.7,4.2c8.1,7.6,20.8,7.2,28.5-0.9c7.7-8,7-20.9-1.1-28.5L104,76z M66.6,103.1c-6.5,5.8-16.5,5.1-22.2-1.4
			c-2.3-2.7-3.7-6.1-3.9-9.6V58.9c0-8.6,7.1-15.7,15.7-15.7c4.1,0.1,8.1,1.7,11.1,4.6l3.9,3.6L62,60.6c-0.3,0.3-0.9,0.6-1.5,0.6
			c-0.2,0-0.3,0-0.5-0.1c-0.7-0.3-1.4-0.1-2,0.3l-0.2,0.3c-0.9,0.8-1,2.2-0.3,3.1c0.3,0.3,0.6,0.5,0.9,0.6c0.6,0.3,1.2,0.3,1.8,0.3
			c2,0.1,3.7-0.6,4.9-1.9l9.4-9.3l8.1-7.3c6.5-5.8,16.5-5.2,22.2,1.4c2.5,2.8,3.9,6.5,3.9,10.3c0,4.5-2,8.8-5.3,11.9L66.6,103.1z
			 M103.6,103.2c-5.9,6.4-15.9,6.7-22.2,0.8L77,100l23.8-21l2.1,2.1C109.2,87,109.5,96.9,103.6,103.2z"/>
		<path class="st1" d="M108.9,58.8c0,4.5-2,8.8-5.3,11.9l-37,32.4c-6.5,5.8-16.5,5.1-22.2-1.4c-2.3-2.7-3.7-6.1-3.9-9.6V58.9
			c0-8.6,7.1-15.7,15.7-15.7c4.1,0.1,8.1,1.7,11.1,4.6l3.9,3.6L62,60.6c-0.3,0.3-0.9,0.6-1.5,0.6c-0.2,0-0.3,0-0.5-0.1
			c-0.7-0.3-1.4-0.1-2,0.3l-0.2,0.3c-0.9,0.8-1,2.2-0.3,3.1c0.3,0.3,0.6,0.5,0.9,0.6c0.6,0.3,1.2,0.3,1.8,0.3c2,0.1,3.7-0.6,4.9-1.9
			l9.4-9.3l8.1-7.3c6.5-5.8,16.5-5.2,22.2,1.4C107.5,51.4,108.9,55,108.9,58.8z"/>
		<path class="st1" d="M103.6,103.2c-5.9,6.4-15.9,6.7-22.2,0.8L77,100l23.8-21l2.1,2.1C109.2,87,109.5,96.9,103.6,103.2z"/>
	</g>
</g>
</svg>
