<svg id="Layer_1" data-name="Layer 1" xmlns="http://www.w3.org/2000/svg" viewBox="0 0 150 150"><defs><style>.cls-1{fill:#fffbfa;}</style></defs><g id="Layer_1-2" data-name="Layer 1"><path class="cls-1" d="M66.75,107.67a19.42,19.42,0,0,1-35.1-11.49v-.09L30.44,54A19.5,19.5,0,0,1,63.63,40.34a18.78,18.78,0,0,1,2.42,2.94l4.33-4.5c-.78-1-1.56-1.9-2.42-2.85A25.69,25.69,0,0,0,49.89,28.5a25.3,25.3,0,0,0-18.07,7.43,25,25,0,0,0-7.52,18h0L25.51,96a25.59,25.59,0,0,0,45.64,15.82Z"/><path class="cls-1" d="M68.73,49.67h0a4.82,4.82,0,0,0-.52.61A4.82,4.82,0,0,1,68.73,49.67Zm-8,8.3c-.43.43-.86.87-1.3,1.38C59.92,58.84,60.35,58.4,60.78,58Z"/><path class="cls-1" d="M115.5,74.91l2.68-2.68a25.46,25.46,0,0,0,0-36.13A25.63,25.63,0,0,0,82,36.1L77.2,40.86h0s-1.47,1.47-3.63,3.71c-1,1.13-2.33,2.42-3.71,3.89a13.38,13.38,0,0,1-1.13,1.13h0a4.08,4.08,0,0,0-.52.6,12.85,12.85,0,0,0-1,1.13l-.52.51c-2.08,2.17-4.06,4.24-5.88,6.06-.43.43-.86.86-1.3,1.38l-.08.08c-.26.35-.61.61-.87,1-1.47,1.55-2.85,2.93-4.06,4.23-2.59,2.77-4.58,4.93-6,6.4-.78.86-1.39,1.55-1.82,2.07a8.22,8.22,0,0,1-.6.78,3.1,3.1,0,0,0,.26,4.15l23.42,23.51L82,113.72a25.55,25.55,0,1,0,36.14-36.13Zm-1.65,34.49a19.42,19.42,0,0,1-13.74,5.71,19.05,19.05,0,0,1-13.74-5.71l-9.86-9.85L52.57,75.61c1.81-2,5.79-6.31,14.52-15.39l.52-.52A5,5,0,0,1,68.3,59l.43-.43c1.73-1.73,3.55-3.72,5.62-5.79l.78-.78.26-.26c3.54-3.63,6-6.23,6.22-6.48l4.76-4.76a19.45,19.45,0,0,1,33.19,13.74A19.07,19.07,0,0,1,113.85,68l-7,7,7,7A19.3,19.3,0,0,1,113.85,109.4Z"/></g></svg>