<svg xmlns="http://www.w3.org/2000/svg" viewBox="0 0 293.21 307.53"><defs><style>.cls-1,.cls-15,.cls-2{fill:#bddbdb;}.cls-2{font-size:36.4px;font-family:FormaDJRDisplay-Light, Forma DJR Display;font-weight:300;letter-spacing:0.11em;}.cls-3{letter-spacing:0.13em;}.cls-4{letter-spacing:0.11em;}.cls-5{letter-spacing:0.1em;}.cls-6{letter-spacing:0.09em;}.cls-7{letter-spacing:0.12em;}.cls-8{letter-spacing:0.12em;}.cls-9{letter-spacing:0.11em;}.cls-10{letter-spacing:0.1em;}.cls-11{letter-spacing:0.1em;}.cls-12{letter-spacing:0.11em;}.cls-13{letter-spacing:0.11em;}.cls-14{letter-spacing:0.12em;}.cls-15{font-size:21.48px;font-family:Futura-CondensedMedium, Futura;font-weight:500;letter-spacing:0.11em;}.cls-16{letter-spacing:0.12em;}.cls-17{letter-spacing:0.11em;}.cls-18{letter-spacing:0.13em;}.cls-19{letter-spacing:0.1em;}.cls-20{letter-spacing:0.13em;}.cls-21{letter-spacing:0.12em;}.cls-22{letter-spacing:0.11em;}.cls-23{letter-spacing:0.12em;}.cls-24{letter-spacing:0.12em;}.cls-25{letter-spacing:0.11em;}.cls-26{letter-spacing:0.11em;}.cls-27{letter-spacing:0.13em;}.cls-28{letter-spacing:0.12em;}.cls-29{letter-spacing:0.11em;}.cls-30{letter-spacing:0.13em;}.cls-31{letter-spacing:0.13em;}.cls-32{letter-spacing:0.15em;}.cls-33{letter-spacing:0.1em;}.cls-34{letter-spacing:0.12em;}</style></defs><g id="Layer_1" data-name="Layer 1"><path class="cls-1" d="M157,193.86a42.48,42.48,0,0,1-76.7-25.17v-.1L77.59,76.66A41.68,41.68,0,0,1,90,46.9a42.83,42.83,0,0,1,60.1,0,41.79,41.79,0,0,1,5.36,6.5l9.44-9.78a56.33,56.33,0,0,0-5.39-6.2,56.2,56.2,0,0,0-78.91,0A55,55,0,0,0,64.24,76.76v.1L67,168.79a55.82,55.82,0,0,0,99.58,34.57Z" transform="translate(-28.39 -21.24)"/><path class="cls-1" d="M161.45,67.15h0l-1.19,1.23ZM144,85.25l-2.81,2.94Z" transform="translate(-28.39 -21.24)"/><path class="cls-1" d="M263.64,122.31l5.77-5.77a55.83,55.83,0,0,0-79-79L180,48.07l-.06.06L172,56.27l-8.15,8.39-2.4,2.49h0l-1.19,1.23-2.33,2.41L156.79,72Q149.9,79.1,144,85.25l-2.81,2.94-.24.24-2,2q-4.81,5-8.82,9.28c-5.69,6-10.1,10.74-13.11,14.07-1.75,1.93-3,3.39-3.92,4.47-.57.69-1,1.22-1.3,1.68a6.9,6.9,0,0,0,.55,9l51.27,51.27L190.46,207a55.83,55.83,0,0,0,79-79ZM260,197.58a42.47,42.47,0,0,1-60.08,0L178.26,176l-52.18-52.18c4-4.43,12.65-13.78,31.64-33.52l1.12-1.17,1.43-1.48.87-.91q5.6-5.81,12.3-12.74l1.73-1.78.58-.6c7.68-7.92,13.24-13.63,13.69-14.09L199.89,47A42.48,42.48,0,1,1,260,107.1l-15.21,15.21L260,137.51A42.53,42.53,0,0,1,260,197.58Z" transform="translate(-28.39 -21.24)"/><text class="cls-2" transform="translate(6 260.7)">k<tspan class="cls-3" x="18.48" y="0">r</tspan><tspan class="cls-4" x="34.23" y="0">y</tspan><tspan class="cls-5" x="53.41" y="0">s</tspan><tspan class="cls-6" x="73.16" y="0">t</tspan><tspan class="cls-7" x="85.93" y="0">a </tspan><tspan class="cls-8" x="117.52" y="0">m</tspan><tspan class="cls-9" x="149.39" y="0">ad</tspan><tspan class="cls-10" x="192.75" y="0">e</tspan><tspan class="cls-11" x="213.79" y="0">w</tspan><tspan class="cls-12" x="241.48" y="0">e</tspan><tspan class="cls-13" x="263.08" y="0">l</tspan><tspan class="cls-14" x="271.97" y="0">l</tspan></text><text class="cls-15" transform="translate(0 301.47)">D<tspan class="cls-16" x="12.44" y="0">I</tspan><tspan class="cls-17" x="19.61" y="0">G</tspan><tspan class="cls-18" x="32.01" y="0">I</tspan><tspan class="cls-19" x="39.51" y="0">T</tspan><tspan class="cls-20" x="48.72" y="0">A</tspan><tspan class="cls-21" x="60.27" y="0">L </tspan><tspan class="cls-22" x="76.98" y="0">D</tspan><tspan class="cls-23" x="89.4" y="0">E</tspan><tspan class="cls-24" x="99.75" y="0">SI</tspan><tspan class="cls-25" x="117.44" y="0">G</tspan><tspan class="cls-21" x="129.85" y="0">N + </tspan><tspan class="cls-26" x="167.99" y="0">I</tspan><tspan class="cls-27" x="175.11" y="0">L</tspan><tspan class="cls-28" x="184.96" y="0">L</tspan><tspan class="cls-29" x="194.7" y="0">U</tspan><tspan class="cls-30" x="207.06" y="0">S</tspan><tspan class="cls-31" x="217.83" y="0">T</tspan><tspan class="cls-32" x="227.66" y="0">R</tspan><tspan class="cls-33" x="239.91" y="0">A</tspan><tspan class="cls-31" x="250.83" y="0">T</tspan><tspan class="cls-16" x="260.67" y="0">I</tspan><tspan class="cls-34" x="267.84" y="0">O</tspan><tspan class="cls-21" x="280.59" y="0">N</tspan></text></g></svg>