<?xml version="1.0" encoding="utf-8"?>
<!-- Generator: Adobe Illustrator 25.2.1, SVG Export Plug-In . SVG Version: 6.00 Build 0)  -->
<svg version="1.1" xmlns="http://www.w3.org/2000/svg" xmlns:xlink="http://www.w3.org/1999/xlink" x="0px" y="0px"
	 viewBox="0 0 383 209.7" style="enable-background:new 0 0 383 209.7;" xml:space="preserve">
<style type="text/css">
	.st0{fill:#333333;}
	.st1{fill:#76A6AD;}
	.st2{fill:#808080;}
	.st3{fill:#666666;}
	.st4{fill:#FFFFFF;}
	.st5{fill:#B3B3B3;}
	.st6{stroke:#FFFFFF;stroke-width:2;stroke-miterlimit:10;}
	.st7{stroke:#FFFFFF;stroke-width:0.75;stroke-miterlimit:10;}
	.st8{fill:#3E5E66;}
	.st9{fill:#FFFFFF;stroke:#333333;stroke-miterlimit:10;}
</style>
<g id="Layer_2">
</g>
<g id="Layer_1">
	<g>
		<g>
			<g>
				<path class="st0" d="M126.8,135.1h11v10.5l-0.8,0.9c-2.3,2.5-6,4.1-9.6,4.1c-6.9,0-12.6-6-12.6-13.4s5.6-13.4,12.6-13.4
					c3.7,0,7.1,1.7,9.5,4.7l-4.5,4.2c-1.3-1.6-3.1-2.5-5-2.5c-3.6,0-6.6,3.1-6.6,7s3,7,6.6,7c1.6,0,3.3-0.6,4.5-1.4v-1.3h-5V135.1z"
					/>
				<path class="st0" d="M159.5,147.1h-10l-1.2,3.2h-6.5l9.5-26.2h6.3l9.5,26.2h-6.5L159.5,147.1z M157.3,140.7l-2.7-7.6l-2.7,7.6
					H157.3z"/>
				<path class="st0" d="M181.5,150.3l-3.5-9.4v9.3h-6v-26.2h6.2l6.4,17.5l6.5-17.5h6.2v26.2h-6v-9.3l-3.5,9.4H181.5z"/>
				<path class="st0" d="M204.4,124.1h6v26.1h-6V124.1z"/>
				<path class="st0" d="M233.5,124.2h6v26.1H233l-9.6-15.6v15.5h-6v-26.2h6.6l9.6,15.5V124.2z"/>
				<path class="st0" d="M257.3,135.1h11v10.5l-0.8,0.9c-2.3,2.5-6,4.1-9.6,4.1c-6.9,0-12.6-6-12.6-13.4s5.6-13.4,12.6-13.4
					c3.7,0,7.1,1.7,9.5,4.7l-4.5,4.2c-1.3-1.6-3.1-2.5-5-2.5c-3.6,0-6.6,3.1-6.6,7s3,7,6.6,7c1.6,0,3.3-0.6,4.5-1.4v-1.3h-5V135.1z"
					/>
			</g>
		</g>
		<g>
			<path class="st8" d="M32.4,95.8c2.5,0,2.8,1.3,2.8,3.1v0.8c0,2.4,0,4.8-3.6,4.8H18.1c-3.6,0-3.6-2.4-3.6-4.8V66.8
				c0-2.4,0-4.8,3.6-4.8h3c3.6,0,3.6,2.4,3.6,4.8v25.8c0,1.4,0,3.3,1.9,3.3C29.7,95.9,31.1,95.8,32.4,95.8z"/>
			<path class="st8" d="M46.1,93.5c0.1,1.3,1.3,2,2.5,2c3.4,0,4.5-0.1,5.8-0.1c2.5,0,3.3,0.7,3.3,2.5v4.2c0,1.8-0.6,2.4-2.4,2.4
				H39.6c-3.6,0-3.6-3.6-3.6-4.8V66.8c0-2.4,0-4.8,3.6-4.8H55c1.5,0,2.8,0.6,2.8,1.8v5.1c0,1.4-1.2,1.5-2.7,1.5
				c-2.3,0-4.2-0.1-5.7-0.1c-3.3,0-3.3,1.2-3.3,3.1c0,3.9,0,4.9,3,4.9c3.7,0,4.3-0.1,5.7-0.1c2.1,0,2.2,2.1,2.2,2.8v3.8
				c0,1.8-1.3,1.9-2.8,1.9c-3,0-5-0.1-6.2-0.1c-1.9,0-1.9,0.8-1.9,2.8V93.5z"/>
			<path class="st8" d="M77.8,88.1c0-1.9-1.1-1.9-2.2-1.9c-2,0-2.2-1-2.2-2.6V83c0-4.8,0.1-5.1,2.9-5.1h8.6c2.6,0,2.6,1.3,2.6,2.4
				v18.7c0,5.9-5.8,5.9-9.2,5.9c-9.5,0-19.9-4.3-19.9-21.9c0-17.2,11-21.1,18.4-21.1c6.2,0,8.7,0.7,8.7,2.5v4.7
				c0,1.1-0.8,1.4-1.7,1.4c-1.9,0-3.7-0.8-6.4-0.8c-7.6,0-8.5,10.6-8.5,13c0,4.9,0.9,13.5,7,13.5c1.2,0,2-0.6,2-2.7V88.1z"/>
			<path class="st8" d="M118.1,101.5c0,2.8-1.9,3-5.3,3h-3.2c-3.7,0-1.9-9-4.2-9h-4.8c-2.4,0-1,9-4.6,9h-2.8c-3.1,0-5-0.2-5-3
				c0-3.6,1.4-6.8,6.1-34.7c0.5-3,1.7-4.8,4.1-4.8h9.2c2.4,0,3.6,1.8,4.2,4.8C115.9,91.3,118.1,97.9,118.1,101.5z M100.7,85.6
				c0,1,0.4,1,2.3,1c1.9,0,2.3,0,2.3-0.9c0-0.2,0-0.5-0.1-1c-0.7-5.9-1-13.1-2.3-13.1c-1.3,0-1.7,7.2-2.3,13.1
				C100.7,85,100.7,85.3,100.7,85.6z"/>
			<path class="st8" d="M136.9,95.8c2.5,0,2.8,1.3,2.8,3.1v0.8c0,2.4,0,4.8-3.6,4.8h-13.5c-3.6,0-3.6-2.4-3.6-4.8V66.8
				c0-2.4,0-4.8,3.6-4.8h3c3.6,0,3.6,2.4,3.6,4.8v25.8c0,1.4,0,3.3,1.9,3.3C134.2,95.9,135.7,95.8,136.9,95.8z"/>
			<path class="st8" d="M172.1,88.1c0-1.9-1.1-1.9-2.2-1.9c-2,0-2.2-1-2.2-2.6V83c0-4.8,0.1-5.1,2.9-5.1h8.6c2.6,0,2.6,1.3,2.6,2.4
				v18.7c0,5.9-5.8,5.9-9.2,5.9c-9.5,0-19.9-4.3-19.9-21.9c0-17.2,11-21.1,18.4-21.1c6.2,0,8.7,0.7,8.7,2.5v4.7
				c0,1.1-0.8,1.4-1.7,1.4c-1.9,0-3.7-0.8-6.4-0.8c-7.6,0-8.5,10.6-8.5,13c0,4.9,0.9,13.5,7,13.5c1.2,0,2-0.6,2-2.7V88.1z"/>
			<path class="st8" d="M209.2,92.3c0,7.4-0.8,12.4-12.9,12.4c-12.6,0-13.5-5.1-13.5-12.9c0-18.9,0.1-25.1,0.1-25.1
				c0-2.4,0-4.8,3.6-4.8h3c3.6,0,3.6,2.4,3.6,4.8v26.3c0,1.8,0,3.3,3.3,3.3c2.7,0,2.7-1.5,2.7-3.3V66.7c0-2.3,0-4.7,3.6-4.7h3
				c3.6,0,3.6,2.4,3.6,4.7V92.3z"/>
			<path class="st8" d="M239.7,101.5c0,2.8-1.9,3-5.3,3h-3.2c-3.7,0-1.9-9-4.2-9h-4.8c-2.4,0-1,9-4.6,9h-2.8c-3.1,0-5-0.2-5-3
				c0-3.6,1.4-6.8,6.1-34.7c0.5-3,1.7-4.8,4.1-4.8h9.2c2.4,0,3.6,1.8,4.2,4.8C237.5,91.3,239.7,97.9,239.7,101.5z M222.3,85.6
				c0,1,0.4,1,2.3,1c1.9,0,2.3,0,2.3-0.9c0-0.2,0-0.5-0.1-1c-0.7-5.9-1-13.1-2.3-13.1c-1.3,0-1.7,7.2-2.3,13.1
				C222.3,85,222.3,85.3,222.3,85.6z"/>
			<path class="st8" d="M256,62c8.9,0,11.4,6.4,11.4,13.5c0,4.3-0.1,7.1-3.5,9.9c-1.7,1.4-2.8,0.6-2.8,2.9c0,2.5,0.8,5.4,2.8,5.4
				c1.1,0,1.7-0.3,1.9-0.3c1.9,0,2.2,1.6,2.2,4.4c0,1.3-0.1,2.9-0.1,4.7c0,1.2-0.5,2.3-3.6,2.3c-5.5,0-8.3-4.1-9.4-8.5
				c-1.4-5.6-3.2-6.5-3.6-6.5c-0.5,0-0.5,1-0.5,1.4v8.5c0,2.4,0,4.8-3.6,4.8h-4.2c-2.4,0-2.4-2.4-2.4-4.8V66.8c0-2.4,0-4.8,3.6-4.8
				H256z M250.8,72.6c0,0.8,0.1,2.2,0.1,3.4c0,1.2-0.1,2.3-0.1,3c0,2,0.4,2.3,2.7,2.3c2.7,0,3.3-2.6,3.3-5.3s-0.6-6-3.3-6
				C251.2,70.1,250.8,70.5,250.8,72.6z"/>
			<path class="st8" d="M281.6,62c13.2,0,14.9,8.4,14.9,21.2c0,12.3-1.2,21.2-14.9,21.2h-9c-3.6,0-3.6-2.4-3.6-4.8V66.8
				c0-2.4,0-4.8,3.6-4.8H281.6z M279.1,71.9c0,6.8,0.1,14.1,0.1,21.2c0,1.6,0.1,3,1.2,3c4.5,0,4.8-3.6,4.8-13.2
				c0-8.4-0.3-12.9-4.8-12.9C279.3,70.1,279.1,70.7,279.1,71.9z"/>
			<path class="st8" d="M307.7,99.7c0,2.4,0,4.8-3.6,4.8h-3c-3.6,0-3.6-2.4-3.6-4.8V66.8c0-2.4,0-4.8,3.6-4.8h3
				c3.6,0,3.6,2.4,3.6,4.8V99.7z"/>
			<path class="st8" d="M338.5,101.5c0,2.8-1.9,3-5.3,3h-3.2c-3.7,0-1.9-9-4.2-9H321c-2.4,0-1,9-4.6,9h-2.8c-3.1,0-5-0.2-5-3
				c0-3.6,1.4-6.8,6.1-34.7c0.5-3,1.7-4.8,4.1-4.8h9.2c2.4,0,3.6,1.8,4.2,4.8C336.3,91.3,338.5,97.9,338.5,101.5z M321.1,85.6
				c0,1,0.4,1,2.3,1c1.9,0,2.3,0,2.3-0.9c0-0.2,0-0.5-0.1-1c-0.7-5.9-1-13.1-2.3-13.1c-1.3,0-1.7,7.2-2.3,13.1
				C321.1,85,321.1,85.3,321.1,85.6z"/>
			<path class="st8" d="M358,81.1c0.2,0,0.3-0.2,0.3-0.6V66.8c0-2.4,0-4.8,3.6-4.8h3c3.6,0,3.6,2.4,3.6,4.8v32.9
				c0,2.4,0,4.8-3.6,4.8c-5.4,0-5.8-1-6.6-2.8l-8-17.3c-0.2-0.4-0.4-0.6-0.5-0.6c-0.2,0-0.2,0.2-0.2,0.6l0.1,15.2
				c0,2.4,0,4.8-3.6,4.8h-3c-3.6,0-3.6-2.4-3.6-4.8V66.8c0-2.4,0-4.8,3.6-4.8h3.2c2,0,2.6,0.2,3.5,2.1l7.7,16.4
				C357.7,80.9,357.9,81.1,358,81.1z"/>
		</g>
	</g>
</g>
</svg>
