<?xml version="1.0" standalone="no"?>
<!DOCTYPE svg PUBLIC "-//W3C//DTD SVG 1.1//EN" "http://www.w3.org/Graphics/SVG/1.1/DTD/svg11.dtd" >
<svg>
<metadata>
Created by FontForge 20090622 at Sat Oct  7 03:50:57 2017
 By ffonts
Font data copyright Google 2013. Design Modifications and name "Melancholy Serif" (c) Heaven Castro Studios.
</metadata>
<defs>
<font id="Melancholy-Serif" horiz-adv-x="718" >
  <font-face 
    font-family="Melancholy Serif"
    font-weight="700"
    font-stretch="normal"
    units-per-em="1000"
    panose-1="0 0 0 0 0 0 0 0 0 0"
    ascent="800"
    descent="-200"
    x-height="528"
    cap-height="711"
    bbox="-456.998 -300.002 1285 1048"
    underline-thickness="48"
    underline-position="-98"
    unicode-range="U+0002-U+FFFD"
  />
<missing-glyph horiz-adv-x="245" 
 />
    <glyph glyph-name="fi" unicode="fi" horiz-adv-x="652" 
d="M17 428l-0.00195312 100h78v36c0 66.667 20.333 118 61 154s97.667 54 171 54c25.333 0 50.333 -2.5 75 -7.5s53.334 -12.167 86.001 -21.5l-20 -113c-24 7.33301 -45.667 13 -65 17s-41.666 6 -66.999 6c-32.667 0 -57.167 -7.5 -73.5 -22.5s-24.5 -37.167 -24.5 -66.5
v-36h320v-428l76 -15v-85h-287v85l69 15v328h-178v-328l69 -15v-85h-288v85l76 15v328h-78z" />
    <glyph glyph-name="uniFB02" unicode="fl" horiz-adv-x="693" 
d="M459 646c-18 4 -35.832 7.16602 -53.499 9.49902s-36.5 3.5 -56.5 3.5c-36.667 0 -64.334 -9.16699 -83.001 -27.5s-28 -45.166 -28 -80.499v-23h117v-100h-117v-328l69 -15v-85h-288v85l76 15v328h-66v100h66v23c0 70.667 21.333 125.167 64 163.5
s102.667 57.5 180 57.5c28 0 55.667 -2.5 83 -7.5s59.333 -12.167 96 -21.5h84v-643l68 -15v-85h-280v85l69 15v546v0z" />
    <glyph glyph-name=".notdef" horiz-adv-x="245" 
 />
    <glyph glyph-name="uni0009" horiz-adv-x="0" 
 />
    <glyph glyph-name="uni0009" horiz-adv-x="0" 
 />
    <glyph glyph-name="uni0002" horiz-adv-x="109" 
 />
    <glyph glyph-name="nonmarkingreturn" unicode="&#xd;" horiz-adv-x="245" 
 />
    <glyph glyph-name="space" unicode=" " horiz-adv-x="245" 
 />
    <glyph glyph-name="exclam" unicode="!" horiz-adv-x="247" 
d="M201 245h-143v466h143v-466zM201 0h-143v125h143v-125z" />
    <glyph glyph-name="quotedbl" unicode="&#x22;" horiz-adv-x="381" 
d="M169 629l-55 -200l-46 78v255h101v-133zM328 629l-55 -205l-45 83v255h100v-133z" />
    <glyph glyph-name="numbersign" unicode="#" horiz-adv-x="584" 
d="M313 200h-93l-35 -200h-90l35 200h-111v83h125l25 141h-113v84h128l36 203h89l-36 -203h94l36 203h90l-36 -203h107v-84h-122l-25 -141h110v-83h-124l-35 -200h-90zM234 283h94l25 141h-94z" />
    <glyph glyph-name="dollar" unicode="$" horiz-adv-x="593" 
d="M398 187c0 26.667 -7.5 48.001 -22.5 64.001s-42.167 31.667 -81.5 47c-73.333 24.667 -127.833 53.5 -163.5 86.5s-53.5 79.167 -53.5 138.5c0 55.333 17.833 100.333 53.5 135s83.834 55.334 144.501 62.001v67l78 37v-106c58.667 -8 104.5 -30.833 137.5 -68.5
s49.167 -86.5 48.5 -146.5l-1 -3h-140c0 35.333 -8 62.666 -24 81.999s-38.333 29 -67 29c-30.667 0 -52.834 -8 -66.501 -24s-20.5 -37.667 -20.5 -65c0 -25.333 7.16699 -45.333 21.5 -60s42.166 -30.667 83.499 -48c72 -23.333 126 -52 162 -86s54 -80.667 54 -140
c0 -56.667 -17.667 -102 -53 -136s-83.666 -54 -144.999 -60v-60l-78 -36v96c-62.667 5.33301 -114 26 -154 62s-59.333 88.667 -58 158l1 3h139c0 -41.333 10.167 -70.833 30.5 -88.5s46.833 -26.5 79.5 -26.5c32 0 55.833 7.66699 71.5 23s23.5 36.666 23.5 63.999z" />
    <glyph glyph-name="percent" unicode="%" horiz-adv-x="697" 
d="M24 574c0 42 13.5 77.001 40.5 105.001s64.833 42 113.5 42c49.333 0 87.5 -13.833 114.5 -41.5s40.5 -62.834 40.5 -105.501v-37c0 -42 -13.5 -76.833 -40.5 -104.5s-64.833 -41.5 -113.5 -41.5s-86.667 13.833 -114 41.5s-41 62.5 -41 104.5v37zM119 537.001
c0 -18.667 5.16699 -34.5 15.5 -47.5s25.166 -19.5 44.499 -19.5c18.667 0 33.334 6.33301 44.001 19s16 28.667 16 48v37c0 18.667 -5.33301 34.667 -16 48s-25.667 20 -45 20s-34 -6.5 -44 -19.5s-15 -29.167 -15 -48.5v-37zM364 174.001
c0 41.333 13.668 76.167 41.001 104.5s65.333 42.5 114 42.5s86.5 -14 113.5 -42s40.5 -63 40.5 -105v-37c0 -42 -13.5 -77 -40.5 -105s-64.5 -42 -112.5 -42c-48.667 0 -86.834 14 -114.501 42s-41.5 63 -41.5 105v37zM458.001 137.002
c0 -18.667 5.66797 -34.667 17.001 -48s26.333 -20 45 -20c21.333 0 36.5 6.16699 45.5 18.5s13.5 28.833 13.5 49.5v37c0 18.667 -5.33301 34.667 -16 48s-25.334 20 -44.001 20c-19.333 0 -34.333 -6.66699 -45 -20s-16 -29.333 -16 -48v-37zM220.002 53.002l-70 37
l348 556l69 -37z" />
    <glyph glyph-name="ampersand" unicode="&#x26;" horiz-adv-x="624" 
d="M22 191c0 38.667 10.5 72.001 31.5 100.001s53.167 57 96.5 87c-22 30 -38.5 57.333 -49.5 82s-16.5 50 -16.5 76c0 56 17.667 100.833 53 134.5s82.333 50.5 141 50.5c52 0 94.167 -16 126.5 -48s48.5 -70.667 48.5 -116c0 -32 -8 -61.167 -24 -87.5
s-37.667 -49.5 -65 -69.5l-46 -32l135 -158c12 19.333 21.167 40.5 27.5 63.5s9.5 47.167 9.5 72.5h107c0 -44.667 -5.66699 -85.834 -17 -123.501s-28.333 -71.167 -51 -100.5l102 -120l-1 -2h-158l-38 43c-28 -18 -56.5 -31.333 -85.5 -40s-60.5 -13 -94.5 -13
c-70.667 0 -127 18.5 -169 55.5s-63 85.5 -63 145.5zM262 99.001c17.333 0 34.5 2.16699 51.5 6.5s33.5 10.833 49.5 19.5l-146 170l-9 -6c-16.667 -15.333 -28 -30.5 -34 -45.5s-9 -29.833 -9 -44.5c0 -28.667 9 -52.5 27 -71.5s41.333 -28.5 70 -28.5zM212 537.001
c0 -14 3.49902 -28.333 10.499 -43s17.5 -31 31.5 -49l42 27c18 12 30.167 24.167 36.5 36.5s9.5 25.833 9.5 40.5c0 16 -5.83301 30.333 -17.5 43s-27.167 19 -46.5 19c-21.333 0 -37.666 -7 -48.999 -21s-17 -31.667 -17 -53z" />
    <glyph glyph-name="quotesingle" unicode="'" horiz-adv-x="219" 
d="M165 630l-57 -233l-40 95v270h97v-132z" />
    <glyph glyph-name="parenleft" unicode="(" horiz-adv-x="334" 
d="M43 289c0 127.333 24.833 235.668 74.5 325.001s105.834 147 168.501 173h3l25 -71c-42.667 -32 -78.334 -83.5 -107.001 -154.5s-43 -161.5 -43 -271.5v-13c0 -110.667 14.333 -201.334 43 -272.001s64.334 -122.334 107.001 -155.001l-25 -70h-3
c-62.667 26.667 -118.834 84.334 -168.501 173.001s-74.5 197 -74.5 325v11z" />
    <glyph glyph-name="parenright" unicode=")" horiz-adv-x="347" 
d="M308 278c0 -124.667 -25.667 -232.333 -77 -323s-108.666 -149 -171.999 -175h-3l-26 70c42 32 77.667 83.667 107 155s44 162 44 272v13c0 109.333 -14.833 199.833 -44.5 271.5s-65.167 123.834 -106.5 156.501l26 69h3c63.333 -26 120.666 -84.333 171.999 -175
s77 -198.334 77 -323.001v-11z" />
    <glyph glyph-name="asterisk" unicode="*" horiz-adv-x="446" 
d="M164 472l-147 43l27 87l145 -60l-8 169h91l-9 -172l142 58l27 -88l-149 -43l97 -130l-73 -53l-86 141l-84 -137l-75 52z" />
    <glyph glyph-name="plus" unicode="+" horiz-adv-x="536" 
d="M336 396h175v-123h-175v-202h-135v202h-177v123h177v193h135v-193z" />
    <glyph glyph-name="comma" unicode="," horiz-adv-x="245" 
d="M195 19c0 -33.333 -9.33203 -68.5 -27.999 -105.5s-41.334 -67.5 -68.001 -91.5l-71 38c12.667 22.667 22.5 46.167 29.5 70.5s10.5 51.5 10.5 81.5v107h128z" />
    <glyph glyph-name="hyphen" unicode="-" horiz-adv-x="397" 
d="M339 249h-275v110h275v-110z" />
    <glyph glyph-name="period" unicode="." horiz-adv-x="254" 
d="M205 0h-142v125h142v-125z" />
    <glyph glyph-name="slash" unicode="/" horiz-adv-x="365" 
d="M94 -61h-105l261 772h105z" />
    <glyph glyph-name="zero" unicode="0" horiz-adv-x="571" 
d="M528 277c0 -94 -21.499 -165.333 -64.499 -214s-101.167 -73 -174.5 -73c-74 0 -132.833 24.333 -176.5 73s-65.5 120 -65.5 214v157c0 94 21.667 165.333 65 214s102 73 176 73c73.333 0 131.666 -24.5 174.999 -73.5s65 -120.167 65 -213.5v-157zM386.001 448
c0 56 -8.5 97.167 -25.5 123.5s-41.167 39.5 -72.5 39.5c-32 0 -56.5 -13 -73.5 -39s-25.5 -67.333 -25.5 -124v-185c0 -57.333 8.5 -99 25.5 -125s41.833 -39 74.5 -39c32 0 56.167 13 72.5 39s24.5 67.667 24.5 125v185z" />
    <glyph glyph-name="one" unicode="1" horiz-adv-x="441" 
d="M32 85l120 15l1 504l-104 -87v108l114 85l131 1v-611l120 -15v-85h-382v85z" />
    <glyph glyph-name="two" unicode="2" horiz-adv-x="552" 
d="M36 0l-0.00195312 93.002l230 247c33.333 38 56.833 70.167 70.5 96.5s20.5 50.5 20.5 72.5c0 30 -8 54.5 -24 73.5s-38.667 28.5 -68 28.5c-32.667 0 -57.667 -11.167 -75 -33.5s-26 -51.833 -26 -88.5h-139l-1 3c-1.33301 64 19.834 118.167 63.501 162.5
s102.834 66.5 177.501 66.5c73.333 0 130.833 -19 172.5 -57s62.5 -88.667 62.5 -152c0 -42.667 -11.667 -82.334 -35 -119.001s-62.333 -84.334 -117 -143.001l-127 -138l1 -3h185l6 71h108v-180h-485z" />
    <glyph glyph-name="three" unicode="3" horiz-adv-x="542" 
d="M186 416l80.001 0.00292969c34 0 59.167 8.83301 75.5 26.5s24.5 42.5 24.5 74.5c0 28.667 -8.16699 51.5 -24.5 68.5s-39.833 25.5 -70.5 25.5c-26.667 0 -49.167 -7.83301 -67.5 -23.5s-27.5 -36.167 -27.5 -61.5h-138l-1 3c-2 55.333 19.167 101.166 63.5 137.499
s99.833 54.5 166.5 54.5c73.333 0 131.833 -17.5 175.5 -52.5s65.5 -85.167 65.5 -150.5c0 -30.667 -9.66699 -60 -29 -88s-46.333 -49.667 -81 -65c39.333 -14 69.5 -35.5 90.5 -64.5s31.5 -62.833 31.5 -101.5c0 -65.333 -23.833 -116.5 -71.5 -153.5
s-108.167 -55.5 -181.5 -55.5c-66 0 -122.833 17.5 -170.5 52.5s-70.5 84.167 -68.5 147.5l1 3h138c0 -27.333 9.83301 -49.833 29.5 -67.5s44.5 -26.5 74.5 -26.5c32.667 0 58.5 9.16699 77.5 27.5s28.5 43.166 28.5 74.499c0 37.333 -9.33301 64.666 -28 81.999
s-46.334 26 -83.001 26h-80v107z" />
    <glyph glyph-name="four" unicode="4" horiz-adv-x="563" 
d="M457 265h80v-95h-80v-70l75 -15v-85h-294v85l76 15v70h-290l-6 70l295 471h144v-446zM151 265h163v256l-2 1l-12 -21z" />
    <glyph glyph-name="five" unicode="5" horiz-adv-x="533" 
d="M407 549l-12.001 47.998h-192l-20 -164c13.333 10 29.333 18 48 24s39 9.33301 61 10c68.667 0.666992 121.667 -20.166 159 -62.499s56 -101.166 56 -176.499c0 -68.667 -20.5 -125.5 -61.5 -170.5s-100.167 -67.5 -177.5 -67.5c-65.333 0 -121.333 17.833 -168 53.5
s-69 84.5 -67 146.5l1 3l136 7c0 -31.333 9 -56 27 -74s41.667 -27 71 -27c33.333 0 57.833 11.833 73.5 35.5s23.5 54.5 23.5 92.5c0 41.333 -8.5 74.333 -25.5 99s-42.167 37 -75.5 37c-27.333 0 -48.166 -5 -62.499 -15s-24.5 -23.667 -30.5 -41l-126 8l41 396h409v-162
h-88z" />
    <glyph glyph-name="six" unicode="6" horiz-adv-x="558" 
d="M330 721c26.667 0 51.334 -2.5 74.001 -7.5s45.334 -12.5 68.001 -22.5l-25 -104c-20.667 7.33301 -39.667 12.833 -57 16.5s-37 5.5 -59 5.5c-42 0 -76 -15.333 -102 -46s-39 -76.334 -39 -137.001l1 -2c16 16.667 36.333 29.667 61 39s52 14 82 14
c63.333 0 113.166 -22.5 149.499 -67.5s54.5 -102.5 54.5 -172.5c0 -71.333 -22.333 -130.333 -67 -177s-102.334 -70 -173.001 -70c-74.667 0 -135.667 25.5 -183 76.5s-71 121.5 -71 211.5v125c0 100.667 26.833 178.834 80.5 234.501s122.167 83.5 205.5 83.5zM297 369
c-26.667 0 -49.166 -4.16602 -67.499 -12.499s-32.5 -19.833 -42.5 -34.5v-48c0 -56 10.167 -99.167 30.5 -129.5s47.166 -45.5 80.499 -45.5c29.333 0 53 13.5 71 40.5s27 59.5 27 97.5c0 39.333 -9 71.166 -27 95.499s-42 36.5 -72 36.5z" />
    <glyph glyph-name="seven" unicode="7" horiz-adv-x="540" 
d="M526 601c-76 -89.333 -127.831 -172.499 -155.498 -249.499s-47.5 -170.167 -59.5 -279.5l-7 -72h-143l7 72c11.333 104.667 35.166 200.667 71.499 288s86.166 167.666 149.499 240.999h-250l-6 -70h-109v180h502v-110z" />
    <glyph glyph-name="eight" unicode="8" horiz-adv-x="544" 
d="M501 522c0 -35.333 -9.5 -66.665 -28.5 -93.998s-44.833 -48.666 -77.5 -63.999c38 -16 67.833 -38.833 89.5 -68.5s32.5 -63.5 32.5 -101.5c0 -66 -22.333 -116.5 -67 -151.5s-103 -52.5 -175 -52.5s-130.333 17.667 -175 53s-67 85.666 -67 150.999
c0 38.667 10.833 72.667 32.5 102s51.167 52 88.5 68c-33.333 15.333 -59.166 36.666 -77.499 63.999s-27.5 58.666 -27.5 93.999c0 63.333 20.667 112.333 62 147s95.666 52 162.999 52c68 0 122.833 -17.333 164.5 -52s62.5 -83.667 62.5 -147zM375 204.001
c0 32 -9.33398 57.668 -28.001 77.001s-43 29 -73 29c-29.333 0 -53.166 -9.66699 -71.499 -29s-27.5 -45 -27.5 -77c0 -32.667 9.16699 -58.334 27.5 -77.001s42.5 -28 72.5 -28c29.333 0 53.333 9.5 72 28.5s28 44.5 28 76.5zM357.999 516.002
c0 28.667 -7.5 51.667 -22.5 69s-35.5 26 -61.5 26s-46.167 -8.5 -60.5 -25.5s-21.5 -40.167 -21.5 -69.5s7.33301 -52.833 22 -70.5s35 -26.5 61 -26.5s46.333 8.83301 61 26.5s22 41.167 22 70.5z" />
    <glyph glyph-name="nine" unicode="9" horiz-adv-x="557" 
d="M245 99c38 0 68.668 14.668 92.001 44.001s35 73 35 131v11c-16 -20.667 -35 -36.334 -57 -47.001s-45.667 -16 -71 -16c-66.667 0 -118.834 21.833 -156.501 65.5s-56.5 103.5 -56.5 179.5c0 72 22.5 132.333 67.5 181s102.167 73 171.5 73
c72.667 0 131.5 -25 176.5 -75s67.5 -120 67.5 -210v-155c0 -92 -25.167 -163.5 -75.5 -214.5s-114.833 -76.5 -193.5 -76.5c-24.667 0 -50.167 2.5 -76.5 7.5s-50.5 12.5 -72.5 22.5l16 103c22 -8 43.167 -14 63.5 -18s43.5 -6 69.5 -6zM268.001 327.001
c24 0 44.667 4.5 62 13.5s31.333 20.833 42 35.5v76c0 52 -9.16699 91.5 -27.5 118.5s-42.833 40.5 -73.5 40.5c-28.667 0 -52.167 -14 -70.5 -42s-27.5 -62 -27.5 -102c0 -42.667 8.16699 -76.667 24.5 -102s39.833 -38 70.5 -38z" />
    <glyph glyph-name="colon" unicode=":" horiz-adv-x="222" 
d="M186 0h-142v125h142v-125zM186 403h-142v125h142v-125z" />
    <glyph glyph-name="semicolon" unicode=";" horiz-adv-x="221" 
d="M186 403h-142v125h142v-125zM180 19c0 -33.333 -9.33203 -68.5 -27.999 -105.5s-41.334 -67.5 -68.001 -91.5l-71 38c12.667 22.667 22.5 46.167 29.5 70.5s10.5 51.5 10.5 81.5v107h128z" />
    <glyph glyph-name="less" unicode="&#x3c;" horiz-adv-x="494" 
d="M167 269v-3l282 -99v-133l-421 179v111l421 178v-132z" />
    <glyph glyph-name="equal" unicode="=" horiz-adv-x="548" 
d="M498 373h-438v111h438v-111zM498 162h-438v112h438v-112z" />
    <glyph glyph-name="greater" unicode="&#x3e;" horiz-adv-x="503" 
d="M336 263v3l-285 101v131l425 -179v-111l-425 -179v132z" />
    <glyph glyph-name="question" unicode="?" horiz-adv-x="480" 
d="M159 202c0 45.333 6.66797 78.6641 20.001 99.9971s39.666 47 78.999 77c23.333 18.667 41.833 39 55.5 61s20.5 46.667 20.5 74c0 30 -7.83301 53.333 -23.5 70s-38.167 25 -67.5 25c-24 0 -44.333 -7.16699 -61 -21.5s-25.334 -35.166 -26.001 -62.499h-138l-1 3
c-0.666992 62.667 20 110.5 62 143.5s96.667 49.5 164 49.5c72.667 0 129.834 -18.5 171.501 -55.5s62.5 -87.167 62.5 -150.5c0 -41.333 -12.167 -79.5 -36.5 -114.5s-54.5 -64.5 -90.5 -88.5c-20 -15.333 -33.167 -30.666 -39.5 -45.999s-9.5 -36.666 -9.5 -63.999h-142z
M302.001 -0.00195312h-143v122h143v-122z" />
    <glyph glyph-name="at" unicode="@" horiz-adv-x="881" 
d="M845 250c-2.66699 -70.667 -23.3311 -131.665 -61.998 -182.998s-96.667 -77 -174 -77c-25.333 0 -47.333 7.16699 -66 21.5s-32 34.166 -40 59.499c-14 -26.667 -31.667 -46.667 -53 -60s-46.333 -20 -75 -20c-46 0 -81.333 19.333 -106 58s-33.667 90 -27 154
c8 82.667 31.333 149 70 199s85.667 75 141 75c38 0 68.333 -4.33301 91 -13s47.667 -21.667 75 -39l-1 -2h2l-25 -280c-2 -30.667 0.333008 -51.834 7 -63.501s16 -17.5 28 -17.5c37.333 0 67.333 17.833 90 53.5s35.334 80.5 38.001 134.5
c5.33301 115.333 -16.834 205.166 -66.501 269.499s-126.5 96.5 -230.5 96.5c-98.667 0 -177.5 -34.667 -236.5 -104s-90.833 -162.333 -95.5 -279c-6 -115.333 17.667 -206.333 71 -273s129.666 -100 228.999 -100c28 0 56.667 3.16699 86 9.5s54.666 14.5 75.999 24.5
l18 -72c-22 -14 -49.667 -24.667 -83 -32s-66.333 -11 -99 -11c-128.667 0 -228 40.5 -298 121.5s-102 191.833 -96 332.5c6 138.667 47.5 249.834 124.5 333.501s178.833 125.5 305.5 125.5c126 0 222.5 -39.5 289.5 -118.5s97.833 -186.833 92.5 -323.5zM352.003 203.002
c-3.33301 -41.333 -0.333008 -72.668 9 -94.001s24.333 -32 45 -32c18 0 34.5 4.33301 49.5 13s28.5 24.334 40.5 47.001v3v3l22 242c-7.33301 2 -15 3.83301 -23 5.5s-15.667 2.5 -23 2.5c-36 0 -63.5 -15.833 -82.5 -47.5s-31.5 -79.167 -37.5 -142.5z" />
    <glyph glyph-name="A" unicode="A" 
d="M20 85l51 8l216 618h146l215 -618l51 -8v-85h-242v85l49 9l-31 98h-231l-31 -98l49 -9v-85h-242v85zM278 297h163l-80 250h-3z" />
    <glyph glyph-name="B" unicode="B" horiz-adv-x="661" 
d="M343 711c83.333 0 148.499 -16.332 195.499 -48.999s70.5 -81.334 70.5 -146.001c0 -32.667 -8.66699 -62 -26 -88s-42.666 -45.333 -75.999 -58c42.667 -9.33301 74.667 -29 96 -59s32 -64.667 32 -104c0 -68 -22.5 -119.5 -67.5 -154.5s-108.5 -52.5 -190.5 -52.5h-350
v85l76 15v510l-76 15v86h76h240zM245.999 314.001v-205h131c38 0 66.833 8.33301 86.5 25s29.5 41 29.5 73c0 34.667 -8.5 61.167 -25.5 79.5s-43.5 27.5 -79.5 27.5h-142zM245.999 413.001l102 -0.000976562c38 0 67.333 7.83301 88 23.5s31 38.5 31 68.5
c0 32.667 -10.333 56.834 -31 72.501s-51.667 23.5 -93 23.5h-97v-188z" />
    <glyph glyph-name="C" unicode="C" horiz-adv-x="647" 
d="M610 471l-106.001 0.00195312l-15 95c-14 14 -31.667 25 -53 33s-46.333 12 -75 12c-62 0 -109.667 -22.333 -143 -67s-50 -103.334 -50 -176.001v-25c0 -72 16.667 -130.667 50 -176s80 -68 140 -68c28 0 53.667 4.16699 77 12.5s41.333 19.5 54 33.5l15 94h106v-140
c-28.667 -33.333 -65.167 -59.833 -109.5 -79.5s-94.166 -29.5 -149.499 -29.5c-95.333 0 -173.5 33 -234.5 99s-91.5 150.667 -91.5 254v24c0 103.333 30.333 188.166 91 254.499s139 99.5 235 99.5c55.333 0 105 -10 149 -30s80.667 -46.333 110 -79v-141z" />
    <glyph glyph-name="D" unicode="D" horiz-adv-x="688" 
d="M347 711c86.667 0 158.167 -27.832 214.5 -83.499s84.5 -126.834 84.5 -213.501v-118c0 -87.333 -28 -158.5 -84 -213.5s-127.667 -82.5 -215 -82.5h-320v85l76 15v510l-76 15v86h76h244zM246 601.001v-491.999h94c51.333 0 91.333 17.333 120 52s43 79.667 43 135v119
c0 55.333 -14.333 100.166 -43 134.499s-68.667 51.5 -120 51.5h-94z" />
    <glyph glyph-name="E" unicode="E" horiz-adv-x="638" 
d="M486 312h-240v-203h229l6 85h109v-194h-563v85l76 15v510l-76 15v86h76h486v-195h-110l-6 85h-227v-179h240v-110z" />
    <glyph glyph-name="F" unicode="F" horiz-adv-x="617" 
d="M27 85l76 15v510l-76 15v86h566v-195h-109l-6 85h-232v-196h249v-110h-249v-195l76 -15v-85h-295v85z" />
    <glyph glyph-name="G" unicode="G" horiz-adv-x="660" 
d="M617 79c-23.333 -22.667 -57.1719 -43.166 -101.505 -61.499s-100.166 -27.5 -167.499 -27.5c-96 0 -174.167 32.167 -234.5 96.5s-90.5 147.833 -90.5 250.5v24c0 106.667 29.667 193.334 89 260.001s137 100 233 100c55.333 0 106 -8.83301 152 -26.5
s84.333 -41.5 115 -71.5v-144h-105l-20 96c-13.333 11.333 -30.666 20.166 -51.999 26.499s-45.666 9.5 -72.999 9.5c-62 0 -110.333 -22.833 -145 -68.5s-52 -105.834 -52 -180.501v-25c0 -72 17 -129.667 51 -173s82.667 -65 146 -65c28.667 0 51.834 2.5 69.501 7.5
s31.834 10.833 42.501 17.5v120l-102 8v100h245v-273z" />
    <glyph glyph-name="H" unicode="H" horiz-adv-x="781" 
d="M27 625v86h295v-86l-76 -15v-205h290v205l-77 15v86h77h142h76v-86l-76 -15v-510l76 -15v-85h-295v85l77 15v195h-290v-195l76 -15v-85h-295v85l76 15v510z" />
    <glyph glyph-name="I" unicode="I" horiz-adv-x="348" 
d="M27 625v86h294v-86l-76 -15v-510l76 -15v-85h-294v85l76 15v510z" />
    <glyph glyph-name="J" unicode="J" horiz-adv-x="582" 
d="M569 711l-0.000976562 -86l-76 -15v-397c0 -68.667 -22.5 -123 -67.5 -163s-101.5 -60 -169.5 -60c-74 0 -132.667 18 -176 54s-64.333 89.333 -63 160l1 3h139c0 -37.333 8.83301 -64.666 26.5 -81.999s41.834 -26 72.501 -26c26.667 0 49.167 10.167 67.5 30.5
s27.5 48.166 27.5 83.499v397l-77 15v86h219h76z" />
    <glyph glyph-name="K" unicode="K" horiz-adv-x="714" 
d="M27 85l76 15v510l-76 15v86h291v-86l-72 -15v-190h62l136 199l-42 6v86h282v-86l-77 -13l-175 -234l196 -280l72 -13v-85h-282v85l44 6l-137 206h-79v-197l72 -15v-85h-291v85z" />
    <glyph glyph-name="L" unicode="L" horiz-adv-x="585" 
d="M27 0v85l76 15v510l-76 15v86h76h143h76v-86l-76 -15v-501h200l7 90h109v-199h-535z" />
    <glyph glyph-name="M" unicode="M" horiz-adv-x="941" 
d="M713 526h-3l-190 -526h-96l-189 524h-3l14 -312v-112l76 -15v-85h-295v85l76 15v510l-76 15v86h76h186l181 -524h3l183 524h262v-86l-76 -15v-510l76 -15v-85h-294v85l76 15v112z" />
    <glyph glyph-name="N" unicode="N" horiz-adv-x="772" 
d="M754 711v-86l-76 -15v-610h-142l-287 479l-3 -1v-378l76 -15v-85h-295v85l76 15v510l-76 15v86h76h143l287 -479l3 1v377l-77 15v86h219h76z" />
    <glyph glyph-name="O" unicode="O" horiz-adv-x="707" 
d="M677 350c0 -104 -29.668 -190 -89.001 -258s-137.333 -102 -234 -102c-96 0 -173.5 34 -232.5 102s-88.5 154 -88.5 258v11c0 103.333 29.333 189.166 88 257.499s136.334 102.5 233.001 102.5s174.667 -34.167 234 -102.5s89 -154.166 89 -257.499v-11zM534.999 362
c0 73.333 -15.333 133 -46 179s-75.667 69 -135 69c-60 0 -104.833 -22.833 -134.5 -68.5s-44.5 -105.5 -44.5 -179.5v-12c0 -74.667 15 -134.834 45 -180.501s74.667 -68.5 134 -68.5c60 0 105.167 22.833 135.5 68.5s45.5 105.834 45.5 180.501v12z" />
    <glyph glyph-name="P" unicode="P" horiz-adv-x="646" 
d="M366 711c81.333 0 145.5 -21 192.5 -63s70.5 -96.667 70.5 -164c0 -68 -23.5 -122.667 -70.5 -164s-111.167 -62 -192.5 -62h-120v-158l76 -15v-85h-295v85l76 15v510l-76 15v86h76h263zM246 368h119.999c40 0 70 10.833 90 32.5s30 49.167 30 82.5
c0 34 -10.167 62.167 -30.5 84.5s-50.166 33.5 -89.499 33.5h-120v-233z" />
    <glyph glyph-name="Q" unicode="Q" horiz-adv-x="707" 
d="M677 350c0 -62 -11.168 -118.499 -33.501 -169.499s-53.5 -92.5 -93.5 -124.5l152 -95l-101 -77l-170 115c-12.667 -2.66699 -25.5 -4.83398 -38.5 -6.50098s-25.833 -2.5 -38.5 -2.5c-96 0 -173.5 34 -232.5 102s-88.5 154 -88.5 258v11
c0 103.333 29.333 189.166 88 257.499s136.334 102.5 233.001 102.5s174.667 -34.167 234 -102.5s89 -154.166 89 -257.499v-11zM534.999 362.001c0 73.333 -15.333 133 -46 179s-75.667 69 -135 69c-60 0 -104.833 -22.833 -134.5 -68.5s-44.5 -105.5 -44.5 -179.5v-12
c0 -74.667 15 -134.834 45 -180.501s74.667 -68.5 134 -68.5c60 0 105.167 22.833 135.5 68.5s45.5 105.834 45.5 180.501v12z" />
    <glyph glyph-name="R" unicode="R" horiz-adv-x="687" 
d="M468 135l-0.000976562 40.002c0 34.667 -9.33301 62 -28 82c-19.333 20.667 -45.333 31 -78 31h-116v-188l76 -15v-85h-295v85l76 15v510l-76 15v86h76h244c80.667 0 143.834 -18.5 189.501 -55.5s68.5 -88.167 68.5 -153.5c0 -36 -9.5 -67 -28.5 -93
s-47.167 -47.333 -84.5 -64c42 -12.667 72.167 -33.334 90.5 -62.001s27.5 -64.334 27.5 -107.001v-36v-41l61 -24v-75h-61h-144zM245.999 397.002h98c40 0 69.833 8.5 89.5 25.5s29.5 41.5 29.5 73.5s-9.83301 57.5 -29.5 76.5s-48.5 28.5 -86.5 28.5h-101v-204z" />
    <glyph glyph-name="S" unicode="S" horiz-adv-x="606" 
d="M567 484l-107.001 -0.000976562l-18 98c-12.667 8 -30.834 14.833 -54.501 20.5s-48.834 8.5 -75.501 8.5c-39.333 0 -69.666 -8.16699 -90.999 -24.5s-32 -37.833 -32 -64.5c0 -24 11.167 -43.667 33.5 -59s60.833 -31.666 115.5 -48.999
c78.667 -22 138.334 -50.833 179.001 -86.5s61 -82.5 61 -140.5c0 -60.667 -24.167 -108.667 -72.5 -144s-111.833 -53 -190.5 -53c-56 0 -106.833 8.83301 -152.5 26.5s-83.5 42.5 -113.5 74.5v148h110l15 -101c14 -12 33.5 -21.667 58.5 -29s52.5 -11 82.5 -11
c39.333 0 69.166 8 89.499 24s30.5 37.333 30.5 64c0 27.333 -9.83301 49.166 -29.5 65.499s-53.5 31.833 -101.5 46.5c-84 24.667 -147.833 53.834 -191.5 87.501s-65.5 79.5 -65.5 137.5c0 57.333 24.5 104.333 73.5 141s110.5 55.667 184.5 57
c54.667 0 104.334 -8.33301 149.001 -25s82.334 -39 113.001 -67v-145z" />
    <glyph glyph-name="T" unicode="T" horiz-adv-x="672" 
d="M653 711v-190h-109l-6 80h-131v-501l76 -15v-85h-295v85l77 15v501h-131l-6 -80h-108v190h633z" />
    <glyph glyph-name="U" unicode="U" horiz-adv-x="755" 
d="M313 711v-85.999l-76 -15v-371c0 -46.667 12.667 -81.667 38 -105s60 -35 104 -35c44.667 0 79.667 11.5 105 34.5s38 58.167 38 105.5v371l-76 15v86h295v-86l-76 -15v-371c0 -80 -26.333 -141.5 -79 -184.5s-121.667 -64.5 -207 -64.5
c-84.667 0 -153.167 21.667 -205.5 65s-78.5 104.666 -78.5 183.999v371l-76 15v86h76h142h76z" />
    <glyph glyph-name="V" unicode="V" horiz-adv-x="716" 
d="M276 625l-54 -10l126 -426l9 -39h3l8 38l127 427l-54 10v86h260v-86l-60 -8l-209 -617h-147l-210 617l-58 8v86h259v-86z" />
    <glyph glyph-name="W" unicode="W" horiz-adv-x="962" 
d="M948 625l-58 -7l-144 -618h-133l-130 469h-3l-130 -469h-133l-145 618l-58 7v86h262v-86l-65 -11l81 -390h3l134 487h105l134 -487h3l81 390l-65 11v86h261v-86z" />
    <glyph glyph-name="X" unicode="X" horiz-adv-x="702" 
d="M16 85l60 12l188 261l-183 255l-60 12v86h273v-86l-58 -6l110 -175l111 175l-58 6v86h274v-86l-59 -12l-183 -255l192 -260l63 -13v-85h-280v85l56 6l-114 180l-115 -180l58 -6v-85h-275v85z" />
    <glyph glyph-name="Y" unicode="Y" horiz-adv-x="682" 
d="M287 625l-58 -8l110 -234h3l110 234l-57 8v86h269v-86l-61 -10l-193 -365v-150l76 -15v-85h-295v85l77 15v157l-190 358l-60 10v86h269v-86z" />
    <glyph glyph-name="Z" unicode="Z" horiz-adv-x="598" 
d="M558 711v-71l-348 -531h248l11 86h109l-11 -195h-531v74l347 527h-226l-11 -86h-109l10 196h511z" />
    <glyph glyph-name="bracketleft" unicode="[" horiz-adv-x="282" 
d="M279 720h-69v-779h69v-105h-211v990h211v-106z" />
    <glyph glyph-name="backslash" unicode="\" horiz-adv-x="416" 
d="M6 711h140l297 -772h-140z" />
    <glyph glyph-name="bracketright" unicode="]" horiz-adv-x="277" 
d="M5 826h212v-990h-212v105h70v779h-70v106z" />
    <glyph glyph-name="asciicircum" unicode="^" horiz-adv-x="431" 
d="M135 356h-113l146 355h103l146 -355h-112l-81 202l-4 16h-3l-3 -16z" />
    <glyph glyph-name="underscore" unicode="_" horiz-adv-x="534" 
d="M489 -91h-444v91h444v-91z" />
    <glyph glyph-name="grave" unicode="`" horiz-adv-x="303" 
d="M279 592h-115l-133 127l1 3h152z" />
    <glyph glyph-name="a" unicode="a" horiz-adv-x="549" 
d="M367 0c-4 8.66699 -7.33301 17.668 -10 27.001s-5 18.666 -7 27.999c-16.667 -19.333 -37.167 -35 -61.5 -47s-52.166 -18 -83.499 -18c-52 0 -93.167 14 -123.5 42s-45.5 66.333 -45.5 115c0 49.333 19.833 87.5 59.5 114.5s98.167 40.5 175.5 40.5h72v52
c0 25.333 -7.33301 45 -22 59s-36.334 21 -65.001 21c-16 0 -30.333 -1.83301 -43 -5.5s-23 -8.16699 -31 -13.5l-9 -57h-108l1 118c26 17.333 55.833 32 89.5 44s70.5 18 110.5 18c65.333 0 118.333 -16 159 -48s61 -77.667 61 -137v-218c0 -8 0.166992 -15.667 0.5 -23
s0.833008 -14.333 1.5 -21l44 -6v-85h-165zM244 95.001c21.333 0 40.832 4.66699 58.499 14s31.167 21 40.5 35v81h-72c-30 0 -53 -7.16699 -69 -21.5s-24 -31.5 -24 -51.5c0 -18 5.83301 -32 17.5 -42s27.834 -15 48.501 -15z" />
    <glyph glyph-name="b" unicode="b" horiz-adv-x="576" 
d="M542 250c0 -78.667 -17.6631 -141.667 -52.9961 -189s-86.333 -71 -153 -71c-30.667 0 -57.334 6.33301 -80.001 19s-42 31.334 -58 56.001l-10 -65h-123v661l-76 15v86h218v-290c15.333 21.333 33.666 37.666 54.999 48.999s45.666 17 72.999 17
c67.333 0 118.666 -25.333 153.999 -76s53 -118 53 -202v-10zM399.004 260c0 51.333 -7.50195 92 -22.502 122s-40.833 45 -77.5 45c-22 0 -40.667 -4.66699 -56 -14s-27.333 -22.333 -36 -39v-224c8.66699 -16 20.834 -28.167 36.501 -36.5s34.5 -12.5 56.5 -12.5
c36.667 0 62.334 12.833 77.001 38.5s22 62.5 22 110.5v10z" />
    <glyph glyph-name="c" unicode="c" horiz-adv-x="526" 
d="M279 99c25.333 0 45.6641 7.5 60.9971 22.5s23 34.833 23 59.5h129l1 -3c1.33301 -53.333 -18.667 -98 -60 -134s-92.666 -54 -153.999 -54c-78.667 0 -139.334 24.833 -182.001 74.5s-64 113.5 -64 191.5v15c0 78 21.833 142 65.5 192s106.167 75 187.5 75
c42.667 0 80.834 -6.33301 114.501 -19s61.834 -30.667 84.501 -54l2 -141h-116l-23 83c-7.33301 6 -16.166 11 -26.499 15s-22.166 6 -35.499 6c-40.667 0 -69.334 -14.667 -86.001 -44s-25 -67 -25 -113v-15c0 -47.333 7.66699 -85.333 23 -114s42.333 -43 81 -43z" />
    <glyph glyph-name="d" unicode="d" horiz-adv-x="591" 
d="M375 64c-16.667 -24.667 -36.333 -43.166 -59 -55.499s-48.667 -18.5 -78 -18.5c-65.333 0 -115.833 23.667 -151.5 71s-53.5 110.333 -53.5 189v10c0 83.333 18 150.5 54 201.5s86.667 76.5 152 76.5c26.667 0 50.5 -5.83301 71.5 -17.5s39.5 -27.834 55.5 -48.501v189
l-76 15v86h76h143v-662l68 -15v-85h-192zM175.001 250.001c0 -46 7.83105 -82.333 23.498 -109s40.834 -40 75.501 -40c20.667 0 38.834 4.16699 54.501 12.5s28.167 20.5 37.5 36.5v224c-10 16.667 -22.5 29.667 -37.5 39s-32.833 14 -53.5 14
c-34.667 0 -60 -15.5 -76 -46.5s-24 -71.167 -24 -120.5v-10z" />
    <glyph glyph-name="e" unicode="e" horiz-adv-x="532" 
d="M284 -10c-76 0 -136.833 24.333 -182.5 73s-68.5 110.667 -68.5 186v20c0 78.667 21.5 143.334 64.5 194.001s100.833 75.667 173.5 75c71.333 0 126.666 -21.5 165.999 -64.5s59 -101.167 59 -174.5v-77h-315l-1 -3c2.66699 -34.667 14.334 -63.334 35.001 -86.001
s48.667 -34 84 -34c31.333 0 57.5 3.16699 78.5 9.5s43.833 16.5 68.5 30.5l38 -88c-22 -17.333 -50.167 -31.833 -84.5 -43.5s-72.833 -17.5 -115.5 -17.5zM271 428c-26.667 0 -47.5 -10 -62.5 -30s-24.5 -46.667 -28.5 -80l2 -2h174v13c0 30 -7 54 -21 72
s-35.333 27 -64 27z" />
    <glyph glyph-name="f" unicode="f" horiz-adv-x="372" 
d="M39 85l68.001 15v328h-78v100h78v59c0 59.333 17.167 105 51.5 137s82.5 48 144.5 48c12 0 24.167 -0.833008 36.5 -2.5s26.166 -4.16699 41.499 -7.5l-12 -106c-8 1.33301 -15.667 2.5 -23 3.5s-16 1.5 -26 1.5c-23.333 0 -40.833 -6.33301 -52.5 -19
s-17.5 -31 -17.5 -55v-59h105v-100h-105v-328l69 -15v-85h-280v85z" />
    <glyph glyph-name="g" unicode="g" horiz-adv-x="571" 
d="M40 260c0 83.333 17.998 150.5 53.998 201.5s87 76.5 153 76.5c29.333 0 55.166 -6.5 77.499 -19.5s41.5 -31.833 57.5 -56.5l11 66h124v-512c0 -69.333 -22 -124.833 -66 -166.5s-104 -62.5 -180 -62.5c-26.667 0 -55 3.66699 -85 11s-57.667 17.333 -83 30l26 100
c22.667 -10 45.334 -17.833 68.001 -23.5s47 -8.5 73 -8.5c34.667 0 60.667 10.5 78 31.5s26 50.5 26 88.5v35c-15.333 -20 -33.666 -35.167 -54.999 -45.5s-45.666 -15.5 -72.999 -15.5c-64.667 0 -115.167 23.833 -151.5 71.5s-54.5 110.5 -54.5 188.5v10zM181.998 250
c0 -46 7.83203 -82.333 23.499 -109s41.167 -40 76.5 -40c22 0 40.5 4 55.5 12s27.167 19.333 36.5 34v230c-9.33301 16 -21.666 28.333 -36.999 37s-33.333 13 -54 13c-34.667 0 -60.167 -15.5 -76.5 -46.5s-24.5 -71.167 -24.5 -120.5v-10z" />
    <glyph glyph-name="h" unicode="h" horiz-adv-x="635" 
d="M23 85l69.002 15.001v561l-76 15v86h218v-301c16.667 24.667 37 43.667 61 57s50.667 20 80 20c55.333 0 98.666 -18.333 129.999 -55s47 -93.334 47 -170.001v-213l69 -15v-85h-273v85l62 15v214c0 41.333 -7.33301 70.5 -22 87.5s-36.334 25.5 -65.001 25.5
c-20 0 -37.333 -3.5 -52 -10.5s-27 -17.167 -37 -30.5v-286l61 -15v-85h-272v85z" />
    <glyph glyph-name="i" unicode="i" horiz-adv-x="322" 
d="M26 85l69 15v328l-76 14v86h219v-428l68 -15v-85h-280v85zM238 655h-143v107h143v-107z" />
    <glyph glyph-name="j" unicode="j" horiz-adv-x="292" 
d="M240 -20c0 -62 -16.3311 -109.667 -48.998 -143s-78.334 -50 -137.001 -50c-13.333 0 -25.5 0.666992 -36.5 2s-22.167 3.33301 -33.5 6l7 109c7.33301 -2 14.666 -3.5 21.999 -4.5s15.333 -1.5 24 -1.5c19.333 0 34.333 6.66699 45 20s16 34 16 62v448l-77 14v86h219
v-548zM237.002 656h-142v106h142v-106z" />
    <glyph glyph-name="k" unicode="k" horiz-adv-x="609" 
d="M16 676v86h218v-442h32l82 116l-47 6v86h260v-86l-62 -14l-96 -131l134 -200l54 -12v-85h-244v85l29 5l-81 131h-61v-121l61 -15v-85h-272v85l69 15v561z" />
    <glyph glyph-name="l" unicode="l" horiz-adv-x="318" 
d="M16 676v86h218v-601c0.666992 -20 8 -37.333 22 -52c13.333 -14 29 -22 47 -24v-85h-79c-20 1.33301 -39 7 -57 17s-33 23 -45 39c-20 26 -30 55.333 -30 88v12v505z" />
    <glyph glyph-name="m" unicode="m" horiz-adv-x="930" 
d="M14 442l-0.000976562 85.999h209l6 -70c16.667 25.333 37.834 45 63.501 59s55.167 21 88.5 21c34 0 63 -7.5 87 -22.5s42 -37.5 54 -67.5c16 28 37.167 50 63.5 66s57.166 24 92.499 24c52 0 93 -18 123 -54s45 -90.667 45 -164v-220l69 -15v-85h-273v85l62 15v220
c0 40 -6.5 67.833 -19.5 83.5s-32.5 23.5 -58.5 23.5c-20 0 -37.5 -4.5 -52.5 -13.5s-26.833 -21.5 -35.5 -37.5c0 -6 0.166992 -11.167 0.5 -15.5s0.5 -8.83301 0.5 -13.5v-247l58 -15v-85h-258v85l58 15v220c0 39.333 -6.5 67 -19.5 83s-32.5 24 -58.5 24
c-19.333 0 -36.166 -3.66699 -50.499 -11s-26.5 -17.666 -36.5 -30.999v-285l62 -15v-85h-273v85l69 15v328z" />
    <glyph glyph-name="n" unicode="n" horiz-adv-x="634" 
d="M23 85l67.999 15v328l-75 14v86h208l6 -75c17.333 27.333 39 48.333 65 63s55 22 87 22c53.333 0 95 -16.667 125 -50s45 -86 45 -158v-230l68 -15v-85h-272v85l61 15v230c0 35.333 -7.16699 60.333 -21.5 75s-36.166 22 -65.499 22
c-18.667 0 -35.5 -3.83301 -50.5 -11.5s-27.5 -18.5 -37.5 -32.5v-283l58 -15v-85h-269v85z" />
    <glyph glyph-name="o" unicode="o" horiz-adv-x="560" 
d="M31 269c0 78.667 22 143.167 66 193.5s105 75.5 183 75.5s139 -25 183 -75s66 -114.667 66 -194v-10c0 -79.333 -22 -144 -66 -194s-104.667 -75 -182 -75c-78.667 0 -140 25 -184 75s-66 114.667 -66 194v10zM173 259c0 -48 8.5 -86.667 25.5 -116s44.5 -44 82.5 -44
c36.667 0 63.5 14.667 80.5 44s25.5 68 25.5 116v10c0 46.667 -8.66699 84.834 -26 114.501s-44.333 44.5 -81 44.5c-37.333 0 -64.5 -14.833 -81.5 -44.5s-25.5 -67.834 -25.5 -114.501v-10z" />
    <glyph glyph-name="p" unicode="p" horiz-adv-x="605" 
d="M20 442v86.001h207l7 -61c15.333 22.667 34 40.167 56 52.5s47.333 18.5 76 18.5c65.333 0 116.166 -25.5 152.499 -76.5s54.5 -118.167 54.5 -201.5v-10c0 -78 -18.167 -140.833 -54.5 -188.5s-86.833 -71.5 -151.5 -71.5c-28 0 -52.667 5.16699 -74 15.5
s-39.666 25.166 -54.999 44.499v-153l69 -14v-86h-280v86l69 14v531zM430 260.001c0 50 -8.33398 90.334 -25.001 121.001s-42 46 -76 46c-21.333 0 -39.666 -4.33301 -54.999 -13s-27.333 -21.334 -36 -38.001v-231c8.66699 -14.667 20.667 -26 36 -34s34 -12 56 -12
c34.667 0 60 13.5 76 40.5s24 63.833 24 110.5v10z" />
    <glyph glyph-name="q" unicode="q" horiz-adv-x="563" 
d="M33 260c0 83.333 17.999 150.5 53.999 201.5s86.667 76.5 152 76.5c28.667 0 54.167 -6.33301 76.5 -19s41.5 -30.667 57.5 -54l11 63h123v-631l69 -14v-86h-280v86l69 14v152c-15.333 -19.333 -33.666 -34 -54.999 -44s-45.333 -15 -72 -15
c-65.333 0 -115.833 23.667 -151.5 71s-53.5 110.333 -53.5 189v10zM174.999 250c0 -46.667 7.83301 -83.5 23.5 -110.5s40.834 -40.5 75.501 -40.5c20.667 0 38.667 3.83301 54 11.5s27.666 19.167 36.999 34.5v234c-9.33301 15.333 -21.5 27.333 -36.5 36
s-32.833 13 -53.5 13c-34.667 0 -60 -15.5 -76 -46.5s-24 -71.5 -24 -121.5v-10z" />
    <glyph glyph-name="r" unicode="r" horiz-adv-x="420" 
d="M42 85l68.0029 15.001v328l-76 14v86h209l6 -77c12.667 27.333 28.667 48.666 48 63.999s42 23 68 23c7.33301 0 15.166 -0.5 23.499 -1.5s15.166 -2.5 20.499 -4.5l-15 -130l-59 2c-20.667 0 -37.834 -4.16699 -51.501 -12.5s-24.167 -19.833 -31.5 -34.5v-257l69 -15
v-85h-279v85z" />
    <glyph glyph-name="s" unicode="s" horiz-adv-x="514" 
d="M462 347l-95.998 -0.000976562l-15 66c-10 8 -22.333 14.5 -37 19.5s-31 7.5 -49 7.5c-25.333 0 -45.166 -5.66699 -59.499 -17s-21.5 -25.333 -21.5 -42c0 -16 7 -29.333 21 -40s42 -20 84 -28c65.333 -13.333 113.666 -32.5 144.999 -57.5s47 -59.833 47 -104.5
c0 -47.333 -20.333 -86 -61 -116s-94.334 -45 -161.001 -45c-40.667 0 -78 5.83301 -112 17.5s-64.333 28.834 -91 51.501l-1 118h99l20 -69c8.66699 -7.33301 20.167 -12.666 34.5 -15.999s29.5 -5 45.5 -5c28.667 0 50.667 5.33301 66 16s23 25 23 43
c0 15.333 -7.66699 28.666 -23 39.999s-43.333 21.333 -84 30c-62 12.667 -109 31.5 -141 56.5s-48 59.167 -48 102.5c0 44 18.333 82 55 114s88.667 48 156 48c41.333 0 80.166 -5.5 116.499 -16.5s64.833 -25.167 85.5 -42.5z" />
    <glyph glyph-name="t" unicode="t" horiz-adv-x="373" 
d="M241 658v-129.999h93v-100h-93v-269c0 -20.667 4.33301 -35.334 13 -44.001s20 -13 34 -13c10 0 18.667 0.333008 26 1s15.333 2 24 4l13 -103c-16 -4.66699 -31.833 -8.16699 -47.5 -10.5s-32.834 -3.5 -51.501 -3.5c-49.333 0 -87.166 13.5 -113.499 40.5
s-39.5 69.833 -39.5 128.5v269h-78v100h78v130h142z" />
    <glyph glyph-name="u" unicode="u" horiz-adv-x="624" 
d="M400 67c-16.667 -24.667 -37.5 -43.667 -62.5 -57s-53.5 -20 -85.5 -20c-55.333 0 -98.833 17.833 -130.5 53.5s-47.5 90.834 -47.5 165.501v219l-58 14v86h58h143v-320c0 -38.667 6.33301 -66.167 19 -82.5s31.667 -24.5 57 -24.5c22.667 0 42.167 3.66699 58.5 11
s29.833 17.666 40.5 30.999v285l-62 14v86h62h143v-428l64 -15v-85h-189z" />
    <glyph glyph-name="v" unicode="v" horiz-adv-x="569" 
d="M255 442l-50 -9l70 -236l9 -50h3l10 50l69 236l-51 9v86h240v-86l-46 -7l-155 -435h-137l-156 435l-46 7v86h240v-86z" />
    <glyph glyph-name="w" unicode="w" horiz-adv-x="801" 
d="M784 442l-54 -6l-110 -436h-119l-98 314h-3l-98 -314h-119l-111 436l-53 6v86h239v-86l-56 -10l50 -242h3l99 338h95l100 -339h3l49 242l-57 11v86h240v-86z" />
    <glyph glyph-name="x" unicode="x" horiz-adv-x="581" 
d="M16 85l49 8l143 174l-138 167l-49 8v86h237v-82l-48 -6l80 -102l79 102l-50 6v82h239v-86l-48 -8l-135 -167l143 -174l49 -8v-85h-241v82l48 6l-82 106l-84 -107l43 -5v-82h-235v85z" />
    <glyph glyph-name="y" unicode="y" horiz-adv-x="591" 
d="M578 442l-50.001 -7.00098l-194 -514c-15.333 -38 -35.833 -69.833 -61.5 -95.5s-64.167 -38.5 -115.5 -38.5c-12 0 -23.333 0.833008 -34 2.5s-23 4.5 -37 8.5l17 104l14 -2c4.66699 -0.666992 8.66699 -1 12 -1c24 0 42.333 5.83301 55 17.5
s22.334 25.834 29.001 42.501l16 41l-167 435l-49 7v86h258v-86l-59 -9l73 -211l7 -38l3 -1l83 250l-59 9v86h259v-86z" />
    <glyph glyph-name="z" unicode="z" horiz-adv-x="522" 
d="M220 109h147l6 71h109v-180h-439v84l251 334h-129l-5 -70h-110v180h423v-81z" />
    <glyph glyph-name="braceleft" unicode="{" horiz-adv-x="319" 
d="M282 -176c-63.333 18 -108.498 46.502 -135.498 85.502s-40.5 86.5 -40.5 142.5v99c0 32 -7.16699 57 -21.5 75s-36.166 27 -65.499 27v98c29.333 0 51.166 8.83301 65.499 26.5s21.5 43.167 21.5 76.5v99c0 55.333 13.5 102.5 40.5 141.5s72.167 67.5 135.5 85.5l27 -77
c-28 -10 -47.667 -28 -59 -54s-17 -58 -17 -96v-99c0 -34 -7.33301 -64.167 -22 -90.5s-36.334 -46.833 -65.001 -61.5c29.333 -15.333 51.166 -36 65.499 -62s21.5 -55.667 21.5 -89v-99c0 -38.667 5.66699 -70.834 17 -96.501s31 -43.834 59 -54.501z" />
    <glyph glyph-name="bar" unicode="|" horiz-adv-x="208" 
d="M150 -132h-86v843h86v-843z" />
    <glyph glyph-name="braceright" unicode="}" horiz-adv-x="317" 
d="M5 -99c27.333 10 46.832 27.998 58.499 53.998s17.5 58.333 17.5 97v99c0 34 7.33301 64 22 90s37.334 46.333 68.001 61c-30.667 14.667 -53.334 35 -68.001 61s-22 56.333 -22 91v99c0 38.667 -5.83301 70.834 -17.5 96.501s-31.167 43.5 -58.5 53.5l28 77
c63.333 -18 108.333 -46.5 135 -85.5s40 -86.167 40 -141.5v-99c0 -32.667 7 -58 21 -76s36 -27 66 -27v-98c-29.333 0 -51.166 -9 -65.499 -27s-21.5 -43 -21.5 -75v-99c0 -55.333 -13.5 -102.666 -40.5 -141.999s-71.833 -68 -134.5 -86z" />
    <glyph glyph-name="asciitilde" unicode="~" horiz-adv-x="645" 
d="M593 370c0 -52.667 -14.499 -96.667 -43.499 -132s-65.5 -53 -109.5 -53c-28 0 -53.5 5 -76.5 15s-47.167 26.667 -72.5 50c-16 14 -30.333 24.333 -43 31s-26 10 -40 10c-16.667 0 -31 -8.33301 -43 -25s-18 -36.667 -18 -60l-98 13c0 52.667 14 96.5 42 131.5
s64.333 52.5 109 52.5c27.333 0 53.166 -5.5 77.499 -16.5s48.833 -27.167 73.5 -48.5c16 -14.667 30.167 -25.167 42.5 -31.5s25.5 -9.5 39.5 -9.5c16.667 0 31 8.5 43 25.5s18 37.167 18 60.5z" />
    <glyph glyph-name="nonbreakingspace" unicode="&#xa0;" horiz-adv-x="245" 
 />
    <glyph glyph-name="exclamdown" unicode="&#xa1;" horiz-adv-x="255" 
d="M207 -183h-144v466h144v-466zM207 403h-144v125h144v-125z" />
    <glyph glyph-name="cent" unicode="&#xa2;" horiz-adv-x="533" 
d="M285 99c25.333 0 45.6631 7.50195 60.9961 22.502s23 34.833 23 59.5h130l1 -3c0.666992 -46.667 -15.333 -87.334 -48 -122.001s-74.667 -55.667 -126 -63v-113h-98v115c-61.333 12 -108.166 41.667 -140.499 89s-48.5 104.666 -48.5 171.999v15
c0 66 16.333 122.667 49 170s79.334 77.666 140.001 90.999v112h98v-107c34.667 -3.33301 66 -11.166 94 -23.499s51.667 -28.5 71 -48.5l2 -141h-116l-23 83c-7.33301 6 -16.166 11 -26.499 15s-22.166 6 -35.499 6c-40.667 0 -69.167 -14.667 -85.5 -44
s-24.5 -67 -24.5 -113v-15c0 -47.333 7.5 -85.333 22.5 -114s41.833 -43 80.5 -43z" />
    <glyph glyph-name="sterling" unicode="&#xa3;" horiz-adv-x="574" 
d="M251 287l1.99902 -41c0 -25.333 -4.83301 -49.833 -14.5 -73.5s-23.5 -44.834 -41.5 -63.501h234l6 71h108v-180h-486v109h4c15.333 4 26.833 19.5 34.5 46.5s11.5 54.833 11.5 83.5l-2 48h-79v110h76l-4 104c0 68.667 19.5 122.5 58.5 161.5s91.5 58.5 157.5 58.5
c70 0 124.333 -18.167 163 -54.5s57.334 -84.166 56.001 -143.499l-1 -3h-139c0 31.333 -7.5 54.333 -22.5 69s-34.167 22 -57.5 22s-41.333 -9.5 -54 -28.5s-19 -46.167 -19 -81.5l5 -104h173v-110h-169z" />
    <glyph glyph-name="currency" unicode="&#xa4;" horiz-adv-x="699" 
d="M524 52c-25.333 -20 -53.002 -35.3311 -83.002 -45.998s-61 -16 -93 -16c-32.667 0 -64.167 5.33301 -94.5 16s-57.5 26 -81.5 46l-63 -65l-69 71l66 67c-16 24.667 -28.167 51.5 -36.5 80.5s-12.5 59.5 -12.5 91.5c0 32.667 4.5 64.167 13.5 94.5
s22.167 58.166 39.5 83.499l-70 72l69 70l69 -71c24 18 50.333 32 79 42s59 15 91 15c31.333 0 61.333 -5 90 -15s55.334 -24.333 80.001 -43l71 73l69 -71l-72 -74c16.667 -25.333 29.5 -52.833 38.5 -82.5s13.5 -60.834 13.5 -93.501
c0 -31.333 -4.16699 -61.5 -12.5 -90.5s-20.166 -55.833 -35.499 -80.5l68 -68l-69 -71zM146.998 297.002c0 -60 19.499 -110.667 58.499 -152s86.5 -62 142.5 -62c55.333 0 102.333 20.667 141 62s58 92 58 152c0 59.333 -19.333 109.666 -58 150.999s-85.667 62 -141 62
s-102.666 -20.667 -141.999 -62s-59 -91.666 -59 -150.999z" />
    <glyph glyph-name="yen" unicode="&#xa5;" horiz-adv-x="684" 
d="M668 625l-81 -11l-134 -252h119v-80h-158v-61h158v-80h-158v-41l68 -15v-85h-287v85l76 15v41h-166v80h166v61h-166v80h131l-135 252l-81 11v86h262v-86l-33 -6l94 -204h3l94 204l-33 6v86h261v-86z" />
    <glyph glyph-name="brokenbar" unicode="&#xa6;" horiz-adv-x="250" 
d="M65 -132v388h128v-388h-128zM193 341h-128v370h128v-370z" />
    <glyph glyph-name="section" unicode="&#xa7;" horiz-adv-x="606" 
d="M572 232c0 -29.333 -6.83398 -55.168 -20.501 -77.501s-33.167 -40.5 -58.5 -54.5c22 -16.667 38.667 -36.5 50 -59.5s17 -50.167 17 -81.5c0 -57.333 -23 -102.333 -69 -135s-107.333 -49 -184 -49c-75.333 0 -138.333 16.167 -189 48.5s-75.334 84.166 -74.001 155.499
l1 2l138 1c0 -34.667 11.833 -59.5 35.5 -74.5s53.167 -22.5 88.5 -22.5c34.667 0 61.667 6.83301 81 20.5s29 31.167 29 52.5c0 22 -9.83301 39.667 -29.5 53s-57.167 28 -112.5 44c-80 20.667 -138.833 46.334 -176.5 77.001s-56.5 74 -56.5 130
c0 28.667 6.83301 54.167 20.5 76.5s33.5 40.833 59.5 55.5c-22.667 16 -39.667 35.5 -51 58.5s-17 50.5 -17 82.5c0 56 23 101 69 135s107.667 51 185 51c79.333 0 141.333 -18 186 -54s66.334 -86.667 65.001 -152l-1 -3h-138c0 28.667 -9.83301 52.334 -29.5 71.001
s-47.167 28 -82.5 28c-37.333 0 -65.166 -7 -83.499 -21s-27.5 -32 -27.5 -54c0 -24.667 9 -43.167 27 -55.5s55.667 -26.5 113 -42.5c80.667 -20.667 140 -46.167 178 -76.5s57 -73.5 57 -129.5zM288.999 323.998c-13.333 3.33301 -25.498 6.66602 -36.498 9.99902
s-21.5 7 -31.5 11c-12.667 -7.33301 -22 -17 -28 -29s-9 -26 -9 -42c0 -26.667 9 -46.5 27 -59.5s55.667 -28.167 113 -45.5c11.333 -3.33301 22.666 -6.5 33.999 -9.5s22.666 -6.5 33.999 -10.5c12.667 7.33301 22.5 17 29.5 29s10.5 26 10.5 42
c0 23.333 -10 42.333 -30 57s-57.667 30.334 -113 47.001z" />
    <glyph glyph-name="dieresis" unicode="&#xa8;" horiz-adv-x="503" 
d="M445 611h-131v100h131v-100zM201 611h-131v100h131v-100z" />
    <glyph glyph-name="copyright" unicode="&#xa9;" horiz-adv-x="764" 
d="M536 291l1.00098 -2.99902c1.33301 -49.333 -12.334 -86.666 -41.001 -111.999s-68.667 -38 -120 -38c-52 0 -93.333 17.167 -124 51.5s-46 80.166 -46 137.499v58c0 56 15.333 101.5 46 136.5s72 52.5 124 52.5c51.333 0 91.333 -13 120 -39s42.334 -63.333 41.001 -112
l-1 -3h-72c0 30.667 -7.33301 53 -22 67s-36.667 21 -66 21c-30.667 0 -54.167 -11.333 -70.5 -34s-24.5 -52.334 -24.5 -89.001v-58c0 -37.333 8.16699 -67.166 24.5 -89.499s39.833 -33.5 70.5 -33.5c29.333 0 51.166 6.66699 65.499 20s21.5 35.666 21.5 66.999h73z
M96.001 356.001c0 -86 27.833 -158.333 83.5 -217s123.5 -88 203.5 -88c79.333 0 146.833 29.333 202.5 88s83.5 131 83.5 217c0 85.333 -27.833 157.333 -83.5 216s-123.167 88 -202.5 88c-80 0 -147.833 -29.333 -203.5 -88s-83.5 -130.667 -83.5 -216zM36.001 356.001
c0 102.667 33.667 189.167 101 259.5s149.333 105.5 246 105.5c96 0 177.667 -35.167 245 -105.5s101 -156.833 101 -259.5s-33.833 -189.334 -101.5 -260.001s-149.167 -106 -244.5 -106c-96.667 0 -178.667 35.333 -246 106s-101 157.334 -101 260.001z" />
    <glyph glyph-name="ordfeminine" unicode="&#xaa;" horiz-adv-x="423" 
d="M286 345c-2.66699 6.66699 -4.83105 13.8291 -6.49805 21.4961s-2.83398 15.834 -3.50098 24.501c-10.667 -15.333 -25 -28 -43 -38s-40 -15 -66 -15c-38.667 0 -68.5 9.83301 -89.5 29.5s-31.5 46.834 -31.5 81.501c0 36 13.667 63.833 41 83.5
s67.666 29.5 120.999 29.5h66v25c0 20 -4.66699 35.333 -14 46s-23.333 16 -42 16c-21.333 0 -38 -4.16699 -50 -12.5s-18 -20.166 -18 -35.499l-80 6l-1 3c-2 32 10.833 58.5 38.5 79.5s64.5 31.5 110.5 31.5c43.333 0 77.833 -11.5 103.5 -34.5s38.5 -56.5 38.5 -100.5
v-153c0 -16.667 1 -32.167 3 -46.5s5.33301 -28.166 10 -41.499h-87zM188.003 407.995c16.667 0 33.834 4.99902 51.501 14.999s29.167 20.667 34.5 32v50h-66c-24 0 -42.833 -5.16699 -56.5 -15.5s-20.5 -23.166 -20.5 -38.499c0 -14 4.66699 -24.667 14 -32
s23.666 -11 42.999 -11z" />
    <glyph glyph-name="guillemotleft" unicode="&#xab;" horiz-adv-x="465" 
d="M112 252l118 -195h-92l-137 190v9l137 191h92zM305 252l118 -195h-92l-137 190v9l137 191h92z" />
    <glyph glyph-name="logicalnot" unicode="&#xac;" horiz-adv-x="536" 
d="M463 183h-97v127h-310v83h407v-210z" />
    <glyph glyph-name="uni00AD" unicode="&#xad;" horiz-adv-x="397" 
d="M339 249h-275v110h275v-110z" />
    <glyph glyph-name="registered" unicode="&#xae;" horiz-adv-x="764" 
d="M36 356c0 102.667 33.667 189.167 101 259.5s149.333 105.5 246 105.5c96 0 177.667 -35.167 245 -105.5s101 -156.833 101 -259.5s-33.833 -189.334 -101.5 -260.001s-149.167 -106 -244.5 -106c-96.667 0 -178.667 35.333 -246 106s-101 157.334 -101 260.001zM96 356
c0 -86 27.833 -158.333 83.5 -217s123.5 -88 203.5 -88c79.333 0 146.833 29.333 202.5 88s83.5 131 83.5 217c0 85.333 -27.833 157.333 -83.5 216s-123.167 88 -202.5 88c-80 0 -147.833 -29.333 -203.5 -88s-83.5 -130.667 -83.5 -216zM312 319l0.00195312 -164.999h-73
v415h137c49.333 0 88.166 -11 116.499 -33s42.5 -53.667 42.5 -95c0 -18.667 -4.83301 -35 -14.5 -49s-23.5 -26.333 -41.5 -37c18.667 -10 32.334 -23.667 41.001 -41s13 -38.333 13 -63v-27c0 -13.333 0.666992 -25.333 2 -36s3.66602 -19.334 6.99902 -26.001v-8h-76
c-2.66699 6.66699 -4.5 16.667 -5.5 30s-1.5 27 -1.5 41v26c0 23.333 -5.33301 40.5 -16 51.5s-28.334 16.5 -53.001 16.5h-78zM312.002 384.001l67 0.000976562c23.333 0 42.833 5 58.5 15s23.5 24 23.5 42c0 23.333 -6.33301 39.666 -19 48.999s-34.667 14 -66 14h-64
v-120z" />
    <glyph glyph-name="macron" unicode="&#xaf;" horiz-adv-x="492" 
d="M428 631h-357v80h357v-80z" />
    <glyph glyph-name="macron" unicode="&#x2c9;" horiz-adv-x="492" 
d="M428 631h-357v80h357v-80z" />
    <glyph glyph-name="degree" unicode="&#xb0;" horiz-adv-x="363" 
d="M52 587c0 36.667 13 68.165 39 94.498s57.333 39.5 94 39.5c36 0 66.667 -13.167 92 -39.5s38 -57.833 38 -94.5c0 -37.333 -12.667 -68.666 -38 -93.999s-56 -38 -92 -38c-36.667 0 -68 12.833 -94 38.5s-39 56.834 -39 93.501zM124 586.998
c0 -17.333 5.83301 -31.666 17.5 -42.999s26.167 -17 43.5 -17c16.667 0 30.667 5.66699 42 17s17 25.666 17 42.999s-5.83301 32.166 -17.5 44.499s-25.5 18.5 -41.5 18.5c-16.667 0 -31 -6.16699 -43 -18.5s-18 -27.166 -18 -44.499z" />
    <glyph glyph-name="plusminus" unicode="&#xb1;" horiz-adv-x="507" 
d="M320 462h159v-113h-159v-187h-125v187h-163v113h163v178h125v-178zM465 0h-407v112h407v-112z" />
    <glyph glyph-name="twosuperior" unicode="&#xb2;" horiz-adv-x="401" 
d="M356 326h-304.001v75l151 123c19.333 16 32 29.667 38 41s9 23.666 9 36.999c0 12.667 -3.83301 23.167 -11.5 31.5s-19.5 12.5 -35.5 12.5c-18 0 -31.667 -4.83301 -41 -14.5s-14 -22.167 -14 -37.5h-98l-1 3c-2 34.667 11.5 64.167 40.5 88.5s67.5 36.5 115.5 36.5
c46.667 0 82.834 -10.5 108.501 -31.5s38.5 -50.833 38.5 -89.5c0 -26.667 -8.66699 -50.167 -26 -70.5s-46.333 -47.166 -87 -80.499l-53 -46l1 -3h169v-75z" />
    <glyph glyph-name="threesuperior" unicode="&#xb3;" horiz-adv-x="406" 
d="M196 556c20 0 34.832 4.00098 44.499 12.001s14.5 19.667 14.5 35c0 12.667 -4.5 23 -13.5 31s-22.833 12 -41.5 12c-16.667 0 -29.5 -3.5 -38.5 -10.5s-13.5 -15.833 -13.5 -26.5h-98l-1 3c-2 32.667 11.333 59.167 40 79.5s65 30.5 109 30.5
c49.333 0 88.333 -9.66699 117 -29s43 -47 43 -83c0 -18 -5.83301 -34.333 -17.5 -49s-27.5 -26.334 -47.5 -35.001c23.333 -8 41.166 -19.667 53.499 -35s18.5 -34 18.5 -56c0 -36.667 -14.667 -65 -44 -85s-68.666 -30 -117.999 -30c-47.333 0 -86.333 10.167 -117 30.5
s-45 48.833 -43 85.5l1 3h98c0 -14 5 -24.667 15 -32s25 -11 45 -11c18 0 32.5 3.83301 43.5 11.5s16.5 18.5 16.5 32.5c0 16 -5.66699 28.5 -17 37.5s-27.666 13.5 -48.999 13.5h-55v65h55z" />
    <glyph glyph-name="acute" unicode="&#xb4;" horiz-adv-x="314" 
d="M137 722h151l1 -3l-135 -127h-114z" />
    <glyph glyph-name="mu" unicode="&#xb5;" horiz-adv-x="657" 
d="M439 33c-14 -14 -30.333 -24.666 -49 -31.999s-39 -11 -61 -11c-16.667 0 -32 1.66699 -46 5s-26.667 8.66602 -38 15.999v-214h-142v631l-76 14v86h76h142v-302c0 -48.667 7.33301 -81.667 22 -99s36.667 -26 66 -26c24.667 0 45 4.33301 61 13s28.667 21.667 38 39v275
l-76 14v86h218v-428l69 -15v-85h-201z" />
    <glyph glyph-name="paragraph" unicode="&#xb6;" horiz-adv-x="550" 
d="M231 85l76 15v154h-40c-76 0 -135.167 21 -177.5 63s-63.5 97 -63.5 165c0 67.333 21.167 122.333 63.5 165s101.5 64 177.5 64h183v-611l75 -15v-85h-294v85zM525 711v-86l-75 -15v101h75z" />
    <glyph glyph-name="periodcentered" unicode="&#xb7;" horiz-adv-x="270" 
d="M213 277h-142v127h142v-127z" />
    <glyph glyph-name="cedilla" unicode="&#xb8;" horiz-adv-x="244" 
d="M163 3l-6.00098 -28c20.667 -3.33301 38 -11.666 52 -24.999s21 -33 21 -59c0 -34.667 -14.833 -62.5 -44.5 -83.5s-71.834 -31.5 -126.501 -31.5l-3 78c16.667 0 29.834 3.5 39.501 10.5s14.5 17.167 14.5 30.5s-5.16699 22.666 -15.5 27.999s-28.166 9 -53.499 11
l15 69h107z" />
    <glyph glyph-name="onesuperior" unicode="&#xb9;" horiz-adv-x="261" 
d="M214 325h-102v307l-61 -46v78l62 58l101 -1v-396z" />
    <glyph glyph-name="ordmasculine" unicode="&#xba;" horiz-adv-x="446" 
d="M53 558c0 48 15.333 87.167 46 117.5s71.667 45.5 123 45.5s92.5 -15.167 123.5 -45.5s46.5 -69.5 46.5 -117.5v-58c0 -48.667 -15.333 -88 -46 -118s-71.667 -45 -123 -45c-52 0 -93.333 15.167 -124 45.5s-46 69.5 -46 117.5v58zM139 500
c0 -28 7.16699 -50.167 21.5 -66.5s35.166 -24.5 62.499 -24.5c26.667 0 47.167 8.33301 61.5 25s21.5 38.667 21.5 66v58c0 27.333 -7.16699 49.333 -21.5 66s-35.166 25 -62.499 25s-48 -8.5 -62 -25.5s-21 -38.833 -21 -65.5v-58z" />
    <glyph glyph-name="guillemotright" unicode="&#xbb;" horiz-adv-x="475" 
d="M123 464l137 -191v-9l-137 -190h-91l116 195l-116 195h91zM321 464l137 -191v-9l-137 -190h-91l116 195l-116 195h91z" />
    <glyph glyph-name="onequarter" unicode="&#xbc;" horiz-adv-x="689" 
d="M222 324h-103v308l-61 -52v78l66 63l98 -1v-396zM187 57l-70 37l347 556l70 -37zM653 145h49v-77h-49v-68h-103v68h-200l-7 61l207 261v1h103v-246zM448 145h102v125l-3 1l-6 -10z" />
    <glyph glyph-name="onehalf" unicode="&#xbd;" horiz-adv-x="711" 
d="M186 57l-70 37l347 556l70 -37zM215 324h-103v308l-61 -52v78l66 63l98 -1v-396zM709 0l-304.001 -0.00195312v76l151 123c19.333 16 32 29.5 38 40.5s9 23.167 9 36.5c0 12.667 -3.83301 23.334 -11.5 32.001s-19.5 13 -35.5 13c-18 0 -31.667 -4.83301 -41 -14.5
s-14 -22.167 -14 -37.5h-98l-1 2c-2 34.667 11.5 64.167 40.5 88.5s67.5 36.5 115.5 36.5c46.667 0 82.834 -10.5 108.501 -31.5s38.5 -50.833 38.5 -89.5c0 -26.667 -8.66699 -50.167 -26 -70.5s-46.333 -47.166 -87 -80.499l-53 -45l1 -3h169v-76z" />
    <glyph glyph-name="threequarters" unicode="&#xbe;" horiz-adv-x="798" 
d="M292 57l-70 37l347 556l70 -37zM745 145h49v-77h-49v-68h-103v68h-200l-7 61l207 261v1h103v-246zM540 145h102v125l-3 1l-6 -10zM191 557c20 0 34.833 3.99902 44.5 11.999s14.5 19.333 14.5 34c0 12.667 -4.5 23.167 -13.5 31.5s-22.5 12.5 -40.5 12.5
c-16.667 0 -29.667 -3.66699 -39 -11s-14 -16 -14 -26h-97l-1 3c-2 32.667 11.333 59 40 79s64.667 30 108 30c49.333 0 88.333 -9.66699 117 -29s43 -46.666 43 -81.999c0 -18 -5.66699 -34.5 -17 -49.5s-27 -26.5 -47 -34.5c23.333 -8 41 -19.667 53 -35s18 -34 18 -56
c0 -36.667 -14.5 -65 -43.5 -85s-68.5 -30 -118.5 -30c-47.333 0 -86.166 10.167 -116.499 30.5s-44.5 48.833 -42.5 85.5v3h98c0 -14 5.16699 -24.833 15.5 -32.5s25.166 -11.5 44.499 -11.5c18 0 32.667 4 44 12s17 19 17 33c0 16 -5.66699 28.5 -17 37.5
s-28 13.5 -50 13.5h-54v65h54z" />
    <glyph glyph-name="questiondown" unicode="&#xbf;" horiz-adv-x="461" 
d="M340 326c-0.666992 -46 -7.66895 -79.668 -21.002 -101.001s-39.333 -47 -78 -77c-23.333 -18.667 -41.833 -39 -55.5 -61s-20.5 -46.333 -20.5 -73c0 -29.333 7.83301 -52.5 23.5 -69.5s38.167 -25.5 67.5 -25.5c24 0 44.333 7 61 21s25.334 35 26.001 63h138l1 -3
c0.666992 -62 -20 -109.5 -62 -142.5s-96.667 -49.5 -164 -49.5c-73.333 0 -130.666 18.333 -171.999 55s-62 86.667 -62 150c0 40.667 12 78.667 36 114s54.333 65 91 89c19.333 14.667 32.333 29.834 39 45.501s10 37.167 10 64.5h142zM196.998 527.999h143v-122h-143v122
z" />
    <glyph glyph-name="Agrave" unicode="&#xc0;" 
d="M20 85l51 8l216 618h146l215 -618l51 -8v-85h-242v85l49 9l-31 98h-231l-31 -98l49 -9v-85h-242v85zM278 297h163l-80 250h-3zM431 766h-115l-133 127l1 3h152z" />
    <glyph glyph-name="Aacute" unicode="&#xc1;" 
d="M20 85l51 8l216 618h146l215 -618l51 -8v-85h-242v85l49 9l-31 98h-231l-31 -98l49 -9v-85h-242v85zM278 297h163l-80 250h-3zM368 892h151l1 -3l-135 -127h-114z" />
    <glyph glyph-name="Acircumflex" unicode="&#xc2;" 
d="M20 85l51 8l216 618h146l215 -618l51 -8v-85h-242v85l49 9l-31 98h-231l-31 -98l49 -9v-85h-242v85zM278 297h163l-80 250h-3zM538 784v-12h-106l-75 72l-76 -72h-103v13l138 117h82z" />
    <glyph glyph-name="Atilde" unicode="&#xc3;" 
d="M20 85l51 8l216 618h146l215 -618l51 -8v-85h-242v85l49 9l-31 98h-231l-31 -98l49 -9v-85h-242v85zM278 297h163l-80 250h-3zM534 897c0 -31.333 -9.66602 -58.001 -28.999 -80.001s-43.666 -33 -72.999 -33c-22.667 0 -48.5 7 -77.5 21s-51.833 21 -68.5 21
c-12 0 -22 -5.16699 -30 -15.5s-12 -22.833 -12 -37.5l-75 20c0 30.667 9.66699 57.334 29 80.001s43.666 34 72.999 34c18 0 42.5 -7.16699 73.5 -21.5s55.167 -21.5 72.5 -21.5c11.333 0 21.166 5.33301 29.499 16s12.5 23.667 12.5 39z" />
    <glyph glyph-name="Adieresis" unicode="&#xc4;" 
d="M20 85l51 8l216 618h146l215 -618l51 -8v-85h-242v85l49 9l-31 98h-231l-31 -98l49 -9v-85h-242v85zM278 297h163l-80 250h-3zM538 781h-131v100h131v-100zM294 781h-131v100h131v-100z" />
    <glyph glyph-name="Aring" unicode="&#xc5;" 
d="M20 85l51 8l216 618h146l215 -618l51 -8v-85h-242v85l49 9l-31 98h-231l-31 -98l49 -9v-85h-242v85zM278 297h163l-80 250h-3zM254 852c0 27.333 10 50 30 68s44.667 27 74 27c28.667 0 52.834 -9.16699 72.501 -27.5s29.5 -40.833 29.5 -67.5
c0 -27.333 -9.83301 -49.833 -29.5 -67.5s-43.834 -26.5 -72.501 -26.5c-29.333 0 -54 8.83301 -74 26.5s-30 40.167 -30 67.5zM310 852c0 -14 4.5 -25.5 13.5 -34.5s20.5 -13.5 34.5 -13.5c13.333 0 24.166 4.5 32.499 13.5s12.5 20.5 12.5 34.5s-4.16699 25.667 -12.5 35
s-19.166 14 -32.499 14c-14 0 -25.5 -4.66699 -34.5 -14s-13.5 -21 -13.5 -35z" />
    <glyph glyph-name="AE" unicode="&#xc6;" horiz-adv-x="999" 
d="M32 85l67 10l331 616h496v-180h-109l-5 69h-177l8 -179h244v-111h-240l9 -199h186l6 69h108v-180h-514v85l72 14l-3 74h-210l-41 -81l41 -7v-85h-269v85zM356 284h150l-11 271h-3z" />
    <glyph glyph-name="Ccedilla" unicode="&#xc7;" horiz-adv-x="647" 
d="M610 471l-106.001 0.00195312l-15 95c-14 14 -31.667 25 -53 33s-46.333 12 -75 12c-62 0 -109.667 -22.333 -143 -67s-50 -103.334 -50 -176.001v-25c0 -72 16.667 -130.667 50 -176s80 -68 140 -68c28 0 53.667 4.16699 77 12.5s41.333 19.5 54 33.5l15 94h106v-140
c-28.667 -33.333 -65.167 -59.833 -109.5 -79.5s-94.166 -29.5 -149.499 -29.5c-95.333 0 -173.5 33 -234.5 99s-91.5 150.667 -91.5 254v24c0 103.333 30.333 188.166 91 254.499s139 99.5 235 99.5c55.333 0 105 -10 149 -30s80.667 -46.333 110 -79v-141z
M394.999 2.00195l-6.00098 -28c20.667 -3.33301 38 -11.666 52 -24.999s21 -33 21 -59c0 -34.667 -14.833 -62.5 -44.5 -83.5s-71.834 -31.5 -126.501 -31.5l-3 78c16.667 0 29.834 3.5 39.501 10.5s14.5 17.167 14.5 30.5s-5.16699 22.666 -15.5 27.999
s-28.166 9 -53.499 11l15 69h107z" />
    <glyph glyph-name="Egrave" unicode="&#xc8;" horiz-adv-x="638" 
d="M486 312h-240v-203h229l6 85h109v-194h-563v85l76 15v510l-76 15v86h76h486v-195h-110l-6 85h-227v-179h240v-110zM388 766h-115l-133 127l1 3h152z" />
    <glyph glyph-name="Eacute" unicode="&#xc9;" horiz-adv-x="638" 
d="M486 312h-240v-203h229l6 85h109v-194h-563v85l76 15v510l-76 15v86h76h486v-195h-110l-6 85h-227v-179h240v-110zM325 892h151l1 -3l-135 -127h-114z" />
    <glyph glyph-name="Ecircumflex" unicode="&#xca;" horiz-adv-x="638" 
d="M486 312h-240v-203h229l6 85h109v-194h-563v85l76 15v510l-76 15v86h76h486v-195h-110l-6 85h-227v-179h240v-110zM494 784v-12h-106l-75 72l-76 -72h-103v13l138 117h82z" />
    <glyph glyph-name="Edieresis" unicode="&#xcb;" horiz-adv-x="638" 
d="M486 312h-240v-203h229l6 85h109v-194h-563v85l76 15v510l-76 15v86h76h486v-195h-110l-6 85h-227v-179h240v-110zM494 781h-131v100h131v-100zM250 781h-131v100h131v-100z" />
    <glyph glyph-name="Igrave" unicode="&#xcc;" horiz-adv-x="348" 
d="M27 625v86h294v-86l-76 -15v-510l76 -15v-85h-294v85l76 15v510zM241 765h-115l-133 127l1 3h152z" />
    <glyph glyph-name="Iacute" unicode="&#xcd;" horiz-adv-x="348" 
d="M27 625v86h294v-86l-76 -15v-510l76 -15v-85h-294v85l76 15v510zM177 891h151l1 -3l-135 -127h-114z" />
    <glyph glyph-name="Icircumflex" unicode="&#xce;" horiz-adv-x="348" 
d="M27 625v86h294v-86l-76 -15v-510l76 -15v-85h-294v85l76 15v510zM347 783v-12h-106l-75 72l-76 -72h-103v13l138 117h82z" />
    <glyph glyph-name="Idieresis" unicode="&#xcf;" horiz-adv-x="348" 
d="M27 625v86h294v-86l-76 -15v-510l76 -15v-85h-294v85l76 15v510zM347 781h-131v100h131v-100zM103 781h-131v100h131v-100z" />
    <glyph glyph-name="Eth" unicode="&#xd0;" horiz-adv-x="703" 
d="M362 711c86.667 0 158.167 -27.832 214.5 -83.499s84.5 -126.834 84.5 -213.501v-118c0 -87.333 -28.167 -158.5 -84.5 -213.5s-127.833 -82.5 -214.5 -82.5h-320v85l76 15v225h-96v75h96v210l-76 15v86h320zM365 325.001l-105 0.000976562v-216h94
c51.333 0 91.5 17.333 120.5 52s43.5 79.667 43.5 135v119c0 55.333 -14.5 100.166 -43.5 134.499s-69.167 51.5 -120.5 51.5h-94v-201h105v-75z" />
    <glyph glyph-name="Ntilde" unicode="&#xd1;" horiz-adv-x="772" 
d="M754 711v-86l-76 -15v-610h-142l-287 479l-3 -1v-378l76 -15v-85h-295v85l76 15v510l-76 15v86h76h143l287 -479l3 1v377l-77 15v86h219h76zM561 897c0 -31.333 -9.66602 -58.001 -28.999 -80.001s-43.666 -33 -72.999 -33c-22.667 0 -48.5 7 -77.5 21
s-51.833 21 -68.5 21c-12 0 -22 -5.16699 -30 -15.5s-12 -22.833 -12 -37.5l-75 20c0 30.667 9.66699 57.334 29 80.001s43.666 34 72.999 34c18 0 42.5 -7.16699 73.5 -21.5s55.167 -21.5 72.5 -21.5c11.333 0 21.166 5.33301 29.499 16s12.5 23.667 12.5 39z" />
    <glyph glyph-name="Ograve" unicode="&#xd2;" horiz-adv-x="707" 
d="M677 350c0 -104 -29.668 -190 -89.001 -258s-137.333 -102 -234 -102c-96 0 -173.5 34 -232.5 102s-88.5 154 -88.5 258v11c0 103.333 29.333 189.166 88 257.499s136.334 102.5 233.001 102.5s174.667 -34.167 234 -102.5s89 -154.166 89 -257.499v-11zM534.999 362
c0 73.333 -15.333 133 -46 179s-75.667 69 -135 69c-60 0 -104.833 -22.833 -134.5 -68.5s-44.5 -105.5 -44.5 -179.5v-12c0 -74.667 15 -134.834 45 -180.501s74.667 -68.5 134 -68.5c60 0 105.167 22.833 135.5 68.5s45.5 105.834 45.5 180.501v12zM428.999 765h-115
l-133 127l1 3h152z" />
    <glyph glyph-name="Oacute" unicode="&#xd3;" horiz-adv-x="707" 
d="M677 350c0 -104 -29.668 -190 -89.001 -258s-137.333 -102 -234 -102c-96 0 -173.5 34 -232.5 102s-88.5 154 -88.5 258v11c0 103.333 29.333 189.166 88 257.499s136.334 102.5 233.001 102.5s174.667 -34.167 234 -102.5s89 -154.166 89 -257.499v-11zM534.999 362
c0 73.333 -15.333 133 -46 179s-75.667 69 -135 69c-60 0 -104.833 -22.833 -134.5 -68.5s-44.5 -105.5 -44.5 -179.5v-12c0 -74.667 15 -134.834 45 -180.501s74.667 -68.5 134 -68.5c60 0 105.167 22.833 135.5 68.5s45.5 105.834 45.5 180.501v12zM365.999 891h151l1 -3
l-135 -127h-114z" />
    <glyph glyph-name="Ocircumflex" unicode="&#xd4;" horiz-adv-x="707" 
d="M677 350c0 -104 -29.668 -190 -89.001 -258s-137.333 -102 -234 -102c-96 0 -173.5 34 -232.5 102s-88.5 154 -88.5 258v11c0 103.333 29.333 189.166 88 257.499s136.334 102.5 233.001 102.5s174.667 -34.167 234 -102.5s89 -154.166 89 -257.499v-11zM534.999 362
c0 73.333 -15.333 133 -46 179s-75.667 69 -135 69c-60 0 -104.833 -22.833 -134.5 -68.5s-44.5 -105.5 -44.5 -179.5v-12c0 -74.667 15 -134.834 45 -180.501s74.667 -68.5 134 -68.5c60 0 105.167 22.833 135.5 68.5s45.5 105.834 45.5 180.501v12zM535.999 783v-12h-106
l-75 72l-76 -72h-103v13l138 117h82z" />
    <glyph glyph-name="Otilde" unicode="&#xd5;" horiz-adv-x="707" 
d="M677 350c0 -104 -29.668 -190 -89.001 -258s-137.333 -102 -234 -102c-96 0 -173.5 34 -232.5 102s-88.5 154 -88.5 258v11c0 103.333 29.333 189.166 88 257.499s136.334 102.5 233.001 102.5s174.667 -34.167 234 -102.5s89 -154.166 89 -257.499v-11zM534.999 362
c0 73.333 -15.333 133 -46 179s-75.667 69 -135 69c-60 0 -104.833 -22.833 -134.5 -68.5s-44.5 -105.5 -44.5 -179.5v-12c0 -74.667 15 -134.834 45 -180.501s74.667 -68.5 134 -68.5c60 0 105.167 22.833 135.5 68.5s45.5 105.834 45.5 180.501v12zM531.999 896
c0 -31.333 -9.66602 -58.001 -28.999 -80.001s-43.666 -33 -72.999 -33c-22.667 0 -48.5 7 -77.5 21s-51.833 21 -68.5 21c-12 0 -22 -5.16699 -30 -15.5s-12 -22.833 -12 -37.5l-75 20c0 30.667 9.66699 57.334 29 80.001s43.666 34 72.999 34
c18 0 42.5 -7.16699 73.5 -21.5s55.167 -21.5 72.5 -21.5c11.333 0 21.166 5.33301 29.499 16s12.5 23.667 12.5 39z" />
    <glyph glyph-name="Odieresis" unicode="&#xd6;" horiz-adv-x="707" 
d="M677 350c0 -104 -29.668 -190 -89.001 -258s-137.333 -102 -234 -102c-96 0 -173.5 34 -232.5 102s-88.5 154 -88.5 258v11c0 103.333 29.333 189.166 88 257.499s136.334 102.5 233.001 102.5s174.667 -34.167 234 -102.5s89 -154.166 89 -257.499v-11zM534.999 362
c0 73.333 -15.333 133 -46 179s-75.667 69 -135 69c-60 0 -104.833 -22.833 -134.5 -68.5s-44.5 -105.5 -44.5 -179.5v-12c0 -74.667 15 -134.834 45 -180.501s74.667 -68.5 134 -68.5c60 0 105.167 22.833 135.5 68.5s45.5 105.834 45.5 180.501v12zM535.999 781h-131v100
h131v-100zM291.999 781h-131v100h131v-100z" />
    <glyph glyph-name="multiply" unicode="&#xd7;" horiz-adv-x="521" 
d="M30 181l151 154l-151 154l83 80l149 -152l148 152l84 -80l-151 -154l151 -154l-84 -80l-148 151l-149 -151z" />
    <glyph glyph-name="Oslash" unicode="&#xd8;" horiz-adv-x="683" 
d="M680 350c0 -104 -29.832 -189.996 -89.499 -257.996s-137.834 -102 -234.501 -102c-30.667 0 -59.5 3.66699 -86.5 11s-52.167 18 -75.5 32l-47 -79h-70l68 116c-35.333 32.667 -62.5 73.167 -81.5 121.5s-28.5 101.166 -28.5 158.499v11
c0 103.333 29.5 189.166 88.5 257.499s136.5 102.5 232.5 102.5c27.333 0 53.333 -3 78 -9s48 -14.667 70 -26l32 55h70l-51 -88c40 -32.667 70.833 -74.334 92.5 -125.001s32.5 -106.334 32.5 -167.001v-11zM538.001 362.004c0 36.667 -3.99902 70.166 -11.999 100.499
s-19.333 55.833 -34 76.5h-3l-236 -404c13.333 -11.333 28.666 -19.833 45.999 -25.5s36.333 -8.5 57 -8.5c60 0 105.333 22.833 136 68.5s46 105.834 46 180.501v12zM178.002 350.003c0 -32.667 2.66797 -62.667 8.00098 -90s13.666 -50.666 24.999 -69.999l3 -1l231 397
c-12.667 7.33301 -26.5 13.166 -41.5 17.499s-30.833 6.5 -47.5 6.5c-60 0 -104.667 -22.833 -134 -68.5s-44 -105.5 -44 -179.5v-12z" />
    <glyph glyph-name="Ugrave" unicode="&#xd9;" horiz-adv-x="755" 
d="M313 711v-85.999l-76 -15v-371c0 -46.667 12.667 -81.667 38 -105s60 -35 104 -35c44.667 0 79.667 11.5 105 34.5s38 58.167 38 105.5v371l-76 15v86h295v-86l-76 -15v-371c0 -80 -26.333 -141.5 -79 -184.5s-121.667 -64.5 -207 -64.5
c-84.667 0 -153.167 21.667 -205.5 65s-78.5 104.666 -78.5 183.999v371l-76 15v86h76h142h76zM454 766.001h-115l-133 127l1 3h152z" />
    <glyph glyph-name="Uacute" unicode="&#xda;" horiz-adv-x="755" 
d="M313 711v-85.999l-76 -15v-371c0 -46.667 12.667 -81.667 38 -105s60 -35 104 -35c44.667 0 79.667 11.5 105 34.5s38 58.167 38 105.5v371l-76 15v86h295v-86l-76 -15v-371c0 -80 -26.333 -141.5 -79 -184.5s-121.667 -64.5 -207 -64.5
c-84.667 0 -153.167 21.667 -205.5 65s-78.5 104.666 -78.5 183.999v371l-76 15v86h76h142h76zM391 892.001h151l1 -3l-135 -127h-114z" />
    <glyph glyph-name="Ucircumflex" unicode="&#xdb;" horiz-adv-x="755" 
d="M313 711v-85.999l-76 -15v-371c0 -46.667 12.667 -81.667 38 -105s60 -35 104 -35c44.667 0 79.667 11.5 105 34.5s38 58.167 38 105.5v371l-76 15v86h295v-86l-76 -15v-371c0 -80 -26.333 -141.5 -79 -184.5s-121.667 -64.5 -207 -64.5
c-84.667 0 -153.167 21.667 -205.5 65s-78.5 104.666 -78.5 183.999v371l-76 15v86h76h142h76zM561 784.001v-12h-106l-75 72l-76 -72h-103v13l138 117h82z" />
    <glyph glyph-name="Udieresis" unicode="&#xdc;" horiz-adv-x="755" 
d="M313 711v-85.999l-76 -15v-371c0 -46.667 12.667 -81.667 38 -105s60 -35 104 -35c44.667 0 79.667 11.5 105 34.5s38 58.167 38 105.5v371l-76 15v86h295v-86l-76 -15v-371c0 -80 -26.333 -141.5 -79 -184.5s-121.667 -64.5 -207 -64.5
c-84.667 0 -153.167 21.667 -205.5 65s-78.5 104.666 -78.5 183.999v371l-76 15v86h76h142h76zM561 781.001h-131v100h131v-100zM317 781.001h-131v100h131v-100z" />
    <glyph glyph-name="Yacute" unicode="&#xdd;" horiz-adv-x="682" 
d="M287 625l-58 -8l110 -234h3l110 234l-57 8v86h269v-86l-61 -10l-193 -365v-150l76 -15v-85h-295v85l77 15v157l-190 358l-60 10v86h269v-86zM359 892h151l1 -3l-135 -127h-114z" />
    <glyph glyph-name="Thorn" unicode="&#xde;" horiz-adv-x="637" 
d="M33 85l76 14.998v510l-76 15v86h218h77v-86l-77 -15v-31h108c82.667 0 147.167 -20.167 193.5 -60.5s69.5 -93.166 69.5 -158.499s-23.167 -118.166 -69.5 -158.499s-110.833 -60.5 -193.5 -60.5h-108v-41l77 -15v-85h-295v85zM251 468.998v-218.001h108
c40 0 70 10.333 90 31s30 46.334 30 77.001s-10 56.667 -30 78s-50 32 -90 32h-108z" />
    <glyph glyph-name="germandbls" unicode="&#xdf;" horiz-adv-x="645" 
d="M237 0l-218.002 -0.00292969v85l76 15v438c0 73.333 21 130 63 170s99.333 60 172 60c58.667 0 107.334 -15.5 146.001 -46.5s58 -75.167 58 -132.5c0 -35.333 -8.66699 -68.833 -26 -100.5s-26 -58.5 -26 -80.5c0 -18 24.333 -50.167 73 -96.5s73 -92.166 73 -137.499
c0 -61.333 -18.667 -107.333 -56 -138s-91.333 -46 -162 -46c-25.333 0 -50.166 2.33301 -74.499 7s-42.5 11.334 -54.5 20.001l27 109c12 -7.33301 26.5 -13.666 43.5 -18.999s35.5 -8 55.5 -8c24.667 0 44 6.16699 58 18.5s21 29.166 21 50.499
c0 23.333 -24.5 56.833 -73.5 100.5s-73.5 88.5 -73.5 134.5c0 29.333 9 60.333 27 93s27 61.334 27 86.001c0 23.333 -6.5 42 -19.5 56s-30.833 21 -53.5 21c-24.667 0 -44.667 -11 -60 -33s-23 -52 -23 -90v-536z" />
    <glyph glyph-name="agrave" unicode="&#xe0;" horiz-adv-x="549" 
d="M367 0c-4 8.66699 -7.33301 17.668 -10 27.001s-5 18.666 -7 27.999c-16.667 -19.333 -37.167 -35 -61.5 -47s-52.166 -18 -83.499 -18c-52 0 -93.167 14 -123.5 42s-45.5 66.333 -45.5 115c0 49.333 19.833 87.5 59.5 114.5s98.167 40.5 175.5 40.5h72v52
c0 25.333 -7.33301 45 -22 59s-36.334 21 -65.001 21c-16 0 -30.333 -1.83301 -43 -5.5s-23 -8.16699 -31 -13.5l-9 -57h-108l1 118c26 17.333 55.833 32 89.5 44s70.5 18 110.5 18c65.333 0 118.333 -16 159 -48s61 -77.667 61 -137v-218c0 -8 0.166992 -15.667 0.5 -23
s0.833008 -14.333 1.5 -21l44 -6v-85h-165zM244 95.001c21.333 0 40.832 4.66699 58.499 14s31.167 21 40.5 35v81h-72c-30 0 -53 -7.16699 -69 -21.5s-24 -31.5 -24 -51.5c0 -18 5.83301 -32 17.5 -42s27.834 -15 48.501 -15zM354.999 608.001h-115l-133 127l1 3h152z" />
    <glyph glyph-name="aacute" unicode="&#xe1;" horiz-adv-x="549" 
d="M367 0c-4 8.66699 -7.33301 17.668 -10 27.001s-5 18.666 -7 27.999c-16.667 -19.333 -37.167 -35 -61.5 -47s-52.166 -18 -83.499 -18c-52 0 -93.167 14 -123.5 42s-45.5 66.333 -45.5 115c0 49.333 19.833 87.5 59.5 114.5s98.167 40.5 175.5 40.5h72v52
c0 25.333 -7.33301 45 -22 59s-36.334 21 -65.001 21c-16 0 -30.333 -1.83301 -43 -5.5s-23 -8.16699 -31 -13.5l-9 -57h-108l1 118c26 17.333 55.833 32 89.5 44s70.5 18 110.5 18c65.333 0 118.333 -16 159 -48s61 -77.667 61 -137v-218c0 -8 0.166992 -15.667 0.5 -23
s0.833008 -14.333 1.5 -21l44 -6v-85h-165zM244 95.001c21.333 0 40.832 4.66699 58.499 14s31.167 21 40.5 35v81h-72c-30 0 -53 -7.16699 -69 -21.5s-24 -31.5 -24 -51.5c0 -18 5.83301 -32 17.5 -42s27.834 -15 48.501 -15zM290.999 734.001h151l1 -3l-135 -127h-114z
" />
    <glyph glyph-name="acircumflex" unicode="&#xe2;" horiz-adv-x="549" 
d="M367 0c-4 8.66699 -7.33301 17.668 -10 27.001s-5 18.666 -7 27.999c-16.667 -19.333 -37.167 -35 -61.5 -47s-52.166 -18 -83.499 -18c-52 0 -93.167 14 -123.5 42s-45.5 66.333 -45.5 115c0 49.333 19.833 87.5 59.5 114.5s98.167 40.5 175.5 40.5h72v52
c0 25.333 -7.33301 45 -22 59s-36.334 21 -65.001 21c-16 0 -30.333 -1.83301 -43 -5.5s-23 -8.16699 -31 -13.5l-9 -57h-108l1 118c26 17.333 55.833 32 89.5 44s70.5 18 110.5 18c65.333 0 118.333 -16 159 -48s61 -77.667 61 -137v-218c0 -8 0.166992 -15.667 0.5 -23
s0.833008 -14.333 1.5 -21l44 -6v-85h-165zM244 95.001c21.333 0 40.832 4.66699 58.499 14s31.167 21 40.5 35v81h-72c-30 0 -53 -7.16699 -69 -21.5s-24 -31.5 -24 -51.5c0 -18 5.83301 -32 17.5 -42s27.834 -15 48.501 -15zM460.999 625.001v-12h-106l-75 72l-76 -72
h-103v13l138 117h82z" />
    <glyph glyph-name="atilde" unicode="&#xe3;" horiz-adv-x="549" 
d="M367 0c-4 8.66699 -7.33301 17.668 -10 27.001s-5 18.666 -7 27.999c-16.667 -19.333 -37.167 -35 -61.5 -47s-52.166 -18 -83.499 -18c-52 0 -93.167 14 -123.5 42s-45.5 66.333 -45.5 115c0 49.333 19.833 87.5 59.5 114.5s98.167 40.5 175.5 40.5h72v52
c0 25.333 -7.33301 45 -22 59s-36.334 21 -65.001 21c-16 0 -30.333 -1.83301 -43 -5.5s-23 -8.16699 -31 -13.5l-9 -57h-108l1 118c26 17.333 55.833 32 89.5 44s70.5 18 110.5 18c65.333 0 118.333 -16 159 -48s61 -77.667 61 -137v-218c0 -8 0.166992 -15.667 0.5 -23
s0.833008 -14.333 1.5 -21l44 -6v-85h-165zM244 95.001c21.333 0 40.832 4.66699 58.499 14s31.167 21 40.5 35v81h-72c-30 0 -53 -7.16699 -69 -21.5s-24 -31.5 -24 -51.5c0 -18 5.83301 -32 17.5 -42s27.834 -15 48.501 -15zM457.999 739.001
c0 -31.333 -9.66602 -58.001 -28.999 -80.001s-43.666 -33 -72.999 -33c-22.667 0 -48.5 7 -77.5 21s-51.833 21 -68.5 21c-12 0 -22 -5.16699 -30 -15.5s-12 -22.833 -12 -37.5l-75 20c0 30.667 9.66699 57.334 29 80.001s43.666 34 72.999 34
c18 0 42.5 -7.16699 73.5 -21.5s55.167 -21.5 72.5 -21.5c11.333 0 21.166 5.33301 29.499 16s12.5 23.667 12.5 39z" />
    <glyph glyph-name="adieresis" unicode="&#xe4;" horiz-adv-x="549" 
d="M367 0c-4 8.66699 -7.33301 17.668 -10 27.001s-5 18.666 -7 27.999c-16.667 -19.333 -37.167 -35 -61.5 -47s-52.166 -18 -83.499 -18c-52 0 -93.167 14 -123.5 42s-45.5 66.333 -45.5 115c0 49.333 19.833 87.5 59.5 114.5s98.167 40.5 175.5 40.5h72v52
c0 25.333 -7.33301 45 -22 59s-36.334 21 -65.001 21c-16 0 -30.333 -1.83301 -43 -5.5s-23 -8.16699 -31 -13.5l-9 -57h-108l1 118c26 17.333 55.833 32 89.5 44s70.5 18 110.5 18c65.333 0 118.333 -16 159 -48s61 -77.667 61 -137v-218c0 -8 0.166992 -15.667 0.5 -23
s0.833008 -14.333 1.5 -21l44 -6v-85h-165zM244 95.001c21.333 0 40.832 4.66699 58.499 14s31.167 21 40.5 35v81h-72c-30 0 -53 -7.16699 -69 -21.5s-24 -31.5 -24 -51.5c0 -18 5.83301 -32 17.5 -42s27.834 -15 48.501 -15zM460.999 623.001h-131v100h131v-100z
M216.999 623.001h-131v100h131v-100z" />
    <glyph glyph-name="aring" unicode="&#xe5;" horiz-adv-x="549" 
d="M367 0c-4 8.66699 -7.33301 17.668 -10 27.001s-5 18.666 -7 27.999c-16.667 -19.333 -37.167 -35 -61.5 -47s-52.166 -18 -83.499 -18c-52 0 -93.167 14 -123.5 42s-45.5 66.333 -45.5 115c0 49.333 19.833 87.5 59.5 114.5s98.167 40.5 175.5 40.5h72v52
c0 25.333 -7.33301 45 -22 59s-36.334 21 -65.001 21c-16 0 -30.333 -1.83301 -43 -5.5s-23 -8.16699 -31 -13.5l-9 -57h-108l1 118c26 17.333 55.833 32 89.5 44s70.5 18 110.5 18c65.333 0 118.333 -16 159 -48s61 -77.667 61 -137v-218c0 -8 0.166992 -15.667 0.5 -23
s0.833008 -14.333 1.5 -21l44 -6v-85h-165zM244 95.001c21.333 0 40.832 4.66699 58.499 14s31.167 21 40.5 35v81h-72c-30 0 -53 -7.16699 -69 -21.5s-24 -31.5 -24 -51.5c0 -18 5.83301 -32 17.5 -42s27.834 -15 48.501 -15zM176.999 694.001c0 27.333 10 50 30 68
s44.667 27 74 27c28.667 0 52.834 -9.16699 72.501 -27.5s29.5 -40.833 29.5 -67.5c0 -27.333 -9.83301 -49.833 -29.5 -67.5s-43.834 -26.5 -72.501 -26.5c-29.333 0 -54 8.83301 -74 26.5s-30 40.167 -30 67.5zM232.999 694.001c0 -14 4.5 -25.5 13.5 -34.5
s20.5 -13.5 34.5 -13.5c13.333 0 24.166 4.5 32.499 13.5s12.5 20.5 12.5 34.5s-4.16699 25.667 -12.5 35s-19.166 14 -32.499 14c-14 0 -25.5 -4.66699 -34.5 -14s-13.5 -21 -13.5 -35z" />
    <glyph glyph-name="ae" unicode="&#xe6;" horiz-adv-x="871" 
d="M622 -10c-42 0 -79.4971 6.50098 -112.497 19.501s-60.167 31.833 -81.5 56.5c-19.333 -22 -45.666 -40.167 -78.999 -54.5s-72.666 -21.5 -117.999 -21.5c-62.667 0 -110.834 14.667 -144.501 44s-50.5 69.666 -50.5 120.999c0 52 20.667 91.833 62 119.5
s101.333 41.5 180 41.5h89v29c0 26 -6.66699 46.333 -20 61s-32 22 -56 22c-26.667 0 -47.5 -6 -62.5 -18s-22.5 -27.333 -22.5 -46l-138 9l-1 3c-2 46.667 17.667 85.334 59 116.001s96.666 46 165.999 46c33.333 0 63.666 -4.5 90.999 -13.5s50.666 -21.833 69.999 -38.5
c20 16.667 43.167 29.5 69.5 38.5s55.5 13.5 87.5 13.5c69.333 0 123.666 -21.5 162.999 -64.5s59 -101.167 59 -174.5v-77h-317l-1 -3c1.33301 -36.667 12 -65.834 32 -87.501s50.333 -32.5 91 -32.5c30 0 55 3.33301 75 10s42.667 16.667 68 30l38 -90
c-20 -15.333 -47.333 -29 -82 -41s-72.667 -18 -114 -18zM259.003 90.001c18.667 0 38.332 4.99902 58.999 14.999s37 22 49 36v86h-88c-32 0 -56.833 -7.16699 -74.5 -21.5s-26.5 -31.833 -26.5 -52.5c0 -19.333 6.83301 -34.666 20.5 -45.999s33.834 -17 60.501 -17z
M610.001 428c-30.667 0 -53.667 -10 -69 -30s-24 -47 -26 -81l1 -3h176v14c0 30.667 -6.83301 55 -20.5 73s-34.167 27 -61.5 27z" />
    <glyph glyph-name="ccedilla" unicode="&#xe7;" horiz-adv-x="526" 
d="M279 99c25.333 0 45.6641 7.5 60.9971 22.5s23 34.833 23 59.5h129l1 -3c1.33301 -53.333 -18.667 -98 -60 -134s-92.666 -54 -153.999 -54c-78.667 0 -139.334 24.833 -182.001 74.5s-64 113.5 -64 191.5v15c0 78 21.833 142 65.5 192s106.167 75 187.5 75
c42.667 0 80.834 -6.33301 114.501 -19s61.834 -30.667 84.501 -54l2 -141h-116l-23 83c-7.33301 6 -16.166 11 -26.499 15s-22.166 6 -35.499 6c-40.667 0 -69.334 -14.667 -86.001 -44s-25 -67 -25 -113v-15c0 -47.333 7.66699 -85.333 23 -114s42.333 -43 81 -43z
M320.998 2l-6.00098 -28c20.667 -3.33301 38 -11.666 52 -24.999s21 -33 21 -59c0 -34.667 -14.833 -62.5 -44.5 -83.5s-71.834 -31.5 -126.501 -31.5l-3 78c16.667 0 29.834 3.5 39.501 10.5s14.5 17.167 14.5 30.5s-5.16699 22.666 -15.5 27.999s-28.166 9 -53.499 11
l15 69h107z" />
    <glyph glyph-name="egrave" unicode="&#xe8;" horiz-adv-x="532" 
d="M284 -10c-76 0 -136.833 24.333 -182.5 73s-68.5 110.667 -68.5 186v20c0 78.667 21.5 143.334 64.5 194.001s100.833 75.667 173.5 75c71.333 0 126.666 -21.5 165.999 -64.5s59 -101.167 59 -174.5v-77h-315l-1 -3c2.66699 -34.667 14.334 -63.334 35.001 -86.001
s48.667 -34 84 -34c31.333 0 57.5 3.16699 78.5 9.5s43.833 16.5 68.5 30.5l38 -88c-22 -17.333 -50.167 -31.833 -84.5 -43.5s-72.833 -17.5 -115.5 -17.5zM271 428c-26.667 0 -47.5 -10 -62.5 -30s-24.5 -46.667 -28.5 -80l2 -2h174v13c0 30 -7 54 -21 72
s-35.333 27 -64 27zM338 608h-115l-133 127l1 3h152z" />
    <glyph glyph-name="eacute" unicode="&#xe9;" horiz-adv-x="532" 
d="M284 -10c-76 0 -136.833 24.333 -182.5 73s-68.5 110.667 -68.5 186v20c0 78.667 21.5 143.334 64.5 194.001s100.833 75.667 173.5 75c71.333 0 126.666 -21.5 165.999 -64.5s59 -101.167 59 -174.5v-77h-315l-1 -3c2.66699 -34.667 14.334 -63.334 35.001 -86.001
s48.667 -34 84 -34c31.333 0 57.5 3.16699 78.5 9.5s43.833 16.5 68.5 30.5l38 -88c-22 -17.333 -50.167 -31.833 -84.5 -43.5s-72.833 -17.5 -115.5 -17.5zM271 428c-26.667 0 -47.5 -10 -62.5 -30s-24.5 -46.667 -28.5 -80l2 -2h174v13c0 30 -7 54 -21 72
s-35.333 27 -64 27zM275 734h151l1 -3l-135 -127h-114z" />
    <glyph glyph-name="ecircumflex" unicode="&#xea;" horiz-adv-x="532" 
d="M284 -10c-76 0 -136.833 24.333 -182.5 73s-68.5 110.667 -68.5 186v20c0 78.667 21.5 143.334 64.5 194.001s100.833 75.667 173.5 75c71.333 0 126.666 -21.5 165.999 -64.5s59 -101.167 59 -174.5v-77h-315l-1 -3c2.66699 -34.667 14.334 -63.334 35.001 -86.001
s48.667 -34 84 -34c31.333 0 57.5 3.16699 78.5 9.5s43.833 16.5 68.5 30.5l38 -88c-22 -17.333 -50.167 -31.833 -84.5 -43.5s-72.833 -17.5 -115.5 -17.5zM271 428c-26.667 0 -47.5 -10 -62.5 -30s-24.5 -46.667 -28.5 -80l2 -2h174v13c0 30 -7 54 -21 72
s-35.333 27 -64 27zM445 626v-12h-106l-75 72l-76 -72h-103v13l138 117h82z" />
    <glyph glyph-name="edieresis" unicode="&#xeb;" horiz-adv-x="532" 
d="M284 -10c-76 0 -136.833 24.333 -182.5 73s-68.5 110.667 -68.5 186v20c0 78.667 21.5 143.334 64.5 194.001s100.833 75.667 173.5 75c71.333 0 126.666 -21.5 165.999 -64.5s59 -101.167 59 -174.5v-77h-315l-1 -3c2.66699 -34.667 14.334 -63.334 35.001 -86.001
s48.667 -34 84 -34c31.333 0 57.5 3.16699 78.5 9.5s43.833 16.5 68.5 30.5l38 -88c-22 -17.333 -50.167 -31.833 -84.5 -43.5s-72.833 -17.5 -115.5 -17.5zM271 428c-26.667 0 -47.5 -10 -62.5 -30s-24.5 -46.667 -28.5 -80l2 -2h174v13c0 30 -7 54 -21 72
s-35.333 27 -64 27zM445 624h-131v100h131v-100zM201 624h-131v100h131v-100z" />
    <glyph glyph-name="igrave" unicode="&#xec;" horiz-adv-x="334" 
d="M34 442v86h219v-428l68 -15v-85h-279v85l68 15v328zM251 609h-115l-133 127l1 3h152z" />
    <glyph glyph-name="iacute" unicode="&#xed;" horiz-adv-x="334" 
d="M34 442v86h219v-428l68 -15v-85h-279v85l68 15v328zM187 735h151l1 -3l-135 -127h-114z" />
    <glyph glyph-name="icircumflex" unicode="&#xee;" horiz-adv-x="334" 
d="M34 442v86h219v-428l68 -15v-85h-279v85l68 15v328zM358 626v-12h-106l-75 72l-76 -72h-103v13l138 117h82z" />
    <glyph glyph-name="idieresis" unicode="&#xef;" horiz-adv-x="334" 
d="M34 442v86h219v-428l68 -15v-85h-279v85l68 15v328zM358 624h-131v100h131v-100zM114 624h-131v100h131v-100z" />
    <glyph glyph-name="eth" unicode="&#xf0;" horiz-adv-x="594" 
d="M448 626c36 -38 63.835 -82.666 83.502 -133.999s29.5 -107.666 29.5 -168.999v-37c0 -86.667 -25.667 -157.667 -77 -213s-115.333 -83 -192 -83c-77.333 0 -140.5 22.833 -189.5 68.5s-73.5 102.5 -73.5 170.5c0 73.333 21.833 132.166 65.5 176.499
s103.167 66.5 178.5 66.5c24.667 0 48 -3.5 70 -10.5s41 -16.833 57 -29.5l2 2c-6.66699 24.667 -16.334 47.5 -29.001 68.5s-27.334 40.167 -44.001 57.5l-113 -63l-38 55l93 52c-11.333 6 -23 11.5 -35 16.5s-24 9.5 -36 13.5l45 107
c28 -6.66699 54.5 -15.834 79.5 -27.501s48.833 -25.5 71.5 -41.5l101 57l38 -55zM418.002 324.001c-11.333 13.333 -27.499 24.167 -48.499 32.5s-45.833 12.5 -74.5 12.5c-39.333 0 -69.833 -12.833 -91.5 -38.5s-32.5 -59.5 -32.5 -101.5c0 -36 11.167 -66.667 33.5 -92
s52.166 -38 89.499 -38c38 0 68.167 17.5 90.5 52.5s33.5 79.833 33.5 134.5v38z" />
    <glyph glyph-name="ntilde" unicode="&#xf1;" horiz-adv-x="634" 
d="M23 85l67.999 15v328l-75 14v86h208l6 -75c17.333 27.333 39 48.333 65 63s55 22 87 22c53.333 0 95 -16.667 125 -50s45 -86 45 -158v-230l68 -15v-85h-272v85l61 15v230c0 35.333 -7.16699 60.333 -21.5 75s-36.166 22 -65.499 22
c-18.667 0 -35.5 -3.83301 -50.5 -11.5s-27.5 -18.5 -37.5 -32.5v-283l58 -15v-85h-269v85zM479.999 739c0 -31.333 -9.66602 -58.001 -28.999 -80.001s-43.666 -33 -72.999 -33c-22.667 0 -48.5 7 -77.5 21s-51.833 21 -68.5 21c-12 0 -22 -5.16699 -30 -15.5
s-12 -22.833 -12 -37.5l-75 20c0 30.667 9.66699 57.334 29 80.001s43.666 34 72.999 34c18 0 42.5 -7.16699 73.5 -21.5s55.167 -21.5 72.5 -21.5c11.333 0 21.166 5.33301 29.499 16s12.5 23.667 12.5 39z" />
    <glyph glyph-name="ograve" unicode="&#xf2;" horiz-adv-x="560" 
d="M31 269c0 78.667 22 143.167 66 193.5s105 75.5 183 75.5s139 -25 183 -75s66 -114.667 66 -194v-10c0 -79.333 -22 -144 -66 -194s-104.667 -75 -182 -75c-78.667 0 -140 25 -184 75s-66 114.667 -66 194v10zM173 259c0 -48 8.5 -86.667 25.5 -116s44.5 -44 82.5 -44
c36.667 0 63.5 14.667 80.5 44s25.5 68 25.5 116v10c0 46.667 -8.66699 84.834 -26 114.501s-44.333 44.5 -81 44.5c-37.333 0 -64.5 -14.833 -81.5 -44.5s-25.5 -67.834 -25.5 -114.501v-10zM355 609h-115l-133 127l1 3h152z" />
    <glyph glyph-name="oacute" unicode="&#xf3;" horiz-adv-x="560" 
d="M31 269c0 78.667 22 143.167 66 193.5s105 75.5 183 75.5s139 -25 183 -75s66 -114.667 66 -194v-10c0 -79.333 -22 -144 -66 -194s-104.667 -75 -182 -75c-78.667 0 -140 25 -184 75s-66 114.667 -66 194v10zM173 259c0 -48 8.5 -86.667 25.5 -116s44.5 -44 82.5 -44
c36.667 0 63.5 14.667 80.5 44s25.5 68 25.5 116v10c0 46.667 -8.66699 84.834 -26 114.501s-44.333 44.5 -81 44.5c-37.333 0 -64.5 -14.833 -81.5 -44.5s-25.5 -67.834 -25.5 -114.501v-10zM291 735h151l1 -3l-135 -127h-114z" />
    <glyph glyph-name="ocircumflex" unicode="&#xf4;" horiz-adv-x="560" 
d="M31 269c0 78.667 22 143.167 66 193.5s105 75.5 183 75.5s139 -25 183 -75s66 -114.667 66 -194v-10c0 -79.333 -22 -144 -66 -194s-104.667 -75 -182 -75c-78.667 0 -140 25 -184 75s-66 114.667 -66 194v10zM173 259c0 -48 8.5 -86.667 25.5 -116s44.5 -44 82.5 -44
c36.667 0 63.5 14.667 80.5 44s25.5 68 25.5 116v10c0 46.667 -8.66699 84.834 -26 114.501s-44.333 44.5 -81 44.5c-37.333 0 -64.5 -14.833 -81.5 -44.5s-25.5 -67.834 -25.5 -114.501v-10zM461 626v-12h-106l-75 72l-76 -72h-103v13l138 117h82z" />
    <glyph glyph-name="otilde" unicode="&#xf5;" horiz-adv-x="560" 
d="M31 269c0 78.667 22 143.167 66 193.5s105 75.5 183 75.5s139 -25 183 -75s66 -114.667 66 -194v-10c0 -79.333 -22 -144 -66 -194s-104.667 -75 -182 -75c-78.667 0 -140 25 -184 75s-66 114.667 -66 194v10zM173 259c0 -48 8.5 -86.667 25.5 -116s44.5 -44 82.5 -44
c36.667 0 63.5 14.667 80.5 44s25.5 68 25.5 116v10c0 46.667 -8.66699 84.834 -26 114.501s-44.333 44.5 -81 44.5c-37.333 0 -64.5 -14.833 -81.5 -44.5s-25.5 -67.834 -25.5 -114.501v-10zM458 740c0 -31.333 -9.66602 -58.001 -28.999 -80.001s-43.666 -33 -72.999 -33
c-22.667 0 -48.5 7 -77.5 21s-51.833 21 -68.5 21c-12 0 -22 -5.16699 -30 -15.5s-12 -22.833 -12 -37.5l-75 20c0 30.667 9.66699 57.334 29 80.001s43.666 34 72.999 34c18 0 42.5 -7.16699 73.5 -21.5s55.167 -21.5 72.5 -21.5c11.333 0 21.166 5.33301 29.499 16
s12.5 23.667 12.5 39z" />
    <glyph glyph-name="odieresis" unicode="&#xf6;" horiz-adv-x="560" 
d="M31 269c0 78.667 22 143.167 66 193.5s105 75.5 183 75.5s139 -25 183 -75s66 -114.667 66 -194v-10c0 -79.333 -22 -144 -66 -194s-104.667 -75 -182 -75c-78.667 0 -140 25 -184 75s-66 114.667 -66 194v10zM173 259c0 -48 8.5 -86.667 25.5 -116s44.5 -44 82.5 -44
c36.667 0 63.5 14.667 80.5 44s25.5 68 25.5 116v10c0 46.667 -8.66699 84.834 -26 114.501s-44.333 44.5 -81 44.5c-37.333 0 -64.5 -14.833 -81.5 -44.5s-25.5 -67.834 -25.5 -114.501v-10zM461 624h-131v100h131v-100zM217 624h-131v100h131v-100z" />
    <glyph glyph-name="divide" unicode="&#xf7;" horiz-adv-x="553" 
d="M529 280h-502v111h502v-111zM350 475h-142v114h142v-114zM350 80h-142v114h142v-114z" />
    <glyph glyph-name="oslash" unicode="&#xf8;" horiz-adv-x="575" 
d="M37 269c0 78.667 21.998 143.165 65.998 193.498s105 75.5 183 75.5c14.667 0 28.834 -1 42.501 -3s27.167 -5 40.5 -9l33 67h79l-48 -98c32.667 -23.333 58 -54.666 76 -93.999s27 -83.333 27 -132v-10c0 -79.333 -22.167 -144 -66.5 -194s-105.166 -75 -182.499 -75
c-17.333 0 -33.833 1.33301 -49.5 4s-30.5 6.33398 -44.5 11.001l-36 -74h-79l53 108c-30.667 23.333 -54 54 -70 92s-24 80.667 -24 128v10zM393.998 268.998c0 20 -1.66699 38.834 -5 56.501s-8 32.167 -14 43.5h-3l-128 -261c6 -2.66699 12.5 -4.83398 19.5 -6.50098
s14.833 -2.5 23.5 -2.5c36.667 0 63.667 14.667 81 44s26 68 26 116v10zM179.998 258.999c0 -18 1 -34.499 3 -49.499s5.33301 -27.5 10 -37.5l2 -1l124 252c-5.33301 1.33301 -10.833 2.5 -16.5 3.5s-11.167 1.5 -16.5 1.5c-37.333 0 -64.333 -14.833 -81 -44.5
s-25 -67.834 -25 -114.501v-10z" />
    <glyph glyph-name="ugrave" unicode="&#xf9;" horiz-adv-x="624" 
d="M400 67c-16.667 -24.667 -37.5 -43.667 -62.5 -57s-53.5 -20 -85.5 -20c-55.333 0 -98.833 17.833 -130.5 53.5s-47.5 90.834 -47.5 165.501v219l-58 14v86h58h143v-320c0 -38.667 6.33301 -66.167 19 -82.5s31.667 -24.5 57 -24.5c22.667 0 42.167 3.66699 58.5 11
s29.833 17.666 40.5 30.999v285l-62 14v86h62h143v-428l64 -15v-85h-189zM371 609h-115l-133 127l1 3h152z" />
    <glyph glyph-name="uacute" unicode="&#xfa;" horiz-adv-x="624" 
d="M400 67c-16.667 -24.667 -37.5 -43.667 -62.5 -57s-53.5 -20 -85.5 -20c-55.333 0 -98.833 17.833 -130.5 53.5s-47.5 90.834 -47.5 165.501v219l-58 14v86h58h143v-320c0 -38.667 6.33301 -66.167 19 -82.5s31.667 -24.5 57 -24.5c22.667 0 42.167 3.66699 58.5 11
s29.833 17.666 40.5 30.999v285l-62 14v86h62h143v-428l64 -15v-85h-189zM307 735h151l1 -3l-135 -127h-114z" />
    <glyph glyph-name="ucircumflex" unicode="&#xfb;" horiz-adv-x="624" 
d="M400 67c-16.667 -24.667 -37.5 -43.667 -62.5 -57s-53.5 -20 -85.5 -20c-55.333 0 -98.833 17.833 -130.5 53.5s-47.5 90.834 -47.5 165.501v219l-58 14v86h58h143v-320c0 -38.667 6.33301 -66.167 19 -82.5s31.667 -24.5 57 -24.5c22.667 0 42.167 3.66699 58.5 11
s29.833 17.666 40.5 30.999v285l-62 14v86h62h143v-428l64 -15v-85h-189zM477 626v-12h-106l-75 72l-76 -72h-103v13l138 117h82z" />
    <glyph glyph-name="udieresis" unicode="&#xfc;" horiz-adv-x="624" 
d="M400 67c-16.667 -24.667 -37.5 -43.667 -62.5 -57s-53.5 -20 -85.5 -20c-55.333 0 -98.833 17.833 -130.5 53.5s-47.5 90.834 -47.5 165.501v219l-58 14v86h58h143v-320c0 -38.667 6.33301 -66.167 19 -82.5s31.667 -24.5 57 -24.5c22.667 0 42.167 3.66699 58.5 11
s29.833 17.666 40.5 30.999v285l-62 14v86h62h143v-428l64 -15v-85h-189zM477 624h-131v100h131v-100zM233 624h-131v100h131v-100z" />
    <glyph glyph-name="yacute" unicode="&#xfd;" horiz-adv-x="591" 
d="M578 442l-50.001 -7.00098l-194 -514c-15.333 -38 -35.833 -69.833 -61.5 -95.5s-64.167 -38.5 -115.5 -38.5c-12 0 -23.333 0.833008 -34 2.5s-23 4.5 -37 8.5l17 104l14 -2c4.66699 -0.666992 8.66699 -1 12 -1c24 0 42.333 5.83301 55 17.5
s22.334 25.834 29.001 42.501l16 41l-167 435l-49 7v86h258v-86l-59 -9l73 -211l7 -38l3 -1l83 250l-59 9v86h259v-86zM298.999 726.999h151l1 -3l-135 -127h-114z" />
    <glyph glyph-name="thorn" unicode="&#xfe;" horiz-adv-x="608" 
d="M17 676l-0.000976562 86.001h218v-289c15.333 20.667 33.5 36.667 54.5 48s45.5 17 73.5 17c65.333 0 116 -25.5 152 -76.5s54 -118.167 54 -201.5v-10c0 -78 -18 -140.833 -54 -188.5s-86.333 -71.5 -151 -71.5c-28 0 -52.667 5.16699 -74 15.5
s-39.666 25.166 -54.999 44.499v-153l69 -14v-86h-280v86l69 14v764zM426.999 260.001c0 50 -8.33398 90.334 -25.001 121.001s-42 46 -76 46c-21.333 0 -39.666 -4.33301 -54.999 -13s-27.333 -21.334 -36 -38.001v-231c8.66699 -14.667 20.5 -26 35.5 -34
s33.833 -12 56.5 -12c34.667 0 60 13.5 76 40.5s24 63.833 24 110.5v10z" />
    <glyph glyph-name="ydieresis" unicode="&#xff;" horiz-adv-x="591" 
d="M578 442l-50.001 -7.00098l-194 -514c-15.333 -38 -35.833 -69.833 -61.5 -95.5s-64.167 -38.5 -115.5 -38.5c-12 0 -23.333 0.833008 -34 2.5s-23 4.5 -37 8.5l17 104l14 -2c4.66699 -0.666992 8.66699 -1 12 -1c24 0 42.333 5.83301 55 17.5
s22.334 25.834 29.001 42.501l16 41l-167 435l-49 7v86h258v-86l-59 -9l73 -211l7 -38l3 -1l83 250l-59 9v86h259v-86zM468.999 616.999h-131v100h131v-100zM224.999 616.999h-131v100h131v-100z" />
    <glyph glyph-name="Amacron" unicode="&#x100;" 
d="M20 85l51 8l216 618h146l215 -618l51 -8v-85h-242v85l49 9l-31 98h-231l-31 -98l49 -9v-85h-242v85zM278 297h163l-80 250h-3zM529 790h-357v80h357v-80z" />
    <glyph glyph-name="amacron" unicode="&#x101;" horiz-adv-x="549" 
d="M367 0c-4 8.66699 -7.33301 17.668 -10 27.001s-5 18.666 -7 27.999c-16.667 -19.333 -37.167 -35 -61.5 -47s-52.166 -18 -83.499 -18c-52 0 -93.167 14 -123.5 42s-45.5 66.333 -45.5 115c0 49.333 19.833 87.5 59.5 114.5s98.167 40.5 175.5 40.5h72v52
c0 25.333 -7.33301 45 -22 59s-36.334 21 -65.001 21c-16 0 -30.333 -1.83301 -43 -5.5s-23 -8.16699 -31 -13.5l-9 -57h-108l1 118c26 17.333 55.833 32 89.5 44s70.5 18 110.5 18c65.333 0 118.333 -16 159 -48s61 -77.667 61 -137v-218c0 -8 0.166992 -15.667 0.5 -23
s0.833008 -14.333 1.5 -21l44 -6v-85h-165zM244 95.001c21.333 0 40.832 4.66699 58.499 14s31.167 21 40.5 35v81h-72c-30 0 -53 -7.16699 -69 -21.5s-24 -31.5 -24 -51.5c0 -18 5.83301 -32 17.5 -42s27.834 -15 48.501 -15zM451.999 631.001h-357v80h357v-80z" />
    <glyph glyph-name="Abreve" unicode="&#x102;" 
d="M20 85l51 8l216 618h146l215 -618l51 -8v-85h-242v85l49 9l-31 98h-231l-31 -98l49 -9v-85h-242v85zM278 297h163l-80 250h-3zM518 919l1 -3c1.33301 -41.333 -13.167 -75.166 -43.5 -101.499s-71.166 -39.5 -122.499 -39.5c-52 0 -93.167 13.167 -123.5 39.5
s-44.5 60.166 -42.5 101.499l1 3h96c0 -18.667 5.66699 -34.167 17 -46.5s28.666 -18.5 51.999 -18.5s40.5 6 51.5 18s16.5 27.667 16.5 47h97z" />
    <glyph glyph-name="abreve" unicode="&#x103;" horiz-adv-x="549" 
d="M367 0c-4 8.66699 -7.33301 17.668 -10 27.001s-5 18.666 -7 27.999c-16.667 -19.333 -37.167 -35 -61.5 -47s-52.166 -18 -83.499 -18c-52 0 -93.167 14 -123.5 42s-45.5 66.333 -45.5 115c0 49.333 19.833 87.5 59.5 114.5s98.167 40.5 175.5 40.5h72v52
c0 25.333 -7.33301 45 -22 59s-36.334 21 -65.001 21c-16 0 -30.333 -1.83301 -43 -5.5s-23 -8.16699 -31 -13.5l-9 -57h-108l1 118c26 17.333 55.833 32 89.5 44s70.5 18 110.5 18c65.333 0 118.333 -16 159 -48s61 -77.667 61 -137v-218c0 -8 0.166992 -15.667 0.5 -23
s0.833008 -14.333 1.5 -21l44 -6v-85h-165zM244 95.001c21.333 0 40.832 4.66699 58.499 14s31.167 21 40.5 35v81h-72c-30 0 -53 -7.16699 -69 -21.5s-24 -31.5 -24 -51.5c0 -18 5.83301 -32 17.5 -42s27.834 -15 48.501 -15zM441.999 761.001l1 -3
c1.33301 -41.333 -13.167 -75.166 -43.5 -101.499s-71.166 -39.5 -122.499 -39.5c-52 0 -93.167 13.167 -123.5 39.5s-44.5 60.166 -42.5 101.499l1 3h96c0 -18.667 5.66699 -34.167 17 -46.5s28.666 -18.5 51.999 -18.5s40.5 6 51.5 18s16.5 27.667 16.5 47h97z" />
    <glyph glyph-name="Aogonek" unicode="&#x104;" 
d="M20 85l51 8l216 618h146l215 -618l51 -8v-85h-242v85l49 9l-31 98h-231l-31 -98l49 -9v-85h-242v85zM278 297h163l-80 250h-3zM699 0c-17.333 -17.333 -30.1689 -32 -38.502 -44s-12.5 -26 -12.5 -42c0 -8.66699 2.83301 -16.5 8.5 -23.5s16.834 -10.5 33.501 -10.5
c9.33301 0 17.5 1 24.5 3s14.167 4.33301 21.5 7l17 -76c-12 -6 -25.167 -11 -39.5 -15s-31.166 -6 -50.499 -6c-35.333 0 -64.333 9.16699 -87 27.5s-34 43.833 -34 76.5c0 25.333 7.33301 49.333 22 72s38 42.667 70 60z" />
    <glyph glyph-name="aogonek" unicode="&#x105;" horiz-adv-x="549" 
d="M367 0c-4 8.66699 -7.33301 17.668 -10 27.001s-5 18.666 -7 27.999c-16.667 -19.333 -37.167 -35 -61.5 -47s-52.166 -18 -83.499 -18c-52 0 -93.167 14 -123.5 42s-45.5 66.333 -45.5 115c0 49.333 19.833 87.5 59.5 114.5s98.167 40.5 175.5 40.5h72v52
c0 25.333 -7.33301 45 -22 59s-36.334 21 -65.001 21c-16 0 -30.333 -1.83301 -43 -5.5s-23 -8.16699 -31 -13.5l-9 -57h-108l1 118c26 17.333 55.833 32 89.5 44s70.5 18 110.5 18c65.333 0 118.333 -16 159 -48s61 -77.667 61 -137v-218c0 -8 0.166992 -15.667 0.5 -23
s0.833008 -14.333 1.5 -21l44 -6v-85h-165zM244 95.001c21.333 0 40.832 4.66699 58.499 14s31.167 21 40.5 35v81h-72c-30 0 -53 -7.16699 -69 -21.5s-24 -31.5 -24 -51.5c0 -18 5.83301 -32 17.5 -42s27.834 -15 48.501 -15zM531.999 0.000976562
c-17.333 -17.333 -30.1689 -32 -38.502 -44s-12.5 -26 -12.5 -42c0 -8.66699 2.83301 -16.5 8.5 -23.5s16.834 -10.5 33.501 -10.5c9.33301 0 17.5 1 24.5 3s14.167 4.33301 21.5 7l17 -76c-12 -6 -25.167 -11 -39.5 -15s-31.166 -6 -50.499 -6
c-35.333 0 -64.333 9.16699 -87 27.5s-34 43.833 -34 76.5c0 25.333 7.33301 49.333 22 72s38 42.667 70 60z" />
    <glyph glyph-name="Cacute" unicode="&#x106;" horiz-adv-x="647" 
d="M610 471l-106.001 0.00195312l-15 95c-14 14 -31.667 25 -53 33s-46.333 12 -75 12c-62 0 -109.667 -22.333 -143 -67s-50 -103.334 -50 -176.001v-25c0 -72 16.667 -130.667 50 -176s80 -68 140 -68c28 0 53.667 4.16699 77 12.5s41.333 19.5 54 33.5l15 94h106v-140
c-28.667 -33.333 -65.167 -59.833 -109.5 -79.5s-94.166 -29.5 -149.499 -29.5c-95.333 0 -173.5 33 -234.5 99s-91.5 150.667 -91.5 254v24c0 103.333 30.333 188.166 91 254.499s139 99.5 235 99.5c55.333 0 105 -10 149 -30s80.667 -46.333 110 -79v-141z
M361.999 895.002h151l1 -3l-135 -127h-114z" />
    <glyph glyph-name="cacute" unicode="&#x107;" horiz-adv-x="526" 
d="M279 99c25.333 0 45.6641 7.5 60.9971 22.5s23 34.833 23 59.5h129l1 -3c1.33301 -53.333 -18.667 -98 -60 -134s-92.666 -54 -153.999 -54c-78.667 0 -139.334 24.833 -182.001 74.5s-64 113.5 -64 191.5v15c0 78 21.833 142 65.5 192s106.167 75 187.5 75
c42.667 0 80.834 -6.33301 114.501 -19s61.834 -30.667 84.501 -54l2 -141h-116l-23 83c-7.33301 6 -16.166 11 -26.499 15s-22.166 6 -35.499 6c-40.667 0 -69.334 -14.667 -86.001 -44s-25 -67 -25 -113v-15c0 -47.333 7.66699 -85.333 23 -114s42.333 -43 81 -43z
M291.998 734h151l1 -3l-135 -127h-114z" />
    <glyph glyph-name="Ccircumflex" unicode="&#x108;" horiz-adv-x="647" 
d="M610 471l-106.001 0.00195312l-15 95c-14 14 -31.667 25 -53 33s-46.333 12 -75 12c-62 0 -109.667 -22.333 -143 -67s-50 -103.334 -50 -176.001v-25c0 -72 16.667 -130.667 50 -176s80 -68 140 -68c28 0 53.667 4.16699 77 12.5s41.333 19.5 54 33.5l15 94h106v-140
c-28.667 -33.333 -65.167 -59.833 -109.5 -79.5s-94.166 -29.5 -149.499 -29.5c-95.333 0 -173.5 33 -234.5 99s-91.5 150.667 -91.5 254v24c0 103.333 30.333 188.166 91 254.499s139 99.5 235 99.5c55.333 0 105 -10 149 -30s80.667 -46.333 110 -79v-141z
M530.999 787.002v-12h-106l-75 72l-76 -72h-103v13l138 117h82z" />
    <glyph glyph-name="ccircumflex" unicode="&#x109;" horiz-adv-x="526" 
d="M279 99c25.333 0 45.6641 7.5 60.9971 22.5s23 34.833 23 59.5h129l1 -3c1.33301 -53.333 -18.667 -98 -60 -134s-92.666 -54 -153.999 -54c-78.667 0 -139.334 24.833 -182.001 74.5s-64 113.5 -64 191.5v15c0 78 21.833 142 65.5 192s106.167 75 187.5 75
c42.667 0 80.834 -6.33301 114.501 -19s61.834 -30.667 84.501 -54l2 -141h-116l-23 83c-7.33301 6 -16.166 11 -26.499 15s-22.166 6 -35.499 6c-40.667 0 -69.334 -14.667 -86.001 -44s-25 -67 -25 -113v-15c0 -47.333 7.66699 -85.333 23 -114s42.333 -43 81 -43z
M461.998 625v-12h-106l-75 72l-76 -72h-103v13l138 117h82z" />
    <glyph glyph-name="uni010A" unicode="&#x10a;" horiz-adv-x="647" 
d="M610 471l-106.001 0.00195312l-15 95c-14 14 -31.667 25 -53 33s-46.333 12 -75 12c-62 0 -109.667 -22.333 -143 -67s-50 -103.334 -50 -176.001v-25c0 -72 16.667 -130.667 50 -176s80 -68 140 -68c28 0 53.667 4.16699 77 12.5s41.333 19.5 54 33.5l15 94h106v-140
c-28.667 -33.333 -65.167 -59.833 -109.5 -79.5s-94.166 -29.5 -149.499 -29.5c-95.333 0 -173.5 33 -234.5 99s-91.5 150.667 -91.5 254v24c0 103.333 30.333 188.166 91 254.499s139 99.5 235 99.5c55.333 0 105 -10 149 -30s80.667 -46.333 110 -79v-141z
M418.999 785.002h-149v118h149v-118z" />
    <glyph glyph-name="uni010B" unicode="&#x10b;" horiz-adv-x="526" 
d="M279 99c25.333 0 45.6641 7.5 60.9971 22.5s23 34.833 23 59.5h129l1 -3c1.33301 -53.333 -18.667 -98 -60 -134s-92.666 -54 -153.999 -54c-78.667 0 -139.334 24.833 -182.001 74.5s-64 113.5 -64 191.5v15c0 78 21.833 142 65.5 192s106.167 75 187.5 75
c42.667 0 80.834 -6.33301 114.501 -19s61.834 -30.667 84.501 -54l2 -141h-116l-23 83c-7.33301 6 -16.166 11 -26.499 15s-22.166 6 -35.499 6c-40.667 0 -69.334 -14.667 -86.001 -44s-25 -67 -25 -113v-15c0 -47.333 7.66699 -85.333 23 -114s42.333 -43 81 -43z
M348.998 623h-149v118h149v-118z" />
    <glyph glyph-name="Ccaron" unicode="&#x10c;" horiz-adv-x="647" 
d="M610 471l-106.001 0.00195312l-15 95c-14 14 -31.667 25 -53 33s-46.333 12 -75 12c-62 0 -109.667 -22.333 -143 -67s-50 -103.334 -50 -176.001v-25c0 -72 16.667 -130.667 50 -176s80 -68 140 -68c28 0 53.667 4.16699 77 12.5s41.333 19.5 54 33.5l15 94h106v-140
c-28.667 -33.333 -65.167 -59.833 -109.5 -79.5s-94.166 -29.5 -149.499 -29.5c-95.333 0 -173.5 33 -234.5 99s-91.5 150.667 -91.5 254v24c0 103.333 30.333 188.166 91 254.499s139 99.5 235 99.5c55.333 0 105 -10 149 -30s80.667 -46.333 110 -79v-141z
M341.999 847.002l64 68h121v-8l-136 -125h-98l-137 125v8h121z" />
    <glyph glyph-name="ccaron" unicode="&#x10d;" horiz-adv-x="526" 
d="M279 99c25.333 0 45.6641 7.5 60.9971 22.5s23 34.833 23 59.5h129l1 -3c1.33301 -53.333 -18.667 -98 -60 -134s-92.666 -54 -153.999 -54c-78.667 0 -139.334 24.833 -182.001 74.5s-64 113.5 -64 191.5v15c0 78 21.833 142 65.5 192s106.167 75 187.5 75
c42.667 0 80.834 -6.33301 114.501 -19s61.834 -30.667 84.501 -54l2 -141h-116l-23 83c-7.33301 6 -16.166 11 -26.499 15s-22.166 6 -35.499 6c-40.667 0 -69.334 -14.667 -86.001 -44s-25 -67 -25 -113v-15c0 -47.333 7.66699 -85.333 23 -114s42.333 -43 81 -43z
M271.998 685l64 68h121v-8l-136 -125h-98l-137 125v8h121z" />
    <glyph glyph-name="Dcaron" unicode="&#x10e;" horiz-adv-x="688" 
d="M347 711c86.667 0 158.167 -27.832 214.5 -83.499s84.5 -126.834 84.5 -213.501v-118c0 -87.333 -28 -158.5 -84 -213.5s-127.667 -82.5 -215 -82.5h-320v85l76 15v510l-76 15v86h76h244zM246 601.001v-491.999h94c51.333 0 91.333 17.333 120 52s43 79.667 43 135v119
c0 55.333 -14.333 100.166 -43 134.499s-68.667 51.5 -120 51.5h-94zM298 843.002l64 68h121v-8l-136 -125h-98l-137 125v8h121z" />
    <glyph glyph-name="dcaron" unicode="&#x10f;" horiz-adv-x="665" 
d="M375 64c-16.667 -24.667 -36.333 -43.166 -59 -55.499s-48.667 -18.5 -78 -18.5c-65.333 0 -115.833 23.667 -151.5 71s-53.5 110.333 -53.5 189v10c0 83.333 18 150.5 54 201.5s86.667 76.5 152 76.5c26.667 0 50.5 -5.83301 71.5 -17.5s39.5 -27.834 55.5 -48.501v189
l-76 15v86h76h143v-662l68 -15v-85h-192zM175.001 250.001c0 -46 7.83105 -82.333 23.498 -109s40.834 -40 75.501 -40c20.667 0 38.834 4.16699 54.501 12.5s28.167 20.5 37.5 36.5v224c-10 16.667 -22.5 29.667 -37.5 39s-32.833 14 -53.5 14
c-34.667 0 -60 -15.5 -76 -46.5s-24 -71.167 -24 -120.5v-10zM682.999 702.001c0 -34 -6.83203 -68.834 -20.499 -104.501s-31.167 -65.167 -52.5 -88.5l-70 38c13.333 23.333 23.166 46.333 29.499 69s9.5 49.334 9.5 80.001v65h104v-59z" />
    <glyph glyph-name="Dcroat" unicode="&#x110;" horiz-adv-x="703" 
d="M362 711c86.667 0 158.167 -27.832 214.5 -83.499s84.5 -126.834 84.5 -213.501v-118c0 -87.333 -28.167 -158.5 -84.5 -213.5s-127.833 -82.5 -214.5 -82.5h-320v85l76 15v225h-96v75h96v210l-76 15v86h320zM365 325.001l-105 0.000976562v-216h94
c51.333 0 91.5 17.333 120.5 52s43.5 79.667 43.5 135v119c0 55.333 -14.5 100.166 -43.5 134.499s-69.167 51.5 -120.5 51.5h-94v-201h105v-75z" />
    <glyph glyph-name="dcroat" unicode="&#x111;" horiz-adv-x="606" 
d="M375 64c-16.667 -24.667 -36.333 -43.166 -59 -55.499s-48.667 -18.5 -78 -18.5c-65.333 0 -115.833 23.667 -151.5 71s-53.5 110.333 -53.5 189v10c0 83.333 18 150.5 54 201.5s86.667 76.5 152 76.5c26.667 0 50.5 -5.83301 71.5 -17.5s39.5 -27.834 55.5 -48.501v81
h-103v75h103v33l-76 15v86h219v-134h96v-75h-96v-453l68 -15v-85h-192zM175.001 250.001c0 -46 7.83105 -82.333 23.498 -109s40.834 -40 75.501 -40c20.667 0 38.834 4.16699 54.501 12.5s28.167 20.5 37.5 36.5v224c-10 16.667 -22.5 29.667 -37.5 39s-32.833 14 -53.5 14
c-34.667 0 -60 -15.5 -76 -46.5s-24 -71.167 -24 -120.5v-10z" />
    <glyph glyph-name="Emacron" unicode="&#x112;" horiz-adv-x="638" 
d="M486 312h-240v-203h229l6 85h109v-194h-563v85l76 15v510l-76 15v86h76h486v-195h-110l-6 85h-227v-179h240v-110zM486 790h-357v80h357v-80z" />
    <glyph glyph-name="emacron" unicode="&#x113;" horiz-adv-x="532" 
d="M284 -10c-76 0 -136.833 24.333 -182.5 73s-68.5 110.667 -68.5 186v20c0 78.667 21.5 143.334 64.5 194.001s100.833 75.667 173.5 75c71.333 0 126.666 -21.5 165.999 -64.5s59 -101.167 59 -174.5v-77h-315l-1 -3c2.66699 -34.667 14.334 -63.334 35.001 -86.001
s48.667 -34 84 -34c31.333 0 57.5 3.16699 78.5 9.5s43.833 16.5 68.5 30.5l38 -88c-22 -17.333 -50.167 -31.833 -84.5 -43.5s-72.833 -17.5 -115.5 -17.5zM271 428c-26.667 0 -47.5 -10 -62.5 -30s-24.5 -46.667 -28.5 -80l2 -2h174v13c0 30 -7 54 -21 72
s-35.333 27 -64 27zM436 632h-357v80h357v-80z" />
    <glyph glyph-name="Ebreve" unicode="&#x114;" horiz-adv-x="638" 
d="M486 312h-240v-203h229l6 85h109v-194h-563v85l76 15v510l-76 15v86h76h486v-195h-110l-6 85h-227v-179h240v-110zM475 919l1 -3c1.33301 -41.333 -13.167 -75.166 -43.5 -101.499s-71.166 -39.5 -122.499 -39.5c-52 0 -93.167 13.167 -123.5 39.5
s-44.5 60.166 -42.5 101.499l1 3h96c0 -18.667 5.66699 -34.167 17 -46.5s28.666 -18.5 51.999 -18.5s40.5 6 51.5 18s16.5 27.667 16.5 47h97z" />
    <glyph glyph-name="ebreve" unicode="&#x115;" horiz-adv-x="532" 
d="M284 -10c-76 0 -136.833 24.333 -182.5 73s-68.5 110.667 -68.5 186v20c0 78.667 21.5 143.334 64.5 194.001s100.833 75.667 173.5 75c71.333 0 126.666 -21.5 165.999 -64.5s59 -101.167 59 -174.5v-77h-315l-1 -3c2.66699 -34.667 14.334 -63.334 35.001 -86.001
s48.667 -34 84 -34c31.333 0 57.5 3.16699 78.5 9.5s43.833 16.5 68.5 30.5l38 -88c-22 -17.333 -50.167 -31.833 -84.5 -43.5s-72.833 -17.5 -115.5 -17.5zM271 428c-26.667 0 -47.5 -10 -62.5 -30s-24.5 -46.667 -28.5 -80l2 -2h174v13c0 30 -7 54 -21 72
s-35.333 27 -64 27zM425 762l1 -3c1.33301 -41.333 -13.167 -75.166 -43.5 -101.499s-71.166 -39.5 -122.499 -39.5c-52 0 -93.167 13.167 -123.5 39.5s-44.5 60.166 -42.5 101.499l1 3h96c0 -18.667 5.66699 -34.167 17 -46.5s28.666 -18.5 51.999 -18.5s40.5 6 51.5 18
s16.5 27.667 16.5 47h97z" />
    <glyph glyph-name="Edotaccent" unicode="&#x116;" horiz-adv-x="638" 
d="M486 312h-240v-203h229l6 85h109v-194h-563v85l76 15v510l-76 15v86h76h486v-195h-110l-6 85h-227v-179h240v-110zM382 782h-149v118h149v-118z" />
    <glyph glyph-name="edotaccent" unicode="&#x117;" horiz-adv-x="532" 
d="M284 -10c-76 0 -136.833 24.333 -182.5 73s-68.5 110.667 -68.5 186v20c0 78.667 21.5 143.334 64.5 194.001s100.833 75.667 173.5 75c71.333 0 126.666 -21.5 165.999 -64.5s59 -101.167 59 -174.5v-77h-315l-1 -3c2.66699 -34.667 14.334 -63.334 35.001 -86.001
s48.667 -34 84 -34c31.333 0 57.5 3.16699 78.5 9.5s43.833 16.5 68.5 30.5l38 -88c-22 -17.333 -50.167 -31.833 -84.5 -43.5s-72.833 -17.5 -115.5 -17.5zM271 428c-26.667 0 -47.5 -10 -62.5 -30s-24.5 -46.667 -28.5 -80l2 -2h174v13c0 30 -7 54 -21 72
s-35.333 27 -64 27zM332 624h-149v118h149v-118z" />
    <glyph glyph-name="Eogonek" unicode="&#x118;" horiz-adv-x="638" 
d="M486 312h-240v-203h229l6 85h109v-194h-563v85l76 15v510l-76 15v86h76h486v-195h-110l-6 85h-227v-179h240v-110zM364 5c-17.333 -17.333 -30.1689 -32 -38.502 -44s-12.5 -26 -12.5 -42c0 -8.66699 2.83301 -16.5 8.5 -23.5s16.834 -10.5 33.501 -10.5
c9.33301 0 17.5 1 24.5 3s14.167 4.33301 21.5 7l17 -76c-12 -6 -25.167 -11 -39.5 -15s-31.166 -6 -50.499 -6c-35.333 0 -64.333 9.16699 -87 27.5s-34 43.833 -34 76.5c0 25.333 7.33301 49.333 22 72s38 42.667 70 60z" />
    <glyph glyph-name="eogonek" unicode="&#x119;" horiz-adv-x="532" 
d="M284 -10c-76 0 -136.833 24.333 -182.5 73s-68.5 110.667 -68.5 186v20c0 78.667 21.5 143.334 64.5 194.001s100.833 75.667 173.5 75c71.333 0 126.666 -21.5 165.999 -64.5s59 -101.167 59 -174.5v-77h-315l-1 -3c2.66699 -34.667 14.334 -63.334 35.001 -86.001
s48.667 -34 84 -34c31.333 0 57.5 3.16699 78.5 9.5s43.833 16.5 68.5 30.5l38 -88c-22 -17.333 -50.167 -31.833 -84.5 -43.5s-72.833 -17.5 -115.5 -17.5zM271 428c-26.667 0 -47.5 -10 -62.5 -30s-24.5 -46.667 -28.5 -80l2 -2h174v13c0 30 -7 54 -21 72
s-35.333 27 -64 27zM430 28c-17.333 -17.333 -30.1689 -32 -38.502 -44s-12.5 -26 -12.5 -42c0 -8.66699 2.83301 -16.5 8.5 -23.5s16.834 -10.5 33.501 -10.5c9.33301 0 17.5 1 24.5 3s14.167 4.33301 21.5 7l17 -76c-12 -6 -25.167 -11 -39.5 -15s-31.166 -6 -50.499 -6
c-35.333 0 -64.333 9.16699 -87 27.5s-34 43.833 -34 76.5c0 25.333 7.33301 49.333 22 72s38 42.667 70 60z" />
    <glyph glyph-name="Ecaron" unicode="&#x11a;" horiz-adv-x="638" 
d="M486 312h-240v-203h229l6 85h109v-194h-563v85l76 15v510l-76 15v86h76h486v-195h-110l-6 85h-227v-179h240v-110zM304 843l64 68h121v-8l-136 -125h-98l-137 125v8h121z" />
    <glyph glyph-name="ecaron" unicode="&#x11b;" horiz-adv-x="532" 
d="M284 -10c-76 0 -136.833 24.333 -182.5 73s-68.5 110.667 -68.5 186v20c0 78.667 21.5 143.334 64.5 194.001s100.833 75.667 173.5 75c71.333 0 126.666 -21.5 165.999 -64.5s59 -101.167 59 -174.5v-77h-315l-1 -3c2.66699 -34.667 14.334 -63.334 35.001 -86.001
s48.667 -34 84 -34c31.333 0 57.5 3.16699 78.5 9.5s43.833 16.5 68.5 30.5l38 -88c-22 -17.333 -50.167 -31.833 -84.5 -43.5s-72.833 -17.5 -115.5 -17.5zM271 428c-26.667 0 -47.5 -10 -62.5 -30s-24.5 -46.667 -28.5 -80l2 -2h174v13c0 30 -7 54 -21 72
s-35.333 27 -64 27zM255 686l64 68h121v-8l-136 -125h-98l-137 125v8h121z" />
    <glyph glyph-name="Gcircumflex" unicode="&#x11c;" horiz-adv-x="660" 
d="M617 79c-23.333 -22.667 -57.1719 -43.166 -101.505 -61.499s-100.166 -27.5 -167.499 -27.5c-96 0 -174.167 32.167 -234.5 96.5s-90.5 147.833 -90.5 250.5v24c0 106.667 29.667 193.334 89 260.001s137 100 233 100c55.333 0 106 -8.83301 152 -26.5
s84.333 -41.5 115 -71.5v-144h-105l-20 96c-13.333 11.333 -30.666 20.166 -51.999 26.499s-45.666 9.5 -72.999 9.5c-62 0 -110.333 -22.833 -145 -68.5s-52 -105.834 -52 -180.501v-25c0 -72 17 -129.667 51 -173s82.667 -65 146 -65c28.667 0 51.834 2.5 69.501 7.5
s31.834 10.833 42.501 17.5v120l-102 8v100h245v-273zM526.994 783.001v-12h-106l-75 72l-76 -72h-103v13l138 117h82z" />
    <glyph glyph-name="gcircumflex" unicode="&#x11d;" horiz-adv-x="571" 
d="M40 260c0 83.333 17.998 150.5 53.998 201.5s87 76.5 153 76.5c29.333 0 55.166 -6.5 77.499 -19.5s41.5 -31.833 57.5 -56.5l11 66h124v-512c0 -69.333 -22 -124.833 -66 -166.5s-104 -62.5 -180 -62.5c-26.667 0 -55 3.66699 -85 11s-57.667 17.333 -83 30l26 100
c22.667 -10 45.334 -17.833 68.001 -23.5s47 -8.5 73 -8.5c34.667 0 60.667 10.5 78 31.5s26 50.5 26 88.5v35c-15.333 -20 -33.666 -35.167 -54.999 -45.5s-45.666 -15.5 -72.999 -15.5c-64.667 0 -115.167 23.833 -151.5 71.5s-54.5 110.5 -54.5 188.5v10zM181.998 250
c0 -46 7.83203 -82.333 23.499 -109s41.167 -40 76.5 -40c22 0 40.5 4 55.5 12s27.167 19.333 36.5 34v230c-9.33301 16 -21.666 28.333 -36.999 37s-33.333 13 -54 13c-34.667 0 -60.167 -15.5 -76.5 -46.5s-24.5 -71.167 -24.5 -120.5v-10zM455.997 626v-12h-106l-75 72
l-76 -72h-103v13l138 117h82z" />
    <glyph glyph-name="Gbreve" unicode="&#x11e;" horiz-adv-x="660" 
d="M617 79c-23.333 -22.667 -57.1719 -43.166 -101.505 -61.499s-100.166 -27.5 -167.499 -27.5c-96 0 -174.167 32.167 -234.5 96.5s-90.5 147.833 -90.5 250.5v24c0 106.667 29.667 193.334 89 260.001s137 100 233 100c55.333 0 106 -8.83301 152 -26.5
s84.333 -41.5 115 -71.5v-144h-105l-20 96c-13.333 11.333 -30.666 20.166 -51.999 26.499s-45.666 9.5 -72.999 9.5c-62 0 -110.333 -22.833 -145 -68.5s-52 -105.834 -52 -180.501v-25c0 -72 17 -129.667 51 -173s82.667 -65 146 -65c28.667 0 51.834 2.5 69.501 7.5
s31.834 10.833 42.501 17.5v120l-102 8v100h245v-273zM507.994 919.001l1 -3c1.33301 -41.333 -13.167 -75.166 -43.5 -101.499s-71.166 -39.5 -122.499 -39.5c-52 0 -93.167 13.167 -123.5 39.5s-44.5 60.166 -42.5 101.499l1 3h96c0 -18.667 5.66699 -34.167 17 -46.5
s28.666 -18.5 51.999 -18.5s40.5 6 51.5 18s16.5 27.667 16.5 47h97z" />
    <glyph glyph-name="gbreve" unicode="&#x11f;" horiz-adv-x="571" 
d="M40 260c0 83.333 17.998 150.5 53.998 201.5s87 76.5 153 76.5c29.333 0 55.166 -6.5 77.499 -19.5s41.5 -31.833 57.5 -56.5l11 66h124v-512c0 -69.333 -22 -124.833 -66 -166.5s-104 -62.5 -180 -62.5c-26.667 0 -55 3.66699 -85 11s-57.667 17.333 -83 30l26 100
c22.667 -10 45.334 -17.833 68.001 -23.5s47 -8.5 73 -8.5c34.667 0 60.667 10.5 78 31.5s26 50.5 26 88.5v35c-15.333 -20 -33.666 -35.167 -54.999 -45.5s-45.666 -15.5 -72.999 -15.5c-64.667 0 -115.167 23.833 -151.5 71.5s-54.5 110.5 -54.5 188.5v10zM181.998 250
c0 -46 7.83203 -82.333 23.499 -109s41.167 -40 76.5 -40c22 0 40.5 4 55.5 12s27.167 19.333 36.5 34v230c-9.33301 16 -21.666 28.333 -36.999 37s-33.333 13 -54 13c-34.667 0 -60.167 -15.5 -76.5 -46.5s-24.5 -71.167 -24.5 -120.5v-10zM436.997 762l1 -3
c1.33301 -41.333 -13.167 -75.166 -43.5 -101.499s-71.166 -39.5 -122.499 -39.5c-52 0 -93.167 13.167 -123.5 39.5s-44.5 60.166 -42.5 101.499l1 3h96c0 -18.667 5.66699 -34.167 17 -46.5s28.666 -18.5 51.999 -18.5s40.5 6 51.5 18s16.5 27.667 16.5 47h97z" />
    <glyph glyph-name="uni0120" unicode="&#x120;" horiz-adv-x="660" 
d="M617 79c-23.333 -22.667 -57.1719 -43.166 -101.505 -61.499s-100.166 -27.5 -167.499 -27.5c-96 0 -174.167 32.167 -234.5 96.5s-90.5 147.833 -90.5 250.5v24c0 106.667 29.667 193.334 89 260.001s137 100 233 100c55.333 0 106 -8.83301 152 -26.5
s84.333 -41.5 115 -71.5v-144h-105l-20 96c-13.333 11.333 -30.666 20.166 -51.999 26.499s-45.666 9.5 -72.999 9.5c-62 0 -110.333 -22.833 -145 -68.5s-52 -105.834 -52 -180.501v-25c0 -72 17 -129.667 51 -173s82.667 -65 146 -65c28.667 0 51.834 2.5 69.501 7.5
s31.834 10.833 42.501 17.5v120l-102 8v100h245v-273zM413.994 781.001h-149v118h149v-118z" />
    <glyph glyph-name="uni0121" unicode="&#x121;" horiz-adv-x="571" 
d="M40 260c0 83.333 17.998 150.5 53.998 201.5s87 76.5 153 76.5c29.333 0 55.166 -6.5 77.499 -19.5s41.5 -31.833 57.5 -56.5l11 66h124v-512c0 -69.333 -22 -124.833 -66 -166.5s-104 -62.5 -180 -62.5c-26.667 0 -55 3.66699 -85 11s-57.667 17.333 -83 30l26 100
c22.667 -10 45.334 -17.833 68.001 -23.5s47 -8.5 73 -8.5c34.667 0 60.667 10.5 78 31.5s26 50.5 26 88.5v35c-15.333 -20 -33.666 -35.167 -54.999 -45.5s-45.666 -15.5 -72.999 -15.5c-64.667 0 -115.167 23.833 -151.5 71.5s-54.5 110.5 -54.5 188.5v10zM181.998 250
c0 -46 7.83203 -82.333 23.499 -109s41.167 -40 76.5 -40c22 0 40.5 4 55.5 12s27.167 19.333 36.5 34v230c-9.33301 16 -21.666 28.333 -36.999 37s-33.333 13 -54 13c-34.667 0 -60.167 -15.5 -76.5 -46.5s-24.5 -71.167 -24.5 -120.5v-10zM342.997 624h-149v118h149v-118
z" />
    <glyph glyph-name="Gcommaaccent" unicode="&#x122;" horiz-adv-x="660" 
d="M617 79c-23.333 -22.667 -57.1719 -43.166 -101.505 -61.499s-100.166 -27.5 -167.499 -27.5c-96 0 -174.167 32.167 -234.5 96.5s-90.5 147.833 -90.5 250.5v24c0 106.667 29.667 193.334 89 260.001s137 100 233 100c55.333 0 106 -8.83301 152 -26.5
s84.333 -41.5 115 -71.5v-144h-105l-20 96c-13.333 11.333 -30.666 20.166 -51.999 26.499s-45.666 9.5 -72.999 9.5c-62 0 -110.333 -22.833 -145 -68.5s-52 -105.834 -52 -180.501v-25c0 -72 17 -129.667 51 -173s82.667 -65 146 -65c28.667 0 51.834 2.5 69.501 7.5
s31.834 10.833 42.501 17.5v120l-102 8v100h245v-273zM394.994 -106.999c0 -34 -6.83203 -68.834 -20.499 -104.501s-31.167 -65.167 -52.5 -88.5l-70 38c13.333 23.333 23.166 46.333 29.499 69s9.5 49.334 9.5 80.001v65h104v-59z" />
    <glyph glyph-name="gcommaaccent" unicode="&#x123;" horiz-adv-x="571" 
d="M40 260c0 83.333 17.998 150.5 53.998 201.5s87 76.5 153 76.5c29.333 0 55.166 -6.5 77.499 -19.5s41.5 -31.833 57.5 -56.5l11 66h124v-512c0 -69.333 -22 -124.833 -66 -166.5s-104 -62.5 -180 -62.5c-26.667 0 -55 3.66699 -85 11s-57.667 17.333 -83 30l26 100
c22.667 -10 45.334 -17.833 68.001 -23.5s47 -8.5 73 -8.5c34.667 0 60.667 10.5 78 31.5s26 50.5 26 88.5v35c-15.333 -20 -33.666 -35.167 -54.999 -45.5s-45.666 -15.5 -72.999 -15.5c-64.667 0 -115.167 23.833 -151.5 71.5s-54.5 110.5 -54.5 188.5v10zM181.998 250
c0 -46 7.83203 -82.333 23.499 -109s41.167 -40 76.5 -40c22 0 40.5 4 55.5 12s27.167 19.333 36.5 34v230c-9.33301 16 -21.666 28.333 -36.999 37s-33.333 13 -54 13c-34.667 0 -60.167 -15.5 -76.5 -46.5s-24.5 -71.167 -24.5 -120.5v-10zM212.997 697l56 126h78
l-18 -131v-81h-116v86z" />
    <glyph glyph-name="Hcircumflex" unicode="&#x124;" horiz-adv-x="781" 
d="M27 625v86h295v-86l-76 -15v-205h290v205l-77 15v86h77h142h76v-86l-76 -15v-510l76 -15v-85h-295v85l77 15v195h-290v-195l76 -15v-85h-295v85l76 15v510zM572 783v-12h-106l-75 72l-76 -72h-103v13l138 117h82z" />
    <glyph glyph-name="hcircumflex" unicode="&#x125;" horiz-adv-x="635" 
d="M23 85l69.002 15.001v561l-76 15v86h218v-301c16.667 24.667 37 43.667 61 57s50.667 20 80 20c55.333 0 98.666 -18.333 129.999 -55s47 -93.334 47 -170.001v-213l69 -15v-85h-273v85l62 15v214c0 41.333 -7.33301 70.5 -22 87.5s-36.334 25.5 -65.001 25.5
c-20 0 -37.333 -3.5 -52 -10.5s-27 -17.167 -37 -30.5v-286l61 -15v-85h-272v85zM469.002 809.001v-12h-106l-75 72l-76 -72h-103v13l138 117h82z" />
    <glyph glyph-name="Hbar" unicode="&#x126;" horiz-adv-x="765" 
d="M745 711v-86l-76 -15v-68h60v-74h-60v-368l76 -15v-85h-294v85l76 15v195h-290v-195l76 -15v-85h-294v85l75 15v368h-59v74h59v68l-75 15v86h294v-86l-76 -15v-68h290v68l-76 15v86h76h142h76zM237 405h290v63h-290v-63z" />
    <glyph glyph-name="hbar" unicode="&#x127;" horiz-adv-x="650" 
d="M38 85l68.001 15.001v447h-102v76h102v38l-76 15v86h219v-139h98v-76h-98v-86c16.667 24.667 37 43.667 61 57s50.667 20 80 20c55.333 0 98.666 -18.333 129.999 -55s47 -93.334 47 -170.001v-213l68 -15v-85h-272v85l61 15v214c0 41.333 -7.16699 70.5 -21.5 87.5
s-35.833 25.5 -64.5 25.5c-20 0 -37.333 -3.5 -52 -10.5s-27 -17.167 -37 -30.5v-286l61 -15v-85h-272v85z" />
    <glyph glyph-name="Itilde" unicode="&#x128;" horiz-adv-x="348" 
d="M27 625v86h294v-86l-76 -15v-510l76 -15v-85h-294v85l76 15v510zM344 896c0 -31.333 -9.66602 -58.001 -28.999 -80.001s-43.666 -33 -72.999 -33c-22.667 0 -48.5 7 -77.5 21s-51.833 21 -68.5 21c-12 0 -22 -5.16699 -30 -15.5s-12 -22.833 -12 -37.5l-75 20
c0 30.667 9.66699 57.334 29 80.001s43.666 34 72.999 34c18 0 42.5 -7.16699 73.5 -21.5s55.167 -21.5 72.5 -21.5c11.333 0 21.166 5.33301 29.499 16s12.5 23.667 12.5 39z" />
    <glyph glyph-name="itilde" unicode="&#x129;" horiz-adv-x="334" 
d="M34 442v86h219v-428l68 -15v-85h-279v85l68 15v328zM354 740c0 -31.333 -9.66602 -58.001 -28.999 -80.001s-43.666 -33 -72.999 -33c-22.667 0 -48.5 7 -77.5 21s-51.833 21 -68.5 21c-12 0 -22 -5.16699 -30 -15.5s-12 -22.833 -12 -37.5l-75 20
c0 30.667 9.66699 57.334 29 80.001s43.666 34 72.999 34c18 0 42.5 -7.16699 73.5 -21.5s55.167 -21.5 72.5 -21.5c11.333 0 21.166 5.33301 29.499 16s12.5 23.667 12.5 39z" />
    <glyph glyph-name="Imacron" unicode="&#x12a;" horiz-adv-x="348" 
d="M27 625v86h294v-86l-76 -15v-510l76 -15v-85h-294v85l76 15v510zM339 789h-357v80h357v-80z" />
    <glyph glyph-name="imacron" unicode="&#x12b;" horiz-adv-x="334" 
d="M34 442v86h219v-428l68 -15v-85h-279v85l68 15v328zM349 632h-357v80h357v-80z" />
    <glyph glyph-name="Ibreve" unicode="&#x12c;" horiz-adv-x="348" 
d="M27 625v86h294v-86l-76 -15v-510l76 -15v-85h-294v85l76 15v510zM328 919l1 -3c1.33301 -41.333 -13.167 -75.166 -43.5 -101.499s-71.166 -39.5 -122.499 -39.5c-52 0 -93.167 13.167 -123.5 39.5s-44.5 60.166 -42.5 101.499l1 3h96
c0 -18.667 5.66699 -34.167 17 -46.5s28.666 -18.5 51.999 -18.5s40.5 6 51.5 18s16.5 27.667 16.5 47h97z" />
    <glyph glyph-name="ibreve" unicode="&#x12d;" horiz-adv-x="334" 
d="M34 442v86h219v-428l68 -15v-85h-279v85l68 15v328zM338 762l1 -3c1.33301 -41.333 -13.167 -75.166 -43.5 -101.499s-71.166 -39.5 -122.499 -39.5c-52 0 -93.167 13.167 -123.5 39.5s-44.5 60.166 -42.5 101.499l1 3h96c0 -18.667 5.66699 -34.167 17 -46.5
s28.666 -18.5 51.999 -18.5s40.5 6 51.5 18s16.5 27.667 16.5 47h97z" />
    <glyph glyph-name="Iogonek" unicode="&#x12e;" horiz-adv-x="348" 
d="M27 625v86h294v-86l-76 -15v-510l76 -15v-85h-294v85l76 15v510zM322 0c-17.333 -17.333 -30.1689 -32 -38.502 -44s-12.5 -26 -12.5 -42c0 -8.66699 2.83301 -16.5 8.5 -23.5s16.834 -10.5 33.501 -10.5c9.33301 0 17.5 1 24.5 3s14.167 4.33301 21.5 7l17 -76
c-12 -6 -25.167 -11 -39.5 -15s-31.166 -6 -50.499 -6c-35.333 0 -64.333 9.16699 -87 27.5s-34 43.833 -34 76.5c0 25.333 7.33301 49.333 22 72s38 42.667 70 60z" />
    <glyph glyph-name="iogonek" unicode="&#x12f;" horiz-adv-x="322" 
d="M26 85l69 15v328l-76 14v86h219v-428l68 -15v-85h-280v85zM238 655h-143v107h143v-107zM306 0c-17.333 -17.333 -30.1689 -32 -38.502 -44s-12.5 -26 -12.5 -42c0 -8.66699 2.83301 -16.5 8.5 -23.5s16.834 -10.5 33.501 -10.5c9.33301 0 17.5 1 24.5 3
s14.167 4.33301 21.5 7l17 -76c-12 -6 -25.167 -11 -39.5 -15s-31.166 -6 -50.499 -6c-35.333 0 -64.333 9.16699 -87 27.5s-34 43.833 -34 76.5c0 25.333 7.33301 49.333 22 72s38 42.667 70 60z" />
    <glyph glyph-name="Idotaccent" unicode="&#x130;" horiz-adv-x="348" 
d="M27 625v86h294v-86l-76 -15v-510l76 -15v-85h-294v85l76 15v510zM234 781h-149v118h149v-118z" />
    <glyph glyph-name="dotlessi" unicode="&#x131;" horiz-adv-x="334" 
d="M34 442v86h219v-428l68 -15v-85h-279v85l68 15v328z" />
    <glyph glyph-name="IJ" unicode="&#x132;" horiz-adv-x="930" 
d="M27 625v86h294v-86l-76 -15v-510l76 -15v-85h-294v85l76 15v510zM917 711l-0.000976562 -86l-76 -15v-397c0 -68.667 -22.5 -123 -67.5 -163s-101.5 -60 -169.5 -60c-74 0 -132.667 18 -176 54s-64.333 89.333 -63 160l1 3h139c0 -37.333 8.83301 -64.666 26.5 -81.999
s41.834 -26 72.501 -26c26.667 0 49.167 10.167 67.5 30.5s27.5 48.166 27.5 83.499v397l-77 15v86h219h76z" />
    <glyph glyph-name="ij" unicode="&#x133;" horiz-adv-x="614" 
d="M26 85l69 15v328l-76 14v86h219v-428l68 -15v-85h-280v85zM238 655h-143v107h143v-107zM562 -20c0 -62 -16.3311 -109.667 -48.998 -143s-78.334 -50 -137.001 -50c-13.333 0 -25.5 0.666992 -36.5 2s-22.167 3.33301 -33.5 6l7 109c7.33301 -2 14.666 -3.5 21.999 -4.5
s15.333 -1.5 24 -1.5c19.333 0 34.333 6.66699 45 20s16 34 16 62v448l-77 14v86h219v-548zM559.002 656h-142v106h142v-106z" />
    <glyph glyph-name="Jcircumflex" unicode="&#x134;" horiz-adv-x="582" 
d="M569 711l-0.000976562 -86l-76 -15v-397c0 -68.667 -22.5 -123 -67.5 -163s-101.5 -60 -169.5 -60c-74 0 -132.667 18 -176 54s-64.333 89.333 -63 160l1 3h139c0 -37.333 8.83301 -64.666 26.5 -81.999s41.834 -26 72.501 -26c26.667 0 49.167 10.167 67.5 30.5
s27.5 48.166 27.5 83.499v397l-77 15v86h219h76zM604.999 782v-12h-106l-75 72l-76 -72h-103v13l138 117h82z" />
    <glyph glyph-name="jcircumflex" unicode="&#x135;" horiz-adv-x="303" 
d="M247 -20c0 -62 -16.332 -109.668 -48.999 -143.001s-78.334 -50 -137.001 -50c-13.333 0 -25.5 0.666992 -36.5 2s-22.167 3.33301 -33.5 6l7 108c6.66699 -2 14.167 -3.66699 22.5 -5s16.833 -2 25.5 -2c18.667 0 33.167 7.33301 43.5 22s15.5 35.334 15.5 62.001v448
l-76 14v86h218v-548zM323.001 619.999v-12h-106l-75 72l-76 -72h-103v13l138 117h82z" />
    <glyph glyph-name="Kcommaaccent" unicode="&#x136;" horiz-adv-x="714" 
d="M27 85l76 15v510l-76 15v86h291v-86l-72 -15v-190h62l136 199l-42 6v86h282v-86l-77 -13l-175 -234l196 -280l72 -13v-85h-282v85l44 6l-137 206h-79v-197l72 -15v-85h-291v85zM404 -101c0 -34 -6.83203 -68.834 -20.499 -104.501s-31.167 -65.167 -52.5 -88.5l-70 38
c13.333 23.333 23.166 46.333 29.499 69s9.5 49.334 9.5 80.001v65h104v-59z" />
    <glyph glyph-name="kcommaaccent" unicode="&#x137;" horiz-adv-x="609" 
d="M16 676v86h218v-442h32l82 116l-47 6v86h260v-86l-62 -14l-96 -131l134 -200l54 -12v-85h-244v85l29 5l-81 131h-61v-121l61 -15v-85h-272v85l69 15v561zM369 -105c0 -34 -6.83203 -68.834 -20.499 -104.501s-31.167 -65.167 -52.5 -88.5l-70 38
c13.333 23.333 23.166 46.333 29.499 69s9.5 49.334 9.5 80.001v65h104v-59z" />
    <glyph glyph-name="kgreenlandic" unicode="&#x138;" horiz-adv-x="620" 
d="M23 85l69 15v328l-71 14v86h213v-205h46l79 113l-47 6v86h260v-86l-62 -14l-105 -134l132 -197l54 -12v-85h-158l-138 221h-61v-121l61 -15v-85h-272v85z" />
    <glyph glyph-name="Lacute" unicode="&#x139;" horiz-adv-x="585" 
d="M27 0v85l76 15v510l-76 15v86h76h143h76v-86l-76 -15v-501h200l7 90h109v-199h-535zM173 891h151l1 -3l-135 -127h-114z" />
    <glyph glyph-name="lacute" unicode="&#x13a;" horiz-adv-x="318" 
d="M16 676v86h218v-601c0.666992 -20 8 -37.333 22 -52c13.333 -14 29 -22 47 -24v-85h-79c-20 1.33301 -39 7 -57 17s-33 23 -45 39c-20 26 -30 55.333 -30 88v12v505zM173 923h151l1 -3l-135 -127h-114z" />
    <glyph glyph-name="Lcommaaccent" unicode="&#x13b;" horiz-adv-x="585" 
d="M27 0v85l76 15v510l-76 15v86h76h143h76v-86l-76 -15v-501h200l7 90h109v-199h-535zM368 -100c0 -34 -6.83203 -68.834 -20.499 -104.501s-31.167 -65.167 -52.5 -88.5l-70 38c13.333 23.333 23.166 46.333 29.499 69s9.5 49.334 9.5 80.001v65h104v-59z" />
    <glyph glyph-name="lcommaaccent" unicode="&#x13c;" horiz-adv-x="318" 
d="M16 676v86h218v-601c0.666992 -20 8 -37.333 22 -52c13.333 -14 29 -22 47 -24v-85h-79c-20 1.33301 -39 7 -57 17s-33 23 -45 39c-20 26 -30 55.333 -30 88v12v505zM214 -102c0 -34 -6.83203 -68.834 -20.499 -104.501s-31.167 -65.167 -52.5 -88.5l-70 38
c13.333 23.333 23.166 46.333 29.499 69s9.5 49.334 9.5 80.001v65h104v-59z" />
    <glyph glyph-name="Lcaron" unicode="&#x13d;" horiz-adv-x="585" 
d="M27 0v85l76 15v510l-76 15v86h76h143h76v-86l-76 -15v-501h200l7 90h109v-199h-535zM470 652c0 -34 -6.83203 -68.834 -20.499 -104.501s-31.167 -65.167 -52.5 -88.5l-70 38c13.333 23.333 23.166 46.333 29.499 69s9.5 49.334 9.5 80.001v65h104v-59z" />
    <glyph glyph-name="lcaron" unicode="&#x13e;" horiz-adv-x="392" 
d="M16 676v86h218v-601c0.666992 -20 8 -37.333 22 -52c13.333 -14 29 -22 47 -24v-85h-79c-20 1.33301 -39 7 -57 17s-33 23 -45 39c-20 26 -30 55.333 -30 88v12v505zM396 702c0 -34 -6.83203 -68.834 -20.499 -104.501s-31.167 -65.167 -52.5 -88.5l-70 38
c13.333 23.333 23.166 46.333 29.499 69s9.5 49.334 9.5 80.001v65h104v-59z" />
    <glyph glyph-name="Ldot" unicode="&#x13f;" horiz-adv-x="585" 
d="M27 0v85l76 15v510l-76 15v86h76h143h76v-86l-76 -15v-501h200l7 90h109v-199h-535zM455 337h-149v118h149v-118z" />
    <glyph glyph-name="ldot" unicode="&#x140;" horiz-adv-x="426" 
d="M16 676v86h218v-601c0.666992 -20 8 -37.333 22 -52c13.333 -14 29 -22 47 -24v-85h-79c-20 1.33301 -39 7 -57 17s-33 23 -45 39c-20 26 -30 55.333 -30 88v12v505zM421 318h-149v118h149v-118z" />
    <glyph glyph-name="Lslash" unicode="&#x141;" horiz-adv-x="582" 
d="M322 625l-76 -15v-175l107 31v-95l-107 -32v-230h200l7 90h109v-199h-535v85l76 15v198l-67 -19v96l67 19v216l-76 15v86h295v-86z" />
    <glyph glyph-name="lslash" unicode="&#x142;" horiz-adv-x="318" 
d="M92 301l-4 -1l-62 -21v96l62 20v266l-76 15v86h4h215h3v-319l68 23v-95l-68 -23v-187c0.666992 -20 8 -37.333 22 -52c13.333 -14 29 -22 47 -24v-85h-79c-20 1.33301 -39 7 -57 17s-33 23 -45 39c-20 26 -30 55.333 -30 88v12v145z" />
    <glyph glyph-name="Nacute" unicode="&#x143;" horiz-adv-x="772" 
d="M754 711v-86l-76 -15v-610h-142l-287 479l-3 -1v-378l76 -15v-85h-295v85l76 15v510l-76 15v86h76h143l287 -479l3 1v377l-77 15v86h219h76zM395 892h151l1 -3l-135 -127h-114z" />
    <glyph glyph-name="nacute" unicode="&#x144;" horiz-adv-x="634" 
d="M23 85l67.999 15v328l-75 14v86h208l6 -75c17.333 27.333 39 48.333 65 63s55 22 87 22c53.333 0 95 -16.667 125 -50s45 -86 45 -158v-230l68 -15v-85h-272v85l61 15v230c0 35.333 -7.16699 60.333 -21.5 75s-36.166 22 -65.499 22
c-18.667 0 -35.5 -3.83301 -50.5 -11.5s-27.5 -18.5 -37.5 -32.5v-283l58 -15v-85h-269v85zM313.999 734h151l1 -3l-135 -127h-114z" />
    <glyph glyph-name="Ncommaaccent" unicode="&#x145;" horiz-adv-x="772" 
d="M754 711v-86l-76 -15v-610h-142l-287 479l-3 -1v-378l76 -15v-85h-295v85l76 15v510l-76 15v86h76h143l287 -479l3 1v377l-77 15v86h219h76zM435 -100c0 -34 -6.83203 -68.834 -20.499 -104.501s-31.167 -65.167 -52.5 -88.5l-70 38
c13.333 23.333 23.166 46.333 29.499 69s9.5 49.334 9.5 80.001v65h104v-59z" />
    <glyph glyph-name="ncommaaccent" unicode="&#x146;" horiz-adv-x="634" 
d="M23 85l67.999 15v328l-75 14v86h208l6 -75c17.333 27.333 39 48.333 65 63s55 22 87 22c53.333 0 95 -16.667 125 -50s45 -86 45 -158v-230l68 -15v-85h-272v85l61 15v230c0 35.333 -7.16699 60.333 -21.5 75s-36.166 22 -65.499 22
c-18.667 0 -35.5 -3.83301 -50.5 -11.5s-27.5 -18.5 -37.5 -32.5v-283l58 -15v-85h-269v85zM367.999 -101c0 -34 -6.83203 -68.834 -20.499 -104.501s-31.167 -65.167 -52.5 -88.5l-70 38c13.333 23.333 23.166 46.333 29.499 69s9.5 49.334 9.5 80.001v65h104v-59z" />
    <glyph glyph-name="Ncaron" unicode="&#x147;" horiz-adv-x="772" 
d="M754 711v-86l-76 -15v-610h-142l-287 479l-3 -1v-378l76 -15v-85h-295v85l76 15v510l-76 15v86h76h143l287 -479l3 1v377l-77 15v86h219h76zM375 843l64 68h121v-8l-136 -125h-98l-137 125v8h121z" />
    <glyph glyph-name="ncaron" unicode="&#x148;" horiz-adv-x="634" 
d="M23 85l67.999 15v328l-75 14v86h208l6 -75c17.333 27.333 39 48.333 65 63s55 22 87 22c53.333 0 95 -16.667 125 -50s45 -86 45 -158v-230l68 -15v-85h-272v85l61 15v230c0 35.333 -7.16699 60.333 -21.5 75s-36.166 22 -65.499 22
c-18.667 0 -35.5 -3.83301 -50.5 -11.5s-27.5 -18.5 -37.5 -32.5v-283l58 -15v-85h-269v85zM293.999 685l64 68h121v-8l-136 -125h-98l-137 125v8h121z" />
    <glyph glyph-name="napostrophe" unicode="&#x149;" horiz-adv-x="634" 
d="M23 85l67.999 15v328l-75 14v86h208l6 -75c17.333 27.333 39 48.333 65 63s55 22 87 22c53.333 0 95 -16.667 125 -50s45 -86 45 -158v-230l68 -15v-85h-272v85l61 15v230c0 35.333 -7.16699 60.333 -21.5 75s-36.166 22 -65.499 22
c-18.667 0 -35.5 -3.83301 -50.5 -11.5s-27.5 -18.5 -37.5 -32.5v-283l58 -15v-85h-269v85zM102.999 702c0 -34 -6.83203 -68.834 -20.499 -104.501s-31.167 -65.167 -52.5 -88.5l-70 38c13.333 23.333 23.166 46.333 29.499 69s9.5 49.334 9.5 80.001v65h104v-59z" />
    <glyph glyph-name="Eng" unicode="&#x14a;" horiz-adv-x="773" 
d="M33 625l-0.000976562 85.999h219l287 -479h3v378l-76 15v86h76h218v-86l-76 -15v-630c0 -62 -16.5 -109.667 -49.5 -143s-78.5 -50 -136.5 -50c-13.333 0 -25.5 0.666992 -36.5 2s-22.5 3.33301 -34.5 6l7 108c7.33301 -2 15 -3.66699 23 -5s16.333 -2 25 -2
c18.667 0 33.334 7.33301 44.001 22s16 35.334 16 62.001v20l-287 479h-3v-379l76 -15v-85h-295v85l76 15v510z" />
    <glyph glyph-name="eng" unicode="&#x14b;" horiz-adv-x="625" 
d="M45 85l68.998 14.998v328l-76 14v86h208l7 -74c17.333 26.667 38.833 47.334 64.5 62.001s54.167 22 85.5 22c53.333 0 95 -17.167 125 -51.5s45 -88.5 45 -162.5v-344c0 -62 -16.5 -109.667 -49.5 -143s-78.5 -50 -136.5 -50c-13.333 0 -25.666 0.666992 -36.999 2
s-22.666 3.33301 -33.999 6l7 109l23 -3.99902s16.667 -2 26 -2c18.667 0 33 7 43 21s15 34.333 15 61v343c0 38 -6.5 64.833 -19.5 80.5s-32.833 23.5 -59.5 23.5c-20.667 0 -39 -3.83301 -55 -11.5s-29.333 -18.167 -40 -31.5v-284l69 -15v-85h-280v85z" />
    <glyph glyph-name="Omacron" unicode="&#x14c;" horiz-adv-x="707" 
d="M677 350c0 -104 -29.668 -190 -89.001 -258s-137.333 -102 -234 -102c-96 0 -173.5 34 -232.5 102s-88.5 154 -88.5 258v11c0 103.333 29.333 189.166 88 257.499s136.334 102.5 233.001 102.5s174.667 -34.167 234 -102.5s89 -154.166 89 -257.499v-11zM534.999 362
c0 73.333 -15.333 133 -46 179s-75.667 69 -135 69c-60 0 -104.833 -22.833 -134.5 -68.5s-44.5 -105.5 -44.5 -179.5v-12c0 -74.667 15 -134.834 45 -180.501s74.667 -68.5 134 -68.5c60 0 105.167 22.833 135.5 68.5s45.5 105.834 45.5 180.501v12zM526.999 789h-357v80
h357v-80z" />
    <glyph glyph-name="omacron" unicode="&#x14d;" horiz-adv-x="560" 
d="M31 269c0 78.667 22 143.167 66 193.5s105 75.5 183 75.5s139 -25 183 -75s66 -114.667 66 -194v-10c0 -79.333 -22 -144 -66 -194s-104.667 -75 -182 -75c-78.667 0 -140 25 -184 75s-66 114.667 -66 194v10zM173 259c0 -48 8.5 -86.667 25.5 -116s44.5 -44 82.5 -44
c36.667 0 63.5 14.667 80.5 44s25.5 68 25.5 116v10c0 46.667 -8.66699 84.834 -26 114.501s-44.333 44.5 -81 44.5c-37.333 0 -64.5 -14.833 -81.5 -44.5s-25.5 -67.834 -25.5 -114.501v-10zM452 632h-357v80h357v-80z" />
    <glyph glyph-name="Obreve" unicode="&#x14e;" horiz-adv-x="707" 
d="M677 350c0 -104 -29.668 -190 -89.001 -258s-137.333 -102 -234 -102c-96 0 -173.5 34 -232.5 102s-88.5 154 -88.5 258v11c0 103.333 29.333 189.166 88 257.499s136.334 102.5 233.001 102.5s174.667 -34.167 234 -102.5s89 -154.166 89 -257.499v-11zM534.999 362
c0 73.333 -15.333 133 -46 179s-75.667 69 -135 69c-60 0 -104.833 -22.833 -134.5 -68.5s-44.5 -105.5 -44.5 -179.5v-12c0 -74.667 15 -134.834 45 -180.501s74.667 -68.5 134 -68.5c60 0 105.167 22.833 135.5 68.5s45.5 105.834 45.5 180.501v12zM515.999 919l1 -3
c1.33301 -41.333 -13.167 -75.166 -43.5 -101.499s-71.166 -39.5 -122.499 -39.5c-52 0 -93.167 13.167 -123.5 39.5s-44.5 60.166 -42.5 101.499l1 3h96c0 -18.667 5.66699 -34.167 17 -46.5s28.666 -18.5 51.999 -18.5s40.5 6 51.5 18s16.5 27.667 16.5 47h97z" />
    <glyph glyph-name="obreve" unicode="&#x14f;" horiz-adv-x="560" 
d="M31 269c0 78.667 22 143.167 66 193.5s105 75.5 183 75.5s139 -25 183 -75s66 -114.667 66 -194v-10c0 -79.333 -22 -144 -66 -194s-104.667 -75 -182 -75c-78.667 0 -140 25 -184 75s-66 114.667 -66 194v10zM173 259c0 -48 8.5 -86.667 25.5 -116s44.5 -44 82.5 -44
c36.667 0 63.5 14.667 80.5 44s25.5 68 25.5 116v10c0 46.667 -8.66699 84.834 -26 114.501s-44.333 44.5 -81 44.5c-37.333 0 -64.5 -14.833 -81.5 -44.5s-25.5 -67.834 -25.5 -114.501v-10zM442 762l1 -3c1.33301 -41.333 -13.167 -75.166 -43.5 -101.499
s-71.166 -39.5 -122.499 -39.5c-52 0 -93.167 13.167 -123.5 39.5s-44.5 60.166 -42.5 101.499l1 3h96c0 -18.667 5.66699 -34.167 17 -46.5s28.666 -18.5 51.999 -18.5s40.5 6 51.5 18s16.5 27.667 16.5 47h97z" />
    <glyph glyph-name="Ohungarumlaut" unicode="&#x150;" horiz-adv-x="707" 
d="M677 350c0 -104 -29.668 -190 -89.001 -258s-137.333 -102 -234 -102c-96 0 -173.5 34 -232.5 102s-88.5 154 -88.5 258v11c0 103.333 29.333 189.166 88 257.499s136.334 102.5 233.001 102.5s174.667 -34.167 234 -102.5s89 -154.166 89 -257.499v-11zM534.999 362
c0 73.333 -15.333 133 -46 179s-75.667 69 -135 69c-60 0 -104.833 -22.833 -134.5 -68.5s-44.5 -105.5 -44.5 -179.5v-12c0 -74.667 15 -134.834 45 -180.501s74.667 -68.5 134 -68.5c60 0 105.167 22.833 135.5 68.5s45.5 105.834 45.5 180.501v12zM464.999 911h128l1 -3
l-139 -127h-107l-1 3zM274.999 911h127l1 -2l-117 -128h-108z" />
    <glyph glyph-name="ohungarumlaut" unicode="&#x151;" horiz-adv-x="560" 
d="M31 269c0 78.667 22 143.167 66 193.5s105 75.5 183 75.5s139 -25 183 -75s66 -114.667 66 -194v-10c0 -79.333 -22 -144 -66 -194s-104.667 -75 -182 -75c-78.667 0 -140 25 -184 75s-66 114.667 -66 194v10zM173 259c0 -48 8.5 -86.667 25.5 -116s44.5 -44 82.5 -44
c36.667 0 63.5 14.667 80.5 44s25.5 68 25.5 116v10c0 46.667 -8.66699 84.834 -26 114.501s-44.333 44.5 -81 44.5c-37.333 0 -64.5 -14.833 -81.5 -44.5s-25.5 -67.834 -25.5 -114.501v-10zM391 754h128l1 -3l-139 -127h-107l-1 3zM201 754h127l1 -2l-117 -128h-108z" />
    <glyph glyph-name="OE" unicode="&#x152;" horiz-adv-x="974" 
d="M842 312h-241v-203h230l6 85h108v-194h-458c-30 -3.33301 -55.5 -5.83301 -76.5 -7.5s-42.167 -2.5 -63.5 -2.5c-88 0 -159.5 27 -214.5 81s-82.5 124 -82.5 210v149c0 86 27.333 156 82 210s126 81 214 81c22.667 0 45.5 -1 68.5 -3s47.167 -4.33301 72.5 -7h457v-195
h-109l-6 85h-228v-179h241v-110zM347 100c18.667 0 37.332 0.666992 55.999 2s37 3.33301 55 6v494c-19.333 2.66699 -38.166 4.83398 -56.499 6.50098s-36.833 2.5 -55.5 2.5c-48 0 -85.667 -15.333 -113 -46s-41 -75.334 -41 -134.001v-150
c0 -59.333 13.833 -104.333 41.5 -135s65.5 -46 113.5 -46z" />
    <glyph glyph-name="oe" unicode="&#x153;" horiz-adv-x="915" 
d="M45 269c0 78.667 22 143.17 66 193.503s105 75.5 183 75.5c37.333 0 71.166 -6.33301 101.499 -19s56.5 -30.334 78.5 -53.001c20.667 23.333 45.5 41.166 74.5 53.499s61.167 18.5 96.5 18.5c71.333 0 126.666 -21.5 165.999 -64.5s59 -101.167 59 -174.5v-77h-316
l-1 -3c2.66699 -34.667 14.334 -63.334 35.001 -86.001s48.667 -34 84 -34c31.333 0 57.5 3.16699 78.5 9.5s43.833 16.5 68.5 30.5l39 -88c-21.333 -17.333 -49.5 -31.833 -84.5 -43.5s-73.833 -17.5 -116.5 -17.5c-38 0 -72.333 6.16699 -103 18.5s-57 30.166 -79 53.499
c-21.333 -23.333 -47.166 -41.166 -77.499 -53.499s-64.5 -18.5 -102.5 -18.5c-78.667 0 -140 25 -184 75s-66 114.667 -66 194v10zM188 259.003c0 -48 8.33301 -86.667 25 -116s44 -44 82 -44c36.667 0 63.5 14.667 80.5 44s25.5 68 25.5 116v10
c0 46.667 -8.5 84.834 -25.5 114.501s-44.167 44.5 -81.5 44.5s-64.333 -14.833 -81 -44.5s-25 -67.834 -25 -114.501v-10zM645 428.003c-26.667 0 -47.668 -10 -63.001 -30s-24.666 -46.667 -27.999 -80l1 -2h175v13c0 30 -7 54 -21 72s-35.333 27 -64 27z" />
    <glyph glyph-name="Racute" unicode="&#x154;" horiz-adv-x="687" 
d="M468 135l-0.000976562 40.002c0 34.667 -9.33301 62 -28 82c-19.333 20.667 -45.333 31 -78 31h-116v-188l76 -15v-85h-295v85l76 15v510l-76 15v86h76h244c80.667 0 143.834 -18.5 189.501 -55.5s68.5 -88.167 68.5 -153.5c0 -36 -9.5 -67 -28.5 -93
s-47.167 -47.333 -84.5 -64c42 -12.667 72.167 -33.334 90.5 -62.001s27.5 -64.334 27.5 -107.001v-36v-41l61 -24v-75h-61h-144zM245.999 397.002h98c40 0 69.833 8.5 89.5 25.5s29.5 41.5 29.5 73.5s-9.83301 57.5 -29.5 76.5s-48.5 28.5 -86.5 28.5h-101v-204z
M337.999 892.002h151l1 -3l-135 -127h-114z" />
    <glyph glyph-name="racute" unicode="&#x155;" horiz-adv-x="420" 
d="M42 85l68.0029 15.001v328l-76 14v86h209l6 -77c12.667 27.333 28.667 48.666 48 63.999s42 23 68 23c7.33301 0 15.166 -0.5 23.499 -1.5s15.166 -2.5 20.499 -4.5l-15 -130l-59 2c-20.667 0 -37.834 -4.16699 -51.501 -12.5s-24.167 -19.833 -31.5 -34.5v-257l69 -15
v-85h-279v85zM241.003 735.001h151l1 -3l-135 -127h-114z" />
    <glyph glyph-name="Rcommaaccent" unicode="&#x156;" horiz-adv-x="687" 
d="M468 135l-0.000976562 40.002c0 34.667 -9.33301 62 -28 82c-19.333 20.667 -45.333 31 -78 31h-116v-188l76 -15v-85h-295v85l76 15v510l-76 15v86h76h244c80.667 0 143.834 -18.5 189.501 -55.5s68.5 -88.167 68.5 -153.5c0 -36 -9.5 -67 -28.5 -93
s-47.167 -47.333 -84.5 -64c42 -12.667 72.167 -33.334 90.5 -62.001s27.5 -64.334 27.5 -107.001v-36v-41l61 -24v-75h-61h-144zM245.999 397.002h98c40 0 69.833 8.5 89.5 25.5s29.5 41.5 29.5 73.5s-9.83301 57.5 -29.5 76.5s-48.5 28.5 -86.5 28.5h-101v-204z
M421.999 -102.998c0 -34 -6.83203 -68.834 -20.499 -104.501s-31.167 -65.167 -52.5 -88.5l-70 38c13.333 23.333 23.166 46.333 29.499 69s9.5 49.334 9.5 80.001v65h104v-59z" />
    <glyph glyph-name="rcommaaccent" unicode="&#x157;" horiz-adv-x="420" 
d="M42 85l68.0029 15.001v328l-76 14v86h209l6 -77c12.667 27.333 28.667 48.666 48 63.999s42 23 68 23c7.33301 0 15.166 -0.5 23.499 -1.5s15.166 -2.5 20.499 -4.5l-15 -130l-59 2c-20.667 0 -37.834 -4.16699 -51.501 -12.5s-24.167 -19.833 -31.5 -34.5v-257l69 -15
v-85h-279v85zM214.003 -99.999c0 -34 -6.83203 -68.834 -20.499 -104.501s-31.167 -65.167 -52.5 -88.5l-70 38c13.333 23.333 23.166 46.333 29.499 69s9.5 49.334 9.5 80.001v65h104v-59z" />
    <glyph glyph-name="Rcaron" unicode="&#x158;" horiz-adv-x="687" 
d="M468 135l-0.000976562 40.002c0 34.667 -9.33301 62 -28 82c-19.333 20.667 -45.333 31 -78 31h-116v-188l76 -15v-85h-295v85l76 15v510l-76 15v86h76h244c80.667 0 143.834 -18.5 189.501 -55.5s68.5 -88.167 68.5 -153.5c0 -36 -9.5 -67 -28.5 -93
s-47.167 -47.333 -84.5 -64c42 -12.667 72.167 -33.334 90.5 -62.001s27.5 -64.334 27.5 -107.001v-36v-41l61 -24v-75h-61h-144zM245.999 397.002h98c40 0 69.833 8.5 89.5 25.5s29.5 41.5 29.5 73.5s-9.83301 57.5 -29.5 76.5s-48.5 28.5 -86.5 28.5h-101v-204z
M317.999 843.002l64 68h121v-8l-136 -125h-98l-137 125v8h121z" />
    <glyph glyph-name="rcaron" unicode="&#x159;" horiz-adv-x="420" 
d="M42 85l68.0029 15.001v328l-76 14v86h209l6 -77c12.667 27.333 28.667 48.666 48 63.999s42 23 68 23c7.33301 0 15.166 -0.5 23.499 -1.5s15.166 -2.5 20.499 -4.5l-15 -130l-59 2c-20.667 0 -37.834 -4.16699 -51.501 -12.5s-24.167 -19.833 -31.5 -34.5v-257l69 -15
v-85h-279v85zM221.003 686.001l64 68h121v-8l-136 -125h-98l-137 125v8h121z" />
    <glyph glyph-name="Sacute" unicode="&#x15a;" horiz-adv-x="606" 
d="M567 484l-107.001 -0.000976562l-18 98c-12.667 8 -30.834 14.833 -54.501 20.5s-48.834 8.5 -75.501 8.5c-39.333 0 -69.666 -8.16699 -90.999 -24.5s-32 -37.833 -32 -64.5c0 -24 11.167 -43.667 33.5 -59s60.833 -31.666 115.5 -48.999
c78.667 -22 138.334 -50.833 179.001 -86.5s61 -82.5 61 -140.5c0 -60.667 -24.167 -108.667 -72.5 -144s-111.833 -53 -190.5 -53c-56 0 -106.833 8.83301 -152.5 26.5s-83.5 42.5 -113.5 74.5v148h110l15 -101c14 -12 33.5 -21.667 58.5 -29s52.5 -11 82.5 -11
c39.333 0 69.166 8 89.499 24s30.5 37.333 30.5 64c0 27.333 -9.83301 49.166 -29.5 65.499s-53.5 31.833 -101.5 46.5c-84 24.667 -147.833 53.834 -191.5 87.501s-65.5 79.5 -65.5 137.5c0 57.333 24.5 104.333 73.5 141s110.5 55.667 184.5 57
c54.667 0 104.334 -8.33301 149.001 -25s82.334 -39 113.001 -67v-145zM319.999 890.999h151l1 -3l-135 -127h-114z" />
    <glyph glyph-name="sacute" unicode="&#x15b;" horiz-adv-x="514" 
d="M462 347l-95.998 -0.000976562l-15 66c-10 8 -22.333 14.5 -37 19.5s-31 7.5 -49 7.5c-25.333 0 -45.166 -5.66699 -59.499 -17s-21.5 -25.333 -21.5 -42c0 -16 7 -29.333 21 -40s42 -20 84 -28c65.333 -13.333 113.666 -32.5 144.999 -57.5s47 -59.833 47 -104.5
c0 -47.333 -20.333 -86 -61 -116s-94.334 -45 -161.001 -45c-40.667 0 -78 5.83301 -112 17.5s-64.333 28.834 -91 51.501l-1 118h99l20 -69c8.66699 -7.33301 20.167 -12.666 34.5 -15.999s29.5 -5 45.5 -5c28.667 0 50.667 5.33301 66 16s23 25 23 43
c0 15.333 -7.66699 28.666 -23 39.999s-43.333 21.333 -84 30c-62 12.667 -109 31.5 -141 56.5s-48 59.167 -48 102.5c0 44 18.333 82 55 114s88.667 48 156 48c41.333 0 80.166 -5.5 116.499 -16.5s64.833 -25.167 85.5 -42.5zM272.002 734.999h151l1 -3l-135 -127h-114z
" />
    <glyph glyph-name="Scircumflex" unicode="&#x15c;" horiz-adv-x="606" 
d="M567 484l-107.001 -0.000976562l-18 98c-12.667 8 -30.834 14.833 -54.501 20.5s-48.834 8.5 -75.501 8.5c-39.333 0 -69.666 -8.16699 -90.999 -24.5s-32 -37.833 -32 -64.5c0 -24 11.167 -43.667 33.5 -59s60.833 -31.666 115.5 -48.999
c78.667 -22 138.334 -50.833 179.001 -86.5s61 -82.5 61 -140.5c0 -60.667 -24.167 -108.667 -72.5 -144s-111.833 -53 -190.5 -53c-56 0 -106.833 8.83301 -152.5 26.5s-83.5 42.5 -113.5 74.5v148h110l15 -101c14 -12 33.5 -21.667 58.5 -29s52.5 -11 82.5 -11
c39.333 0 69.166 8 89.499 24s30.5 37.333 30.5 64c0 27.333 -9.83301 49.166 -29.5 65.499s-53.5 31.833 -101.5 46.5c-84 24.667 -147.833 53.834 -191.5 87.501s-65.5 79.5 -65.5 137.5c0 57.333 24.5 104.333 73.5 141s110.5 55.667 184.5 57
c54.667 0 104.334 -8.33301 149.001 -25s82.334 -39 113.001 -67v-145zM489.999 782.999v-12h-106l-75 72l-76 -72h-103v13l138 117h82z" />
    <glyph glyph-name="scircumflex" unicode="&#x15d;" horiz-adv-x="514" 
d="M462 347l-95.998 -0.000976562l-15 66c-10 8 -22.333 14.5 -37 19.5s-31 7.5 -49 7.5c-25.333 0 -45.166 -5.66699 -59.499 -17s-21.5 -25.333 -21.5 -42c0 -16 7 -29.333 21 -40s42 -20 84 -28c65.333 -13.333 113.666 -32.5 144.999 -57.5s47 -59.833 47 -104.5
c0 -47.333 -20.333 -86 -61 -116s-94.334 -45 -161.001 -45c-40.667 0 -78 5.83301 -112 17.5s-64.333 28.834 -91 51.501l-1 118h99l20 -69c8.66699 -7.33301 20.167 -12.666 34.5 -15.999s29.5 -5 45.5 -5c28.667 0 50.667 5.33301 66 16s23 25 23 43
c0 15.333 -7.66699 28.666 -23 39.999s-43.333 21.333 -84 30c-62 12.667 -109 31.5 -141 56.5s-48 59.167 -48 102.5c0 44 18.333 82 55 114s88.667 48 156 48c41.333 0 80.166 -5.5 116.499 -16.5s64.833 -25.167 85.5 -42.5zM442.002 626.999v-12h-106l-75 72l-76 -72
h-103v13l138 117h82z" />
    <glyph glyph-name="Scedilla" unicode="&#x15e;" horiz-adv-x="606" 
d="M567 484l-107.001 -0.000976562l-18 98c-12.667 8 -30.834 14.833 -54.501 20.5s-48.834 8.5 -75.501 8.5c-39.333 0 -69.666 -8.16699 -90.999 -24.5s-32 -37.833 -32 -64.5c0 -24 11.167 -43.667 33.5 -59s60.833 -31.666 115.5 -48.999
c78.667 -22 138.334 -50.833 179.001 -86.5s61 -82.5 61 -140.5c0 -60.667 -24.167 -108.667 -72.5 -144s-111.833 -53 -190.5 -53c-56 0 -106.833 8.83301 -152.5 26.5s-83.5 42.5 -113.5 74.5v148h110l15 -101c14 -12 33.5 -21.667 58.5 -29s52.5 -11 82.5 -11
c39.333 0 69.166 8 89.499 24s30.5 37.333 30.5 64c0 27.333 -9.83301 49.166 -29.5 65.499s-53.5 31.833 -101.5 46.5c-84 24.667 -147.833 53.834 -191.5 87.501s-65.5 79.5 -65.5 137.5c0 57.333 24.5 104.333 73.5 141s110.5 55.667 184.5 57
c54.667 0 104.334 -8.33301 149.001 -25s82.334 -39 113.001 -67v-145zM362.999 1.99902l-6.00098 -28c20.667 -3.33301 38 -11.666 52 -24.999s21 -33 21 -59c0 -34.667 -14.833 -62.5 -44.5 -83.5s-71.834 -31.5 -126.501 -31.5l-3 78c16.667 0 29.834 3.5 39.501 10.5
s14.5 17.167 14.5 30.5s-5.16699 22.666 -15.5 27.999s-28.166 9 -53.499 11l15 69h107z" />
    <glyph glyph-name="scedilla" unicode="&#x15f;" horiz-adv-x="514" 
d="M462 347l-95.998 -0.000976562l-15 66c-10 8 -22.333 14.5 -37 19.5s-31 7.5 -49 7.5c-25.333 0 -45.166 -5.66699 -59.499 -17s-21.5 -25.333 -21.5 -42c0 -16 7 -29.333 21 -40s42 -20 84 -28c65.333 -13.333 113.666 -32.5 144.999 -57.5s47 -59.833 47 -104.5
c0 -47.333 -20.333 -86 -61 -116s-94.334 -45 -161.001 -45c-40.667 0 -78 5.83301 -112 17.5s-64.333 28.834 -91 51.501l-1 118h99l20 -69c8.66699 -7.33301 20.167 -12.666 34.5 -15.999s29.5 -5 45.5 -5c28.667 0 50.667 5.33301 66 16s23 25 23 43
c0 15.333 -7.66699 28.666 -23 39.999s-43.333 21.333 -84 30c-62 12.667 -109 31.5 -141 56.5s-48 59.167 -48 102.5c0 44 18.333 82 55 114s88.667 48 156 48c41.333 0 80.166 -5.5 116.499 -16.5s64.833 -25.167 85.5 -42.5zM306.002 1.99902l-6.00098 -28
c20.667 -3.33301 38 -11.666 52 -24.999s21 -33 21 -59c0 -34.667 -14.833 -62.5 -44.5 -83.5s-71.834 -31.5 -126.501 -31.5l-3 78c16.667 0 29.834 3.5 39.501 10.5s14.5 17.167 14.5 30.5s-5.16699 22.666 -15.5 27.999s-28.166 9 -53.499 11l15 69h107z" />
    <glyph glyph-name="Scaron" unicode="&#x160;" horiz-adv-x="606" 
d="M567 484l-107.001 -0.000976562l-18 98c-12.667 8 -30.834 14.833 -54.501 20.5s-48.834 8.5 -75.501 8.5c-39.333 0 -69.666 -8.16699 -90.999 -24.5s-32 -37.833 -32 -64.5c0 -24 11.167 -43.667 33.5 -59s60.833 -31.666 115.5 -48.999
c78.667 -22 138.334 -50.833 179.001 -86.5s61 -82.5 61 -140.5c0 -60.667 -24.167 -108.667 -72.5 -144s-111.833 -53 -190.5 -53c-56 0 -106.833 8.83301 -152.5 26.5s-83.5 42.5 -113.5 74.5v148h110l15 -101c14 -12 33.5 -21.667 58.5 -29s52.5 -11 82.5 -11
c39.333 0 69.166 8 89.499 24s30.5 37.333 30.5 64c0 27.333 -9.83301 49.166 -29.5 65.499s-53.5 31.833 -101.5 46.5c-84 24.667 -147.833 53.834 -191.5 87.501s-65.5 79.5 -65.5 137.5c0 57.333 24.5 104.333 73.5 141s110.5 55.667 184.5 57
c54.667 0 104.334 -8.33301 149.001 -25s82.334 -39 113.001 -67v-145zM299.999 842.999l64 68h121v-8l-136 -125h-98l-137 125v8h121z" />
    <glyph glyph-name="scaron" unicode="&#x161;" horiz-adv-x="514" 
d="M462 347l-95.998 -0.000976562l-15 66c-10 8 -22.333 14.5 -37 19.5s-31 7.5 -49 7.5c-25.333 0 -45.166 -5.66699 -59.499 -17s-21.5 -25.333 -21.5 -42c0 -16 7 -29.333 21 -40s42 -20 84 -28c65.333 -13.333 113.666 -32.5 144.999 -57.5s47 -59.833 47 -104.5
c0 -47.333 -20.333 -86 -61 -116s-94.334 -45 -161.001 -45c-40.667 0 -78 5.83301 -112 17.5s-64.333 28.834 -91 51.501l-1 118h99l20 -69c8.66699 -7.33301 20.167 -12.666 34.5 -15.999s29.5 -5 45.5 -5c28.667 0 50.667 5.33301 66 16s23 25 23 43
c0 15.333 -7.66699 28.666 -23 39.999s-43.333 21.333 -84 30c-62 12.667 -109 31.5 -141 56.5s-48 59.167 -48 102.5c0 44 18.333 82 55 114s88.667 48 156 48c41.333 0 80.166 -5.5 116.499 -16.5s64.833 -25.167 85.5 -42.5zM252.002 686.999l64 68h121v-8l-136 -125h-98
l-137 125v8h121z" />
    <glyph glyph-name="uni0162" unicode="&#x162;" horiz-adv-x="672" 
d="M653 711v-190h-109l-6 80h-131v-501l76 -15v-85h-295v85l77 15v501h-131l-6 -80h-108v190h633zM385 6l-6.00098 -28c20.667 -3.33301 38 -11.666 52 -24.999s21 -33 21 -59c0 -34.667 -14.833 -62.5 -44.5 -83.5s-71.834 -31.5 -126.501 -31.5l-3 78
c16.667 0 29.834 3.5 39.501 10.5s14.5 17.167 14.5 30.5s-5.16699 22.666 -15.5 27.999s-28.166 9 -53.499 11l15 69h107z" />
    <glyph glyph-name="uni0163" unicode="&#x163;" horiz-adv-x="373" 
d="M241 658v-129.999h93v-100h-93v-269c0 -20.667 4.33301 -35.334 13 -44.001s20 -13 34 -13c10 0 18.667 0.333008 26 1s15.333 2 24 4l13 -103c-16 -4.66699 -31.833 -8.16699 -47.5 -10.5s-32.834 -3.5 -51.501 -3.5c-49.333 0 -87.166 13.5 -113.499 40.5
s-39.5 69.833 -39.5 128.5v269h-78v100h78v130h142zM277 3.00098l-6.00098 -28c20.667 -3.33301 38 -11.666 52 -24.999s21 -33 21 -59c0 -34.667 -14.833 -62.5 -44.5 -83.5s-71.834 -31.5 -126.501 -31.5l-3 78c16.667 0 29.834 3.5 39.501 10.5s14.5 17.167 14.5 30.5
s-5.16699 22.666 -15.5 27.999s-28.166 9 -53.499 11l15 69h107z" />
    <glyph glyph-name="Tcaron" unicode="&#x164;" horiz-adv-x="672" 
d="M653 711v-190h-109l-6 80h-131v-501l76 -15v-85h-295v85l77 15v501h-131l-6 -80h-108v190h633zM328 843l64 68h121v-8l-136 -125h-98l-137 125v8h121z" />
    <glyph glyph-name="tcaron" unicode="&#x165;" horiz-adv-x="392" 
d="M241 658v-129.999h93v-100h-93v-269c0 -20.667 4.33301 -35.334 13 -44.001s20 -13 34 -13c10 0 18.667 0.333008 26 1s15.333 2 24 4l13 -103c-16 -4.66699 -31.833 -8.16699 -47.5 -10.5s-32.834 -3.5 -51.501 -3.5c-49.333 0 -87.166 13.5 -113.499 40.5
s-39.5 69.833 -39.5 128.5v269h-78v100h78v130h142zM440 728.001c0 -34 -6.83203 -68.834 -20.499 -104.501s-31.167 -65.167 -52.5 -88.5l-70 38c13.333 23.333 23.166 46.333 29.499 69s9.5 49.334 9.5 80.001v65h104v-59z" />
    <glyph glyph-name="Tbar" unicode="&#x166;" horiz-adv-x="672" 
d="M653 711v-190h-109l-6 80h-131v-182h101v-76h-101v-243l76 -15v-85h-295v85l77 15v243h-99v76h99v182h-131l-6 -80h-108v190h633z" />
    <glyph glyph-name="tbar" unicode="&#x167;" horiz-adv-x="373" 
d="M241 658v-129.999h93v-100h-93v-74h102v-76h-102v-119c0 -20.667 4.33301 -35.334 13 -44.001s20 -13 34 -13c10 0 18.667 0.333008 26 1s15.333 2 24 4l13 -103c-16 -4.66699 -31.833 -8.16699 -47.5 -10.5s-32.834 -3.5 -51.501 -3.5
c-49.333 0 -87.166 13.5 -113.499 40.5s-39.5 69.833 -39.5 128.5v119h-98v76h98v74h-78v100h78v130h142z" />
    <glyph glyph-name="Utilde" unicode="&#x168;" horiz-adv-x="755" 
d="M313 711v-85.999l-76 -15v-371c0 -46.667 12.667 -81.667 38 -105s60 -35 104 -35c44.667 0 79.667 11.5 105 34.5s38 58.167 38 105.5v371l-76 15v86h295v-86l-76 -15v-371c0 -80 -26.333 -141.5 -79 -184.5s-121.667 -64.5 -207 -64.5
c-84.667 0 -153.167 21.667 -205.5 65s-78.5 104.666 -78.5 183.999v371l-76 15v86h76h142h76zM557 897.001c0 -31.333 -9.66602 -58.001 -28.999 -80.001s-43.666 -33 -72.999 -33c-22.667 0 -48.5 7 -77.5 21s-51.833 21 -68.5 21c-12 0 -22 -5.16699 -30 -15.5
s-12 -22.833 -12 -37.5l-75 20c0 30.667 9.66699 57.334 29 80.001s43.666 34 72.999 34c18 0 42.5 -7.16699 73.5 -21.5s55.167 -21.5 72.5 -21.5c11.333 0 21.166 5.33301 29.499 16s12.5 23.667 12.5 39z" />
    <glyph glyph-name="utilde" unicode="&#x169;" horiz-adv-x="624" 
d="M400 67c-16.667 -24.667 -37.5 -43.667 -62.5 -57s-53.5 -20 -85.5 -20c-55.333 0 -98.833 17.833 -130.5 53.5s-47.5 90.834 -47.5 165.501v219l-58 14v86h58h143v-320c0 -38.667 6.33301 -66.167 19 -82.5s31.667 -24.5 57 -24.5c22.667 0 42.167 3.66699 58.5 11
s29.833 17.666 40.5 30.999v285l-62 14v86h62h143v-428l64 -15v-85h-189zM474 740c0 -31.333 -9.66602 -58.001 -28.999 -80.001s-43.666 -33 -72.999 -33c-22.667 0 -48.5 7 -77.5 21s-51.833 21 -68.5 21c-12 0 -22 -5.16699 -30 -15.5s-12 -22.833 -12 -37.5l-75 20
c0 30.667 9.66699 57.334 29 80.001s43.666 34 72.999 34c18 0 42.5 -7.16699 73.5 -21.5s55.167 -21.5 72.5 -21.5c11.333 0 21.166 5.33301 29.499 16s12.5 23.667 12.5 39z" />
    <glyph glyph-name="Umacron" unicode="&#x16a;" horiz-adv-x="755" 
d="M313 711v-85.999l-76 -15v-371c0 -46.667 12.667 -81.667 38 -105s60 -35 104 -35c44.667 0 79.667 11.5 105 34.5s38 58.167 38 105.5v371l-76 15v86h295v-86l-76 -15v-371c0 -80 -26.333 -141.5 -79 -184.5s-121.667 -64.5 -207 -64.5
c-84.667 0 -153.167 21.667 -205.5 65s-78.5 104.666 -78.5 183.999v371l-76 15v86h76h142h76zM552 790.001h-357v80h357v-80z" />
    <glyph glyph-name="umacron" unicode="&#x16b;" horiz-adv-x="624" 
d="M400 67c-16.667 -24.667 -37.5 -43.667 -62.5 -57s-53.5 -20 -85.5 -20c-55.333 0 -98.833 17.833 -130.5 53.5s-47.5 90.834 -47.5 165.501v219l-58 14v86h58h143v-320c0 -38.667 6.33301 -66.167 19 -82.5s31.667 -24.5 57 -24.5c22.667 0 42.167 3.66699 58.5 11
s29.833 17.666 40.5 30.999v285l-62 14v86h62h143v-428l64 -15v-85h-189zM469 632h-357v80h357v-80z" />
    <glyph glyph-name="Ubreve" unicode="&#x16c;" horiz-adv-x="755" 
d="M313 711v-85.999l-76 -15v-371c0 -46.667 12.667 -81.667 38 -105s60 -35 104 -35c44.667 0 79.667 11.5 105 34.5s38 58.167 38 105.5v371l-76 15v86h295v-86l-76 -15v-371c0 -80 -26.333 -141.5 -79 -184.5s-121.667 -64.5 -207 -64.5
c-84.667 0 -153.167 21.667 -205.5 65s-78.5 104.666 -78.5 183.999v371l-76 15v86h76h142h76zM541 919.001l1 -3c1.33301 -41.333 -13.167 -75.166 -43.5 -101.499s-71.166 -39.5 -122.499 -39.5c-52 0 -93.167 13.167 -123.5 39.5s-44.5 60.166 -42.5 101.499l1 3h96
c0 -18.667 5.66699 -34.167 17 -46.5s28.666 -18.5 51.999 -18.5s40.5 6 51.5 18s16.5 27.667 16.5 47h97z" />
    <glyph glyph-name="ubreve" unicode="&#x16d;" horiz-adv-x="624" 
d="M400 67c-16.667 -24.667 -37.5 -43.667 -62.5 -57s-53.5 -20 -85.5 -20c-55.333 0 -98.833 17.833 -130.5 53.5s-47.5 90.834 -47.5 165.501v219l-58 14v86h58h143v-320c0 -38.667 6.33301 -66.167 19 -82.5s31.667 -24.5 57 -24.5c22.667 0 42.167 3.66699 58.5 11
s29.833 17.666 40.5 30.999v285l-62 14v86h62h143v-428l64 -15v-85h-189zM458 762l1 -3c1.33301 -41.333 -13.167 -75.166 -43.5 -101.499s-71.166 -39.5 -122.499 -39.5c-52 0 -93.167 13.167 -123.5 39.5s-44.5 60.166 -42.5 101.499l1 3h96
c0 -18.667 5.66699 -34.167 17 -46.5s28.666 -18.5 51.999 -18.5s40.5 6 51.5 18s16.5 27.667 16.5 47h97z" />
    <glyph glyph-name="Uring" unicode="&#x16e;" horiz-adv-x="755" 
d="M313 711v-85.999l-76 -15v-371c0 -46.667 12.667 -81.667 38 -105s60 -35 104 -35c44.667 0 79.667 11.5 105 34.5s38 58.167 38 105.5v371l-76 15v86h295v-86l-76 -15v-371c0 -80 -26.333 -141.5 -79 -184.5s-121.667 -64.5 -207 -64.5
c-84.667 0 -153.167 21.667 -205.5 65s-78.5 104.666 -78.5 183.999v371l-76 15v86h76h142h76zM277 852.001c0 27.333 10 50 30 68s44.667 27 74 27c28.667 0 52.834 -9.16699 72.501 -27.5s29.5 -40.833 29.5 -67.5c0 -27.333 -9.83301 -49.833 -29.5 -67.5
s-43.834 -26.5 -72.501 -26.5c-29.333 0 -54 8.83301 -74 26.5s-30 40.167 -30 67.5zM333 852.001c0 -14 4.5 -25.5 13.5 -34.5s20.5 -13.5 34.5 -13.5c13.333 0 24.166 4.5 32.499 13.5s12.5 20.5 12.5 34.5s-4.16699 25.667 -12.5 35s-19.166 14 -32.499 14
c-14 0 -25.5 -4.66699 -34.5 -14s-13.5 -21 -13.5 -35z" />
    <glyph glyph-name="uring" unicode="&#x16f;" horiz-adv-x="624" 
d="M400 67c-16.667 -24.667 -37.5 -43.667 -62.5 -57s-53.5 -20 -85.5 -20c-55.333 0 -98.833 17.833 -130.5 53.5s-47.5 90.834 -47.5 165.501v219l-58 14v86h58h143v-320c0 -38.667 6.33301 -66.167 19 -82.5s31.667 -24.5 57 -24.5c22.667 0 42.167 3.66699 58.5 11
s29.833 17.666 40.5 30.999v285l-62 14v86h62h143v-428l64 -15v-85h-189zM193 695c0 27.333 10 50 30 68s44.667 27 74 27c28.667 0 52.834 -9.16699 72.501 -27.5s29.5 -40.833 29.5 -67.5c0 -27.333 -9.83301 -49.833 -29.5 -67.5s-43.834 -26.5 -72.501 -26.5
c-29.333 0 -54 8.83301 -74 26.5s-30 40.167 -30 67.5zM249 695c0 -14 4.5 -25.5 13.5 -34.5s20.5 -13.5 34.5 -13.5c13.333 0 24.166 4.5 32.499 13.5s12.5 20.5 12.5 34.5s-4.16699 25.667 -12.5 35s-19.166 14 -32.499 14c-14 0 -25.5 -4.66699 -34.5 -14
s-13.5 -21 -13.5 -35z" />
    <glyph glyph-name="Uhungarumlaut" unicode="&#x170;" horiz-adv-x="755" 
d="M313 711v-85.999l-76 -15v-371c0 -46.667 12.667 -81.667 38 -105s60 -35 104 -35c44.667 0 79.667 11.5 105 34.5s38 58.167 38 105.5v371l-76 15v86h295v-86l-76 -15v-371c0 -80 -26.333 -141.5 -79 -184.5s-121.667 -64.5 -207 -64.5
c-84.667 0 -153.167 21.667 -205.5 65s-78.5 104.666 -78.5 183.999v371l-76 15v86h76h142h76zM490 911.001h128l1 -3l-139 -127h-107l-1 3zM300 911.001h127l1 -2l-117 -128h-108z" />
    <glyph glyph-name="uhungarumlaut" unicode="&#x171;" horiz-adv-x="624" 
d="M400 67c-16.667 -24.667 -37.5 -43.667 -62.5 -57s-53.5 -20 -85.5 -20c-55.333 0 -98.833 17.833 -130.5 53.5s-47.5 90.834 -47.5 165.501v219l-58 14v86h58h143v-320c0 -38.667 6.33301 -66.167 19 -82.5s31.667 -24.5 57 -24.5c22.667 0 42.167 3.66699 58.5 11
s29.833 17.666 40.5 30.999v285l-62 14v86h62h143v-428l64 -15v-85h-189zM407 754h128l1 -3l-139 -127h-107l-1 3zM217 754h127l1 -2l-117 -128h-108z" />
    <glyph glyph-name="Uogonek" unicode="&#x172;" horiz-adv-x="755" 
d="M313 711v-85.999l-76 -15v-371c0 -46.667 12.667 -81.667 38 -105s60 -35 104 -35c44.667 0 79.667 11.5 105 34.5s38 58.167 38 105.5v371l-76 15v86h295v-86l-76 -15v-371c0 -80 -26.333 -141.5 -79 -184.5s-121.667 -64.5 -207 -64.5
c-84.667 0 -153.167 21.667 -205.5 65s-78.5 104.666 -78.5 183.999v371l-76 15v86h76h142h76zM427 -0.999023c-17.333 -17.333 -30.1689 -32 -38.502 -44s-12.5 -26 -12.5 -42c0 -8.66699 2.83301 -16.5 8.5 -23.5s16.834 -10.5 33.501 -10.5c9.33301 0 17.5 1 24.5 3
s14.167 4.33301 21.5 7l17 -76c-12 -6 -25.167 -11 -39.5 -15s-31.166 -6 -50.499 -6c-35.333 0 -64.333 9.16699 -87 27.5s-34 43.833 -34 76.5c0 25.333 7.33301 49.333 22 72s38 42.667 70 60z" />
    <glyph glyph-name="uogonek" unicode="&#x173;" horiz-adv-x="624" 
d="M400 67c-16.667 -24.667 -37.5 -43.667 -62.5 -57s-53.5 -20 -85.5 -20c-55.333 0 -98.833 17.833 -130.5 53.5s-47.5 90.834 -47.5 165.501v219l-58 14v86h58h143v-320c0 -38.667 6.33301 -66.167 19 -82.5s31.667 -24.5 57 -24.5c22.667 0 42.167 3.66699 58.5 11
s29.833 17.666 40.5 30.999v285l-62 14v86h62h143v-428l64 -15v-85h-189zM599 0c-17.333 -17.333 -30.1689 -32 -38.502 -44s-12.5 -26 -12.5 -42c0 -8.66699 2.83301 -16.5 8.5 -23.5s16.834 -10.5 33.501 -10.5c9.33301 0 17.5 1 24.5 3s14.167 4.33301 21.5 7l17 -76
c-12 -6 -25.167 -11 -39.5 -15s-31.166 -6 -50.499 -6c-35.333 0 -64.333 9.16699 -87 27.5s-34 43.833 -34 76.5c0 25.333 7.33301 49.333 22 72s38 42.667 70 60z" />
    <glyph glyph-name="Wcircumflex" unicode="&#x174;" horiz-adv-x="962" 
d="M948 625l-58 -7l-144 -618h-133l-130 469h-3l-130 -469h-133l-145 618l-58 7v86h262v-86l-65 -11l81 -390h3l134 487h105l134 -487h3l81 390l-65 11v86h261v-86zM651 784v-12h-106l-75 72l-76 -72h-103v13l138 117h82z" />
    <glyph glyph-name="wcircumflex" unicode="&#x175;" horiz-adv-x="801" 
d="M784 442l-54 -6l-110 -436h-119l-98 314h-3l-98 -314h-119l-111 436l-53 6v86h239v-86l-56 -10l50 -242h3l99 338h95l100 -339h3l49 242l-57 11v86h240v-86zM579 626v-12h-106l-75 72l-76 -72h-103v13l138 117h82z" />
    <glyph glyph-name="Ycircumflex" unicode="&#x176;" horiz-adv-x="682" 
d="M287 625l-58 -8l110 -234h3l110 234l-57 8v86h269v-86l-61 -10l-193 -365v-150l76 -15v-85h-295v85l77 15v157l-190 358l-60 10v86h269v-86zM529 784v-12h-106l-75 72l-76 -72h-103v13l138 117h82z" />
    <glyph glyph-name="ycircumflex" unicode="&#x177;" horiz-adv-x="591" 
d="M578 442l-50.001 -7.00098l-194 -514c-15.333 -38 -35.833 -69.833 -61.5 -95.5s-64.167 -38.5 -115.5 -38.5c-12 0 -23.333 0.833008 -34 2.5s-23 4.5 -37 8.5l17 104l14 -2c4.66699 -0.666992 8.66699 -1 12 -1c24 0 42.333 5.83301 55 17.5
s22.334 25.834 29.001 42.501l16 41l-167 435l-49 7v86h258v-86l-59 -9l73 -211l7 -38l3 -1l83 250l-59 9v86h259v-86zM468.999 619.999v-12h-106l-75 72l-76 -72h-103v13l138 117h82z" />
    <glyph glyph-name="Ydieresis" unicode="&#x178;" horiz-adv-x="682" 
d="M287 625l-58 -8l110 -234h3l110 234l-57 8v86h269v-86l-61 -10l-193 -365v-150l76 -15v-85h-295v85l77 15v157l-190 358l-60 10v86h269v-86zM529 781h-131v100h131v-100zM285 781h-131v100h131v-100z" />
    <glyph glyph-name="Zacute" unicode="&#x179;" horiz-adv-x="598" 
d="M558 711v-71l-348 -531h248l11 86h109l-11 -195h-531v74l347 527h-226l-11 -86h-109l10 196h511zM311 892h151l1 -3l-135 -127h-114z" />
    <glyph glyph-name="zacute" unicode="&#x17a;" horiz-adv-x="522" 
d="M220 109h147l6 71h109v-180h-439v84l251 334h-129l-5 -70h-110v180h423v-81zM276 735h151l1 -3l-135 -127h-114z" />
    <glyph glyph-name="Zdotaccent" unicode="&#x17b;" horiz-adv-x="598" 
d="M558 711v-71l-348 -531h248l11 86h109l-11 -195h-531v74l347 527h-226l-11 -86h-109l10 196h511zM368 782h-149v118h149v-118z" />
    <glyph glyph-name="zdotaccent" unicode="&#x17c;" horiz-adv-x="522" 
d="M220 109h147l6 71h109v-180h-439v84l251 334h-129l-5 -70h-110v180h423v-81zM333 624h-149v118h149v-118z" />
    <glyph glyph-name="Zcaron" unicode="&#x17d;" horiz-adv-x="598" 
d="M558 711v-71l-348 -531h248l11 86h109l-11 -195h-531v74l347 527h-226l-11 -86h-109l10 196h511zM291 844l64 68h121v-8l-136 -125h-98l-137 125v8h121z" />
    <glyph glyph-name="zcaron" unicode="&#x17e;" horiz-adv-x="522" 
d="M220 109h147l6 71h109v-180h-439v84l251 334h-129l-5 -70h-110v180h423v-81zM256 686l64 68h121v-8l-136 -125h-98l-137 125v8h121z" />
    <glyph glyph-name="longs" unicode="&#x17f;" horiz-adv-x="367" 
d="M21 85l68.998 15v487c0 59.333 17 105 51 137s82 48 144 48c12 0 24.333 -0.833008 37 -2.5s26.334 -4.16699 41.001 -7.5l-11 -105l-24 3.5s-14.667 1.5 -24 1.5c-23.333 0 -41.166 -6.5 -53.499 -19.5s-18.5 -31.5 -18.5 -55.5v-487l76 -15v-85h-287v85z" />
    <glyph glyph-name="florin" unicode="&#x192;" horiz-adv-x="389" 
d="M349 428l-100.999 -0.000976562l-1 -448c0 -62 -16.5 -109.667 -49.5 -143s-78.5 -50 -136.5 -50c-13.333 0 -25.5 0.666992 -36.5 2s-22.167 3.33301 -33.5 6l7 108c6.66699 -2 14.167 -3.66699 22.5 -5s16.833 -2 25.5 -2c18.667 0 33 7.33301 43 22
s15 35.334 15 62.001v448h-78v100h78v59c0 59.333 17.167 105 51.5 137s82.5 48 144.5 48c12 0 24.167 -0.833008 36.5 -2.5s26.166 -4.16699 41.499 -7.5l-12 -106c-7.33301 1.33301 -14.833 2.5 -22.5 3.5s-16.167 1.5 -25.5 1.5c-23.333 0 -40.833 -6.33301 -52.5 -19
s-17.5 -31 -17.5 -55v-59h101v-100z" />
    <glyph glyph-name="Ohorn" unicode="&#x1a0;" horiz-adv-x="727" 
d="M679 350c0 -104 -29.832 -189.999 -89.499 -257.999s-137.5 -102 -233.5 -102s-173.5 34 -232.5 102s-88.5 154 -88.5 258v11c0 103.333 29.333 189.166 88 257.499s136 102.5 232 102.5c42 0 81.333 -7.16699 118 -21.5s69 -34.5 97 -60.5
c15.333 8.66699 26.166 23.667 32.499 45s9.5 49 9.5 83h96c0 -48 -7 -88.167 -21 -120.5s-35.333 -56.5 -64 -72.5c18 -30 31.833 -63 41.5 -99s14.5 -74 14.5 -114v-11zM537.001 362.001c0 73.333 -15.333 133 -46 179s-76 69 -136 69s-104.667 -22.833 -134 -68.5
s-44 -105.5 -44 -179.5v-12c0 -74.667 15 -134.834 45 -180.501s74.667 -68.5 134 -68.5c60 0 105.167 22.833 135.5 68.5s45.5 105.834 45.5 180.501v12z" />
    <glyph glyph-name="ohorn" unicode="&#x1a1;" horiz-adv-x="620" 
d="M38 269c0 78.667 21.998 143.167 65.998 193.5s105 75.5 183 75.5c37.333 0 71 -6.16699 101 -18.5s56 -29.833 78 -52.5c12.667 9.33301 21.5 23.166 26.5 41.499s7.5 41.833 7.5 70.5h86c0 -41.333 -6.66699 -76.166 -20 -104.499s-33.666 -49.5 -60.999 -63.5
c10 -20.667 17.833 -43 23.5 -67s8.5 -49 8.5 -75v-10c0 -79.333 -22.167 -144 -66.5 -194s-105.166 -75 -182.499 -75c-78.667 0 -140 25 -184 75s-66 114.667 -66 194v10zM180.998 259c0 -48 8.33203 -86.667 24.999 -116s44 -44 82 -44c36.667 0 63.667 14.667 81 44
s26 68 26 116v10c0 46.667 -8.66699 84.834 -26 114.501s-44.666 44.5 -81.999 44.5s-64.333 -14.833 -81 -44.5s-25 -67.834 -25 -114.501v-10z" />
    <glyph glyph-name="Uhorn" unicode="&#x1af;" horiz-adv-x="866" 
d="M663 575l3 0.00292969c41.333 0.666992 68.5 13 81.5 37s19.5 63 19.5 117h92l1 -3c0.666992 -74.667 -14 -131.334 -44 -170.001s-81 -59.334 -153 -62.001v-255c0 -80 -26.5 -141.5 -79.5 -184.5s-122.167 -64.5 -207.5 -64.5c-84.667 0 -153.167 21.667 -205.5 65
s-78.5 104.666 -78.5 183.999v371l-75 15v86h75h143h76v-86l-76 -15v-371c0 -46.667 12.667 -81.667 38 -105s59.666 -35 102.999 -35c44.667 0 79.834 11.5 105.501 34.5s38.5 58.167 38.5 105.5v371l-76 15v86h219v-136z" />
    <glyph glyph-name="uhorn" unicode="&#x1b0;" horiz-adv-x="670" 
d="M541 528v-60.001l2 -1c21.333 3.33301 35.5 13.333 42.5 30s10.5 42.334 10.5 77.001h83c0 -54.667 -10.5 -96.5 -31.5 -125.5s-56.5 -46.833 -106.5 -53.5v-295l63 -15v-85h-188l-10 67c-16.667 -24.667 -37.5 -43.667 -62.5 -57s-53.5 -20 -85.5 -20
c-55.333 0 -98.833 17.833 -130.5 53.5s-47.5 90.834 -47.5 165.501v219l-58 14v86h58h143v-320c0 -38.667 6.33301 -66.167 19 -82.5s31.667 -24.5 57 -24.5c22.667 0 42.167 3.66699 58.5 11s29.833 17.666 40.5 30.999v285l-63 14v86h63h143z" />
    <glyph glyph-name="uni01F0" unicode="&#x1f0;" horiz-adv-x="303" 
d="M247 -20c0 -62 -16.332 -109.668 -48.999 -143.001s-78.334 -50 -137.001 -50c-13.333 0 -25.5 0.666992 -36.5 2s-22.167 3.33301 -33.5 6l7 108c6.66699 -2 14.167 -3.66699 22.5 -5s16.833 -2 25.5 -2c18.667 0 33.167 7.33301 43.5 22s15.5 35.334 15.5 62.001v448
l-76 14v86h218v-548zM133.001 678.999l64 68h121v-8l-136 -125h-98l-137 125v8h121z" />
    <glyph glyph-name="Aringacute" unicode="&#x1fa;" 
d="M20 85l51 8l216 618h146l215 -618l51 -8v-85h-242v85l49 9l-31 98h-231l-31 -98l49 -9v-85h-242v85zM278 297h163l-80 250h-3zM415 984h124l1 -3l-128 -97h-85l-1 2zM260 774c0 25.333 9.5 46.666 28.5 63.999s42.5 26 70.5 26c27.333 0 50.333 -8.66699 69 -26
s28 -38.666 28 -63.999c0 -26 -9.33301 -47.333 -28 -64s-41.667 -25 -69 -25c-28 0 -51.5 8.33301 -70.5 25s-28.5 38 -28.5 64zM315 774c0 -12.667 4.16699 -23 12.5 -31s18.833 -12 31.5 -12c12 0 22 4 30 12s12 18.333 12 31s-4 23.167 -12 31.5s-18 12.5 -30 12.5
c-12.667 0 -23.167 -4.16699 -31.5 -12.5s-12.5 -18.833 -12.5 -31.5z" />
    <glyph glyph-name="aringacute" unicode="&#x1fb;" horiz-adv-x="549" 
d="M367 0c-4 8.66699 -7.33301 17.668 -10 27.001s-5 18.666 -7 27.999c-16.667 -19.333 -37.167 -35 -61.5 -47s-52.166 -18 -83.499 -18c-52 0 -93.167 14 -123.5 42s-45.5 66.333 -45.5 115c0 49.333 19.833 87.5 59.5 114.5s98.167 40.5 175.5 40.5h72v52
c0 25.333 -7.33301 45 -22 59s-36.334 21 -65.001 21c-16 0 -30.333 -1.83301 -43 -5.5s-23 -8.16699 -31 -13.5l-9 -57h-108l1 118c26 17.333 55.833 32 89.5 44s70.5 18 110.5 18c65.333 0 118.333 -16 159 -48s61 -77.667 61 -137v-218c0 -8 0.166992 -15.667 0.5 -23
s0.833008 -14.333 1.5 -21l44 -6v-85h-165zM244 95.001c21.333 0 40.832 4.66699 58.499 14s31.167 21 40.5 35v81h-72c-30 0 -53 -7.16699 -69 -21.5s-24 -31.5 -24 -51.5c0 -18 5.83301 -32 17.5 -42s27.834 -15 48.501 -15zM337.999 826.001h124l1 -3l-128 -97h-85l-1 2z
M182.999 616.001c0 25.333 9.5 46.666 28.5 63.999s42.5 26 70.5 26c27.333 0 50.333 -8.66699 69 -26s28 -38.666 28 -63.999c0 -26 -9.33301 -47.333 -28 -64s-41.667 -25 -69 -25c-28 0 -51.5 8.33301 -70.5 25s-28.5 38 -28.5 64zM237.999 616.001
c0 -12.667 4.16699 -23 12.5 -31s18.833 -12 31.5 -12c12 0 22 4 30 12s12 18.333 12 31s-4 23.167 -12 31.5s-18 12.5 -30 12.5c-12.667 0 -23.167 -4.16699 -31.5 -12.5s-12.5 -18.833 -12.5 -31.5z" />
    <glyph glyph-name="AEacute" unicode="&#x1fc;" horiz-adv-x="999" 
d="M32 85l67 10l331 616h496v-180h-109l-5 69h-177l8 -179h244v-111h-240l9 -199h186l6 69h108v-180h-514v85l72 14l-3 74h-210l-41 -81l41 -7v-85h-269v85zM356 284h150l-11 271h-3zM549 891h151l1 -3l-135 -127h-114z" />
    <glyph glyph-name="aeacute" unicode="&#x1fd;" horiz-adv-x="871" 
d="M622 -10c-42 0 -79.4971 6.50098 -112.497 19.501s-60.167 31.833 -81.5 56.5c-19.333 -22 -45.666 -40.167 -78.999 -54.5s-72.666 -21.5 -117.999 -21.5c-62.667 0 -110.834 14.667 -144.501 44s-50.5 69.666 -50.5 120.999c0 52 20.667 91.833 62 119.5
s101.333 41.5 180 41.5h89v29c0 26 -6.66699 46.333 -20 61s-32 22 -56 22c-26.667 0 -47.5 -6 -62.5 -18s-22.5 -27.333 -22.5 -46l-138 9l-1 3c-2 46.667 17.667 85.334 59 116.001s96.666 46 165.999 46c33.333 0 63.666 -4.5 90.999 -13.5s50.666 -21.833 69.999 -38.5
c20 16.667 43.167 29.5 69.5 38.5s55.5 13.5 87.5 13.5c69.333 0 123.666 -21.5 162.999 -64.5s59 -101.167 59 -174.5v-77h-317l-1 -3c1.33301 -36.667 12 -65.834 32 -87.501s50.333 -32.5 91 -32.5c30 0 55 3.33301 75 10s42.667 16.667 68 30l38 -90
c-20 -15.333 -47.333 -29 -82 -41s-72.667 -18 -114 -18zM259.003 90.001c18.667 0 38.332 4.99902 58.999 14.999s37 22 49 36v86h-88c-32 0 -56.833 -7.16699 -74.5 -21.5s-26.5 -31.833 -26.5 -52.5c0 -19.333 6.83301 -34.666 20.5 -45.999s33.834 -17 60.501 -17z
M610.001 428c-30.667 0 -53.667 -10 -69 -30s-24 -47 -26 -81l1 -3h176v14c0 30.667 -6.83301 55 -20.5 73s-34.167 27 -61.5 27zM434.001 734h151l1 -3l-135 -127h-114z" />
    <glyph glyph-name="Oslashacute" unicode="&#x1fe;" horiz-adv-x="683" 
d="M680 350c0 -104 -29.832 -189.996 -89.499 -257.996s-137.834 -102 -234.501 -102c-30.667 0 -59.5 3.66699 -86.5 11s-52.167 18 -75.5 32l-47 -79h-70l68 116c-35.333 32.667 -62.5 73.167 -81.5 121.5s-28.5 101.166 -28.5 158.499v11
c0 103.333 29.5 189.166 88.5 257.499s136.5 102.5 232.5 102.5c27.333 0 53.333 -3 78 -9s48 -14.667 70 -26l32 55h70l-51 -88c40 -32.667 70.833 -74.334 92.5 -125.001s32.5 -106.334 32.5 -167.001v-11zM538.001 362.004c0 36.667 -3.99902 70.166 -11.999 100.499
s-19.333 55.833 -34 76.5h-3l-236 -404c13.333 -11.333 28.666 -19.833 45.999 -25.5s36.333 -8.5 57 -8.5c60 0 105.333 22.833 136 68.5s46 105.834 46 180.501v12zM178.002 350.003c0 -32.667 2.66797 -62.667 8.00098 -90s13.666 -50.666 24.999 -69.999l3 -1l231 397
c-12.667 7.33301 -26.5 13.166 -41.5 17.499s-30.833 6.5 -47.5 6.5c-60 0 -104.667 -22.833 -134 -68.5s-44 -105.5 -44 -179.5v-12zM359.003 891.003h151l1 -3l-135 -127h-114z" />
    <glyph glyph-name="oslashacute" unicode="&#x1ff;" horiz-adv-x="575" 
d="M37 269c0 78.667 21.998 143.165 65.998 193.498s105 75.5 183 75.5c14.667 0 28.834 -1 42.501 -3s27.167 -5 40.5 -9l33 67h79l-48 -98c32.667 -23.333 58 -54.666 76 -93.999s27 -83.333 27 -132v-10c0 -79.333 -22.167 -144 -66.5 -194s-105.166 -75 -182.499 -75
c-17.333 0 -33.833 1.33301 -49.5 4s-30.5 6.33398 -44.5 11.001l-36 -74h-79l53 108c-30.667 23.333 -54 54 -70 92s-24 80.667 -24 128v10zM393.998 268.998c0 20 -1.66699 38.834 -5 56.501s-8 32.167 -14 43.5h-3l-128 -261c6 -2.66699 12.5 -4.83398 19.5 -6.50098
s14.833 -2.5 23.5 -2.5c36.667 0 63.667 14.667 81 44s26 68 26 116v10zM179.998 258.999c0 -18 1 -34.499 3 -49.499s5.33301 -27.5 10 -37.5l2 -1l124 252c-5.33301 1.33301 -10.833 2.5 -16.5 3.5s-11.167 1.5 -16.5 1.5c-37.333 0 -64.333 -14.833 -81 -44.5
s-25 -67.834 -25 -114.501v-10zM277.998 732h151l1 -3l-135 -127h-114z" />
    <glyph glyph-name="uni0218" unicode="&#x218;" horiz-adv-x="606" 
d="M567 484l-107.001 -0.000976562l-18 98c-12.667 8 -30.834 14.833 -54.501 20.5s-48.834 8.5 -75.501 8.5c-39.333 0 -69.666 -8.16699 -90.999 -24.5s-32 -37.833 -32 -64.5c0 -24 11.167 -43.667 33.5 -59s60.833 -31.666 115.5 -48.999
c78.667 -22 138.334 -50.833 179.001 -86.5s61 -82.5 61 -140.5c0 -60.667 -24.167 -108.667 -72.5 -144s-111.833 -53 -190.5 -53c-56 0 -106.833 8.83301 -152.5 26.5s-83.5 42.5 -113.5 74.5v148h110l15 -101c14 -12 33.5 -21.667 58.5 -29s52.5 -11 82.5 -11
c39.333 0 69.166 8 89.499 24s30.5 37.333 30.5 64c0 27.333 -9.83301 49.166 -29.5 65.499s-53.5 31.833 -101.5 46.5c-84 24.667 -147.833 53.834 -191.5 87.501s-65.5 79.5 -65.5 137.5c0 57.333 24.5 104.333 73.5 141s110.5 55.667 184.5 57
c54.667 0 104.334 -8.33301 149.001 -25s82.334 -39 113.001 -67v-145zM366.999 -107.001c0 -34 -6.83203 -68.834 -20.499 -104.501s-31.167 -65.167 -52.5 -88.5l-70 38c13.333 23.333 23.166 46.333 29.499 69s9.5 49.334 9.5 80.001v65h104v-59z" />
    <glyph glyph-name="uni0219" unicode="&#x219;" horiz-adv-x="514" 
d="M462 347l-95.998 -0.000976562l-15 66c-10 8 -22.333 14.5 -37 19.5s-31 7.5 -49 7.5c-25.333 0 -45.166 -5.66699 -59.499 -17s-21.5 -25.333 -21.5 -42c0 -16 7 -29.333 21 -40s42 -20 84 -28c65.333 -13.333 113.666 -32.5 144.999 -57.5s47 -59.833 47 -104.5
c0 -47.333 -20.333 -86 -61 -116s-94.334 -45 -161.001 -45c-40.667 0 -78 5.83301 -112 17.5s-64.333 28.834 -91 51.501l-1 118h99l20 -69c8.66699 -7.33301 20.167 -12.666 34.5 -15.999s29.5 -5 45.5 -5c28.667 0 50.667 5.33301 66 16s23 25 23 43
c0 15.333 -7.66699 28.666 -23 39.999s-43.333 21.333 -84 30c-62 12.667 -109 31.5 -141 56.5s-48 59.167 -48 102.5c0 44 18.333 82 55 114s88.667 48 156 48c41.333 0 80.166 -5.5 116.499 -16.5s64.833 -25.167 85.5 -42.5zM310.002 -107.001
c0 -34 -6.83203 -68.834 -20.499 -104.501s-31.167 -65.167 -52.5 -88.5l-70 38c13.333 23.333 23.166 46.333 29.499 69s9.5 49.334 9.5 80.001v65h104v-59z" />
    <glyph glyph-name="uni021A" unicode="&#x21a;" horiz-adv-x="672" 
d="M653 711v-190h-109l-6 80h-131v-501l76 -15v-85h-295v85l77 15v501h-131l-6 -80h-108v190h633zM390 -102c0 -34 -6.83203 -68.834 -20.499 -104.501s-31.167 -65.167 -52.5 -88.5l-70 38c13.333 23.333 23.166 46.333 29.499 69s9.5 49.334 9.5 80.001v65h104v-59z" />
    <glyph glyph-name="uni021B" unicode="&#x21b;" horiz-adv-x="373" 
d="M241 658v-129.999h93v-100h-93v-269c0 -20.667 4.33301 -35.334 13 -44.001s20 -13 34 -13c10 0 18.667 0.333008 26 1s15.333 2 24 4l13 -103c-16 -4.66699 -31.833 -8.16699 -47.5 -10.5s-32.834 -3.5 -51.501 -3.5c-49.333 0 -87.166 13.5 -113.499 40.5
s-39.5 69.833 -39.5 128.5v269h-78v100h78v130h142zM282 -104.999c0 -34 -6.83203 -68.834 -20.499 -104.501s-31.167 -65.167 -52.5 -88.5l-70 38c13.333 23.333 23.166 46.333 29.499 69s9.5 49.334 9.5 80.001v65h104v-59z" />
    <glyph glyph-name="uni0237" unicode="&#x237;" horiz-adv-x="303" 
d="M247 -20c0 -62 -16.332 -109.668 -48.999 -143.001s-78.334 -50 -137.001 -50c-13.333 0 -25.5 0.666992 -36.5 2s-22.167 3.33301 -33.5 6l7 108c6.66699 -2 14.167 -3.66699 22.5 -5s16.833 -2 25.5 -2c18.667 0 33.167 7.33301 43.5 22s15.5 35.334 15.5 62.001v448
l-76 14v86h218v-548z" />
    <glyph glyph-name="schwa" unicode="&#x259;" horiz-adv-x="546" 
d="M257 539c76 0 136.833 -24.5029 182.5 -73.5029s68.5 -111.167 68.5 -186.5v-19c0 -79.333 -21.5 -144.166 -64.5 -194.499s-100.5 -75.166 -172.5 -74.499c-72 0 -127.667 21.333 -167 64s-59 100.667 -59 174v78h315l1 3c-2.66699 34.667 -14.334 63.167 -35.001 85.5
s-48.667 33.5 -84 33.5c-32 0 -58.333 -3.16699 -79 -9.5s-43 -16.166 -67 -29.499l-39 88c21.333 17.333 49.333 31.833 84 43.5s73.334 17.5 116.001 17.5zM271 99.9971c26 0 46.5 10 61.5 30s24.5 46.667 28.5 80l-2 2h-174v-12c0 -30.667 7.16699 -55 21.5 -73
s35.833 -27 64.5 -27z" />
    <glyph glyph-name="uni02BC" unicode="&#x2bc;" horiz-adv-x="229" 
d="M188 668c0 -32.667 -8.66797 -66.832 -26.001 -102.499s-38.333 -64.834 -63 -87.501l-70 38c12.667 22.667 22.334 46.167 29.001 70.5s10 51.5 10 81.5v94h120v-94z" />
    <glyph glyph-name="circumflex" unicode="&#x2c6;" horiz-adv-x="434" 
d="M404 623v-12h-106l-75 72l-76 -72h-103v13l138 117h82z" />
    <glyph glyph-name="caron" unicode="&#x2c7;" horiz-adv-x="426" 
d="M220 676l64 68h121v-8l-136 -125h-98l-137 125v8h121z" />
    <glyph glyph-name="breve" unicode="&#x2d8;" horiz-adv-x="426" 
d="M383 711l1 -3c1.33301 -41.333 -13.167 -75.166 -43.5 -101.499s-71.166 -39.5 -122.499 -39.5c-52 0 -93.167 13.167 -123.5 39.5s-44.5 60.166 -42.5 101.499l1 3h96c0 -18.667 5.66699 -34.167 17 -46.5s28.666 -18.5 51.999 -18.5s40.5 6 51.5 18
s16.5 27.667 16.5 47h97z" />
    <glyph glyph-name="dotaccent" unicode="&#x2d9;" horiz-adv-x="271" 
d="M216 599h-149v118h149v-118z" />
    <glyph glyph-name="ring" unicode="&#x2da;" horiz-adv-x="319" 
d="M56 634c0 27.333 10 50 30 68s44.667 27 74 27c28.667 0 52.834 -9.16699 72.501 -27.5s29.5 -40.833 29.5 -67.5c0 -27.333 -9.83301 -49.833 -29.5 -67.5s-43.834 -26.5 -72.501 -26.5c-29.333 0 -54 8.83301 -74 26.5s-30 40.167 -30 67.5zM112 634
c0 -14 4.5 -25.5 13.5 -34.5s20.5 -13.5 34.5 -13.5c13.333 0 24.166 4.5 32.499 13.5s12.5 20.5 12.5 34.5s-4.16699 25.667 -12.5 35s-19.166 14 -32.499 14c-14 0 -25.5 -4.66699 -34.5 -14s-13.5 -21 -13.5 -35z" />
    <glyph glyph-name="ogonek" unicode="&#x2db;" horiz-adv-x="228" 
d="M177 0c-17.333 -17.333 -30.1689 -32 -38.502 -44s-12.5 -26 -12.5 -42c0 -8.66699 2.83301 -16.5 8.5 -23.5s16.834 -10.5 33.501 -10.5c9.33301 0 17.5 1 24.5 3s14.167 4.33301 21.5 7l17 -76c-12 -6 -25.167 -11 -39.5 -15s-31.166 -6 -50.499 -6
c-35.333 0 -64.333 9.16699 -87 27.5s-34 43.833 -34 76.5c0 25.333 7.33301 49.333 22 72s38 42.667 70 60z" />
    <glyph glyph-name="tilde" unicode="&#x2dc;" horiz-adv-x="463" 
d="M418 725c0 -31.333 -9.66602 -58.001 -28.999 -80.001s-43.666 -33 -72.999 -33c-22.667 0 -48.5 7 -77.5 21s-51.833 21 -68.5 21c-12 0 -22 -5.16699 -30 -15.5s-12 -22.833 -12 -37.5l-75 20c0 30.667 9.66699 57.334 29 80.001s43.666 34 72.999 34
c18 0 42.5 -7.16699 73.5 -21.5s55.167 -21.5 72.5 -21.5c11.333 0 21.166 5.33301 29.499 16s12.5 23.667 12.5 39z" />
    <glyph glyph-name="hungarumlaut" unicode="&#x2dd;" horiz-adv-x="474" 
d="M331 741h128l1 -3l-139 -127h-107l-1 3zM141 741h127l1 -2l-117 -128h-108z" />
    <glyph glyph-name="uni02F3" unicode="&#x2f3;" horiz-adv-x="218" 
d="M22 -124c0 23.333 8.66699 42.666 26 57.999s38.666 23 63.999 23c24.667 0 45.5 -7.66699 62.5 -23s25.5 -34.666 25.5 -57.999c0 -22.667 -8.5 -41.5 -25.5 -56.5s-37.833 -22.5 -62.5 -22.5c-25.333 0 -46.666 7.5 -63.999 22.5s-26 33.833 -26 56.5zM78 -124
c0 -9.33301 3.16699 -17.166 9.5 -23.499s14.5 -9.5 24.5 -9.5c9.33301 0 17.166 3.16699 23.499 9.5s9.5 14.166 9.5 23.499c0 10.667 -3.16699 19.167 -9.5 25.5s-14.166 9.5 -23.499 9.5c-10 0 -18.167 -3.16699 -24.5 -9.5s-9.5 -14.833 -9.5 -25.5z" />
    <glyph glyph-name="gravecomb" unicode="&#x300;" horiz-adv-x="257" 
d="M217 584h-87l-92 153h113z" />
    <glyph glyph-name="acutecomb" unicode="&#x301;" horiz-adv-x="254" 
d="M111 740h113l-94 -153h-85z" />
    <glyph glyph-name="tildecomb" unicode="&#x303;" horiz-adv-x="463" 
d="M-92 725c0 -31.333 -9.66602 -58.001 -28.999 -80.001s-43.666 -33 -72.999 -33c-22.667 0 -48.5 7 -77.5 21s-51.833 21 -68.5 21c-12 0 -22 -5.16699 -30 -15.5s-12 -22.833 -12 -37.5l-75 20c0 30.667 9.66699 57.334 29 80.001s43.666 34 72.999 34
c18 0 42.5 -7.16699 73.5 -21.5s55.167 -21.5 72.5 -21.5c11.333 0 21.166 5.33301 29.499 16s12.5 23.667 12.5 39z" />
    <glyph glyph-name="hook" unicode="&#x309;" horiz-adv-x="298" 
d="M72 617l-8.00098 67c24 0.666992 41.167 3.5 51.5 8.5s15.5 12.833 15.5 23.5c0 12 -6.16699 20.667 -18.5 26s-29.166 8 -50.499 8l3 65c60 0 106.167 -8.5 138.5 -25.5s48.5 -40.167 48.5 -69.5c0 -20.667 -7.16699 -37 -21.5 -49s-31.5 -19.333 -51.5 -22l-1 -32h-106
z" />
    <glyph glyph-name="uni030F" unicode="&#x30f;" horiz-adv-x="479" 
d="M287 614l-1 -3h-114l-139 127l1 3h136zM456 611h-115l-117 128l1 2h134z" />
    <glyph glyph-name="dotbelow" unicode="&#x323;" horiz-adv-x="216" 
d="M188 -176h-145v117h145v-117z" />
    <glyph glyph-name="tonos" unicode="&#x384;" horiz-adv-x="250" 
d="M100 798h136l-103 -178h-70z" />
    <glyph glyph-name="dieresistonos" unicode="&#x385;" horiz-adv-x="508" 
d="M456 611h-117v100h117v-100zM181 611h-117v100h117v-100zM238 841h137l-85 -158h-72z" />
    <glyph glyph-name="Alphatonos" unicode="&#x386;" 
d="M20 85l51 8l216 618h146l215 -618l51 -8v-85h-242v85l49 9l-31 98h-231l-31 -98l49 -9v-85h-242v85zM278 297h163l-80 250h-3zM109 798h136l-103 -178h-70z" />
    <glyph glyph-name="anoteleia" unicode="&#x387;" horiz-adv-x="270" 
d="M213 277h-142v127h142v-127z" />
    <glyph glyph-name="Epsilontonos" unicode="&#x388;" horiz-adv-x="687" 
d="M535 312h-240v-203h229l6 85h109v-194h-563v85l76 15v510l-76 15v86h76h486v-195h-110l-6 85h-227v-179h240v-110zM-45 799h136l-103 -178h-70z" />
    <glyph glyph-name="Etatonos" unicode="&#x389;" horiz-adv-x="830" 
d="M76 625v86h295v-86l-76 -15v-205h290v205l-77 15v86h77h142h76v-86l-76 -15v-510l76 -15v-85h-295v85l77 15v195h-290v-195l76 -15v-85h-295v85l76 15v510zM-43 798h136l-103 -178h-70z" />
    <glyph glyph-name="Iotatonos" unicode="&#x38a;" horiz-adv-x="396" 
d="M76 625v86h294v-86l-76 -15v-510l76 -15v-85h-294v85l76 15v510zM-43 799h136l-103 -178h-70z" />
    <glyph glyph-name="Omicrontonos" unicode="&#x38c;" horiz-adv-x="716" 
d="M687 350c0 -104 -29.668 -190 -89.001 -258s-137.333 -102 -234 -102c-96 0 -173.5 34 -232.5 102s-88.5 154 -88.5 258v11c0 103.333 29.333 189.166 88 257.499s136.334 102.5 233.001 102.5s174.667 -34.167 234 -102.5s89 -154.166 89 -257.499v-11zM544.999 362
c0 73.333 -15.333 133 -46 179s-75.667 69 -135 69c-60 0 -104.833 -22.833 -134.5 -68.5s-44.5 -105.5 -44.5 -179.5v-12c0 -74.667 15 -134.834 45 -180.501s74.667 -68.5 134 -68.5c60 0 105.167 22.833 135.5 68.5s45.5 105.834 45.5 180.501v12zM24.999 798h136
l-103 -178h-70z" />
    <glyph glyph-name="Upsilontonos" unicode="&#x38e;" horiz-adv-x="731" 
d="M336 625l-58 -8l110 -234h3l110 234l-57 8v86h269v-86l-61 -10l-193 -365v-150l76 -15v-85h-295v85l77 15v157l-190 358l-60 10v86h269v-86zM-46 797h136l-103 -178h-70z" />
    <glyph glyph-name="Omegatonos" unicode="&#x38f;" horiz-adv-x="666" 
d="M365 120c33.333 11.333 59.332 38.834 77.999 82.501s28 104.834 28 183.501v23c0 65.333 -11.667 115.166 -35 149.499s-56.333 51.5 -99 51.5c-41.333 0 -73.666 -17.167 -96.999 -51.5s-35 -84.166 -35 -149.499v-23c0 -80 9.5 -141.667 28.5 -185
s45.833 -70.333 80.5 -81v-120h-246v111h125c-43.333 29.333 -78.5 68.666 -105.5 117.999s-40.5 101.666 -40.5 156.999v22c0 92 26.833 167.167 80.5 225.5s123.5 87.5 209.5 87.5s156.167 -29.167 210.5 -87.5s81.5 -133.5 81.5 -225.5v-22
c0 -56 -13.5 -108.333 -40.5 -157s-61.833 -88 -104.5 -118h128v-111h-247v120zM7.99902 798.001h136l-103 -178h-70z" />
    <glyph glyph-name="iotadieresistonos" unicode="&#x390;" horiz-adv-x="344" 
d="M229 157c0 -21.333 3.49902 -36 10.499 -44s18.167 -12 33.5 -12c9.33301 0 16.833 0.5 22.5 1.5s14.167 3.16699 25.5 6.5l14 -102c-15.333 -6.66699 -29.833 -11.167 -43.5 -13.5s-29.167 -3.5 -46.5 -3.5c-51.333 0 -90.666 13.833 -117.999 41.5
s-41 70.167 -41 127.5v269l-76 14v86h219v-371zM356.999 592h-117v100h117v-100zM81.999 592h-117v100h117v-100zM138.999 822h137l-85 -158h-72z" />
    <glyph glyph-name="Alpha" unicode="&#x391;" 
d="M20 85l51 8l216 618h146l215 -618l51 -8v-85h-242v85l49 9l-31 98h-231l-31 -98l49 -9v-85h-242v85zM278 297h163l-80 250h-3z" />
    <glyph glyph-name="Beta" unicode="&#x392;" horiz-adv-x="661" 
d="M343 711c83.333 0 148.499 -16.332 195.499 -48.999s70.5 -81.334 70.5 -146.001c0 -32.667 -8.66699 -62 -26 -88s-42.666 -45.333 -75.999 -58c42.667 -9.33301 74.667 -29 96 -59s32 -64.667 32 -104c0 -68 -22.5 -119.5 -67.5 -154.5s-108.5 -52.5 -190.5 -52.5h-350
v85l76 15v510l-76 15v86h76h240zM245.999 314.001v-205h131c38 0 66.833 8.33301 86.5 25s29.5 41 29.5 73c0 34.667 -8.5 61.167 -25.5 79.5s-43.5 27.5 -79.5 27.5h-142zM245.999 413.001l102 -0.000976562c38 0 67.333 7.83301 88 23.5s31 38.5 31 68.5
c0 32.667 -10.333 56.834 -31 72.501s-51.667 23.5 -93 23.5h-97v-188z" />
    <glyph glyph-name="Gamma" unicode="&#x393;" horiz-adv-x="597" 
d="M32 85l75 15v510l-75 15v86h539v-180h-110l-5 70h-206v-501l76 -15v-85h-294v85z" />
    <glyph glyph-name="Delta" unicode="&#x394;" horiz-adv-x="712" 
d="M291 711h146l279 -711h-710zM196 109h330l-162 433h-3z" />
    <glyph glyph-name="Delta" unicode="&#x2206;" horiz-adv-x="712" 
d="M291 711h146l279 -711h-710zM196 109h330l-162 433h-3z" />
    <glyph glyph-name="Epsilon" unicode="&#x395;" horiz-adv-x="638" 
d="M486 312h-240v-203h229l6 85h109v-194h-563v85l76 15v510l-76 15v86h76h486v-195h-110l-6 85h-227v-179h240v-110z" />
    <glyph glyph-name="Zeta" unicode="&#x396;" horiz-adv-x="598" 
d="M558 711v-71l-348 -531h248l11 86h109l-11 -195h-531v74l347 527h-226l-11 -86h-109l10 196h511z" />
    <glyph glyph-name="Eta" unicode="&#x397;" horiz-adv-x="781" 
d="M27 625v86h295v-86l-76 -15v-205h290v205l-77 15v86h77h142h76v-86l-76 -15v-510l76 -15v-85h-295v85l77 15v195h-290v-195l76 -15v-85h-295v85l76 15v510z" />
    <glyph glyph-name="Theta" unicode="&#x398;" horiz-adv-x="683" 
d="M436 299h-186v110h186v-110zM676 350c0 -104 -29.834 -190 -89.501 -258s-137.5 -102 -233.5 -102s-173.667 34 -233 102s-89 154 -89 258v11c0 103.333 29.5 189.166 88.5 257.499s136.5 102.5 232.5 102.5c96.667 0 174.834 -34.167 234.501 -102.5
s89.5 -154.166 89.5 -257.499v-11zM533.999 362c0 73.333 -15.333 133 -46 179s-76 69 -136 69s-104.667 -22.833 -134 -68.5s-44 -105.5 -44 -179.5v-12c0 -74.667 14.833 -134.834 44.5 -180.501s74.5 -68.5 134.5 -68.5s105.167 22.833 135.5 68.5
s45.5 105.834 45.5 180.501v12z" />
    <glyph glyph-name="Iota" unicode="&#x399;" horiz-adv-x="348" 
d="M27 625v86h294v-86l-76 -15v-510l76 -15v-85h-294v85l76 15v510z" />
    <glyph glyph-name="Kappa" unicode="&#x39a;" horiz-adv-x="714" 
d="M27 85l76 15v510l-76 15v86h291v-86l-72 -15v-190h62l136 199l-42 6v86h282v-86l-77 -13l-175 -234l196 -280l72 -13v-85h-282v85l44 6l-137 206h-79v-197l72 -15v-85h-291v85z" />
    <glyph glyph-name="Lambda" unicode="&#x39b;" horiz-adv-x="716" 
d="M18 85l61 8l210 618h146l209 -618l61 -8v-85h-254v85l48 10l-136 460h-3l-136 -460l48 -10v-85h-254v85z" />
    <glyph glyph-name="Mu" unicode="&#x39c;" horiz-adv-x="941" 
d="M713 526h-3l-190 -526h-96l-189 524h-3l14 -312v-112l76 -15v-85h-295v85l76 15v510l-76 15v86h76h186l181 -524h3l183 524h262v-86l-76 -15v-510l76 -15v-85h-294v85l76 15v112z" />
    <glyph glyph-name="Nu" unicode="&#x39d;" horiz-adv-x="772" 
d="M754 711v-86l-76 -15v-610h-142l-287 479l-3 -1v-378l76 -15v-85h-295v85l76 15v510l-76 15v86h76h143l287 -479l3 1v377l-77 15v86h219h76z" />
    <glyph glyph-name="Xi" unicode="&#x39e;" horiz-adv-x="607" 
d="M31 180h109l5 -71h323l6 71h109v-180h-552v180zM563 711v-180h-109l-6 70h-292l-5 -70h-109v180h521zM153 415h307v-106h-307v106z" />
    <glyph glyph-name="Omicron" unicode="&#x39f;" horiz-adv-x="707" 
d="M677 350c0 -104 -29.668 -190 -89.001 -258s-137.333 -102 -234 -102c-96 0 -173.5 34 -232.5 102s-88.5 154 -88.5 258v11c0 103.333 29.333 189.166 88 257.499s136.334 102.5 233.001 102.5s174.667 -34.167 234 -102.5s89 -154.166 89 -257.499v-11zM534.999 362
c0 73.333 -15.333 133 -46 179s-75.667 69 -135 69c-60 0 -104.833 -22.833 -134.5 -68.5s-44.5 -105.5 -44.5 -179.5v-12c0 -74.667 15 -134.834 45 -180.501s74.667 -68.5 134 -68.5c60 0 105.167 22.833 135.5 68.5s45.5 105.834 45.5 180.501v12z" />
    <glyph glyph-name="Pi" unicode="&#x3a0;" horiz-adv-x="782" 
d="M32 85l75 15v510l-75 15v86h726v-86l-75 -15v-510l75 -15v-85h-294v85l76 15v501h-290v-501l76 -15v-85h-294v85z" />
    <glyph glyph-name="Rho" unicode="&#x3a1;" horiz-adv-x="646" 
d="M366 711c81.333 0 145.5 -21 192.5 -63s70.5 -96.667 70.5 -164c0 -68 -23.5 -122.667 -70.5 -164s-111.167 -62 -192.5 -62h-120v-158l76 -15v-85h-295v85l76 15v510l-76 15v86h76h263zM246 368h119.999c40 0 70 10.833 90 32.5s30 49.167 30 82.5
c0 34 -10.167 62.167 -30.5 84.5s-50.166 33.5 -89.499 33.5h-120v-233z" />
    <glyph glyph-name="Sigma" unicode="&#x3a3;" horiz-adv-x="575" 
d="M34 0v74l216 284l-216 279v74h509v-180h-108l-6 70h-204l176 -239v-8l-177 -244h218l6 70h109v-180h-523z" />
    <glyph glyph-name="Tau" unicode="&#x3a4;" horiz-adv-x="672" 
d="M653 711v-190h-109l-6 80h-131v-501l76 -15v-85h-295v85l77 15v501h-131l-6 -80h-108v190h633z" />
    <glyph glyph-name="Upsilon" unicode="&#x3a5;" horiz-adv-x="682" 
d="M287 625l-58 -8l110 -234h3l110 234l-57 8v86h269v-86l-61 -10l-193 -365v-150l76 -15v-85h-295v85l77 15v157l-190 358l-60 10v86h269v-86z" />
    <glyph glyph-name="Phi" unicode="&#x3a6;" horiz-adv-x="735" 
d="M298 126c-80.667 2 -146 23.332 -196 63.999s-75 94.334 -75 161.001c0 68 25 123 75 165s115.333 64 196 66v32l-76 14v83h218h76v-83l-76 -14v-32c80 -2 145 -24 195 -66s75 -96.667 75 -164c0 -66 -25 -119.667 -75 -161s-115 -63 -195 -65v-29l76 -15v-82h-294v82
l76 15v29zM167 350.999c0 -34.667 11.5 -61.8301 34.5 -81.4971s54.167 -29.834 93.5 -30.501l3 1v228l-3 1c-39.333 -0.666992 -70.5 -11.334 -93.5 -32.001s-34.5 -49.334 -34.5 -86.001zM570 352.003c0 36 -11.5 64.332 -34.5 84.999s-53.833 31.334 -92.5 32.001l-3 -1
v-228l3 -1c38.667 0 69.5 10.167 92.5 30.5s34.5 47.833 34.5 82.5z" />
    <glyph glyph-name="Chi" unicode="&#x3a7;" horiz-adv-x="702" 
d="M16 85l60 12l188 261l-183 255l-60 12v86h273v-86l-58 -6l110 -175l111 175l-58 6v86h274v-86l-59 -12l-183 -255l192 -260l63 -13v-85h-280v85l56 6l-114 180l-115 -180l58 -6v-85h-275v85z" />
    <glyph glyph-name="Psi" unicode="&#x3a8;" horiz-adv-x="846" 
d="M570 625l-68.001 -15.001v-307h3c37.333 4.66699 65.833 21.834 85.5 51.501s29.5 70.834 29.5 123.501v233h142h69v-86l-69 -15v-132c0 -84.667 -23.333 -152.167 -70 -202.5s-110 -79.833 -190 -88.5v-87l76 -15v-85h-294v85l75 15v87
c-81.333 7.33301 -145.666 36.166 -192.999 86.499s-71 118.5 -71 204.5v132l-68 15v86h68h142v-233c0 -51.333 10.5 -91.833 31.5 -121.5s50.167 -47.5 87.5 -53.5l3 1v306l-68 15v86h68h211v-86z" />
    <glyph glyph-name="Omega" unicode="&#x3a9;" horiz-adv-x="656" 
d="M355 120c33.333 11.333 59.332 38.834 77.999 82.501s28 104.834 28 183.501v23c0 65.333 -11.667 115.166 -35 149.499s-56.333 51.5 -99 51.5c-41.333 0 -73.666 -17.167 -96.999 -51.5s-35 -84.166 -35 -149.499v-23c0 -80 9.5 -141.667 28.5 -185
s45.833 -70.333 80.5 -81v-120h-246v111h125c-43.333 29.333 -78.5 68.666 -105.5 117.999s-40.5 101.666 -40.5 156.999v22c0 92 26.833 167.167 80.5 225.5s123.5 87.5 209.5 87.5s156.167 -29.167 210.5 -87.5s81.5 -133.5 81.5 -225.5v-22
c0 -56 -13.5 -108.333 -40.5 -157s-61.833 -88 -104.5 -118h128v-111h-247v120z" />
    <glyph glyph-name="Omega" unicode="&#x2126;" horiz-adv-x="656" 
d="M355 120c33.333 11.333 59.332 38.834 77.999 82.501s28 104.834 28 183.501v23c0 65.333 -11.667 115.166 -35 149.499s-56.333 51.5 -99 51.5c-41.333 0 -73.666 -17.167 -96.999 -51.5s-35 -84.166 -35 -149.499v-23c0 -80 9.5 -141.667 28.5 -185
s45.833 -70.333 80.5 -81v-120h-246v111h125c-43.333 29.333 -78.5 68.666 -105.5 117.999s-40.5 101.666 -40.5 156.999v22c0 92 26.833 167.167 80.5 225.5s123.5 87.5 209.5 87.5s156.167 -29.167 210.5 -87.5s81.5 -133.5 81.5 -225.5v-22
c0 -56 -13.5 -108.333 -40.5 -157s-61.833 -88 -104.5 -118h128v-111h-247v120z" />
    <glyph glyph-name="Iotadieresis" unicode="&#x3aa;" horiz-adv-x="348" 
d="M27 625v86h294v-86l-76 -15v-510l76 -15v-85h-294v85l76 15v510zM347 781h-131v100h131v-100zM103 781h-131v100h131v-100z" />
    <glyph glyph-name="Upsilondieresis" unicode="&#x3ab;" horiz-adv-x="682" 
d="M287 625l-58 -8l110 -234h3l110 234l-57 8v86h269v-86l-61 -10l-193 -365v-150l76 -15v-85h-295v85l77 15v157l-190 358l-60 10v86h269v-86zM529 781h-131v100h131v-100zM285 781h-131v100h131v-100z" />
    <glyph glyph-name="alphatonos" unicode="&#x3ac;" horiz-adv-x="593" 
d="M516 528l-0.000976562 -359.998c0 -24.667 2.83301 -41.667 8.5 -51s14.5 -14 26.5 -14c2 0 3.83301 0.166992 5.5 0.5s3.16699 0.5 4.5 0.5l12 -102c-10 -4.66699 -19.667 -7.83398 -29 -9.50098s-20 -2.5 -32 -2.5c-29.333 0 -54.5 6.5 -75.5 19.5
s-36.833 33.167 -47.5 60.5c-15.333 -26 -34.166 -45.833 -56.499 -59.5s-48.5 -20.5 -78.5 -20.5c-65.333 0 -116 23.667 -152 71s-54 110.333 -54 189v10c0 83.333 18 150.5 54 201.5s87 76.5 153 76.5c27.333 0 51.5 -6.33301 72.5 -19s39.167 -30.334 54.5 -53.001
l11 62h123zM190.999 250.002c0 -46.667 7.66895 -83.5 23.002 -110.5s40.666 -40.5 75.999 -40.5c19.333 0 35.833 4.33301 49.5 13s25.167 20.667 34.5 36v9v11v207c-9.33301 16.667 -20.833 29.667 -34.5 39s-29.834 14 -48.501 14c-34.667 0 -60 -15.5 -76 -46.5
s-24 -71.5 -24 -121.5v-10zM298.001 791.002h136l-103 -178h-70z" />
    <glyph glyph-name="epsilontonos" unicode="&#x3ad;" horiz-adv-x="540" 
d="M282 224c-31.333 0 -55.332 -5.33496 -71.999 -16.002s-25 -27 -25 -49c0 -18 8.33301 -33.5 25 -46.5s40.334 -19.5 71.001 -19.5s54.5 6 71.5 18s25.5 27 25.5 45h138l1 -3c1.33301 -52.667 -20.834 -93 -66.501 -121s-99.5 -42 -161.5 -42
c-72 0 -131.167 14.333 -177.5 43s-69.5 67.334 -69.5 116.001c0 29.333 8.66699 54.5 26 75.5s42.333 36.833 75 47.5c-28.667 12 -51 27.833 -67 47.5s-24 41.167 -24 64.5c0 48.667 21.5 86.5 64.5 113.5s100.5 40.5 172.5 40.5c62.667 0 115.167 -14.667 157.5 -44
s62.833 -67.666 61.5 -114.999l-1 -3h-137c0 17.333 -8.33301 31.333 -25 42s-38 16 -64 16c-28.667 0 -50.334 -6 -65.001 -18s-22 -26 -22 -42c0 -18 7.5 -32.167 22.5 -42.5s36.833 -15.5 65.5 -15.5h91v-92h-91zM285.001 790.998h136l-103 -178h-70z" />
    <glyph glyph-name="etatonos" unicode="&#x3ae;" horiz-adv-x="608" 
d="M81 0l0.000976562 379.999c0 14.667 -2.83301 25 -8.5 31s-14.167 9 -25.5 9c-6 0 -11 -0.5 -15 -1.5s-10 -2.16699 -18 -3.5l-15 96c12.667 6.66699 28.834 12.334 48.501 17.001s39.5 7 59.5 7c31.333 0 56.666 -6.66699 75.999 -20s31.666 -33.333 36.999 -60
c17.333 26.667 39 47.167 65 61.5s54.667 21.5 86 21.5c53.333 0 95 -16.833 125 -50.5s45 -88.167 45 -163.5v-527h-143v526c0 38 -6.66699 65 -20 81s-33 24 -59 24c-21.333 0 -40 -3.83301 -56 -11.5s-29 -18.5 -39 -32.5v-384h-143zM306.001 790.999h136l-103 -178h-70z
" />
    <glyph glyph-name="iotatonos" unicode="&#x3af;" horiz-adv-x="344" 
d="M229 157c0 -21.333 3.49902 -36 10.499 -44s18.167 -12 33.5 -12c9.33301 0 16.833 0.5 22.5 1.5s14.167 3.16699 25.5 6.5l14 -102c-15.333 -6.66699 -29.833 -11.167 -43.5 -13.5s-29.167 -3.5 -46.5 -3.5c-51.333 0 -90.666 13.833 -117.999 41.5
s-41 70.167 -41 127.5v269l-76 14v86h219v-371zM161.999 792h136l-103 -178h-70z" />
    <glyph glyph-name="upsilondieresistonos" unicode="&#x3b0;" horiz-adv-x="588" 
d="M233 204c0 -36.667 5.66797 -63.334 17.001 -80.001s26 -25 44 -25c32.667 0 58.834 18 78.501 54s29.5 77 29.5 123c-0.666992 41.333 -5.33398 83 -14.001 125s-20.334 84.333 -35.001 127h135c16.667 -34 30.167 -72 40.5 -114s15.5 -88 15.5 -138
c0 -84.667 -20.333 -153.5 -61 -206.5s-102 -79.5 -184 -79.5c-65.333 0 -116.333 17.667 -153 53s-55 89.333 -55 162v178c0 14.667 -2.83301 25 -8.5 31s-14.167 9 -25.5 9c-6 0 -11.167 -0.5 -15.5 -1.5s-10.5 -2.5 -18.5 -4.5l-14 97
c12.667 6.66699 28.834 12.334 48.501 17.001s39.5 7 59.5 7c37.333 0 66.166 -9.5 86.499 -28.5s30.5 -47.833 30.5 -86.5zM479.001 592h-117v100h117v-100zM204.001 592h-117v100h117v-100zM261.001 822h137l-85 -158h-72z" />
    <glyph glyph-name="alpha" unicode="&#x3b1;" horiz-adv-x="593" 
d="M516 528l-0.000976562 -359.998c0 -24.667 2.83301 -41.667 8.5 -51s14.5 -14 26.5 -14c2 0 3.83301 0.166992 5.5 0.5s3.16699 0.5 4.5 0.5l12 -102c-10 -4.66699 -19.667 -7.83398 -29 -9.50098s-20 -2.5 -32 -2.5c-29.333 0 -54.5 6.5 -75.5 19.5
s-36.833 33.167 -47.5 60.5c-15.333 -26 -34.166 -45.833 -56.499 -59.5s-48.5 -20.5 -78.5 -20.5c-65.333 0 -116 23.667 -152 71s-54 110.333 -54 189v10c0 83.333 18 150.5 54 201.5s87 76.5 153 76.5c27.333 0 51.5 -6.33301 72.5 -19s39.167 -30.334 54.5 -53.001
l11 62h123zM190.999 250.002c0 -46.667 7.66895 -83.5 23.002 -110.5s40.666 -40.5 75.999 -40.5c19.333 0 35.833 4.33301 49.5 13s25.167 20.667 34.5 36v9v11v207c-9.33301 16.667 -20.833 29.667 -34.5 39s-29.834 14 -48.501 14c-34.667 0 -60 -15.5 -76 -46.5
s-24 -71.5 -24 -121.5v-10z" />
    <glyph glyph-name="beta" unicode="&#x3b2;" horiz-adv-x="585" 
d="M292 721c68.667 0 124 -17.502 166 -52.502s63 -81.833 63 -140.5c0 -31.333 -7.83301 -60.166 -23.5 -86.499s-37.5 -47.5 -65.5 -63.5c40.667 -14 72 -36 94 -66s33 -66.333 33 -109c0 -67.333 -19.5 -119.666 -58.5 -156.999s-92.167 -56 -159.5 -56
c-24 0 -47.833 3 -71.5 9s-45.5 15 -65.5 27v-223h-142v703c0 62.667 22.167 114.167 66.5 154.5s98.833 60.5 163.5 60.5zM290 418.998c30.667 0 52.9971 8.66504 66.9971 25.998s21 42 21 74c0 26 -7.5 47.833 -22.5 65.5s-36.167 26.5 -63.5 26.5
c-26 0 -47.167 -9.66699 -63.5 -29s-24.5 -44.666 -24.5 -75.999v-377c12.667 -10 27.834 -17.5 45.501 -22.5s37.5 -7.5 59.5 -7.5c32.667 0 58.834 9.83301 78.501 29.5s29.5 44.834 29.5 75.501c0 35.333 -9.16699 63.333 -27.5 84s-44.166 31 -77.499 31h-47v100h25z
" />
    <glyph glyph-name="gamma" unicode="&#x3b3;" horiz-adv-x="543" 
d="M535 442l-44 -5.99902l-145 -429v-211h-143v231l-114 357c-4 13.333 -9.5 22.333 -16.5 27s-17.167 7 -30.5 7c-2.66699 0 -6.16699 -0.166992 -10.5 -0.5s-6.83301 -0.833008 -7.5 -1.5l-11 108c8 2.66699 19.333 5 34 7s28 3 40 3c34 0 57.833 -5.33301 71.5 -16
s25.5 -31.334 35.5 -62.001l79 -259l5 -30h3l6 30l62 235l-54 10v86h240v-86z" />
    <glyph glyph-name="delta" unicode="&#x3b4;" horiz-adv-x="564" 
d="M94 611c0 48.667 18.3301 86.832 54.9971 114.499s87.667 41.5 153 41.5c24 0 48.167 -3.5 72.5 -10.5s49.833 -16.833 76.5 -29.5l-22 -91c-17.333 6.66699 -36.666 12.834 -57.999 18.501s-42.666 8.5 -63.999 8.5c-24.667 0 -43.834 -4.5 -57.501 -13.5
s-20.5 -20.833 -20.5 -35.5c0 -12 5.33301 -23.833 16 -35.5s30.667 -22.834 60 -33.501c76.667 -26.667 134.334 -63.167 173.001 -109.5s58 -103.166 58 -170.499v-10c0 -77.333 -22.5 -140.833 -67.5 -190.5s-106.167 -74.5 -183.5 -74.5
c-78 0 -139.5 24.167 -184.5 72.5s-67.5 110.5 -67.5 186.5v10c0 53.333 14.333 99.833 43 139.5s64.334 65.167 107.001 76.5l2 5c-28.667 14 -51 32.167 -67 54.5s-24 47.833 -24 76.5zM174.997 260.998c0 -46.667 9.16699 -85.332 27.5 -115.999s45.833 -46 82.5 -46
c35.333 0 62.333 15.167 81 45.5s28 69.166 28 116.499v10c0 36 -10.167 69.5 -30.5 100.5s-46.5 49.833 -78.5 56.5c-36 0 -63.333 -15 -82 -45s-28 -67.333 -28 -112v-10z" />
    <glyph glyph-name="epsilon" unicode="&#x3b5;" horiz-adv-x="540" 
d="M282 224c-31.333 0 -55.332 -5.33496 -71.999 -16.002s-25 -27 -25 -49c0 -18 8.33301 -33.5 25 -46.5s40.334 -19.5 71.001 -19.5s54.5 6 71.5 18s25.5 27 25.5 45h138l1 -3c1.33301 -52.667 -20.834 -93 -66.501 -121s-99.5 -42 -161.5 -42
c-72 0 -131.167 14.333 -177.5 43s-69.5 67.334 -69.5 116.001c0 29.333 8.66699 54.5 26 75.5s42.333 36.833 75 47.5c-28.667 12 -51 27.833 -67 47.5s-24 41.167 -24 64.5c0 48.667 21.5 86.5 64.5 113.5s100.5 40.5 172.5 40.5c62.667 0 115.167 -14.667 157.5 -44
s62.833 -67.666 61.5 -114.999l-1 -3h-137c0 17.333 -8.33301 31.333 -25 42s-38 16 -64 16c-28.667 0 -50.334 -6 -65.001 -18s-22 -26 -22 -42c0 -18 7.5 -32.167 22.5 -42.5s36.833 -15.5 65.5 -15.5h91v-92h-91z" />
    <glyph glyph-name="zeta" unicode="&#x3b6;" horiz-adv-x="500" 
d="M473 711v-78.999l-176 -208c-35.333 -42 -60.5 -78.5 -75.5 -109.5s-22.5 -67.167 -22.5 -108.5c0 -28.667 6.16699 -50 18.5 -64s32.166 -24.667 59.499 -32l38 -11c50.667 -14.667 87.167 -30.167 109.5 -46.5s33.5 -42.5 33.5 -78.5c0 -26 -11.833 -55 -35.5 -87
s-49.834 -57.333 -78.501 -76l-73 53c14.667 16 25.834 31.167 33.501 45.5s11.5 26.5 11.5 36.5c0 11.333 -4 21 -12 29s-22 14.667 -42 20l-36 9c-58.667 15.333 -101.5 37.333 -128.5 66s-40.5 67.667 -40.5 117c0 50 10.833 97.667 32.5 143
s54.834 95.666 99.501 150.999l101 118l-1 3h-252v109h436z" />
    <glyph glyph-name="eta" unicode="&#x3b7;" horiz-adv-x="608" 
d="M81 0l0.000976562 379.999c0 14.667 -2.83301 25 -8.5 31s-14.167 9 -25.5 9c-6 0 -11 -0.5 -15 -1.5s-10 -2.16699 -18 -3.5l-15 96c12.667 6.66699 28.834 12.334 48.501 17.001s39.5 7 59.5 7c31.333 0 56.666 -6.66699 75.999 -20s31.666 -33.333 36.999 -60
c17.333 26.667 39 47.167 65 61.5s54.667 21.5 86 21.5c53.333 0 95 -16.833 125 -50.5s45 -88.167 45 -163.5v-527h-143v526c0 38 -6.66699 65 -20 81s-33 24 -59 24c-21.333 0 -40 -3.83301 -56 -11.5s-29 -18.5 -39 -32.5v-384h-143z" />
    <glyph glyph-name="theta" unicode="&#x3b8;" horiz-adv-x="578" 
d="M537 277c0 -94 -21.668 -165.333 -65.001 -214s-101.666 -73 -174.999 -73c-74 0 -132.667 24.333 -176 73s-65 120 -65 214v157c0 94 21.5 165.333 64.5 214s101.5 73 175.5 73c73.333 0 131.833 -24.5 175.5 -73.5s65.5 -120.167 65.5 -213.5v-157zM394.999 304
h-197.001v-41c0 -57.333 8.33301 -99 25 -125s41.334 -39 74.001 -39c32 0 56.333 13 73 39s25 67.667 25 125v41zM197.998 410h197v38c0 56 -8.5 97.167 -25.5 123.5s-41.5 39.5 -73.5 39.5s-56.333 -13 -73 -39s-25 -67.333 -25 -124v-38z" />
    <glyph glyph-name="iota" unicode="&#x3b9;" horiz-adv-x="344" 
d="M229 157c0 -21.333 3.49902 -36 10.499 -44s18.167 -12 33.5 -12c9.33301 0 16.833 0.5 22.5 1.5s14.167 3.16699 25.5 6.5l14 -102c-15.333 -6.66699 -29.833 -11.167 -43.5 -13.5s-29.167 -3.5 -46.5 -3.5c-51.333 0 -90.666 13.833 -117.999 41.5
s-41 70.167 -41 127.5v269l-76 14v86h219v-371z" />
    <glyph glyph-name="kappa" unicode="&#x3ba;" horiz-adv-x="620" 
d="M23 85l69 15v328l-71 14v86h213v-205h46l79 113l-47 6v86h260v-86l-62 -14l-105 -134l132 -197l54 -12v-85h-158l-138 221h-61v-121l61 -15v-85h-272v85z" />
    <glyph glyph-name="lambda" unicode="&#x3bb;" horiz-adv-x="548" 
d="M157 0l-154.001 0.000976562l187 516l-35 77c-6.66699 14.667 -15.167 25.667 -25.5 33s-22.833 11 -37.5 11h-15c-4 0 -8.66699 -0.333008 -14 -1l-2 101c10 2.66699 22.833 5 38.5 7s30.167 3 43.5 3c34 0 61.167 -6.83301 81.5 -20.5s35.833 -34.167 46.5 -61.5
l205 -512c6.66699 -16.667 13.834 -29.334 21.501 -38.001s17.5 -13 29.5 -13h9c2.66699 0 5.33398 0.333008 8.00098 1l1 -108c-7.33301 -0.666992 -15.333 -1.5 -24 -2.5s-18.667 -1.5 -30 -1.5c-40 0 -71.333 8.5 -94 25.5s-40.334 44.5 -53.001 82.5l-84 234h-3l-6 -29z
" />
    <glyph glyph-name="uni03BC" unicode="&#x3bc;" horiz-adv-x="657" 
d="M439 33c-14 -14 -30.333 -24.666 -49 -31.999s-39 -11 -61 -11c-16.667 0 -32 1.66699 -46 5s-26.667 8.66602 -38 15.999v-214h-142v631l-76 14v86h76h142v-302c0 -48.667 7.33301 -81.667 22 -99s36.667 -26 66 -26c24.667 0 45 4.33301 61 13s28.667 21.667 38 39v275
l-76 14v86h218v-428l69 -15v-85h-201z" />
    <glyph glyph-name="nu" unicode="&#x3bd;" horiz-adv-x="569" 
d="M255 442l-50 -9l70 -236l9 -50h3l10 50l69 236l-51 9v86h240v-86l-46 -7l-155 -435h-137l-156 435l-46 7v86h240v-86z" />
    <glyph glyph-name="xi" unicode="&#x3be;" horiz-adv-x="531" 
d="M451 591c-28 6.66699 -48.999 11.332 -62.999 13.999s-29.667 4 -47 4c-35.333 0 -62 -6.5 -80 -19.5s-27 -30.167 -27 -51.5c0 -23.333 9 -42 27 -56s46 -21 84 -21h73v-113h-69c-51.333 0 -90.333 -10.5 -117 -31.5s-40 -52.167 -40 -93.5
c0 -32.667 10.667 -58.167 32 -76.5s50.333 -31.833 87 -40.5l47 -10c48.667 -11.333 84.5 -25.666 107.5 -42.999s34.5 -44.666 34.5 -81.999c0 -26.667 -11.667 -55.667 -35 -87s-49.333 -56.666 -78 -75.999l-73 53c15.333 16 26.666 31 33.999 45s11 27 11 39
c0.666992 12.667 -3.16602 22.5 -11.499 29.5s-22.5 12.833 -42.5 17.5l-18 5c-80.667 16 -140.334 39.833 -179.001 71.5s-58 81.834 -58 150.501c0 45.333 12.667 83.666 38 114.999s62 54.666 110 69.999c-34 12.667 -60.167 30 -78.5 52s-27.5 48.333 -27.5 79
c0 57.333 21 102.666 63 135.999s98.667 50 170 50c30.667 0 57 -2 79 -6s45 -10 69 -18z" />
    <glyph glyph-name="omicron" unicode="&#x3bf;" horiz-adv-x="560" 
d="M31 269c0 78.667 22 143.167 66 193.5s105 75.5 183 75.5s139 -25 183 -75s66 -114.667 66 -194v-10c0 -79.333 -22 -144 -66 -194s-104.667 -75 -182 -75c-78.667 0 -140 25 -184 75s-66 114.667 -66 194v10zM173 259c0 -48 8.5 -86.667 25.5 -116s44.5 -44 82.5 -44
c36.667 0 63.5 14.667 80.5 44s25.5 68 25.5 116v10c0 46.667 -8.66699 84.834 -26 114.501s-44.333 44.5 -81 44.5c-37.333 0 -64.5 -14.833 -81.5 -44.5s-25.5 -67.834 -25.5 -114.501v-10z" />
    <glyph glyph-name="pi" unicode="&#x3c0;" horiz-adv-x="637" 
d="M521 528h65.999v-104h-66v-267c0 -21.333 3.5 -36 10.5 -44s18.167 -12 33.5 -12c9.33301 0 16.833 0.5 22.5 1.5s13.834 3.5 24.501 7.5l15 -103c-15.333 -6.66699 -29.833 -11.167 -43.5 -13.5s-29.5 -3.5 -47.5 -3.5c-51.333 0 -90.5 14 -117.5 42
s-40.5 70.333 -40.5 127v265h-133v-424h-143v424h-74v104h274v1h219v-1z" />
    <glyph glyph-name="rho" unicode="&#x3c1;" horiz-adv-x="574" 
d="M533 250c0 -78 -17.834 -140.833 -53.501 -188.5s-85.834 -71.5 -150.501 -71.5c-28 0 -52.667 5 -74 15s-39.666 24.333 -54.999 43v-251h-143v485c0 76.667 21.833 138.5 65.5 185.5s102.5 70.5 176.5 70.5c74.667 0 132.334 -25.5 173.001 -76.5
s61 -118.167 61 -201.5v-10zM390.999 260c0 50 -8 90.5 -24 121.5s-41 46.5 -75 46.5c-30.667 0 -53.667 -15 -69 -45s-23 -67.333 -23 -112l-1 -1h1v-125c8.66699 -14.667 20.5 -26 35.5 -34s33.5 -12 55.5 -12c34.667 0 60 13.5 76 40.5s24 63.833 24 110.5v10z" />
    <glyph glyph-name="sigma1" unicode="&#x3c2;" horiz-adv-x="522" 
d="M283 538c65.333 0 117.668 -18.167 157.001 -54.5s58.333 -85.5 57 -147.5l-1 -3h-129c0 28 -7.16699 50.833 -21.5 68.5s-35.166 26.5 -62.499 26.5c-36 0 -61.833 -14.833 -77.5 -44.5s-23.5 -67.167 -23.5 -112.5v-15c0 -42 9.66699 -74.167 29 -96.5
s50.666 -39.833 93.999 -52.5c54.667 -15.333 92.667 -30.666 114 -45.999s33 -42 35 -80c0 -26.667 -11.5 -55.667 -34.5 -87s-48.833 -57 -77.5 -77l-74 55c15.333 16.667 26.5 31.667 33.5 45s10.5 26 10.5 38c0 12.667 -4.16699 22.667 -12.5 30s-20.833 13 -37.5 17
c-76 19.333 -132 49 -168 89s-54 95 -54 165v15c0 77.333 21.167 141.166 63.5 191.499s102.166 75.5 179.499 75.5z" />
    <glyph glyph-name="sigma" unicode="&#x3c3;" horiz-adv-x="605" 
d="M567 418h-126c26 -21.333 47.167 -46.833 63.5 -76.5s24.5 -60.5 24.5 -92.5v-10c0 -72 -21.5 -131.5 -64.5 -178.5s-101.833 -70.5 -176.5 -70.5c-78.667 0 -140 25 -184 75s-66 114.667 -66 194v10c0 76 22 138.167 66 186.5s105 72.5 183 72.5h280v-110zM181 259
c0 -48 8.33301 -86.667 25 -116s44 -44 82 -44c34 0 59 14.667 75 44s24 68 24 116v10c0 44 -8 79.833 -24 107.5s-41.333 41.5 -76 41.5c-36.667 0 -63.5 -14 -80.5 -42s-25.5 -63.667 -25.5 -107v-10z" />
    <glyph glyph-name="tau" unicode="&#x3c4;" horiz-adv-x="481" 
d="M456 528l0.00292969 -109h-151v-262c0 -21.333 3.66699 -36 11 -44s18.666 -12 33.999 -12c9.33301 0 16.666 0.5 21.999 1.5s13.666 3.16699 24.999 6.5l15 -102c-15.333 -6.66699 -29.833 -11.167 -43.5 -13.5s-29.5 -3.5 -47.5 -3.5
c-51.333 0 -90.5 13.833 -117.5 41.5s-40.5 70.167 -40.5 127.5v260h-145l1 109h437z" />
    <glyph glyph-name="upsilon" unicode="&#x3c5;" horiz-adv-x="588" 
d="M233 204c0 -36.667 5.66797 -63.334 17.001 -80.001s26 -25 44 -25c32.667 0 58.834 18 78.501 54s29.5 77 29.5 123c-0.666992 41.333 -5.33398 83 -14.001 125s-20.334 84.333 -35.001 127h135c16.667 -34 30.167 -72 40.5 -114s15.5 -88 15.5 -138
c0 -84.667 -20.333 -153.5 -61 -206.5s-102 -79.5 -184 -79.5c-65.333 0 -116.333 17.667 -153 53s-55 89.333 -55 162v178c0 14.667 -2.83301 25 -8.5 31s-14.167 9 -25.5 9c-6 0 -11.167 -0.5 -15.5 -1.5s-10.5 -2.5 -18.5 -4.5l-14 97
c12.667 6.66699 28.834 12.334 48.501 17.001s39.5 7 59.5 7c37.333 0 66.166 -9.5 86.499 -28.5s30.5 -47.833 30.5 -86.5z" />
    <glyph glyph-name="phi" unicode="&#x3c6;" horiz-adv-x="756" 
d="M315 -6c-94.667 11.333 -163.668 43.999 -207.001 97.999s-65 119.667 -65 197c0 50.667 10.167 97.667 30.5 141s46.833 78 79.5 104l98 -74c-20.667 -22.667 -36.5 -49.167 -47.5 -79.5s-16.833 -60.833 -17.5 -91.5c0 -47.333 9.83301 -86.666 29.5 -117.999
c19 -31.333 51.167 -51.333 96.5 -60l3 1v278c0 40.667 14.833 75 44.5 103s65.834 42 108.501 42c84 0 149 -26.167 195 -78.5s69 -113.833 69 -184.5c0 -72.667 -21.833 -134.667 -65.5 -186s-113.167 -82.333 -208.5 -93v-226h-143v227zM457.999 109.999
l2.99902 -1.00098c44.667 8 77.167 26.5 97.5 55.5s30.5 64.833 30.5 107.5c-0.666992 44.667 -10.167 81.334 -28.5 110.001s-43.5 43 -75.5 43c-11.333 0 -18.666 -2.83301 -21.999 -8.5s-5 -13.167 -5 -22.5v-284z" />
    <glyph glyph-name="chi" unicode="&#x3c7;" horiz-adv-x="581" 
d="M16 85l49 8l143 172l-138 169l-49 8v86h141l133 -186l74 98l-50 6v82h239v-86l-48 -8l-135 -166l143 -175l49 -8v-85h-139l-142 191l-78 -104l43 -5v-82h-235v85z" />
    <glyph glyph-name="psi" unicode="&#x3c8;" horiz-adv-x="811" 
d="M239 287c0 -51.333 10 -91.167 30 -119.5s47.667 -46.5 83 -54.5l3 1v414h143v-418l2 -1c46 8 79.833 28 101.5 60s32.5 72 32.5 120c-0.666992 38 -5.66699 76.667 -15 116s-22 80.333 -38 123h132c18.667 -32 33.834 -68 45.501 -108s17.5 -83.667 17.5 -131
c0 -79.333 -22.167 -146 -66.5 -200s-114.833 -86 -211.5 -96v-226h-143v228c-82.667 11.333 -146.334 41 -191.001 89s-67 116 -67 204v96c0 14 -2.83301 24 -8.5 30s-14.5 9 -26.5 9c-6 0 -10.333 -0.333008 -13 -1l-20 -5l-15 98c12.667 6.66699 29 12.167 49 16.5
s40 6.5 60 6.5c37.333 0 66 -9.5 86 -28.5s30 -47.5 30 -85.5v-137z" />
    <glyph glyph-name="omega" unicode="&#x3c9;" horiz-adv-x="827" 
d="M258 528c-20 -42 -35.832 -83.998 -47.499 -125.998s-17.834 -84 -18.501 -126c0 -51.333 6 -93.666 18 -126.999s31.333 -50 58 -50c23.333 0 42.166 11.167 56.499 33.5s21.5 57.833 21.5 106.5v169h150v-169c0 -48.667 7 -84.167 21 -106.5s32.667 -33.5 56 -33.5
c26.667 0 46 16.667 58 50s18 75.666 18 126.999c-1.33301 41.333 -7.66602 83.166 -18.999 125.499s-27 84.5 -47 126.5h135c22 -34 39.833 -72 53.5 -114s20.5 -88 20.5 -138c0 -87.333 -16.833 -156.833 -50.5 -208.5s-88.167 -77.5 -163.5 -77.5
c-36 0 -67.5 8.66699 -94.5 26s-48.167 42.666 -63.5 75.999c-16 -33.333 -37.333 -58.666 -64 -75.999s-57.667 -26 -93 -26c-76 0 -130.667 26 -164 78s-50 121.333 -50 208c0 50 6.66699 96.167 20 138.5s31.333 80.166 54 113.499h135z" />
    <glyph glyph-name="iotadieresis" unicode="&#x3ca;" horiz-adv-x="344" 
d="M229 157c0 -21.333 3.49902 -36 10.499 -44s18.167 -12 33.5 -12c9.33301 0 16.833 0.5 22.5 1.5s14.167 3.16699 25.5 6.5l14 -102c-15.333 -6.66699 -29.833 -11.167 -43.5 -13.5s-29.167 -3.5 -46.5 -3.5c-51.333 0 -90.666 13.833 -117.999 41.5
s-41 70.167 -41 127.5v269l-76 14v86h219v-371zM344.999 624h-131v100h131v-100zM100.999 624h-131v100h131v-100z" />
    <glyph glyph-name="upsilondieresis" unicode="&#x3cb;" horiz-adv-x="588" 
d="M233 204c0 -36.667 5.66797 -63.334 17.001 -80.001s26 -25 44 -25c32.667 0 58.834 18 78.501 54s29.5 77 29.5 123c-0.666992 41.333 -5.33398 83 -14.001 125s-20.334 84.333 -35.001 127h135c16.667 -34 30.167 -72 40.5 -114s15.5 -88 15.5 -138
c0 -84.667 -20.333 -153.5 -61 -206.5s-102 -79.5 -184 -79.5c-65.333 0 -116.333 17.667 -153 53s-55 89.333 -55 162v178c0 14.667 -2.83301 25 -8.5 31s-14.167 9 -25.5 9c-6 0 -11.167 -0.5 -15.5 -1.5s-10.5 -2.5 -18.5 -4.5l-14 97
c12.667 6.66699 28.834 12.334 48.501 17.001s39.5 7 59.5 7c37.333 0 66.166 -9.5 86.499 -28.5s30.5 -47.833 30.5 -86.5zM467.001 624h-131v100h131v-100zM223.001 624h-131v100h131v-100z" />
    <glyph glyph-name="omicrontonos" unicode="&#x3cc;" horiz-adv-x="560" 
d="M31 269c0 78.667 22 143.167 66 193.5s105 75.5 183 75.5s139 -25 183 -75s66 -114.667 66 -194v-10c0 -79.333 -22 -144 -66 -194s-104.667 -75 -182 -75c-78.667 0 -140 25 -184 75s-66 114.667 -66 194v10zM173 259c0 -48 8.5 -86.667 25.5 -116s44.5 -44 82.5 -44
c36.667 0 63.5 14.667 80.5 44s25.5 68 25.5 116v10c0 46.667 -8.66699 84.834 -26 114.501s-44.333 44.5 -81 44.5c-37.333 0 -64.5 -14.833 -81.5 -44.5s-25.5 -67.834 -25.5 -114.501v-10zM278 792h136l-103 -178h-70z" />
    <glyph glyph-name="upsilontonos" unicode="&#x3cd;" horiz-adv-x="588" 
d="M233 204c0 -36.667 5.66797 -63.334 17.001 -80.001s26 -25 44 -25c32.667 0 58.834 18 78.501 54s29.5 77 29.5 123c-0.666992 41.333 -5.33398 83 -14.001 125s-20.334 84.333 -35.001 127h135c16.667 -34 30.167 -72 40.5 -114s15.5 -88 15.5 -138
c0 -84.667 -20.333 -153.5 -61 -206.5s-102 -79.5 -184 -79.5c-65.333 0 -116.333 17.667 -153 53s-55 89.333 -55 162v178c0 14.667 -2.83301 25 -8.5 31s-14.167 9 -25.5 9c-6 0 -11.167 -0.5 -15.5 -1.5s-10.5 -2.5 -18.5 -4.5l-14 97
c12.667 6.66699 28.834 12.334 48.501 17.001s39.5 7 59.5 7c37.333 0 66.166 -9.5 86.499 -28.5s30.5 -47.833 30.5 -86.5zM284.001 792h136l-103 -178h-70z" />
    <glyph glyph-name="omegatonos" unicode="&#x3ce;" horiz-adv-x="827" 
d="M258 528c-20 -42 -35.832 -83.998 -47.499 -125.998s-17.834 -84 -18.501 -126c0 -51.333 6 -93.666 18 -126.999s31.333 -50 58 -50c23.333 0 42.166 11.167 56.499 33.5s21.5 57.833 21.5 106.5v169h150v-169c0 -48.667 7 -84.167 21 -106.5s32.667 -33.5 56 -33.5
c26.667 0 46 16.667 58 50s18 75.666 18 126.999c-1.33301 41.333 -7.66602 83.166 -18.999 125.499s-27 84.5 -47 126.5h135c22 -34 39.833 -72 53.5 -114s20.5 -88 20.5 -138c0 -87.333 -16.833 -156.833 -50.5 -208.5s-88.167 -77.5 -163.5 -77.5
c-36 0 -67.5 8.66699 -94.5 26s-48.167 42.666 -63.5 75.999c-16 -33.333 -37.333 -58.666 -64 -75.999s-57.667 -26 -93 -26c-76 0 -130.667 26 -164 78s-50 121.333 -50 208c0 50 6.66699 96.167 20 138.5s31.333 80.166 54 113.499h135zM420.001 792.002h136l-103 -178
h-70z" />
    <glyph glyph-name="uni03D1" unicode="&#x3d1;" horiz-adv-x="674" 
d="M345 104c41.333 0 74 14.3311 98 42.998s36.333 68.334 37 119.001c-63.333 4.66699 -115.833 26.167 -157.5 64.5s-62.5 85.833 -62.5 142.5v50c0 60 17.5 108 52.5 144s80.5 54 136.5 54c55.333 0 99.333 -17.667 132 -53s49 -83.666 49 -144.999v-252
c0 -84.667 -26.167 -152.667 -78.5 -204s-121.166 -77 -206.499 -77c-86.667 0 -157 26.667 -211 80s-81 120.333 -81 201v340l151 1v-341c0 -49.333 12.667 -89.5 38 -120.5s59.666 -46.5 102.999 -46.5zM396 471.998c0 -27.333 7.16797 -50.333 21.501 -69
s34.5 -29 60.5 -31l2 1v163c0 21.333 -3.33301 37.333 -10 48s-16.334 16 -29.001 16c-14 0 -25 -5.5 -33 -16.5s-12 -26.833 -12 -47.5v-64z" />
    </font>
</defs>
</svg>
