<?xml version="1.0" encoding="utf-8"?>
<!-- Generator: Adobe Illustrator 24.3.0, SVG Export Plug-In . SVG Version: 6.00 Build 0)  -->
<svg version="1.1" id="Layer_1" xmlns="http://www.w3.org/2000/svg" xmlns:xlink="http://www.w3.org/1999/xlink" x="0px" y="0px"
	 viewBox="0 0 150 150" style="enable-background:new 0 0 150 150;" xml:space="preserve">
<style type="text/css">
	.st0{fill:#FFFBFA;}
	.st1{fill:#3B3B3B;}
</style>
<g>
	<g>
		<path class="st0" d="M119.9,47.1c0,2.6-2,4.7-4.5,4.7H34.6c-2.5,0-4.5-2.1-4.5-4.7c0-2.6,2-4.7,4.5-4.7h80.8
			C117.9,42.4,119.9,44.5,119.9,47.1z"/>
	</g>
	<g>
		<path class="st0" d="M119.9,75c0,2.6-2,4.7-4.5,4.7H34.6c-2.5,0-4.5-2.1-4.5-4.7s2-4.7,4.5-4.7h80.8
			C117.9,70.3,119.9,72.4,119.9,75z"/>
	</g>
	<g>
		<path class="st0" d="M119.9,102.9c0,2.6-2,4.7-4.5,4.7H34.6c-2.5,0-4.5-2.1-4.5-4.7c0-2.6,2-4.7,4.5-4.7h80.8
			C117.9,98.2,119.9,100.3,119.9,102.9z"/>
	</g>
</g>
</svg>
