<?xml version="1.0" encoding="utf-8"?>
<!-- Generator: Adobe Illustrator 24.2.1, SVG Export Plug-In . SVG Version: 6.00 Build 0)  -->
<svg version="1.1" xmlns="http://www.w3.org/2000/svg" xmlns:xlink="http://www.w3.org/1999/xlink" x="0px" y="0px"
	 viewBox="0 0 383.7 209.7" style="enable-background:new 0 0 383.7 209.7;" xml:space="preserve">
<style type="text/css">
	.st0{opacity:0.85;}
	.st1{fill:url(#SVGID_1_);}
	.st2{fill:url(#SVGID_2_);}
	.st3{fill:url(#SVGID_3_);}
	.st4{fill:url(#SVGID_4_);}
	.st5{fill:url(#SVGID_5_);}
	.st6{fill:url(#SVGID_6_);}
	.st7{fill:url(#SVGID_7_);}
	.st8{fill:url(#SVGID_8_);}
	.st9{fill:#2D221B;}
	.st10{fill:#EFACC2;}
	.st11{fill:#A7DAE8;}
	.st12{fill:#35565E;}
</style>
<g id="bg">
</g>
<g id="logo">
	<g>
		<path class="st12" d="M69.4,83.3C69.4,83.3,69.4,83.2,69.4,83.3l0.3-0.1c0.1,0,0.2-0.1,0.3,0l0.6,0.3c0.1,0.1,0.2,0.3,0.3,0.4
			c0,0.2,0.1,0.4,0.3,0.6c0.2,0.4,0.4,0.7,0.6,0.9c0.2,0.2,0.4,0.4,0.6,0.5c0.9,0.7,1.4,1.5,1.7,2.5c0.2,0.5,0.2,1,0,1.5
			c-0.1,0.5-0.3,1-0.5,1.5l-0.7,1.4c-0.1,0-0.1,0-0.1,0.1c0,0.1,0,0.1-0.1,0.1c-0.4,0.9-0.8,1.7-1.1,2.4c-0.3,0.7-0.5,1.4-0.8,2
			c-0.2,0.6-0.5,1.3-0.8,2c-0.3,0.7-0.7,1.5-1.2,2.3c-0.6,1.1-1.2,2.2-1.8,3.3c-0.6,1.1-1.3,2.2-1.9,3.3c-0.3,0.2-0.5,0.5-0.6,0.8
			c-0.1,0.4-0.3,0.6-0.6,0.8c-0.2,0.4-0.4,0.8-0.6,1.2c-0.3,0.4-0.5,1-0.7,1.6c-0.1,0.1-0.2,0.2-0.2,0.2c0,0-0.1,0.1-0.2,0.1
			c0.2-0.4,0.3-0.7,0.6-0.9c-0.3,0.1-0.5,0.3-0.6,0.5c-0.1,0.3-0.3,0.5-0.4,0.6c0,0.2,0,0.4-0.1,0.6c0.1,0,0.2-0.1,0.2-0.3
			c0-0.1,0-0.2,0.1-0.2c0.1,0,0.1,0,0.2,0c0.1,0,0.2,0,0.2,0c0,0,0-0.1,0.1-0.1c-0.3,0.7-0.8,1.5-1.4,2.4c0-0.2,0.1-0.5,0.3-0.9
			c0.2-0.4,0.3-0.6,0.4-0.9c-0.2,0-0.3,0.2-0.3,0.5c0,0.3-0.2,0.5-0.5,0.6c-0.2,0.4-0.4,1-0.6,1.7c-0.3,0.7-0.6,1.2-0.9,1.7
			c0.1,0,0.1,0,0.1-0.1c0-0.1,0.1-0.1,0.2-0.1c-0.5,0.7-0.8,1.5-1.1,2.4c-0.3,0.9-0.7,1.7-1.2,2.6c0.2-0.6,0.4-1.2,0.7-1.8
			c0.3-0.6,0.6-1.2,0.9-1.9c0.1-0.6,0.3-1.2,0.6-1.8c0.3-0.6,0.6-1.2,0.7-1.8c-0.1,0-0.2,0-0.3,0.2c-0.1,0.1-0.1,0.3,0,0.4
			c-0.2,0.1-0.3,0.2-0.3,0.4c0,0.2-0.1,0.4-0.3,0.4c-0.1,0.5-0.3,0.9-0.5,1.5c-0.2,0.5-0.4,1-0.5,1.5c-0.2,0.3-0.4,0.6-0.5,0.9
			c-0.1,0.3-0.2,0.6-0.4,0.9l0.1,0.1c-0.4,0.7-0.6,1.4-0.8,2.1c-0.2,0.7-0.4,1.3-0.7,1.9c0.1,0,0.2-0.1,0.2-0.2
			c0-0.1,0.1-0.2,0.2-0.3c-0.1,0.3-0.3,0.5-0.4,0.8c-0.1,0.3-0.2,0.6-0.2,0.8c0,0.1,0,0.2-0.1,0.2c0,0-0.1,0.2-0.1,0.5
			c-0.1,0-0.1,0-0.1,0.1c0,0.1-0.1,0.1-0.4,0c-0.1,0.3-0.2,0.5-0.2,0.5c-0.1,0-0.1-0.1-0.1-0.1c0-0.1-0.1-0.2-0.1-0.2
			c0,0-0.1,0.1-0.1,0.5c-0.3,0.1-0.4,0.3-0.4,0.4c-0.1,0.1-0.1,0.1,0,0c0-0.1,0-0.1,0-0.1c-0.1,0.1-0.1,0.2-0.1,0.4
			c0,0.2-0.1,0.3-0.2,0.4c-0.1,0-0.2,0-0.2,0.2l0,0.1l0,0.1l0,0.3c0,0.2,0,0.2,0,0.2c0,0,0,0,0.1,0.1l-0.1,0.1
			c0,0.2-0.1,0.4-0.1,0.5c-0.1,0.1-0.1,0.3,0,0.6c-0.1,0-0.2,0-0.2-0.1c0-0.1-0.2-0.1-0.4,0c0,0.1,0.1,0.1,0.2,0.1
			c0.1,0,0.1,0-0.1,0.1c-0.1,0.1-0.1,0.1-0.1,0.2c0,0.1-0.1,0.1-0.2,0.1c0,0.1-0.1,0.2-0.1,0.2c-0.1,0-0.1,0.1,0,0.3
			c-0.4,0.1-0.7,0.4-0.8,0.8c-0.1,0-0.2-0.1-0.2-0.2c0-0.1-0.1-0.1-0.1,0c-0.1,0.1-0.2,0.2-0.4,0.3c-0.1,0.1-0.3,0.2-0.5,0.3
			c-0.4,0.2-0.8,0.1-1-0.2c-0.2-0.3-0.5-0.5-0.7-0.6c-0.2-0.4-0.3-0.8-0.4-1.2c-0.1-0.4-0.1-0.7-0.1-1.1c0-0.5,0-0.9,0-1.1
			c0.1-0.2,0.1-0.4,0.2-0.5c0.1-0.1,0.2-0.3,0.3-0.5c0.1-0.2,0.3-0.6,0.4-1.1c0.2-0.6,0.3-1,0.3-1.3c0.8-2.2,1.6-4.5,2.5-6.8
			c0.9-2.3,1.8-4.5,2.7-6.6c0.2-0.6,0.5-1.2,0.7-1.8c0.2-0.6,0.5-1.1,0.7-1.6c0.1-0.2,0.2-0.3,0.3-0.4c0.1-0.1,0.2-0.3,0.2-0.5
			c0.6-1.1,1-2.2,1.3-3.3c0.3-1.1,0.7-2.2,1.3-3.3l0.2,0c0.2-0.7,0.4-1.2,0.6-1.5c0.1-0.4,0.3-0.7,0.4-1c0.1-0.3,0.3-0.6,0.4-0.9
			c0.1-0.3,0.4-0.8,0.7-1.4c-1,1-2,2-2.9,3c-0.9,0.9-1.8,1.9-2.9,3c-1.1,1.1-2.2,2.2-3.5,3.5c-1.3,1.3-2.8,2.7-4.6,4.4
			c-0.5,0.6-1,1.2-1.5,1.7c-0.5,0.6-1,1.2-1.4,1.9c-0.3,0.4-0.6,0.7-0.8,0.9c-0.2,0.2-0.4,0.4-0.6,0.6c-0.2,0.2-0.4,0.4-0.7,0.7
			c-0.2,0.3-0.5,0.6-0.8,1.1c-0.7,0.9-1.5,1.8-2.2,2.6c-0.7,0.9-1.5,1.9-2.2,3c-0.1,0-0.1,0-0.1,0c0,0-0.1,0-0.2,0
			c-0.4,0.7-0.9,1.1-1.6,1.2l-1.7-0.2c-0.2-0.1-0.5-0.2-0.9-0.3c-0.3,0-0.6-0.1-0.9-0.3c-0.1-0.1-0.2-0.1-0.3-0.2
			c-0.1-0.1-0.2-0.1-0.3-0.1c-0.2-0.2-0.5-0.3-0.7-0.4c-0.2-0.1-0.3-0.3-0.3-0.6l0.1-0.4c-0.4-2.9-0.4-5.9,0.1-9
			c0.4-3.1,0.9-6.1,1.3-9c0.1-0.5,0.1-0.9,0.2-1.3c0.1-0.4,0.1-0.8,0-1.3c-0.1,0-0.2,0.1-0.4,0.4l-1.8,3.1c0,0.1,0,0.2-0.1,0.2
			c0,0,0,0.1,0,0.2c-0.1,0-0.2,0-0.2,0.1c0,0.1-0.1,0.1-0.3,0c-0.1,0.3-0.3,0.6-0.3,0.9c-0.1,0.3-0.3,0.5-0.5,0.7l-0.1,0.4
			c-0.1,0.1-0.2,0.2-0.3,0.3c-0.1,0.1-0.2,0.2-0.3,0.3c0,0.1,0,0.1,0.1,0.2l0.1,0l-0.2,0c0.1,0.1,0.1,0.1,0,0.2
			c-0.1,0-0.1,0.1,0,0.3c-0.1,0.1-0.2,0.4-0.3,0.8c-0.2,0-0.3,0.1-0.4,0.3c-0.1,0.2-0.1,0.4-0.2,0.5l0.1,0c-0.1,0.1-0.2,0.2-0.3,0.2
			c-0.1,0-0.2,0.2-0.2,0.3l0.2,0c-0.1,0.2-0.2,0.4-0.3,0.7c-0.1,0.3-0.3,0.5-0.6,0.7c0.2,0.1,0.3,0.3,0,0.4
			c-0.2,0.1-0.3,0.2-0.2,0.3l-0.2,0c0.1,0.2,0.1,0.3,0,0.4c-0.1,0.1-0.2,0.2-0.2,0.3l0,0.1c-0.3,0.1-0.4,0.4-0.5,0.9
			c0,0.1,0,0.1,0,0.1c0-0.1,0.1-0.1,0.2-0.1c0,0.1-0.1,0.2-0.2,0.1c-0.1,0-0.2,0-0.2,0.1c0.1,0.2,0.2,0.3,0.2,0.2
			c-0.1,0.1-0.2,0.3-0.3,0.5c-0.1,0.2-0.2,0.4-0.5,0.6c-0.1,0.2-0.3,0.4-0.4,0.7s-0.2,0.5-0.3,0.8l0.1,0.1c-0.1,0.1-0.1,0-0.1,0
			c0-0.1,0,0,0,0.1c-0.4,0.6-0.8,1.3-1.1,1.9c-0.3,0.6-0.5,1.3-0.8,1.9c0.1,0.1,0.1,0.1,0.1,0.1c-0.1,0-0.1,0-0.1,0.1
			c-0.2,0-0.4,0.3-0.4,0.7c-0.3,0.1-0.5,0.5-0.5,1.2c-0.2,0.4-0.3,0.9-0.6,1.4c-0.2,0.5-0.5,0.9-0.8,1.3c0.2-0.8,0.5-1.6,0.8-2.3
			c0.3-0.7,0.5-1.4,0.7-2.1c0.1-0.2,0.2-0.3,0.3-0.4c0.1,0,0.1-0.1,0-0.1c-0.1,0-0.1,0-0.1,0c0.2-0.4,0.4-0.8,0.5-1.1
			c0.1-0.3,0.2-0.6,0.3-1.1c-0.1,0.1-0.2,0.3-0.3,0.6c-0.1,0.3-0.2,0.4-0.4,0.5c0-0.3,0.1-0.6,0.3-0.8c0.1-0.2,0.2-0.5,0.3-0.7
			c0.2-0.6,0.4-1.1,0.7-1.4c0.3-0.3,0.4-0.8,0.3-1.2c-0.3,0.1-0.4,0.3-0.5,0.6c0,0.3-0.1,0.5-0.3,0.6c-0.2,0.7-0.4,1.2-0.6,1.5
			c-0.2,0.3-0.4,0.8-0.5,1.4c-0.1,0-0.2,0-0.1,0.2c0,0.1,0,0.2-0.1,0.2c0,0.3-0.1,0.5-0.3,0.6c-0.1,0.1-0.3,0.3-0.3,0.5
			c-0.3,0.4-0.5,0.9-0.6,1.5c-0.1,0.5-0.3,1.1-0.6,1.6l0,0.1c-0.2,0.1-0.4,0.4-0.5,0.7c-0.1,0.3-0.2,0.5-0.5,0.6
			c0.1-0.3,0.2-0.6,0.2-0.8c0-0.2,0-0.4-0.1-0.5l-0.2,0c-0.1,0.1-0.2,0.2-0.3,0.3c-0.1,0.1-0.1,0.3,0,0.6c-0.1,0.2-0.2,0.3-0.3,0.4
			c-0.1,0.1-0.2,0.1-0.4,0.1c0,0.2,0,0.3,0,0.3c0,0,0,0.1-0.1,0.2c0,0.1,0,0.1,0,0c0,0,0,0,0,0c0,0.2-0.2,0.3-0.5,0.3
			c0-0.3,0.1-0.6,0.3-0.7c-0.1-0.2-0.2-0.2-0.3-0.1c-0.1,0.1-0.1,0.2,0,0.2c-0.1,0.1-0.2,0.1-0.3,0.1c-0.1,0.1-0.2,0.2-0.2,0.3
			c0,0.1,0,0.2-0.1,0.3c-0.2,0-0.5-0.1-1-0.1c-0.4,0-0.9-0.1-1.4-0.1c-0.5-0.1-0.9-0.1-1.3-0.2c-0.4-0.1-0.7-0.1-0.8-0.2
			c0-0.3,0-0.5,0-0.6c0-0.1-0.1-0.2-0.1-0.3c-0.2-0.9-0.1-1.7,0.1-2.5c0.2-0.8,0.4-1.5,0.7-2.2l2.9-6.7c0.4-0.9,0.8-1.7,1.1-2.4
			c0.4-0.7,0.7-1.4,0.9-2.2c0.1,0,0.1,0,0.1-0.1c0-0.1,0.1-0.1,0.2-0.1c0.7-1.5,1.4-3.1,2.1-4.5c0.8-1.5,1.6-2.9,2.4-4.3
			c1.2-2.3,2.4-4.5,3.5-6.6c1.2-2.1,2.3-4.2,3.4-6.4c0.2-0.6,0.4-1.1,0.7-1.6c0.3-0.4,0.6-0.9,0.9-1.5c0-0.1,0-0.2,0.1-0.3
			c0.1-0.1,0.1-0.2,0.2-0.3c0.1-0.3,0.3-0.5,0.5-0.7c0.2-0.2,0.3-0.5,0.4-0.9c0.4-0.1,0.7-0.3,0.7-0.7c0.3-0.1,0.6-0.1,1,0.1
			c0,0.2,0,0.4,0.1,0.5c0.1,0,0.2,0,0.4,0.1c0.2,0,0.3,0.1,0.4,0.1c0.1,0,0.3,0.1,0.6,0.1c0.3,0.1,0.7,0.1,1,0.2
			c0.4,0,0.7,0.1,1.1,0.1c0.3,0,0.5,0.1,0.6,0.1l1.1,0.5c0.1,0,0.2,0.1,0.4,0.3c0.2,0.2,0.3,0.3,0.4,0.4c0.2,0.2,0.4,0.3,0.5,0.4
			c0.1,0.1,0.2,0.2,0.2,0.3c0,0.2,0.1,0.3,0.3,0.5c0.1,0.1,0.3,0.3,0.3,0.4c0,0.2,0.1,0.3,0.2,0.4c0.2,0.1,0.3,0.2,0.3,0.3
			c0.2,0.3,0.4,0.8,0.4,1.4c0.1,0.6,0.1,1.1,0.2,1.5c0.2,1.4,0.2,2.9-0.1,4.4c-0.3,1.5-0.7,3-0.9,4.5c-0.3,1.8-0.6,3.6-0.9,5.5
			c-0.3,1.9-0.6,3.8-1,5.8c0.3-0.2,0.7-0.6,0.9-1c0.3-0.4,0.6-0.8,0.9-1l0-0.2c2.1-2.5,4.2-5,6.3-7.3c2.1-2.4,4.4-4.7,6.7-6.9
			c0.5-0.5,0.8-0.8,1.1-1c0.2-0.2,0.4-0.4,0.6-0.5c0.2-0.2,0.4-0.3,0.6-0.5c0.2-0.2,0.6-0.5,1.1-1c0.5-0.3,0.8-0.6,1.2-0.9
			c0.3-0.3,0.6-0.6,0.9-0.9c1.1-0.7,2.3-1.5,3.5-2.4c1.3-0.9,2.5-1.7,3.7-2.3c0.2-0.2,0.5-0.2,0.9-0.2c0.2,0.3,0.5,0.4,0.9,0.4
			c0.4,0,0.6-0.1,0.7-0.5c0.3,0,0.5-0.1,0.6-0.3c0.1-0.2,0.3-0.3,0.5-0.2c0.1,0,0.1-0.1,0.1-0.2C69.4,83.4,69.4,83.4,69.4,83.3z
			 M21.9,119.4c-0.1,0.1-0.1,0.1-0.2,0.1C21.8,119.5,21.8,119.5,21.9,119.4z M52.8,131l0.1,0.1C52.9,131.1,52.9,131.1,52.8,131z
			 M54.9,127.9C54.9,127.9,54.9,127.9,54.9,127.9C54.7,127.9,54.7,128,54.9,127.9L54.9,127.9L54.9,127.9z M55,126.5l0.1-0.2
			C55.1,126.4,55,126.5,55,126.5z M55.8,128.7l0.1,0.1c-0.1,0-0.2,0.1-0.1,0.2c0,0.1,0,0.1-0.1,0.1C55.7,129,55.8,128.8,55.8,128.7z
			 M56.3,125.9C56.3,125.8,56.3,125.8,56.3,125.9c0.1-0.1,0.1-0.1,0.1-0.2L56.3,125.9L56.3,125.9z M56.9,124.7
			c-0.1,0.2-0.1,0.3-0.2,0.5c-0.1,0.2-0.2,0.4-0.3,0.6l0.1-0.4c0.1,0,0.1,0,0.1-0.1c0-0.1,0-0.1,0.1-0.1c0-0.1,0.1-0.3,0.1-0.5
			c0.1-0.2,0.2-0.5,0.2-0.8c0-0.1,0-0.1,0.1-0.1c0.1,0,0.1,0,0.1-0.1c0.1,0.1,0.1,0.2,0,0.3C57,124.2,56.9,124.4,56.9,124.7z
			 M57.5,124.2c0.1,0,0.1,0.1,0.1,0.1c-0.1,0.1-0.1,0.1-0.2,0.1l0-0.1C57.4,124.3,57.5,124.2,57.5,124.2z M57.7,124L57.7,124
			L57.7,124z M57.9,123.4c0,0.1,0,0.1,0,0.2c-0.1,0.1-0.1,0.1-0.1,0.2c0-0.1,0-0.2,0-0.3C57.9,123.5,57.9,123.4,57.9,123.4z
			 M60.7,116.6c-0.1,0.3-0.2,0.5-0.3,0.8c-0.1,0.2-0.2,0.5-0.3,0.7c0-0.1,0-0.1,0.1-0.1c0,0.3-0.1,0.5-0.3,0.6c0.1,0,0.2,0,0.2-0.1
			c0-0.1,0.1-0.1,0.1-0.1c-0.2,0.5-0.4,0.9-0.8,1.3c-0.3,0.4-0.6,1-0.6,1.8c-0.3,0.1-0.5,0.4-0.5,0.6c-0.1,0.3-0.2,0.6-0.4,0.9
			c0.2-1,0.6-2,1.1-3c0.5-1,1-2,1.4-3.1c0.1,0,0.1,0,0.1-0.2C60.5,116.7,60.6,116.6,60.7,116.6z M59.6,120.4c0-0.1,0-0.2,0-0.3
			c0-0.1,0.1-0.1,0.1-0.2L59.6,120.4z M60.4,115.9l-0.2,0.1C60.3,115.9,60.4,115.9,60.4,115.9z M60.7,116.6
			C60.7,116.5,60.6,116.5,60.7,116.6c-0.1,0-0.2,0-0.1-0.1c0-0.1,0-0.1,0-0.1C60.6,116.5,60.6,116.5,60.7,116.6L60.7,116.6z
			 M60.9,115.8c0.1,0,0.1,0.1-0.1,0.2c0-0.1,0-0.1,0.1-0.1C60.9,115.9,60.9,115.9,60.9,115.8z M61.9,113.5c0-0.1,0-0.2,0.1-0.2
			c0,0.1,0,0.1,0.1,0.1c0.1,0,0.1,0,0.1,0.1c-0.1-0.1-0.2-0.1-0.2,0C62,113.5,62,113.5,61.9,113.5z"/>
		<path class="st12" d="M107.8,93.3C107.9,93.4,107.9,93.4,107.8,93.3c-0.1,0-0.2,0-0.2,0.1c0,0.1-0.1,0.1-0.2,0.1
			c-0.1,0-0.2,0-0.2,0c0.1,0.1,0.1,0.1,0.1,0.1c-0.1,0-0.1,0-0.2-0.1c0.1,0.3,0.3,0.4,0.5,0.4c0.1,0.1,0.1,0.1,0,0.1
			c-0.1,0-0.1,0-0.1,0c0,0.1,0.1,0.1,0.4,0.1c0.3,0.3,0.6,0.6,0.8,0.9c0.3,0.4,0.4,0.7,0.5,1.1c0.1,0,0.2,0.1,0.3,0.2
			c0.1,0.1,0.1,0.1,0.2,0.1c-0.1,0.1-0.1,0.1,0,0.2c0,0,0,0.1,0,0.2c0.1,0,0.1,0,0.2,0c0.1,0,0.1,0,0.1,0.1c0.3,0.3,0.4,0.6,0.5,1
			c0,0.3,0.1,0.7,0.1,1c-0.1,0-0.1-0.1-0.1-0.2c0-0.1,0-0.2-0.1-0.3c-0.1,0.2-0.2,0.4-0.3,0.5c-0.1,0.1,0.1,0.3,0.3,0.4
			c0.1,0,0.1-0.1,0.1-0.3c0,0.1,0,0.2,0.1,0.2c0.1,0.1,0,0.1-0.1,0.1c0,0,0.1,0.1,0.3,0.1c-0.1,0.5-0.1,1,0,1.5
			c0.1,0.5,0.2,1.1,0.3,1.6c0.1,0,0.2,0,0.2-0.1v-0.2c0.3-0.3,0.4-0.6,0.5-0.9c0-0.3,0-0.6,0-1.1c0.2,0.1,0.2,0.2,0.1,0.3
			c-0.1,0.1-0.1,0.2,0,0.3c0.1,0.5,0.1,1-0.2,1.5c-0.2,0.5-0.4,1.1-0.4,1.6c0,0.1,0,0.2,0.1,0.3c-0.1,0.2-0.1,0.4-0.1,0.8
			c0.1,0,0.1,0,0.1,0c0,0,0,0,0,0.1c0.1,0.1,0,0.1,0,0c-0.1-0.1-0.1-0.1-0.1,0c0,0.1,0,0.1,0.1,0.1c-0.1,0.2-0.1,0.6-0.1,1.3
			c0,0.5-0.1,1-0.4,1.5c-0.3,0.5-0.5,1-0.7,1.4c0,0,0.1,0.1,0.3,0.1c-0.1,0.1-0.2,0.1-0.3,0.1c-0.1,0-0.1,0-0.3,0.1
			c-0.1,0.3-0.3,0.5-0.6,0.8c-0.3,0.3-0.3,0.6-0.2,0.8c-0.3,0.1-0.4,0.3-0.4,0.4c0,0.1-0.1,0.2-0.3,0.2v0.3c0,0-0.1,0.1-0.3,0.1
			c0,0,0,0.1,0.1,0.1c0.1,0,0,0.1-0.1,0.2c-0.2,0.2-0.3,0.3-0.4,0.4c-0.1,0.1-0.2,0.2-0.4,0.3c0,0.1-0.1,0.3-0.3,0.4
			c0.1,0.1,0.1,0.2,0,0.2c-0.1,0.1-0.1,0.2-0.1,0.3c-0.6,0.5-1,1-1.4,1.7c-0.3,0.7-0.9,1.2-1.5,1.8c-0.2,0.3-0.5,0.6-0.8,0.8
			c-0.3,0.2-0.6,0.5-0.9,0.8l0.1,0.1c-0.8,0.6-1.6,1.1-2.5,1.6c-0.9,0.4-1.8,0.9-2.7,1.5h0.2c-0.1,0.2-0.3,0.3-0.5,0.4
			c-0.2,0.1-0.4,0.2-0.7,0.3c-0.2,0.1-0.3,0.2-0.3,0.4c-0.3,0.1-0.5,0.2-0.8,0.3c-0.2,0.1-0.5,0.3-0.7,0.5c0.2,0,0.4,0,0.4-0.1
			c-0.2,0.1-0.4,0.2-0.6,0.3c-0.2,0.1-0.4,0.2-0.6,0.3c0.1,0,0.1,0.1,0.1,0.2c0,0.1,0,0.1,0.1,0.2h-0.2c-0.1,0-0.1,0,0-0.1
			c0.1-0.1,0-0.1-0.1-0.1c-0.2,0.1-0.3,0.2-0.4,0.3c-0.1,0.1-0.3,0.2-0.7,0.2c-0.5,0.1-0.7,0.2-0.8,0.3c-0.2,0-0.4,0-0.4,0.1
			c0,0.1-0.1,0.1-0.1,0c-0.2,0.2-0.4,0.3-0.6,0.4c-0.2,0.1-0.4,0.2-0.5,0.3h-0.2c0-0.1,0-0.1,0.1-0.1c0.1,0,0.1,0,0.1-0.1
			c-0.5,0.1-0.9,0.2-1.2,0.5c-0.4,0.2-0.8,0.3-1.2,0.3c0-0.1,0.1-0.1,0.4-0.2c0.3,0,0.4-0.1,0.4-0.2c-0.4,0.1-0.7,0.2-1,0.3
			c-0.3,0.1-0.6,0.2-0.9,0.2l0.1,0.1l-1.4,0.2c-0.2,0-0.2,0-0.1-0.1c-0.1,0-0.1,0-0.1,0.1c0,0.1-0.2,0.1-0.4,0.1
			c0.1-0.1,0.1-0.1,0.2-0.1c0.1,0,0.1,0,0.1-0.1c-0.5,0.2-1.1,0.2-1.8,0.2c-0.7,0-1.3,0-1.8,0.2c0-0.1,0-0.1,0.1-0.1
			c0.1,0,0.1,0,0.1,0c-0.5,0-1,0.1-1.7,0.1c-0.7,0-1.3,0-2,0c-0.7,0-1.3-0.1-2-0.1c-0.6,0-1.1-0.1-1.5-0.2c-0.9-0.2-1.5-0.5-2.1-0.8
			c-0.5-0.3-1-0.7-1.4-1.1c0-0.2,0-0.3-0.1-0.3c-0.1-0.1-0.2-0.1-0.3-0.2c-0.1,0-0.2-0.1-0.3-0.2v-0.2c-0.3-0.4-0.6-0.9-0.8-1.5
			c-0.2-0.6-0.3-1.2-0.4-1.8c0-0.1,0-0.3,0.1-0.4c0.1-0.1,0.1-0.3,0-0.5c-0.1-0.1-0.1-0.2-0.1-0.2c0,0,0-0.1,0-0.2
			c0.2-2.3,0.8-4.4,1.8-6.3c1-1.8,2-3.6,3-5.2c0.5-0.5,0.9-1,1.3-1.6c0.3-0.6,0.7-1.2,1.2-1.9c0.7-0.7,1.4-1.5,2.1-2.3
			c0.7-0.8,1.3-1.6,2-2.3c0.2-0.2,0.3-0.3,0.4-0.5c0.1-0.2,0.2-0.3,0.5-0.4c0.5-0.6,1-1.1,1.5-1.6c0.5-0.5,1.1-1,1.8-1.5
			c0.6-0.7,1.3-1.4,2.1-2c0.7-0.6,1.5-1.3,2.1-2c0.5-0.2,0.8-0.4,1-0.6c0.2-0.2,0.5-0.4,0.9-0.6c0.3-0.4,0.7-0.7,1.1-0.9
			c0.4-0.2,0.7-0.5,1-0.9h0.2c0.4-0.3,0.8-0.4,1.2-0.4s0.8-0.2,1.1-0.6c0.5-0.1,1-0.1,1.8-0.2c0.7,0,1.5,0,2.3,0.1
			c0.1,0,0.1,0,0.1-0.1c0-0.1,0-0.1,0.1-0.1c0.3,0,0.5,0,0.5,0.1c0.3,0.3,0.6,0.6,0.9,0.8c0,0.1,0,0.1,0.1,0.1
			c0.1,0,0.1-0.1,0.2-0.1c0.1-0.1,0.2-0.1,0.3-0.2c0.1,0,0.2,0,0.2,0.1c0.1,0.2,0.3,0.5,0.4,0.7c0.2,0.3,0.5,0.5,0.9,0.5
			c0,0.1,0,0.1,0,0.1c0,0-0.1,0-0.2,0.1h0.3c-0.2,0-0.2,0.1-0.1,0.1c0.1,0,0.1,0.1,0,0.2c0.3,0,0.5,0.1,0.6,0.2
			c0.1,0.1,0.3,0.2,0.4,0.3h-0.3c0.1,0.2,0.3,0.3,0.6,0.3c0.3,0,0.5,0.1,0.6,0.3c0.3-0.1,0.5-0.1,0.7,0c0.2,0.1,0.4,0.1,0.6,0.2
			c0.1,0.1,0,0.1-0.1,0c-0.1-0.1-0.2-0.1-0.3,0c0.1,0,0.2,0.1,0.5,0.1c0.2,0.3,0.5,0.6,0.9,0.8c0.1-0.1,0.1-0.1-0.1-0.2
			c-0.2,0-0.2-0.1-0.2-0.1c0.1,0,0.2,0,0.2,0.1c0,0,0.1,0,0.2,0c0.1,0,0.1,0,0.1-0.1c-0.1,0-0.1-0.1-0.1-0.2
			c0.1,0.1,0.2,0.2,0.3,0.3c0.1,0.1,0.1,0.2,0.2,0.3c-0.1,0-0.1,0-0.1,0.1L107.8,93.3z M88.6,103.5c0,0.1,0,0.1-0.1,0.1
			c-0.1,0-0.1,0,0,0.1c-0.2,0.1-0.4,0.2-0.6,0.3c-0.1,0.1-0.3,0.2-0.5,0.4c-0.9,1.1-1.7,2.1-2.5,3.1c-0.7,1-1.5,2.1-2.3,3.3
			c0.1,0,0,0.3-0.3,0.9c-0.3,0.6-0.8,1.2-1.2,2c-0.5,0.8-0.9,1.6-1.4,2.6c-0.4,0.9-0.7,1.7-0.8,2.5c-0.1,0.7,0.1,1.4,0.5,1.8
			c0.4,0.5,1.3,0.7,2.6,0.6c0.3,0,0.7-0.1,1.2-0.2c0.5-0.1,1-0.2,1.4-0.4c0.1,0,0.2-0.1,0.2-0.2c0-0.1,0.1-0.1,0.3-0.2
			c0.8-0.2,1.7-0.4,2.7-0.8c0.5-0.3,0.9-0.5,1.4-0.8c0.5-0.3,1-0.6,1.4-0.8c0.9-0.6,1.8-1.1,2.7-1.8c0.9-0.6,1.7-1.3,2.5-1.9
			c0.8-0.7,1.5-1.4,2.2-2.1c0.7-0.7,1.4-1.5,2.1-2.3c0.6-0.9,1.1-1.7,1.5-2.6c0.4-0.9,0.7-1.9,0.8-3c0.1-0.9,0.1-1.6,0-2.3
			c-0.1-0.7-0.3-1.4-0.7-2.1c0-0.2-0.1-0.3-0.2-0.4c-0.1-0.1-0.3-0.2-0.4-0.4c-0.5-0.5-0.9-1-1.3-1.5c-0.4-0.5-0.9-0.9-1.6-1.3
			c-1.3,0.3-2.3,0.8-3.1,1.3c-0.8,0.5-1.7,1.2-2.6,1.9c-0.1,0,0,0,0.1,0c0.1,0,0.2,0.1,0.1,0.1c-0.2,0-0.4,0-0.4,0c0,0-0.1,0-0.3,0
			c-0.5,0.7-1.1,1.4-1.7,2C90.1,102.1,89.4,102.8,88.6,103.5z M96.6,123.5c-0.3,0.1-0.6,0.2-0.8,0.3c-0.3,0.1-0.5,0.2-0.8,0.4
			c0.3-0.2,0.5-0.3,0.8-0.5C96,123.4,96.3,123.4,96.6,123.5z M106,92.3c0.2,0.1,0.3,0.3,0.4,0.4c0.1,0.1,0.3,0.3,0.6,0.4
			c-0.1-0.1-0.1-0.2,0-0.2c0-0.1,0-0.1,0-0.2c-0.2,0-0.2,0-0.2,0c0,0,0-0.1-0.1-0.1h-0.1c-0.2-0.1-0.3-0.2-0.3-0.3
			C106.2,92.3,106.1,92.3,106,92.3C106,92.2,106,92.2,106,92.3c-0.1-0.1-0.3-0.2-0.5-0.3c0,0,0,0.1,0,0.1c0,0,0,0.1,0,0.1
			c-0.1-0.1-0.2-0.1-0.3-0.2c-0.1,0-0.2-0.1-0.2-0.2c-0.3-0.1-0.6-0.2-0.8-0.2c-0.3-0.1-0.5-0.2-0.6-0.3h-0.2
			c-0.1,0-0.2-0.1-0.3-0.2c-0.1-0.1-0.3-0.1-0.4,0c0.1,0.1,0.2,0.2,0.4,0.3c-0.2,0-0.2,0-0.2,0.1c0.2,0,0.2,0,0.2,0.1
			c0,0,0,0.1,0,0.1c0.1,0.1,0.1,0.1,0.1,0.1c0,0,0,0,0,0c0.1,0,0.3,0,0.7,0.1c0.3,0.1,0.7,0.1,0.9,0.1v0.1c0.2,0,0.3,0,0.3,0.1
			c0,0.1,0.1,0.1,0.4,0.1h-0.1H106z M104.6,93.4c0-0.2-0.1-0.3-0.4-0.3c-0.3,0-0.5-0.1-0.7-0.3c0.1,0.2,0.3,0.3,0.5,0.4
			C104.2,93.3,104.4,93.4,104.6,93.4z M104,93.8c-0.2,0-0.3-0.2-0.5-0.4c0,0.1,0.1,0.2,0.2,0.3C103.7,93.8,103.9,93.9,104,93.8z
			 M104.5,93.7c-0.1-0.1-0.2-0.2-0.2-0.2c0-0.1-0.1-0.1-0.2-0.1c0.1,0.1,0.2,0.2,0.2,0.3C104.3,93.8,104.4,93.8,104.5,93.7z
			 M105.2,94.4c0.1,0,0,0-0.1-0.1l-0.1-0.1C105,94.4,105.1,94.4,105.2,94.4z M107,92.8c0.1,0,0.1,0.1,0.1,0.1c0,0,0,0.1-0.1,0.1
			c0.1,0.1,0.2,0.2,0.3,0.2c0.1,0.1,0.2,0.1,0.3,0.1c0-0.1,0-0.2,0.1-0.2c-0.2,0-0.3-0.1-0.3-0.2C107.2,92.9,107.2,92.8,107,92.8
			L107,92.8c0-0.1-0.1-0.1-0.3-0.1C106.8,92.7,106.8,92.7,107,92.8z M108.4,97.6c-0.1,0-0.1-0.1,0-0.4h-0.3c0.2,0,0.3-0.1,0.3-0.2
			h-0.1h-0.3v0.2c0,0.1,0,0.3,0.1,0.4C108.3,97.7,108.4,97.7,108.4,97.6z M108.8,97.5L108.8,97.5c-0.1-0.1-0.1-0.1-0.1-0.1
			c0,0-0.1,0-0.1,0C108.5,97.4,108.6,97.5,108.8,97.5z M108.9,100v0.2c0.3,0,0.4-0.1,0.4-0.2c0-0.1-0.1-0.1-0.2,0
			C109.1,100,109,100,108.9,100c0-0.3,0-0.5,0-0.8c0-0.3-0.1-0.6-0.4-0.8c0.1,0.3,0.1,0.6,0,1C108.5,99.7,108.6,99.9,108.9,100z
			 M109,97.1c0.1-0.1,0.1-0.1-0.1-0.1L109,97.1z M109.1,100.5c0-0.1,0-0.1,0-0.1c0,0,0,0,0-0.1h-0.3
			C108.9,100.4,109,100.5,109.1,100.5z M109.1,106.4L109.1,106.4h-0.2H109.1z M109.8,99.9c0,0-0.1-0.1-0.2-0.2c-0.1,0-0.1-0.1,0-0.3
			c0-0.2,0-0.2-0.2-0.2c0,0.1,0,0.2,0,0.4C109.4,99.8,109.6,99.9,109.8,99.9z M110,97.2c0-0.1,0-0.2-0.1-0.2
			C109.7,97.1,109.7,97.2,110,97.2z M110.5,100.6c0-0.3,0-0.5,0.1-0.7c0.1-0.1,0-0.3-0.1-0.5c0,0.2-0.1,0.4-0.2,0.6
			C110.2,100.2,110.2,100.4,110.5,100.6z"/>
		<path class="st12" d="M152.1,91.3C152.1,91.4,152.1,91.4,152.1,91.3c-0.1,0-0.2,0-0.2,0.1c0,0.1-0.1,0.1-0.2,0.1
			c-0.1,0-0.2,0-0.2,0c0.1,0.1,0.1,0.1,0.1,0.1c-0.1,0-0.1,0-0.2-0.1c0.1,0.3,0.3,0.4,0.5,0.4c0.1,0.1,0.1,0.1,0,0.1
			c-0.1,0-0.1,0-0.1,0c0,0.1,0.1,0.1,0.4,0.1c0.3,0.3,0.6,0.6,0.8,0.9c0.3,0.4,0.4,0.7,0.5,1.1c0.1,0,0.2,0.1,0.3,0.2
			c0.1,0.1,0.1,0.1,0.2,0.1c-0.1,0.1-0.1,0.1,0,0.2c0,0,0,0.1,0,0.2c0.1,0,0.1,0,0.2,0c0.1,0,0.1,0,0.1,0.1c0.3,0.3,0.4,0.6,0.5,1
			c0,0.3,0.1,0.7,0.1,1c-0.1,0-0.1-0.1-0.1-0.2c0-0.1,0-0.2-0.1-0.3c-0.1,0.2-0.2,0.4-0.3,0.5c-0.1,0.1,0.1,0.3,0.3,0.4
			c0.1,0,0.1-0.1,0.1-0.3c0,0.1,0,0.2,0.1,0.2c0.1,0.1,0,0.1-0.1,0.1c0,0,0.1,0.1,0.3,0.1c-0.1,0.5-0.1,1,0,1.5
			c0.1,0.5,0.2,1.1,0.3,1.6c0.1,0,0.2,0,0.2-0.1v-0.2c0.3-0.3,0.4-0.6,0.5-0.9c0-0.3,0-0.6,0-1.1c0.2,0.1,0.2,0.2,0.1,0.3
			c-0.1,0.1-0.1,0.2,0,0.3c0.1,0.5,0.1,1-0.2,1.5c-0.2,0.5-0.4,1.1-0.4,1.6c0,0.1,0,0.2,0.1,0.3c-0.1,0.2-0.1,0.4-0.1,0.8
			c0.1,0,0.1,0,0.1,0c0,0,0,0,0,0.1c0.1,0.1,0,0.1,0,0c-0.1-0.1-0.1-0.1-0.1,0c0,0.1,0,0.1,0.1,0.1c-0.1,0.2-0.1,0.6-0.1,1.3
			c0,0.5-0.1,1-0.4,1.5c-0.3,0.5-0.5,1-0.7,1.4c0,0,0.1,0.1,0.3,0.1c-0.1,0.1-0.2,0.1-0.3,0.1c-0.1,0-0.1,0-0.3,0.1
			c-0.1,0.3-0.3,0.5-0.6,0.8c-0.3,0.3-0.3,0.6-0.2,0.8c-0.3,0.1-0.4,0.3-0.4,0.4c0,0.1-0.1,0.2-0.3,0.2v0.3c0,0-0.1,0.1-0.3,0.1
			c0,0,0,0.1,0.1,0.1c0.1,0,0,0.1-0.1,0.2c-0.2,0.2-0.3,0.3-0.4,0.4c-0.1,0.1-0.2,0.2-0.4,0.3c0,0.1-0.1,0.3-0.3,0.4
			c0.1,0.1,0.1,0.2,0,0.2c-0.1,0.1-0.1,0.2-0.1,0.3c-0.6,0.5-1,1-1.4,1.7c-0.3,0.7-0.9,1.2-1.5,1.8c-0.2,0.3-0.5,0.6-0.8,0.8
			c-0.3,0.2-0.6,0.5-0.9,0.8l0.1,0.1c-0.8,0.6-1.6,1.1-2.5,1.6c-0.9,0.4-1.8,0.9-2.7,1.5h0.2c-0.1,0.2-0.3,0.3-0.5,0.4
			c-0.2,0.1-0.4,0.2-0.7,0.3c-0.2,0.1-0.3,0.2-0.3,0.4c-0.3,0.1-0.5,0.2-0.8,0.3c-0.2,0.1-0.5,0.3-0.7,0.5c0.2,0,0.4,0,0.4-0.1
			c-0.2,0.1-0.4,0.2-0.6,0.3c-0.2,0.1-0.4,0.2-0.6,0.3c0.1,0,0.1,0.1,0.1,0.2c0,0.1,0,0.1,0.1,0.2h-0.2c-0.1,0-0.1,0,0-0.1
			c0.1-0.1,0-0.1-0.1-0.1c-0.2,0.1-0.3,0.2-0.4,0.3c-0.1,0.1-0.3,0.2-0.7,0.2c-0.5,0.1-0.7,0.2-0.8,0.3c-0.2,0-0.4,0-0.4,0.1
			c0,0.1-0.1,0.1-0.1,0c-0.2,0.2-0.4,0.3-0.6,0.4c-0.2,0.1-0.4,0.2-0.5,0.3h-0.2c0-0.1,0-0.1,0.1-0.1c0.1,0,0.1,0,0.1-0.1
			c-0.5,0.1-0.9,0.2-1.2,0.5c-0.4,0.2-0.8,0.3-1.2,0.3c0-0.1,0.1-0.1,0.4-0.2c0.3,0,0.4-0.1,0.4-0.2c-0.4,0.1-0.7,0.2-1,0.3
			c-0.3,0.1-0.6,0.2-0.9,0.2l0.1,0.1l-1.4,0.2c-0.2,0-0.2,0-0.1-0.1c-0.1,0-0.1,0-0.1,0.1c0,0.1-0.2,0.1-0.4,0.1
			c0.1-0.1,0.1-0.1,0.2-0.1c0.1,0,0.1,0,0.1-0.1c-0.5,0.2-1.1,0.2-1.8,0.2c-0.7,0-1.3,0-1.8,0.2c0-0.1,0-0.1,0.1-0.1
			c0.1,0,0.1,0,0.1,0c-0.5,0-1,0.1-1.7,0.1c-0.7,0-1.3,0-2,0c-0.7,0-1.3-0.1-2-0.1c-0.6,0-1.1-0.1-1.5-0.2c-0.9-0.2-1.5-0.5-2.1-0.8
			c-0.5-0.3-1-0.7-1.4-1.1c0-0.2,0-0.3-0.1-0.3c-0.1-0.1-0.2-0.1-0.3-0.2c-0.1,0-0.2-0.1-0.3-0.2v-0.2c-0.3-0.4-0.6-0.9-0.8-1.5
			c-0.2-0.6-0.3-1.2-0.4-1.8c0-0.1,0-0.3,0.1-0.4c0.1-0.1,0.1-0.3,0-0.5c-0.1-0.1-0.1-0.2-0.1-0.2c0,0,0-0.1,0-0.2
			c0.2-2.3,0.8-4.4,1.8-6.3c1-1.8,2-3.6,3-5.2c0.5-0.5,0.9-1,1.3-1.6c0.3-0.6,0.7-1.2,1.2-1.9c0.7-0.7,1.4-1.5,2.1-2.3
			c0.7-0.8,1.3-1.6,2-2.3c0.2-0.2,0.3-0.3,0.4-0.5c0.1-0.2,0.2-0.3,0.5-0.4c0.5-0.6,1-1.1,1.5-1.6c0.5-0.5,1.1-1,1.8-1.5
			c0.6-0.7,1.3-1.4,2.1-2c0.7-0.6,1.5-1.3,2.1-2c0.5-0.2,0.8-0.4,1-0.6c0.2-0.2,0.5-0.4,0.9-0.6c0.3-0.4,0.7-0.7,1.1-0.9
			c0.4-0.2,0.7-0.5,1-0.9h0.2c0.4-0.3,0.8-0.4,1.2-0.4s0.8-0.2,1.1-0.6c0.5-0.1,1-0.1,1.8-0.2c0.7,0,1.5,0,2.3,0.1
			c0.1,0,0.1,0,0.1-0.1c0-0.1,0-0.1,0.1-0.1c0.3,0,0.5,0,0.5,0.1c0.3,0.3,0.6,0.6,0.9,0.8c0,0.1,0,0.1,0.1,0.1
			c0.1,0,0.1-0.1,0.2-0.1c0.1-0.1,0.2-0.1,0.3-0.2c0.1,0,0.2,0,0.2,0.1c0.1,0.2,0.3,0.5,0.4,0.7c0.2,0.3,0.5,0.5,0.9,0.5
			c0,0.1,0,0.1,0,0.1c0,0-0.1,0-0.2,0.1h0.3c-0.2,0-0.2,0.1-0.1,0.1c0.1,0,0.1,0.1,0,0.2c0.3,0,0.5,0.1,0.6,0.2
			c0.1,0.1,0.3,0.2,0.4,0.3h-0.3c0.1,0.2,0.3,0.3,0.6,0.3c0.3,0,0.5,0.1,0.6,0.3c0.3-0.1,0.5-0.1,0.7,0c0.2,0.1,0.4,0.1,0.6,0.2
			c0.1,0.1,0,0.1-0.1,0c-0.1-0.1-0.2-0.1-0.3,0c0.1,0,0.2,0.1,0.5,0.1c0.2,0.3,0.5,0.6,0.9,0.8c0.1-0.1,0.1-0.1-0.1-0.2
			c-0.2,0-0.2-0.1-0.2-0.1c0.1,0,0.2,0,0.2,0.1c0,0,0.1,0,0.2,0c0.1,0,0.1,0,0.1-0.1c-0.1,0-0.1-0.1-0.1-0.2
			c0.1,0.1,0.2,0.2,0.3,0.3c0.1,0.1,0.1,0.2,0.2,0.3c-0.1,0-0.1,0-0.1,0.1L152.1,91.3z M132.9,101.5c0,0.1,0,0.1-0.1,0.1
			c-0.1,0-0.1,0,0,0.1c-0.2,0.1-0.4,0.2-0.6,0.3c-0.1,0.1-0.3,0.2-0.5,0.4c-0.9,1.1-1.7,2.1-2.5,3.1c-0.7,1-1.5,2.1-2.3,3.3
			c0.1,0,0,0.3-0.3,0.9c-0.3,0.6-0.8,1.2-1.2,2c-0.5,0.8-0.9,1.6-1.4,2.6c-0.4,0.9-0.7,1.7-0.8,2.5c-0.1,0.7,0.1,1.4,0.5,1.8
			c0.4,0.5,1.3,0.7,2.6,0.6c0.3,0,0.7-0.1,1.2-0.2c0.5-0.1,1-0.2,1.4-0.4c0.1,0,0.2-0.1,0.2-0.2c0-0.1,0.1-0.1,0.3-0.2
			c0.8-0.2,1.7-0.4,2.7-0.8c0.5-0.3,0.9-0.5,1.4-0.8c0.5-0.3,1-0.6,1.4-0.8c0.9-0.6,1.8-1.1,2.7-1.8c0.9-0.6,1.7-1.3,2.5-1.9
			c0.8-0.7,1.5-1.4,2.2-2.1c0.7-0.7,1.4-1.5,2.1-2.3c0.6-0.9,1.1-1.7,1.5-2.6c0.4-0.9,0.7-1.9,0.8-3c0.1-0.9,0.1-1.6,0-2.3
			c-0.1-0.7-0.3-1.4-0.7-2.1c0-0.2-0.1-0.3-0.2-0.4c-0.1-0.1-0.3-0.2-0.4-0.4c-0.5-0.5-0.9-1-1.3-1.5c-0.4-0.5-0.9-0.9-1.6-1.3
			c-1.3,0.3-2.3,0.8-3.1,1.3c-0.8,0.5-1.7,1.2-2.6,1.9c-0.1,0,0,0,0.1,0c0.1,0,0.2,0.1,0.1,0.1c-0.2,0-0.4,0-0.4,0c0,0-0.1,0-0.3,0
			c-0.5,0.7-1.1,1.4-1.7,2C134.3,100.1,133.6,100.8,132.9,101.5z M140.8,121.5c-0.3,0.1-0.6,0.2-0.8,0.3c-0.3,0.1-0.5,0.2-0.8,0.4
			c0.3-0.2,0.5-0.3,0.8-0.5C140.2,121.4,140.5,121.4,140.8,121.5z M150.3,90.4c0.2,0.1,0.3,0.3,0.4,0.4c0.1,0.1,0.3,0.3,0.6,0.4
			c-0.1-0.1-0.1-0.2,0-0.2c0-0.1,0-0.1,0-0.2c-0.2,0-0.2,0-0.2,0c0,0,0-0.1-0.1-0.1h-0.1c-0.2-0.1-0.3-0.2-0.3-0.3
			C150.4,90.4,150.3,90.3,150.3,90.4C150.3,90.2,150.3,90.2,150.3,90.4c-0.1-0.1-0.3-0.2-0.5-0.3c0,0,0,0.1,0,0.1c0,0,0,0.1,0,0.1
			c-0.1-0.1-0.2-0.1-0.3-0.2c-0.1,0-0.2-0.1-0.2-0.2c-0.3-0.1-0.6-0.2-0.8-0.2c-0.3-0.1-0.5-0.2-0.6-0.3h-0.2
			c-0.1,0-0.2-0.1-0.3-0.2c-0.1-0.1-0.3-0.1-0.4,0c0.1,0.1,0.2,0.2,0.4,0.3c-0.2,0-0.2,0-0.2,0.1c0.2,0,0.2,0,0.2,0.1
			c0,0,0,0.1,0,0.1c0.1,0.1,0.1,0.1,0.1,0.1c0,0,0,0,0,0c0.1,0,0.3,0,0.7,0.1c0.3,0.1,0.7,0.1,0.9,0.1v0.1c0.2,0,0.3,0,0.3,0.1
			c0,0.1,0.1,0.1,0.4,0.1h-0.1H150.3z M148.8,91.4c0-0.2-0.1-0.3-0.4-0.3c-0.3,0-0.5-0.1-0.7-0.3c0.1,0.2,0.3,0.3,0.5,0.4
			C148.4,91.4,148.6,91.4,148.8,91.4z M148.2,91.8c-0.2,0-0.3-0.2-0.5-0.4c0,0.1,0.1,0.2,0.2,0.3C148,91.8,148.1,91.9,148.2,91.8z
			 M148.7,91.8c-0.1-0.1-0.2-0.2-0.2-0.2c0-0.1-0.1-0.1-0.2-0.1c0.1,0.1,0.2,0.2,0.2,0.3C148.5,91.8,148.6,91.9,148.7,91.8z
			 M149.4,92.5c0.1,0,0,0-0.1-0.1l-0.1-0.1C149.2,92.4,149.3,92.5,149.4,92.5z M151.2,90.8c0.1,0,0.1,0.1,0.1,0.1c0,0,0,0.1-0.1,0.1
			c0.1,0.1,0.2,0.2,0.3,0.2c0.1,0.1,0.2,0.1,0.3,0.1c0-0.1,0-0.2,0.1-0.2c-0.2,0-0.3-0.1-0.3-0.2C151.5,90.9,151.4,90.9,151.2,90.8
			L151.2,90.8c0-0.1-0.1-0.1-0.3-0.1C151,90.7,151.1,90.7,151.2,90.8z M152.7,95.7c-0.1,0-0.1-0.1,0-0.4h-0.3c0.2,0,0.3-0.1,0.3-0.2
			h-0.1h-0.3v0.2c0,0.1,0,0.3,0.1,0.4C152.5,95.7,152.6,95.7,152.7,95.7z M153,95.5L153,95.5c-0.1-0.1-0.1-0.1-0.1-0.1
			c0,0-0.1,0-0.1,0C152.7,95.5,152.8,95.5,153,95.5z M153.2,98v0.2c0.3,0,0.4-0.1,0.4-0.2c0-0.1-0.1-0.1-0.2,0
			C153.3,98.1,153.3,98,153.2,98c0-0.3,0-0.5,0-0.8c0-0.3-0.1-0.6-0.4-0.8c0.1,0.3,0.1,0.6,0,1C152.8,97.7,152.9,97.9,153.2,98z
			 M153.3,95.1c0.1-0.1,0.1-0.1-0.1-0.1L153.3,95.1z M153.3,98.5c0-0.1,0-0.1,0-0.1c0,0,0,0,0-0.1h-0.3
			C153.2,98.5,153.2,98.5,153.3,98.5z M153.3,104.4L153.3,104.4h-0.2H153.3z M154,98c0,0-0.1-0.1-0.2-0.2c-0.1,0-0.1-0.1,0-0.3
			c0-0.2,0-0.2-0.2-0.2c0,0.1,0,0.2,0,0.4C153.7,97.8,153.8,97.9,154,98z M154.2,95.2c0-0.1,0-0.2-0.1-0.2
			C153.9,95.2,154,95.2,154.2,95.2z M154.7,98.6c0-0.3,0-0.5,0.1-0.7c0.1-0.1,0-0.3-0.1-0.5c0,0.2-0.1,0.4-0.2,0.6
			C154.4,98.2,154.5,98.4,154.7,98.6z"/>
		<path class="st12" d="M53,148.4c-0.1,0-0.1,0.1-0.2,0.1C52.9,148.5,53,148.5,53,148.4c0.1,0,0.1,0,0.2,0
			C53.1,148.4,53.1,148.4,53,148.4z M56.6,143.3C56.6,143.3,56.6,143.2,56.6,143.3C56.6,143.3,56.6,143.3,56.6,143.3
			C56.6,143.3,56.6,143.3,56.6,143.3C56.6,143.3,56.6,143.3,56.6,143.3z"/>
		<path class="st12" d="M276.9,104.5c0.1-0.2,0.2-0.4,0.2-0.6c0.1-0.1,0.1-0.1,0.2-0.1c0,0,0.1-0.1,0.2-0.2
			c-0.1,0.1-0.2,0.1-0.2,0.1c0-0.3,0.1-0.6,0.1-0.9c0.1-0.4,0-0.7-0.1-0.9c-0.2-0.3-0.3-0.6-0.3-0.7c-0.1,0-0.1,0-0.1,0
			c0,0,0-0.1,0-0.1c0,0,0,0-0.1,0c-0.1-0.2-0.2-0.3-0.1-0.4c-0.1,0-0.1,0-0.1-0.1c-0.1-0.3-0.1-0.6-0.1-1c0-0.3-0.1-0.6-0.3-0.8
			c-0.1,0-0.1-0.1,0-0.2c0-0.1,0-0.1-0.2-0.1c0.1,0.2,0.2,0.4,0.3,0.6c0.1,0.1,0,0.4-0.1,0.6l0.1,0.1c0,0,0,0.1-0.1,0.1
			c-0.2-0.2-0.4-0.5-0.7-0.7c-0.2-0.2-0.3-0.5-0.4-0.8c-0.1,0.1-0.2,0.1-0.2,0.1c0.1,0,0.1-0.1,0.1-0.1c-0.1,0-0.1,0-0.1-0.1
			c0,0.1,0.1,0.1,0,0.2c-0.3,0-0.4,0-0.4-0.1c0-0.1,0-0.2,0.1-0.4c0,0,0.1,0,0.1,0.1c0,0.1,0.1,0.1,0.1,0.1
			c-0.1-0.2-0.2-0.3-0.4-0.5c-0.1-0.2-0.3-0.3-0.6-0.3c0,0-0.1,0-0.1,0c0,0-0.1,0.1-0.1,0.1c0-0.1,0-0.1,0-0.1c0,0,0-0.1,0-0.1
			c0,0-0.1,0-0.2,0c-0.1,0-0.1,0-0.2,0c-0.1-0.2-0.3-0.3-0.6-0.4c-0.3-0.1-0.6-0.2-0.9-0.2c-0.2,0.1-0.3,0.2-0.3,0.1c0,0,0,0,0-0.1
			c0,0,0,0,0,0c-0.2,0.1-0.3,0.1-0.5,0c0.1,0,0.1,0,0.1,0c0,0,0,0-0.1,0c0,0,0-0.1,0.1-0.1c0.1,0,0.1-0.1,0.1-0.1c0,0,0,0,0.1,0
			c0.1,0,0.1,0,0-0.1l-0.5-0.1c0,0,0-0.1,0-0.1c-0.1,0-0.1,0-0.2-0.1c-0.1,0-0.2,0-0.3,0c0,0,0.1,0.1,0.1,0.1c0.1,0,0,0,0,0.1
			c-0.1,0.1-0.1,0.1-0.2,0.1c0,0-0.1,0-0.2,0c0,0,0,0,0.1,0c0.1-0.1,0.2,0,0.1,0.1c-0.4,0-0.6,0-0.9-0.1c-0.2,0.1-0.3,0.1-0.4,0.1
			c0,0,0.1-0.1,0.2-0.1c0.1,0,0.1,0,0.1,0c-0.2,0-0.4,0.1-0.5,0.1c-0.2,0-0.3,0.1-0.5,0.3c-0.2-0.1-0.3,0-0.6,0.1
			c-0.2,0.1-0.4,0.1-0.6,0.1l0.2-0.1c-0.1,0-0.2,0-0.4,0c-0.1,0-0.3,0-0.5,0.1c0-0.1,0-0.1-0.1-0.1c-0.1,0,0,0,0.1-0.1l-0.2,0.1
			c0.1-0.1,0.1-0.1,0.1-0.1c0,0,0,0,0,0c-0.3,0.1-0.6,0.1-0.8,0c-0.2-0.1-0.4-0.2-0.5-0.2c-0.1,0-0.1,0-0.2,0c0,0.1-0.1,0.1-0.1,0.2
			c0,0.1-0.1,0.1-0.1,0.1c0,0-0.1,0-0.1,0c-0.3,0-0.5,0-0.8-0.1c0,0-0.2,0-0.4,0.1c0,0-0.1,0,0,0.1c0,0,0,0.1,0,0.1
			c-0.6,0.2-1.2,0.5-1.7,0.7c-0.5,0.3-1,0.5-1.3,0.7c-0.1,0.3-0.3,0.5-0.6,0.7c-0.3,0.1-0.6,0.3-0.8,0.6l-0.1,0.1
			c-0.1,0.3-0.3,0.5-0.5,0.8c-0.2,0.2-0.4,0.5-0.6,0.8c0,0,0,0,0,0c0,0,0,0,0,0c0-0.3,0-0.7-0.1-1c-0.1-0.3-0.1-0.6-0.1-0.9
			l-0.1-0.1c-0.1-0.4-0.2-0.7-0.4-0.9c-0.2-0.3-0.3-0.6-0.2-0.9c-0.2-0.3-0.4-0.7-0.8-1.2c-0.3-0.5-0.7-1-1.1-1.5c0,0,0-0.1,0-0.1
			c0,0,0,0,0-0.1c-0.2-0.2-0.3-0.3-0.3-0.3c-0.3-0.1-0.6-0.2-0.8-0.3c0,0-0.1,0-0.1,0c0,0,0-0.1,0-0.2c0-0.1,0-0.2,0-0.2
			c0-0.1-0.1-0.1-0.1-0.1c-0.1,0-0.3,0-0.5-0.1c-0.2,0-0.5-0.2-0.7-0.5c0,0-0.1,0,0,0.1c0,0,0,0,0.1,0.2l-0.1-0.2
			c0.1,0.1,0.1,0.2,0,0.1c0,0-0.1-0.1-0.1,0c-0.1-0.2-0.3-0.3-0.4-0.4c-0.1-0.1-0.2-0.1-0.3-0.2l0.1,0.2c-0.2,0-0.3-0.1-0.4-0.3
			c-0.1-0.2-0.3-0.3-0.4-0.4c-0.1-0.2-0.2-0.4-0.3-0.5c-0.1-0.1-0.3-0.2-0.4-0.4c-0.1,0-0.1,0,0,0.1c0.1,0.1,0.1,0.1,0.1,0.2
			c0,0-0.1-0.1-0.3-0.3c-0.2,0-0.5-0.1-0.8-0.3c0-0.1,0-0.1,0.1,0c0.1,0.1,0.1,0.1,0.1,0.1c-0.1-0.1-0.1-0.1-0.1-0.1
			c0,0-0.1-0.1-0.1-0.1c-0.1-0.1-0.1-0.1,0-0.1c0,0,0.1,0,0.1,0c-0.1,0-0.2-0.1-0.2-0.1c-0.1,0-0.1,0-0.2,0c0,0,0,0.1,0,0.1
			l-0.5-0.2c-0.1,0-0.1,0,0,0.1c0.1,0,0.1,0.1,0.1,0.1c0,0,0,0.1,0,0.1c0.1,0.1,0.1,0.1,0.1,0.1c-0.1-0.1-0.1-0.1-0.1,0
			c0,0,0.1,0.1,0.1,0.1c-0.2,0-0.4-0.1-0.4-0.2c-0.1,0-0.1,0,0,0c0,0,0,0.1,0,0.1c-0.1,0-0.1,0-0.2-0.3c-0.3-0.1-0.5-0.2-0.8-0.3
			c-0.3-0.1-0.5-0.1-0.7,0c-0.1-0.1-0.1-0.1-0.2-0.1c-0.1,0-0.1,0-0.1-0.1c0,0.1,0,0.1-0.1,0.1c-0.1,0-0.1,0-0.1,0.1
			c0,0-0.1-0.1-0.1-0.1c0-0.1,0-0.1-0.1-0.1c-0.3-0.1-0.5-0.1-0.7,0c-0.2,0.1-0.4,0.2-0.6,0.2c0,0,0.1,0,0.2,0c0.1,0,0.1-0.1,0.2,0
			c0,0.2-0.1,0.3-0.1,0.3c0,0.1-0.1,0-0.3-0.1c0,0,0-0.1,0.1-0.1c0,0-0.1,0-0.2,0c-0.1,0-0.1,0,0,0.1c0,0-0.1-0.1-0.2-0.2
			c-0.2,0.2-0.4,0.4-0.7,0.5c-0.3,0.1-0.6,0.2-0.9,0.3c0-0.1,0-0.1,0-0.1l0.1-0.1c0-0.3,0.1-0.5,0.2-0.6c0.1-0.1,0.3-0.2,0.5-0.3
			c-0.1-0.1-0.2-0.1-0.2,0c0,0.1-0.1,0.1-0.1,0.1c-0.3,0.1-0.5,0.3-0.7,0.6c-0.1,0.3-0.3,0.6-0.6,0.8c-0.1,0-0.1,0.1-0.2,0
			c0,0.1-0.2,0.2-0.3,0.3c0,0,0,0-0.1,0c0,0,0,0,0,0.1c0,0-0.1,0-0.1,0c-0.1,0.1-0.2,0.2-0.6,0.4c-0.3,0.2-0.4,0.4-0.6,0.7
			c-0.1,0.3-0.2,0.6-0.4,0.9c0,0-0.1,0-0.2-0.2c0,0.1,0,0.2,0.1,0.2c0,0,0,0.1,0.1,0.2c-0.1,0.1-0.1,0.3-0.1,0.6
			c0,0.2-0.1,0.4-0.3,0.4c0.1,0.2,0.1,0.4,0,0.4c-0.1,0-0.1,0.1,0,0.3l-0.2,0.1c0,0,0,0.1,0.1,0.2c0,0,0,0-0.1,0
			c-0.1-0.1-0.1,0-0.1,0.1c0,0.1,0,0.3,0,0.4c0,0.1,0,0.2,0.1,0.3c-0.1,0-0.1,0.1-0.1,0.4c-0.1,0-0.1,0-0.1,0c0,0.1,0,0.1-0.1,0.2
			c0.1,0.5,0,1-0.2,1.4c-0.2,0.4-0.2,1-0.1,1.6c-0.1,0.2-0.1,0.5,0,0.7c0.1,0.2,0,0.5,0,0.8l-0.1,0c0.1,0.7,0.2,1.4,0.4,2.1
			c0.2,0.7,0.4,1.5,0.5,2.2l-0.1-0.1c0,0.1,0,0.3,0,0.4c0,0.2,0.1,0.4,0.2,0.6c0.1,0.2,0.1,0.3,0,0.3c0.1,0.2,0.2,0.4,0.2,0.6
			c0.1,0.2,0.1,0.4,0.1,0.6c0-0.1-0.1-0.1-0.1-0.2c0,0.1,0.1,0.3,0.1,0.4c0.1,0.2,0.1,0.3,0.2,0.5c0,0-0.1,0-0.1,0c0,0-0.1,0-0.1,0
			l0.1,0.1c0.1,0.1,0.1,0.1,0.1,0c0-0.1,0-0.1,0.1,0c0,0.1,0,0.3,0,0.4c0,0.1,0.1,0.3,0.2,0.5c0.2,0.3,0.3,0.5,0.2,0.6
			c0.1,0.2,0.2,0.3,0.1,0.3c0,0,0,0.1,0.1,0.1c0,0.2,0,0.3,0.1,0.5c0.1,0.2,0.1,0.3,0.1,0.4l0.1,0.1c0,0,0,0,0,0
			c0.1,0.3,0.2,0.6,0.3,0.8c0.1,0.3,0.2,0.6,0.4,0.9c0,0,0-0.1-0.1-0.3c-0.1-0.2-0.1-0.3-0.1-0.3c0.1,0.3,0.3,0.5,0.3,0.8
			c0.1,0.2,0.2,0.4,0.3,0.6l-0.1,0l0.6,1c0.1,0.1,0.1,0.1,0.1,0c0,0,0,0.1,0,0.1c0,0,0,0.1,0.1,0.3c0-0.1,0-0.1,0-0.1
			c0,0,0-0.1,0-0.1c0.2,0.4,0.4,0.8,0.7,1.2c0.3,0.4,0.6,0.8,0.8,1.3c0,0,0,0,0-0.1c0,0,0,0,0-0.1c0.2,0.3,0.4,0.7,0.7,1.1
			c0.3,0.4,0.6,0.9,1,1.3c0.3,0.4,0.7,0.9,1,1.3c0.3,0.4,0.6,0.7,0.8,0.9c0.5,0.5,1,0.9,1.4,1.1c0.4,0.2,0.6,1.1,1,1.3
			c0.1-0.1,0.2-0.1,0.2,0c0.1,0,0.2,0.1,0.3,0.2c0.1,0.1,0.1,0.1,0.2,0.1l0.1-0.1c0.2,0,0.3,0.1,0.5,0.1c0.2,0.1,0.3,0.1,0.5,0.2
			l0,0.1c0.1,0,0.2,0,0.2,0c0.1,0,0.2,0,0.3,0c0,0,0.1,0,0.1,0.1c0.4,0.1,1-0.6,1.5-0.6c0.5,0,1.1-0.1,1.7-0.3
			c0.3-0.1,0.6-0.2,1.1-0.4c0.5-0.2,1-0.4,1.5-0.6c0.5-0.2,1-0.4,1.5-0.7c0.5-0.2,0.9-0.4,1.2-0.6c0,0,0,0,0,0c0,0-0.1,0,0,0.1
			c0.4-0.3,0.8-0.5,1.3-0.7c0.5-0.2,0.9-0.5,1.2-0.7c0,0,0,0.1,0,0.1c0,0-0.1,0-0.1,0.1c0.2-0.1,0.3-0.1,0.3-0.2c0,0,0-0.1,0.1-0.1
			c-0.1,0.1,0,0.1,0.1,0l1-0.5l-0.1,0c0.2-0.1,0.4-0.2,0.6-0.4s0.4-0.3,0.7-0.5c0,0,0,0.1-0.2,0.2c-0.2,0.1-0.3,0.2-0.2,0.2
			c0.3-0.1,0.6-0.3,0.8-0.6c0.2-0.2,0.4-0.4,0.7-0.6c0,0,0,0,0,0l0.1-0.1c0-0.1,0.2-0.2,0.3-0.3c0.1-0.1,0.2-0.2,0.3-0.4
			c0.1,0,0.1,0,0.1,0c0,0,0.1-0.1,0.3-0.2c0-0.1,0.2-0.2,0.5-0.4c0.3-0.1,0.4-0.2,0.5-0.3c0-0.1,0.1-0.2,0.2-0.3
			c0.1-0.1,0.2,0,0.1,0c0,0.1,0,0.1,0.1,0l0.1-0.1c-0.1,0-0.1,0-0.1-0.1c0,0,0-0.1-0.1-0.1c0.1-0.1,0.3-0.2,0.4-0.3
			c0.1-0.1,0.2-0.2,0.3-0.3c-0.1,0-0.1,0.1-0.2,0.1c0.1-0.2,0.2-0.4,0.4-0.5c0.2-0.1,0.3-0.2,0.5-0.4c0-0.1,0-0.2,0.1-0.3
			c0.2-0.1,0.3-0.3,0.5-0.4c0.1-0.1,0.2-0.2,0.2-0.4l-0.1,0.1c0.5-0.6,1.1-1.1,1.6-1.7c0.5-0.5,1-1.1,1.4-1.6l-0.1,0
			c0.1-0.3,0.2-0.5,0.4-0.7c0.2-0.2,0.3-0.4,0.3-0.7c0.4-0.5,0.6-1,0.7-1.4c0.1-0.4,0.3-0.9,0.6-1.3c0-0.1,0-0.1,0-0.2
			c0-0.1,0-0.1-0.1-0.1c0.1-0.2,0.2-0.3,0.1-0.3c0.1-0.1,0.2-0.2,0.2-0.3c0-0.1,0.1-0.2,0.2-0.3c0.1-0.1,0.1-0.1,0-0.1
			c0,0-0.1,0-0.1,0c0.2-0.1,0.2-0.1,0.2-0.1l-0.1-0.2c0.2-0.1,0.2-0.1,0.2-0.2c-0.1-0.1,0-0.2,0.2-0.3
			C276.9,104.8,276.8,104.7,276.9,104.5z M240.9,93.2L240.9,93.2l0.1,0.1L240.9,93.2z M243.3,90.4c0,0.1-0.1,0.2-0.3,0.1
			c0.1-0.1,0.2-0.2,0.3-0.3c0-0.1,0.1-0.1,0.3-0.1C243.4,90.2,243.3,90.3,243.3,90.4z M244.8,89.8c0,0.1,0,0.1-0.1,0
			C244.7,89.7,244.8,89.7,244.8,89.8z M243.5,90.7c0,0,0.1,0,0.1,0.1c0,0,0.1,0,0.1-0.1c0.1-0.1,0.1,0,0.2,0.1c0,0-0.1,0.1-0.2,0.1
			C243.7,90.9,243.6,90.9,243.5,90.7z M243.5,91.3C243.6,91.3,243.6,91.3,243.5,91.3c0-0.1,0-0.1,0.1-0.1l0.1,0.2
			C243.6,91.4,243.6,91.4,243.5,91.3z M244.3,91.3c-0.1,0.2-0.3,0.2-0.4,0l-0.1,0.1c-0.1-0.2-0.1-0.3-0.1-0.3c0,0,0.1,0,0.1,0.1
			c0,0.1,0,0.1,0.1,0.1c0.1,0,0.2-0.1,0.4-0.2c0.1-0.1,0.3-0.1,0.5,0C244.6,91,244.4,91.1,244.3,91.3z M245.2,90.3L245.2,90.3
			C245.1,90.2,245.1,90.2,245.2,90.3z M245,90.6L245,90.6C245.1,90.7,245.1,90.7,245,90.6c0.1,0.1,0.1,0.1,0.2,0.1
			C245.2,90.8,245.1,90.7,245,90.6z M239.9,111.8C239.8,111.7,239.8,111.7,239.9,111.8C239.9,111.7,239.9,111.8,239.9,111.8
			C239.9,111.8,239.9,111.8,239.9,111.8z M245.4,91c-0.1,0-0.1,0-0.2,0c-0.1,0-0.1-0.1-0.1-0.1c0,0.1,0.1,0,0.2-0.1L245.4,91
			c-0.1-0.2-0.1-0.2-0.1-0.3L245.4,91L245.4,91z M247.8,92C247.8,92,247.9,92,247.8,92l0.2,0.1C247.9,92.1,247.9,92.1,247.8,92z
			 M248.5,92.4c-0.1,0-0.1,0-0.1-0.1C248.5,92.3,248.6,92.3,248.5,92.4c0.1-0.1,0.2,0,0.2,0.1C248.7,92.4,248.6,92.3,248.5,92.4z
			 M248.8,92.8c-0.1,0-0.1-0.1-0.2-0.2c0.1,0.1,0.2,0.2,0.4,0.2C249,92.8,248.9,92.8,248.8,92.8z M248.9,92.4
			c-0.1-0.1-0.2-0.3-0.3-0.3c0.1-0.1,0.2,0,0.3,0.2c0.1,0.2,0.2,0.3,0.4,0.4C249.1,92.6,249,92.5,248.9,92.4z M250,92.5
			c-0.1-0.1-0.1-0.1-0.1-0.1c0,0,0,0-0.1,0c-0.1,0-0.1,0-0.1,0c0,0,0,0,0,0c0-0.1-0.1-0.2-0.3-0.4c-0.2-0.2-0.3-0.4-0.4-0.6l0,0
			c-0.1-0.1-0.1-0.1-0.1-0.1c0,0-0.1,0-0.2-0.2l-0.1-0.2c-0.1-0.1-0.2-0.1-0.3-0.1c-0.1,0-0.2-0.1-0.4-0.2c0.1,0,0.1,0,0.1,0
			c0,0,0-0.1,0.1-0.1c0,0-0.1,0-0.1,0c0,0,0,0,0,0.1c-0.1,0-0.2-0.1-0.2-0.1c-0.1,0-0.1-0.1-0.2-0.2c0.1,0,0.1-0.1,0.1-0.1
			c0.1,0.1,0.1,0.2,0.2,0.2c0.1,0,0.1,0,0.2,0.1l0.1,0c0,0,0.1,0,0.1,0.1c0,0-0.1-0.1-0.1-0.1c0.1,0.1,0.1,0.1,0.1,0.1
			c0,0,0,0,0.1,0.1l0,0c0.1,0.1,0.2,0.1,0.2,0.1c0,0.1,0.1,0.1,0.1,0.1c0,0,0,0,0,0c0.1,0,0.2,0.1,0.3,0.2c0,0,0,0-0.1,0
			c0,0,0,0-0.1,0c0.1,0,0.1,0.1,0.2,0.1c0,0,0.1,0.1,0.2,0.1c0.2,0.2,0.3,0.3,0.4,0.5c0.1,0.1,0.3,0.3,0.4,0.3l0.1,0.1
			c0,0,0.1,0.1,0.2,0.1c0.1,0.1,0.1,0.2,0.2,0.3c-0.1,0-0.2-0.1-0.3-0.2C250.1,92.5,250.1,92.5,250,92.5z M264.9,96.8
			c0.2,0,0.3,0,0.5-0.1c0.2-0.1,0.3-0.1,0.3,0c-0.1,0-0.3,0.1-0.4,0.1C265.2,96.9,265,96.9,264.9,96.8z M265.2,97.2
			c-0.1,0-0.2,0-0.2-0.1c0.2,0,0.3,0,0.4,0C265.4,97.2,265.3,97.2,265.2,97.2z M265.6,96.9c0,0-0.1-0.1-0.2-0.1c0.1,0,0.1-0.1,0.2,0
			c0,0,0.1,0,0.2,0C265.7,97,265.7,97,265.6,96.9z M266.3,97L266.3,97c0.2,0,0.2,0,0.2,0C266.4,97,266.3,97,266.3,97z M267.2,95.5
			C267.3,95.6,267.3,95.6,267.2,95.5c0,0.1,0,0.2,0.1,0.2c-0.2,0-0.4,0-0.5,0c-0.1,0-0.2,0-0.4,0l-0.2,0.1c-0.2,0.1-0.2,0.1-0.3,0.1
			c0,0-0.1,0-0.2,0l0,0c-0.2,0.1-0.4,0.2-0.7,0.3c-0.3,0.1-0.4,0.1-0.5,0.2c0,0,0,0,0,0c0,0,0,0-0.1,0c-0.1,0-0.1,0-0.1,0
			c0,0,0,0-0.2,0c0,0,0,0,0.1-0.1c-0.1,0-0.3,0.1-0.3,0c0.1-0.1,0.1-0.1,0.3-0.2c0.1,0,0.2,0,0.2,0l0.1-0.1c0.1,0,0.3,0,0.5-0.1
			c0.2-0.1,0.4-0.1,0.6-0.2c0.1,0,0.1,0.1,0.2,0c0.1,0,0.1,0,0.2,0c0,0,0,0,0,0c0,0,0,0-0.1,0c0.2,0,0.3-0.1,0.4-0.1c0,0,0-0.1,0,0
			c0,0,0.1,0,0.2,0c0,0,0.1,0.1,0.3,0.1l0.1,0c0.1,0,0.1,0,0.1,0C267.1,95.6,267.2,95.6,267.2,95.5c-0.1,0-0.1,0-0.2,0
			C267.2,95.5,267.2,95.5,267.2,95.5L267.2,95.5c0.2-0.1,0.2,0,0.3,0c0.1,0,0.2,0,0.3,0c0,0,0,0.1,0,0.1c-0.1,0.1-0.2,0.1-0.2,0.1
			c-0.1,0-0.2,0-0.2,0C267.3,95.6,267.3,95.6,267.2,95.5C267.3,95.6,267.3,95.5,267.2,95.5z M269.6,96.9L269.6,96.9
			C269.7,96.8,269.7,96.8,269.6,96.9z M263.4,118.1C263.4,118.1,263.4,118.1,263.4,118.1C263.4,118.1,263.4,118.1,263.4,118.1
			C263.5,118.1,263.5,118.1,263.4,118.1z M269.2,97.5c-0.1,0-0.2-0.1-0.2-0.1l0-0.1l0.2-0.1c0,0.1,0,0.1-0.1,0.2l0.2-0.1
			c0,0.2,0,0.3,0.1,0.2C269.3,97.5,269.3,97.5,269.2,97.5z M269.3,97.3C269.4,97.2,269.4,97.2,269.3,97.3c0.1,0,0.2,0,0.2-0.1l0,0
			C269.4,97.3,269.4,97.3,269.3,97.3z M270.2,96.6c0,0,0.1,0,0.1,0.1C270.1,96.7,270.1,96.7,270.2,96.6z M270.3,98.5L270.3,98.5
			c-0.3,0-0.4-0.1-0.4-0.3c0-0.2-0.1-0.4-0.2-0.5c0.2,0,0.4,0.1,0.4,0.3c0.1,0.2,0.1,0.3,0.2,0.4c0,0,0.1,0,0.1,0
			c0.1-0.1,0.1-0.1,0.1-0.1C270.6,98.3,270.5,98.4,270.3,98.5z M270.3,98.5l0.2-0.1c0,0,0,0.1,0,0.1c0,0,0,0,0,0.1
			C270.4,98.6,270.4,98.6,270.3,98.5z M270.5,98c-0.1-0.1-0.1-0.1-0.1-0.2c0.1-0.1,0.2-0.1,0.2,0c0,0.1,0,0.1,0.1,0.1
			c0.1,0,0.1,0,0.1,0C270.6,98.1,270.5,98.1,270.5,98z M271.2,97.9c0-0.1,0-0.3,0-0.4c0.1,0.1,0.2,0.2,0.2,0.2c0,0.1,0,0.2,0.1,0.4
			C271.2,98.1,271.1,98,271.2,97.9z M271.7,101.5L271.7,101.5l0.1-0.1L271.7,101.5z"/>
		<path class="st12" d="M187.1,114.1c-0.1,0.2-0.2,0.3-0.3,0.3c0,0.2-0.1,0.4-0.3,0.5c-0.1,0.1-0.3,0.1-0.4,0.1
			c-0.3,0.1-0.5,0.2-0.7,0.4c-0.4,0.4-0.9,0.8-1.3,1c-0.4,0.2-0.8,0.4-1.2,0.5c0.1,0,0.1,0,0,0.1c-0.1,0.1-0.2,0.1-0.3,0.2l0-0.1
			c-0.2,0.1-0.3,0.2-0.4,0.2c0,0.2-0.1,0.3-0.1,0.3c-0.1,0-0.2,0.1-0.4,0.2c-0.1,0-0.1-0.1-0.2-0.2l-0.2,0.2l0.1,0
			c-0.2,0.4-0.5,0.5-0.9,0.5c-0.3,0.2-0.5,0.4-0.7,0.5c-0.2,0.1-0.5,0.2-0.7,0.2c-0.1,0-0.1,0.1-0.3,0.1c-0.1,0.1-0.2,0.1-0.3,0.1
			c0,0.1,0,0.2,0.1,0.4c-0.2-0.1-0.4-0.1-0.5,0l-0.4,0.2c-0.1,0-0.1,0.1-0.1,0.1c0,0-0.1,0-0.1,0.1l-0.6,0.4l-0.2,0.2
			c-0.8,0-1.4,0.1-1.9,0.4l0.3,0c-0.1,0.3-0.4,0.4-0.7,0.5l0-0.3c0,0-0.1,0-0.2,0.1c-0.1,0-0.1,0.1-0.1,0.1l-1,0.1l0,0.1
			c-0.1,0.1-0.2,0.1-0.4,0.1c-0.1,0.1-0.2,0.1-0.2,0c0,0,0,0.1-0.1,0.1l-0.1,0c0,0.1,0,0.2,0,0.3c0,0.1,0,0.2,0.1,0.3l-0.9,0.3
			l-0.8,0l0.1,0.2c-0.1,0-0.2,0-0.2,0c-0.1,0-0.1,0.1-0.2,0c-0.1,0-0.3,0.1-0.6,0.1c-0.2,0-0.5,0.1-0.8,0.3c0,0,0-0.1,0-0.2
			c0-0.1,0-0.2,0-0.2l0-0.1l-0.1,0.1l-0.4,0.4c-0.1,0-0.1-0.1-0.1-0.2c0-0.1-0.1-0.1,0-0.2l-0.7,0.3c0.1-0.4,0.2-0.6,0.6-0.7
			l0.4-0.2c0,0,0.1,0,0.1,0c0,0,0.1,0,0.1,0c0.3,0,0.5-0.1,0.8-0.3c0,0,0.1,0.1,0.1,0.2c0.3-0.2,0.7-0.4,1.2-0.5
			c0.5-0.2,0.9-0.4,1.3-0.6l0-0.2c-0.2,0-0.3,0-0.5,0.1c-0.1,0.1-0.2,0.2-0.3,0.2c0.1-0.4,0.2-0.6,0.3-0.8l-0.1,0l-0.1,0.1l0-0.1
			c-0.1,0.1-0.2,0.1-0.3,0.1c-0.1,0-0.2-0.1-0.4-0.4l-0.1,0.1c-0.1,0.1-0.3,0.1-0.3,0.2c-0.1,0-0.2,0-0.4,0l-0.1,0.5
			c-0.1,0-0.1,0.1-0.1,0.1c-0.1,0-0.2,0-0.3-0.1l-0.3,0.1c0.2,0,0.4,0.1,0.6,0.1c-0.5,0.4-1,0.6-1.4,0.7c-0.4,0.1-0.8,0.2-1.1,0.3
			l-0.4,0.1l-0.1-0.1c-0.1,0-0.2,0.1-0.3,0.1c-0.1,0-0.2,0-0.4,0l0,0.4c0.1,0,0.2,0,0.2,0c0.1,0,0.1,0,0.2,0
			c-0.3,0.3-0.5,0.5-0.8,0.6c-0.1,0-0.2,0-0.3,0c0,0-0.1-0.1,0-0.2c0,0,0-0.1-0.1-0.1c0,0-0.1-0.1,0-0.2l-0.4,0.1
			c-0.1,0.1-0.3,0.1-0.5,0.2c-0.2,0,2.6-2.7,2.4-2.6c-0.1,0.4-0.3,0.6-0.4,0.6c-0.1,0-0.3,0-0.4,0.1c-0.3,0.2-0.5,0.3-0.5,0.4
			c-0.2,0-0.3-0.1-0.3-0.1c0,0,0-0.1,0-0.2l-0.4,0.2c-0.3,0.1-0.6,0.2-0.9,0.3c-0.3,0.1-0.7,0.2-1.1,0.3l-0.9,1.5l-1,1.5
			c-0.1,0.1-0.2,0.2-0.3,0.2c-0.1,0.1-0.2,0.2-0.3,0.4l-0.3,0.5c-0.1,0-0.2,0.1-0.2,0.2c-0.1,0.1-0.1,0.2-0.2,0.2
			c-0.1,0-0.1,0.1-0.1,0.2c-0.1,0-0.1,0.1-0.1,0.1c0,0,0,0.1-0.1,0.1c-0.4-0.2-0.6-0.3-0.6-0.6c0-0.2,0.1-0.5,0.2-0.6l0.1-0.4
			c0-0.1-0.1-0.1-0.2,0.2c-0.1,0.2-0.4,0.6-0.9,1.2c0-0.1-0.1-0.2-0.1-0.3c0-0.1,0-0.2,0-0.4c-0.1,0.2-0.2,0.4-0.3,0.4
			c-0.1,0.1-0.3,0.1-0.6,0.1c0.1,0,0.1,0,0.1,0c0,0,0,0-0.1-0.1c-0.1,0-0.2,0-0.2,0.1c0,0.1-0.1,0.2-0.1,0.2
			c-0.1,0.1-0.2,0.1-0.4,0.2c-0.2,0-0.3,0.2-0.4,0.4c-0.1,0-0.3,0-0.3,0c0.1,0,0.1-0.1,0.1-0.3c0-0.1-0.4-0.2-1.1-0.3
			c-0.3-0.3-0.6-0.7-0.7-1.1c-0.2-0.5-0.3-1-0.3-1.5l-0.3-1.4l-0.2,0c0.1-0.5,0-0.9-0.3-1.2l0-0.3l0.1-0.4c0.2-0.1,0.5-0.3,0.7-0.6
			l-1.5,1.7l0.5-0.3c0.2-0.5,0.5-0.9,0.8-1.4c0.3-0.4,0.6-0.9,0.9-1.4c0.2-0.4,0.4-0.8,0.6-1.2c0.2-0.4,0.4-0.9,0.5-1.3l0.8-1.8
			c0.3-0.2,0.5-0.5,0.6-0.8c0.2-0.3,0.3-0.6,0.5-0.8l1.4-2.4c0.3-0.3,0.5-0.6,0.7-1c0.2-0.4,0.4-0.8,0.7-1.2
			c0.3-0.2,0.5-0.5,0.6-0.9l0.2-0.2c0.3-0.4,0.6-0.9,0.8-1.4c0.2-0.5,0.5-0.9,0.9-1.4c0.2-0.5,0.5-1,0.8-1.6c0.4-0.6,0.7-1.1,1-1.6
			l0.9-1.6c0.3-0.3,0.5-0.6,0.7-0.9c0.2-0.3,0.4-0.7,0.5-1l0.6-0.6l0.9-0.8l-1.4,0c-0.3,0.1-0.6,0.1-0.9,0.1c-0.3,0-0.5,0-0.8,0
			c0,0-0.1,0-0.1,0c0,0,0,0-0.1,0l0.1,0c-0.7,0.2-1.1,0.3-1.4,0.3c-0.3,0-0.6-0.3-0.9-0.9c-0.1,0-0.1-0.1-0.2-0.2l-0.2-0.3l0.1,0
			c-0.2-0.3-0.3-0.6-0.2-1c0.1-0.4,0.1-0.8,0-1.1c-0.2-0.2-0.3-0.5,0-0.9c0.2-0.4,0.3-0.7,0.3-1.1c0.1-0.1,0.1-0.1,0.1-0.2
			c0,0,0-0.1,0-0.1c0.1-0.5,0.2-0.8,0.4-1c0.2-0.2,0.5-0.4,1-0.7c0.1-0.1,0.1-0.1,0-0.2c-0.2,0-0.1,0,0.2,0c0.3-0.1,0.6,0,1.1,0.1
			l0.1,0c0,0,0.1,0,0.2-0.1c0.1-0.1,0.2-0.1,0.2-0.2c0.2,0,0.3-0.1,0.4-0.1c0.1,0,0.3-0.1,0.5-0.2l-0.1,0c0.7-0.1,1.1-0.2,1.4-0.3
			c0.2-0.1,0.7-0.2,1.3-0.3l1.8-0.2l0.3,0c0.2-0.1,0.5-0.1,1,0c0.5,0,0.9,0.1,1.2,0c0.5,0,1-0.1,1.5-0.1c0.5,0,1,0,1.5-0.1
			c0.7-0.1,1.6-0.1,2.6,0.1l1.3,0.1c0.7,0,1.5,0,2.3,0.1c0.8,0.1,1.6,0.2,2.3,0.3c0.7,0.1,1.5,0.3,2.3,0.5s1.5,0.4,2.2,0.6
			c1.5,0.4,2.9,1,4.2,1.7c1.3,0.8,2.4,1.7,3.2,3c0.5,0.7,1,1.6,1.4,2.6c0.4,1,0.6,2.1,0.5,3.3c0,0.1,0.1,0.1,0,0.2
			c0,0.2,0,0.5,0,0.8c0,0.3-0.1,0.5-0.1,0.6c-0.1,0.2-0.1,0.3-0.2,0.4c0,0.1-0.1,0.2-0.1,0.4c-0.1,0.2-0.1,0.5-0.2,0.7
			c-0.1,0.3-0.1,0.6-0.2,1c-0.2,0.7-0.5,1.2-0.9,1.8l-0.5,0.8c-0.5,0.7-1,1.3-1.6,1.9c-0.6,0.6-1.2,1.1-1.9,1.6l-0.3,0.4
			c-0.1,0-0.2,0.1-0.4,0.3c-0.1,0.2-0.3,0.3-0.4,0.5l-0.3,0l0,0.1l-0.3,0.4c-0.1,0.1-0.1,0.1-0.1,0.1c0,0,0,0-0.1-0.2
			c0,0.1-0.1,0.2-0.2,0.2c-0.2,0-0.4,0-0.4,0c0,0-0.1,0-0.1-0.1c-0.2,0.1-0.4,0.1-0.6,0.2c-0.2,0-0.3,0.2-0.5,0.3
			c0.1,0.1,0.2,0.1,0.3,0c0.1-0.1,0.3-0.2,0.4-0.2l0.2,0.2c0,0,0.1,0,0.2,0c0.1,0,0.2-0.1,0.3-0.1c-0.4,0.6-0.7,0.8-0.7,0.8
			c0-0.1-0.1-0.1-0.2,0l-0.7,0.3l0,0.3c-0.1,0-0.3,0.1-0.4,0.2c-0.1,0.1-0.3,0.2-0.4,0.2c-0.1,0-0.2,0.1-0.4,0.2
			c-0.2,0.1-0.4,0.2-0.6,0.3L187.1,114.1L187.1,114.1z M153.4,122.1c0,0.1,0,0.2,0,0.2l0-0.1C153.5,122.2,153.5,122.2,153.4,122.1z
			 M166.7,120C166.7,120,166.7,120,166.7,120C166.7,120,166.7,120,166.7,120l-0.2,0l0,0.1L166.7,120z M168.3,115.7
			c0.5-0.1,0.9-0.2,1.3-0.3c0.4-0.1,0.8-0.3,1.2-0.4c0.5-0.3,1.1-0.5,1.8-0.8c0.7-0.2,1.3-0.5,1.9-0.8c1.1-0.5,2.2-1,3.3-1.5
			c1.1-0.5,2.2-1.1,3.4-1.8c0.4-0.2,0.8-0.5,1.2-0.7c0.4-0.2,0.9-0.5,1.3-0.7l2.2-1.3c0.7-0.5,1.4-1.1,2.1-1.6
			c0.7-0.5,1.3-1,1.7-1.5c0.4-0.2,0.7-0.5,1-0.9c0.3-0.3,0.6-0.6,0.9-0.9c0.3-0.4,0.5-0.7,0.7-1.1c0.2-0.4,0.3-0.8,0.5-1.1
			c0-0.2,0-0.4-0.1-0.8c-0.1-0.3-0.2-0.6-0.3-0.7c-0.3-0.3-0.7-0.6-1.1-0.9c-0.4-0.3-0.8-0.5-1.2-0.7c-0.4-0.2-0.9-0.3-1.4-0.5
			c-0.5-0.2-1-0.3-1.5-0.4l-1-0.2c-0.2,0-0.4-0.1-0.6-0.1c-0.2,0-0.4-0.1-0.6-0.1c-0.7-0.1-1.3-0.1-1.9-0.1c-0.6,0-1.2,0-1.8,0
			c-0.1,0-0.2,0-0.3,0c-0.1,0-0.3,0-0.4,0c-0.4,0-0.8,0-1.3,0c-0.5,0-1,0-1.6,0c-0.5,0-1,0-1.4,0c-0.4,0-0.7,0.1-0.9,0.2
			c-0.1,0.1,0,0.1,0.1,0.1c0.1,0,0.2,0,0.3,0.1c0.3,0.2,0.6,0.5,0.8,0.9c0.2,0.4,0.1,0.8-0.4,1.3l-0.4,0.7c-0.1,0.1-0.3,0.2-0.4,0.4
			c-0.1,0.2-0.2,0.4-0.3,0.5c-0.9,1-1.5,2-2,3l-0.5,0.7c-0.3,0.3-0.5,0.7-0.8,1.1c-0.4,0.6-0.7,1.2-1,1.8c-0.3,0.6-0.6,1.2-0.9,1.8
			l-1.3,2.2l-0.5,0.9c-0.2,0.5-0.5,0.9-0.8,1.4c-0.3,0.5-0.6,1-0.9,1.4l-0.5,1l-1.5,2.1l2.7-1.1L168.3,115.7z M170.4,122
			c0,0-0.1,0-0.1,0c0,0-0.1,0-0.1,0C170.3,122.1,170.3,122,170.4,122z M171,119.8L171,119.8C171,119.8,171,119.8,171,119.8z
			 M172,120.1l0.4,0.1l0.1-0.1l0-0.1c0,0,0-0.1,0.1-0.1L172,120.1z M173.4,120c-0.4,0-0.7,0.2-0.9,0.4l0.1,0
			C172.9,120.3,173.1,120.2,173.4,120L173.4,120L173.4,120z M173.6,119.4c-0.1,0-0.1,0.1-0.1,0.1c0.3-0.1,0.6-0.1,1-0.2
			c0.4-0.1,0.7-0.2,1-0.4c0.3-0.2,0.6-0.2,1-0.1l0.1-0.1l0.2-0.2c0-0.2,0.1-0.3,0.1-0.3l-0.4-0.1l-1,0.3c-0.3,0.1-0.6,0.2-1,0.4
			c-0.4,0.2-0.7,0.3-1,0.4C173.6,119.2,173.6,119.3,173.6,119.4z M174.5,119.6c0.1,0,0.2,0,0.3,0c0.1,0,0.2-0.1,0.4-0.1l0,0.1
			l0.2-0.3c-0.2,0.1-0.3,0.2-0.6,0.2L174.5,119.6z M184.9,115.1c0,0,0-0.1,0.1-0.1c-0.1,0.1-0.2,0.1-0.2,0.1L184.9,115.1z"/>
		<path class="st12" d="M315.5,122.9c-0.2,0-0.2,0-0.2,0.1c-0.1,0-0.2-0.1-0.4-0.1c-0.1,0-0.2-0.1-0.1-0.2c-0.1,0-0.2,0-0.2,0.1
			c-0.3-0.2-0.5-0.3-0.5-0.3c-0.1,0-0.2-0.1-0.2-0.3c-0.5-0.3-0.9-0.7-1.3-1.1c-0.4-0.4-0.7-0.7-1.1-1.1c-0.1-0.1-0.2-0.2-0.4-0.3
			c-0.1-0.1-0.3-0.2-0.4-0.3c-0.2-0.1-0.3-0.3-0.3-0.4c-0.1-0.2-0.2-0.3-0.3-0.4c-0.4-0.4-0.8-0.8-1.2-1.3c-0.3-0.5-0.7-1-1-1.5
			c0,0-0.1-0.1-0.2-0.1c0.1-0.1,0.1-0.2,0-0.3c-0.1-0.1-0.2-0.2-0.2-0.3c-0.4-0.1-0.6-0.3-0.7-0.6c0-0.1,0-0.2-0.2-0.3
			c-0.2-0.1-0.3-0.1-0.4,0c0.4,0.4,0.7,0.8,1,1.2c0.3,0.5,0.5,0.9,0.8,1.5c0,0.1,0,0.1,0.1,0.1c0-0.1,0.1,0,0.2,0.1
			c0,0.1,0,0.1,0.1,0.1l-0.1,0c-0.2-0.1-0.3-0.2-0.5-0.3c-0.2-0.1-0.3-0.2-0.4-0.2c-0.3-0.4-0.6-0.8-0.9-1.2
			c-0.3-0.4-0.6-0.8-0.8-1.2c-0.1,0-0.2,0-0.3-0.1c-0.1-0.1-0.2-0.1-0.3-0.1c0.2,0.3,0.5,0.7,0.8,1c0.3,0.4,0.6,0.7,0.7,1.1l0.3,0.1
			c0,0.1,0.1,0.2,0.1,0.2c0.1,0,0.1,0.1,0,0.2c0.2,0,0.3,0.1,0.3,0.3c0.1,0.2,0.2,0.3,0.4,0.3c0,0,0,0.1-0.2,0.1
			c0.2,0.1,0.4,0.3,0.5,0.6c0.1,0.3,0.3,0.4,0.6,0.5c0.6,0.6,1.1,1.3,1.6,1.9c0.5,0.7,1.1,1.2,1.9,1.6c-0.1-0.2-0.2-0.4-0.3-0.6
			c-0.1-0.2-0.2-0.4-0.4-0.6c0.4,0.4,0.8,0.7,1.1,1.1c0.3,0.4,0.8,0.6,1.3,0.8c0.1,0.3,0.3,0.4,0.5,0.5c0.2,0.1,0.4,0.2,0.5,0.3
			c0.1,0,0.2,0.1,0.3,0c0,0,0,0.1-0.1,0.1c-0.1,0-0.1,0.1-0.1,0.2c0.2,0,0.3,0,0.3,0.2c0,0.1,0.1,0.2,0.1,0.3c0,0.1-0.1,0.1-0.2,0.1
			c-0.1,0-0.1,0-0.1,0c0,0.1,0,0.2-0.1,0.2c-0.1,0.1-0.1,0.2,0.1,0.4c-0.2,0-0.3,0.1-0.5,0.1l0.4,0c0,0.1,0,0.1-0.1,0.1
			c-0.1,0-0.2,0-0.2,0.1c0.2,0.2,0.3,0.3,0.3,0.3c0,0,0,0.2,0.1,0.4c0,0.1,0,0.1,0,0c0-0.1-0.1-0.1-0.2,0c0.1,0.2,0.2,0.4,0.3,0.6
			c0.1,0.1,0.3,0.3,0.5,0.5c-0.2,0.4-0.5,0.7-1,0.8c-0.5,0.1-0.8,0.1-1,0c-0.4,0.1-0.7,0.2-0.7,0.1c-0.1-0.1-0.3-0.2-0.5-0.4
			c-1-0.5-1.9-1-2.7-1.7c-0.9-0.7-1.6-1.3-2.3-2.1c-0.3-0.3-0.6-0.6-0.9-0.9c-0.3-0.3-0.6-0.6-1.1-0.9c-0.3-0.5-0.6-0.9-0.9-1.2
			c-0.3-0.4-0.7-0.8-0.9-1.3c-0.7-0.9-1.3-1.6-1.8-2.1c-0.5-0.6-0.9-1.1-1.4-1.7c-0.4-0.5-0.8-1.2-1.3-1.8c-0.4-0.7-0.9-1.5-1.4-2.6
			c-0.2,0.3-0.5,0.5-0.8,0.8c-0.3,0.3-0.6,0.5-1,0.8c0-0.1,0.1-0.2,0.1-0.3c0.1,0,0-0.1-0.1-0.2c-0.2,0.1-0.3,0.2-0.4,0.4
			c-0.1,0.2-0.2,0.3-0.5,0.3c0.4-0.5,0.8-1,1.3-1.5c0.5-0.5,0.9-1,1.3-1.5c-0.8,0.5-1.5,1-1.9,1.7c-0.5,0.7-1.2,1.3-2.1,1.7l0,0.2
			c-0.2,0-0.3,0.1-0.3,0.2c-0.1,0-0.1,0-0.2,0.1l0,0.2l-0.4,0.2l-0.1,0l0,0.2c-0.1,0-0.1,0-0.2,0.1c-0.1,0.1-0.1,0.2,0.1,0.1l-0.2,0
			c-0.1,0.1-0.1,0.1,0,0.1c0.1,0,0.1,0,0.1,0.1c-0.3,0.2-0.4,0.4-0.5,0.7c-0.1,0.3-0.3,0.6-0.6,0.8c0.1,0,0.1,0.1,0.2,0
			c0.1,0,0.2-0.1,0.2-0.1c0.4-0.4,0.8-0.9,1.1-1.3c0.3-0.5,0.8-0.9,1.3-1.2c-0.4,0.5-0.9,1-1.2,1.5c-0.4,0.5-0.8,1-1.2,1.4
			c-0.1,0-0.2,0-0.3,0.1c-0.1,0.1-0.1,0.1-0.2,0l0.2-0.3l-0.2,0c0,0.1-0.1,0.3-0.2,0.6c0.1,0,0.1,0.1,0.2,0c0.1,0,0.1,0,0.1,0
			c-0.1,0.1-0.2,0.3-0.2,0.5c0,0.2-0.2,0.4-0.4,0.5l-1.3,3.3l0.1,0.1l0,0.1l0,0.1c0,0.1,0,0.1,0,0c0-0.1,0.1-0.1,0.2-0.1
			c-0.2,0.5-0.4,1.1-0.4,1.7c-0.1,0.6-0.3,1.1-0.8,1.5c0.1,0.1,0.1,0.1,0.2,0c0.1-0.1,0.1-0.1,0.1,0c-0.1,0.2-0.3,0.3-0.4,0.3
			c-0.1,0.1-0.1,0.2-0.1,0.4c-0.1,0-0.1,0-0.2,0.1c-0.1,0.2-0.2,0.4-0.3,0.7c-0.1,0.3-0.2,0.6-0.1,0.8c-0.1,0.2-0.2,0.4-0.2,0.7
			c0,0.2-0.2,0.5-0.5,0.7c-0.1-0.2,0-0.5,0.1-0.8c0.1-0.3,0.1-0.5,0-0.8c0.2-0.3,0.3-0.7,0.3-1.1c0-0.5,0.1-0.8,0.3-1.1
			c-0.2,0-0.3,0.1-0.4,0.5c-0.1,0.3-0.3,0.7-0.4,1.2c-0.1,0.5-0.2,0.9-0.4,1.2c0,0.1,0,0.3-0.1,0.3c-0.1,0.1-0.1,0.1,0.1,0.2
			c-0.1,0.1-0.2,0.1-0.2,0.2c0,0.1-0.1,0.1-0.2,0.1l0-0.4c-0.2,0-0.3,0.1-0.2,0.2c0.1,0.1,0.1,0.2,0,0.3c-0.2,0-0.3,0.1-0.3,0.2
			c-0.1,0-0.1,0-0.1-0.1s-0.1-0.1-0.2-0.1c-0.1,0.2-0.2,0.4-0.3,0.5c-0.1-0.1-0.1-0.3,0-0.4c0-0.1,0.1-0.3,0.1-0.4
			c-0.2,0-0.2,0.1-0.2,0.4c0-0.1-0.1-0.2-0.2-0.3c-0.1-0.1-0.2-0.2-0.1-0.3c-0.2,0.1-0.2,0.1-0.1,0.2c0.1,0,0.1,0.1,0,0.1
			c-0.1,0-0.1,0-0.1,0c0,0-0.1,0-0.1,0c0,0.1-0.1,0.2-0.1,0.4c-0.4,0-0.5,0.2-0.5,0.4c-0.1,0.1-0.2,0.2-0.2,0.2
			c-0.1,0-0.1,0.1-0.2,0.2l-2,0c0-0.1-0.1-0.2-0.3-0.3c-0.3-0.6-0.4-1.1-0.4-1.6c0-0.5,0-1.1,0-1.6c0.2-0.8,0.4-1.7,0.6-2.6
			c0.2-0.9,0.4-1.8,0.7-2.7c0.1-0.2,0.2-0.5,0.3-0.7c0.1-0.2,0.2-0.5,0.3-0.9c0.3-0.8,0.5-1.6,0.7-2.4c0.1-0.1,0.2-0.2,0.3-0.4
			c0.1-0.2,0.1-0.3,0.1-0.5c0.9-2.4,1.7-4.7,2.5-6.9s1.6-4.3,2.5-6.4c0.8-2.1,1.7-4.2,2.6-6.3c0.9-2.1,1.9-4.3,3-6.6
			c0-0.1,0-0.1,0.1-0.2c0.1,0,0,0-0.1-0.1c0.2-0.4,0.5-0.9,0.7-1.4c0.3-0.5,0.5-1,0.7-1.5c0-0.1,0-0.2-0.1-0.2
			c0.3-0.5,0.5-1.1,0.5-1.9c0.1-0.3,0.3-0.5,0.6-0.7c0.2-0.2,0.4-0.5,0.5-0.7c0.3-0.3,0.7-0.6,1.2-0.7l0.7-0.1
			c0.4,0.3,0.9,0.6,1.4,0.9c0.5,0.3,0.9,0.6,1.4,0.9c0.1,0.3,0.3,0.6,0.5,0.7c0.2,0.2,0.4,0.4,0.5,0.7c0.1,0.1,0.1,0.2,0.2,0.2
			c0.1,0,0.1,0.1,0.1,0.2c0.3,0.6,0.5,1.1,0.7,1.6c0.1,0.5,0.1,1.1,0,1.8c-0.1,0.2-0.2,0.5-0.2,0.7c0,0.2-0.1,0.4-0.2,0.5l-0.1,0.1
			c-0.1,0.2-0.2,0.4-0.2,0.7c-0.1,0.2-0.2,0.5-0.5,0.6c-0.1,0.4-0.2,0.7-0.3,0.9c-0.1,0.2-0.3,0.4-0.5,0.8c-0.1,0.3-0.2,0.5-0.2,0.6
			c0,0.1-0.1,0.2-0.3,0.5c-0.1,0.3-0.2,0.5-0.2,0.7c-0.1,0.2-0.1,0.3-0.2,0.4c0,0.1-0.1,0.2-0.2,0.3c-0.1,0.1-0.2,0.3-0.2,0.6
			c-0.2,0.3-0.4,0.6-0.5,0.9c-0.1,0.3-0.3,0.6-0.4,0.8c0.1,0.1,0,0.2-0.1,0.3c-0.1,0-0.1,0.1,0,0.2c-0.4,0.2-0.5,0.5-0.3,0.9
			c-0.3,0.2-0.5,0.5-0.5,0.8c-0.1,0.3-0.2,0.6-0.4,0.9c0.1-0.1,0.3-0.1,0.7-0.1c2.7-2.7,5.5-5.2,8.5-7.6c3-2.4,6.1-4.9,9-7.4
			c0.4-0.5,1-1,1.6-1.4c0.6-0.4,1.2-0.8,1.6-1.4c0.3-0.2,0.6-0.3,1.1-0.5c0.5-0.2,0.9-0.1,1.3,0.1c0.2,0.2,0.3,0.5,0.4,0.7
			c0,0.2,0.1,0.5,0.1,0.7c0,0.4,0.1,0.8,0.3,1.2c0.2,0.4,0.3,0.8,0.4,1.2c0.1,0,0.1,0.1,0.1,0.2c0,0.1,0,0.2,0,0.3c0,0,0,0.1,0,0.1
			c0,0,0,0,0,0.1c0,0.3,0.1,0.7,0.1,1c0,0.3-0.1,0.6-0.3,0.9c0,0,0,0.1,0.1,0.1c0.1,0,0.1,0,0.1,0.1c-0.6,0.9-1.3,1.7-2,2.4
			c-0.8,0.7-1.6,1.4-2.6,2.1c-0.9,0.7-1.9,1.3-2.9,2c-1,0.6-1.9,1.3-2.9,1.9c-0.1,0-0.2,0-0.2-0.1c-0.1,0-0.1-0.1-0.2-0.1
			c-0.1,0.1-0.2,0.2-0.3,0.3c0,0.1-0.2,0.1-0.4,0.1c0,0.1,0,0.1,0,0.1c0,0,0,0,0,0.1c-0.2,0-0.4,0.1-0.5,0.3c0.1,0,0.2,0.1,0.6,0
			c-0.4,0.4-0.8,0.8-1.3,1.2c-0.4,0.4-0.9,0.8-1.3,1.1c-0.3,0.3-0.7,0.6-1.2,1.1c-0.5,0.5-1,0.9-1.5,1.4c-0.5,0.5-1,0.9-1.4,1.3
			c-0.4,0.4-0.8,0.7-1,0.8c0.2,0.6,0.3,0.9,0.3,1.1c0,0.1,0.1,0.2,0.1,0.3c0,0,0.1,0.1,0.1,0.2c0,0.1,0.1,0.3,0.3,0.7
			c0.1,0.4,0.2,0.6,0.3,0.8c0.1,0.1,0.1,0.3,0.2,0.3c0.1,0.1,0.1,0.2,0.2,0.3c0.1,0.1,0.2,0.4,0.4,0.7l0.5,0.8
			c0.2,0.4,0.4,0.8,0.8,1.3c0.3,0.4,0.6,0.9,0.9,1.3c0.2,0.1,0.4,0.2,0.5,0.5c0.1,0.3,0.2,0.5,0.3,0.7c-0.1,0-0.2-0.2-0.3-0.3
			c-0.1,0.2-0.1,0.3,0,0.4c0.1,0.1,0.1,0.2,0,0.4c0.1,0.1,0.1,0.1,0.2,0.1c0-0.1,0.1-0.1,0.1,0c0,0.1,0,0.1-0.1,0.2
			c0.1,0.2,0.2,0.4,0.4,0.7c0.1,0.3,0.2,0.5,0.2,0.7c-0.1,0-0.2,0-0.2-0.1c0-0.1-0.1-0.1-0.2-0.1c0,0.2,0.2,0.5,0.4,0.8
			c0.3,0.3,0.5,0.5,0.8,0.7c0-0.4-0.2-0.7-0.6-0.8c0.3-0.1,0.3-0.1,0.2-0.2c-0.1-0.1-0.1-0.1,0.1-0.2l3,4c0,0.1-0.1,0.2-0.1,0.2
			c0.3,0.2,0.7,0.5,1,0.7c0.3,0.3,0.6,0.5,0.9,0.7l0-0.2c0.1,0.1,0.2,0.3,0.2,0.5c0,0.2,0.2,0.3,0.4,0.3c-0.1,0.2-0.1,0.3,0.1,0.2
			C315.4,122.7,315.5,122.8,315.5,122.9z M288.4,121.7c-0.2,0.4-0.4,0.9-0.5,1.4c-0.1,0.5-0.3,1-0.3,1.4c0.2,0,0.3-0.2,0.3-0.5
			c0.2-0.4,0.3-0.7,0.4-1.1c0.1-0.4,0.2-0.8,0.3-1.2L288.4,121.7z M287.5,122.2c0.2,0,0.2-0.1,0.2-0.2l-0.2,0L287.5,122.2z
			 M287.8,121.4c0.1,0,0.2,0,0.2-0.1c0-0.1,0-0.1-0.1-0.2c0,0,0,0.1-0.1,0.1C287.7,121.3,287.7,121.3,287.8,121.4z M288.7,123
			c0.1,0.2,0.1,0.3,0.1,0.4c-0.1,0.1-0.1,0.2,0,0.3l0.2,0c0-0.1,0-0.3,0.1-0.4c0-0.1,0.1-0.2,0.1-0.3c-0.1,0-0.1-0.1-0.2-0.1
			C288.9,122.9,288.9,123,288.7,123z M288.5,121.5c0.1,0,0.1,0,0.2,0c0-0.1,0-0.1-0.1-0.2c0,0,0,0.1-0.1,0.1
			C288.4,121.4,288.4,121.4,288.5,121.5z M289.3,118.3c0.1,0,0.1,0.1,0,0.3l-0.1,0c0,0.3-0.1,0.6-0.4,0.7c0,0.2,0,0.5-0.1,0.8
			c-0.1,0.3-0.2,0.6-0.3,0.9c0.2,0.1,0.3,0.1,0.4,0c0.1-0.2,0.1-0.3,0-0.6c0-0.1,0.1-0.2,0.3-0.4c0.1-0.2,0.2-0.3,0.1-0.4
			c0.4-0.6,0.6-1.3,0.7-2.1c-0.2,0.1-0.2,0.2-0.3,0.3C289.5,118,289.5,118.2,289.3,118.3z M289,122.6c0.2,0,0.3-0.1,0.3-0.2
			c0-0.1,0.1-0.2,0.1-0.4c-0.2,0.1-0.3,0.1-0.3,0.2C289,122.4,289,122.5,289,122.6z M289.9,116.6c0.2,0,0.3,0,0.3-0.2
			c-0.2,0-0.2,0-0.2,0.1C290,116.5,290,116.5,289.9,116.6z M297.5,102c0.1-0.1,0.2-0.2,0.3-0.4c0.1-0.2,0.1-0.3,0-0.4
			C297.5,101.5,297.4,101.8,297.5,102z M308.6,118.4c0,0.1,0,0.1,0,0.1c0.1,0,0.1-0.1,0.1-0.2L308.6,118.4
			C308.6,118.3,308.6,118.4,308.6,118.4z M308.5,113.9l-0.2-0.2l-0.1,0C308.2,113.9,308.3,113.9,308.5,113.9z M310,98.6
			c0.2-0.3,0.6-0.4,1.1-0.6c0.5-0.1,0.7-0.3,0.8-0.7c-0.4,0.2-0.8,0.3-1.1,0.5S310.2,98.3,310,98.6z"/>
		<path class="st12" d="M332.9,105.9c0,0,0,0.1,0,0.1c0,0,0,0.1,0.1,0.2c0,0.1,0,0.1-0.1,0c0-0.1-0.1-0.2-0.1-0.2
			c0.1,0.2,0.1,0.4,0.1,0.5c0,0.1,0,0.2,0.1,0.4l0-0.1l0,0.1c0-0.1-0.1-0.2-0.1-0.3c0-0.1,0-0.2-0.1-0.3c-0.1,0.1-0.1,0.3-0.1,0.5
			c0,0.2,0,0.3-0.1,0.3l-0.1,0.4c-0.1-0.1-0.1-0.2-0.1-0.1c0,0.1,0,0.1-0.1,0c0,0,0-0.1-0.1-0.2c0,0,0-0.1,0-0.1
			c0,0.1,0,0.2-0.1,0.3c-0.1,0.1,0,0.3,0.1,0.7c-0.2-0.2-0.3-0.2-0.2-0.1c0.1,0.2,0.1,0.2,0,0.1c0,0.2,0,0.4-0.1,0.5
			c-0.1,0.1-0.2,0.3-0.2,0.4l0-0.1c0,0.4,0,0.8-0.2,0.9c-0.2,0.2-0.3,0.4-0.3,0.8c-0.1-0.2-0.1-0.3-0.1-0.4c0-0.1,0-0.2,0-0.3
			c-0.1,0.2-0.1,0.4-0.1,0.7c0,0.3-0.1,0.5-0.2,0.6c0,0.1,0,0.3,0,0.4c0,0.1,0,0.2-0.1,0.2l-0.2-0.3c-0.2,0.2-0.2,0.5-0.2,0.9
			c0,0.3-0.1,0.6-0.4,0.8c0,0.2,0,0.4-0.1,0.5c-0.1,0.2-0.1,0.3-0.2,0.4c-0.1-0.1-0.1-0.1-0.2-0.1c-0.1,0-0.1,0.1,0,0.3
			c-0.1-0.1-0.1,0-0.1,0.1c0.1,0.2,0,0.2-0.2,0l0.1,0.2c0,0.1,0,0.1,0,0c0,0-0.1-0.1-0.1,0c0.1,0.1,0.1,0.2,0.1,0.2
			c0,0,0,0.1,0.1,0.2c-0.1-0.1-0.1-0.1-0.1,0c0,0.1,0,0.1,0,0.1c0,0.4,0,0.6-0.2,0.6c-0.2,0-0.3,0.2-0.2,0.6
			c-0.2,0.8-0.4,1.4-0.7,2.1c-0.3,0.6-0.5,1.4-0.6,2.3c-0.1,0.3-0.2,0.6-0.4,0.8c-0.1,0.3-0.2,0.6-0.2,0.9c0,0.4-0.1,0.6-0.2,0.8
			c-0.1,0.2-0.1,0.4-0.1,0.7c0,0.3-0.1,0.5-0.4,0.5c-0.2,0-0.5-0.1-0.7-0.3c-0.8-0.6-1.5-1.1-2-1.5c-0.5-0.4-1.2-1-2.1-1.7
			c0,0-0.1,0-0.1-0.1c0-0.1-0.1-0.1-0.2-0.1c0-0.1-0.1-0.2-0.1-0.2c0,0-0.1-0.1-0.1-0.2c0-0.1-0.1-0.3-0.1-0.4
			c-0.1-0.1-0.1-0.2-0.1-0.3c-0.2-0.5-0.3-0.9-0.3-1.2c0-0.3-0.1-0.7-0.3-1.1c0.1-0.4,0.1-0.8,0.1-1.2c0-0.5,0.1-0.8,0.2-1
			c0.2-0.6,0.4-1.3,0.6-2.2c0.1-0.2,0.3-0.6,0.5-1.2c0.2-0.6,0.4-1.3,0.7-2c0.3-0.7,0.5-1.5,0.8-2.3c0.3-0.8,0.5-1.6,0.8-2.3
			c0.2-0.7,0.4-1.3,0.6-1.8c0.2-0.5,0.3-0.8,0.3-0.9c0.8-2,1.7-4.1,2.5-6.1c0.8-2,1.8-3.9,3-5.7c0.4-0.7,0.8-1.4,1.3-2.1
			c0.5-0.7,1.1-1.2,1.9-1.6c0.5-0.2,1,0,1.6,0.5c0.4,0.6,0.6,1,0.7,1.4c0.1,0.3,0.3,0.8,0.7,1.3c0,0.1-0.1,0.2-0.1,0.3
			c-0.1,0.1,0,0.2,0.1,0.5c0.1,0.2,0.2,0.4,0.3,0.5c0.1,0.1,0.2,0.2,0.3,0.4c0,0.1,0,0.2,0,0.4c0,0.2-0.1,0.3-0.3,0.2
			c0,0.1,0.1,0.2,0.2,0.3c0.1,0.1,0.1,0.2,0.2,0.3c-0.1,0-0.1,0-0.2,0c-0.1-0.1-0.1-0.1-0.1-0.1c0,0.1-0.1,0.1-0.2,0
			c-0.1-0.2-0.1-0.1-0.1,0.1c0.1-0.1,0.2,0,0.3,0.3c0.1,0,0.1,0,0.1,0c0,0,0-0.1,0-0.1c0-0.1,0-0.1,0,0l0,0.1
			c0.1-0.2,0.2-0.2,0.5-0.1c0.3,0.1,0.4,0,0.4-0.3c0.2,0.4,0.2,0.6,0,0.7c-0.1,0-0.2,0.1-0.3,0.3l0.2,0.3c-0.1-0.1-0.2-0.1-0.2-0.1
			c0,0-0.1,0-0.3-0.1c0.1,0.1,0.1,0.2,0,0.2c-0.1,0-0.1,0-0.1,0.1l0.1,0.1c0-0.1,0-0.2,0.1-0.2c0.2,0.2,0.2,0.3,0.2,0.3
			c0-0.1,0,0,0.1,0c-0.1,0.1,0,0.3,0.4,0.6c-0.1-0.1-0.2-0.1-0.1,0c0.1,0.1,0.1,0.2,0.2,0.1c0.1,0,0.1-0.1,0.2-0.2
			c0.1-0.1,0.2-0.1,0.3,0c-0.1,0.1-0.1,0.2,0.1,0.4c-0.3-0.2-0.5-0.1-0.5,0.1c0,0.3-0.1,0.4-0.3,0.3c0,0.1-0.1,0.2-0.2,0.2
			c-0.1,0-0.1,0.1,0,0.4c0,0.1,0.1,0.2,0.2,0.2c0.1,0,0.2,0.1,0.2,0.2c-0.2,0.1-0.4,0.2-0.4,0.3c-0.1,0.1-0.1,0.2-0.3,0.4l0-0.1
			c-0.1,0-0.1,0.1-0.1,0.3c0,0.2-0.1,0.2-0.4,0.1c0-0.1,0-0.1,0.2-0.2l-0.1-0.1c0.1,0.1,0.2,0,0.2-0.1c0-0.2,0-0.3,0-0.4
			c-0.1-0.1-0.2,0-0.2,0.1c0,0.1-0.1,0.3,0,0.5l0-0.1c-0.1,0.2-0.2,0.4-0.2,0.4c0,0.1,0,0.1,0,0c0,0,0,0,0.1,0.1
			c0,0.2,0,0.3-0.1,0.4c-0.1-0.2-0.1-0.2,0-0.2c0.1,0,0.1-0.1,0-0.2l-0.1,0c-0.1,0.1-0.2,0.2-0.3,0.4c-0.1,0.1-0.2,0.3-0.2,0.4
			c-0.2,0.1-0.3,0.4-0.1,0.8l-0.1,0c0,0.2,0,0.3-0.1,0.4c-0.1,0.1-0.2,0.2-0.2,0.4l-0.1-0.1c0,0.1,0,0.3,0.1,0.4c0,0.1,0,0.2,0,0.3
			c-0.1-0.1-0.2-0.3-0.2-0.4c0-0.1-0.1-0.2-0.1-0.3c-0.1,0-0.1,0.1-0.1,0.3c0,0.1,0,0.2-0.1,0.2c0.2,0.2,0.3,0.2,0.2,0
			c-0.1-0.2-0.1-0.2,0-0.1c0.2,0.4,0.2,0.7,0,0.8c-0.1,0-0.1,0-0.1,0c0,0,0,0,0,0.1c-0.1-0.2-0.1-0.3,0-0.3c0.1,0,0-0.2-0.1-0.4
			c-0.1,0,0,0.1,0,0.3c-0.1,0-0.1,0-0.2-0.1c0-0.1-0.1-0.2-0.2-0.2c0,0.1,0,0.2,0,0.4c0,0.2,0,0.3,0,0.5l0,0.1
			c-0.1,0.2-0.2,0.3-0.3,0.5c-0.1,0.1-0.1,0.4-0.1,0.7c0.1,0.1,0.1,0.2,0.1,0.4c-0.1-0.1-0.1-0.1-0.1-0.2s0-0.1,0-0.2
			c-0.1-0.1-0.2-0.1-0.2,0c0,0.1,0,0.1-0.1,0c0-0.1,0-0.1,0.1-0.2c0,0,0-0.2-0.1-0.3c0,0.1,0,0.2-0.1,0.3c-0.1,0,0,0.2,0.1,0.3
			c-0.2,0-0.2,0.2-0.2,0.4c-0.1-0.1-0.1-0.1,0,0.1c0.1,0.2,0.1,0.2,0,0.1c-0.1-0.1-0.1-0.1-0.1-0.2c0,0,0-0.1-0.1-0.2
			c-0.1-0.1-0.2,0-0.2,0.2c-0.1,0,0,0.1,0.1,0.3l0.1-0.1l0.1,0.4c-0.1-0.1-0.1-0.1-0.1-0.2c0-0.1,0-0.1-0.1,0c0,0,0,0.1,0.1,0.3
			c0,0,0,0,0-0.1c0,0,0-0.1,0-0.1c0.1,0.1,0.1,0.2,0.1,0.2c0,0,0,0.1,0,0c0.1,0.1,0.1,0.1,0.1,0c0-0.1,0-0.1,0.1,0
			c0,0.1,0,0.2-0.1,0.2c0,0.1,0,0.1-0.1,0.2c-0.1-0.1-0.2-0.2-0.1-0.3c0-0.1,0-0.2-0.1-0.2c0,0.1,0,0.2-0.1,0.3
			c-0.1,0.1-0.1,0.2-0.1,0.3c-0.1-0.1-0.1-0.1-0.1-0.1c0,0,0,0-0.1-0.1c0,0.1,0,0.3,0.2,0.6c-0.1-0.1-0.2,0,0,0.2
			c0.1,0.2,0.1,0.3-0.1,0.2c0-0.1,0-0.2,0-0.3c0-0.1,0-0.2-0.2-0.4c0,0.1,0,0.2-0.1,0.2c-0.1,0,0,0.1,0.1,0.3
			c-0.1-0.1-0.2-0.1-0.2-0.2c0-0.1,0-0.1-0.1-0.1c0.1,0.1,0.1,0.2,0.1,0.2c0,0.1,0,0-0.2-0.2c0,0,0,0.1,0.1,0.2
			c0.1,0.1,0.1,0.2,0.1,0.2l-0.1-0.2c-0.1,0.1-0.1,0.1-0.1,0.3l-0.1-0.2C332.6,105.6,332.6,105.7,332.9,105.9L332.9,105.9z
			 M337.5,91.1c0,0,0.1-0.1,0.1-0.2c-0.1-0.2-0.2-0.2-0.3,0c0,0.1,0,0.3,0,0.4C337.4,91.2,337.5,91.1,337.5,91.1z M338,91.3
			c-0.1,0-0.1,0-0.1,0c0,0,0,0.1,0.1,0.3C338.2,91.7,338.2,91.6,338,91.3z M338,91.7c0.1,0,0,0,0-0.1
			C337.9,91.6,337.9,91.6,338,91.7c0,0.2,0.1,0.2,0.1,0.2C338,91.8,338,91.7,338,91.7z M336.7,95.6c0.1,0,0.1-0.1,0-0.3l0.1,0.1
			c0.1-0.1,0.2-0.3,0.2-0.5c0-0.2,0-0.4,0.1-0.4c0.1,0.1,0.1,0.2,0.2,0.3c0,0.1,0.1,0.2,0.1,0.1c0,0.1,0,0.2,0,0.2
			c0,0,0,0.1,0.1,0.2c0.2-0.1,0.3-0.3,0.3-0.6c0-0.3,0-0.5,0-0.7c0.1,0,0.1-0.1,0.1-0.2c0-0.1,0-0.1,0.1-0.1c0.1,0.1,0.2,0.1,0.3,0
			c0.1,0,0-0.2-0.1-0.4c0.1,0,0.1,0,0.1,0.1c0,0.1,0.1,0.1,0.1,0.1c0-0.1-0.1-0.4-0.4-0.9c0-0.1,0-0.3,0.1-0.4c0-0.1,0-0.2,0-0.4
			c0-0.1-0.1-0.2-0.1-0.1c0,0-0.1,0-0.1-0.1c-0.1,0.4-0.2,0.8-0.3,1.3c-0.1,0.4-0.2,0.8-0.3,1l0-0.1c-0.1,0.2-0.2,0.4-0.3,0.6
			c-0.1,0.2-0.1,0.4-0.2,0.7l0.1,0.1l-0.1-0.1l-0.1,0c0,0.1,0,0.2-0.1,0.1c-0.1-0.1-0.1,0-0.1,0.2c0.1,0.1,0.2,0.1,0.2,0.2
			c0,0.1,0.1,0.2,0.1,0.3C336.6,95.7,336.6,95.6,336.7,95.6z M338.6,92.7c0-0.2,0-0.4,0.1-0.5l0-0.1c-0.1,0.1-0.2,0.2-0.3,0.3
			c-0.1,0.1-0.2,0.2-0.2,0.3C338.5,92.9,338.6,92.9,338.6,92.7z M335.8,94.7l-0.1,0.1l0.1,0.2C335.9,95,335.9,94.9,335.8,94.7z
			 M336.5,96.2c0.1-0.1,0-0.3-0.3-0.7c0,0.2,0,0.3,0,0.5c0,0.1,0,0.3,0.1,0.6C336.3,96.5,336.4,96.3,336.5,96.2z M337.4,95.5
			c0-0.1-0.1-0.2-0.2-0.3c0,0.2,0.1,0.4,0.2,0.5C337.4,95.7,337.4,95.7,337.4,95.5z M336.1,96.4c0-0.1,0-0.1-0.1-0.2
			c-0.1,0.1-0.2,0.2-0.3,0.3c-0.1,0.1-0.1,0.2-0.1,0.5c-0.1,0-0.1,0.1-0.1,0.1c0,0,0.1,0.2,0.2,0.4c-0.1,0-0.2-0.1-0.2-0.2
			c-0.1-0.1-0.1-0.1-0.1-0.1l0.2,0.3c-0.2,0.1-0.2,0.3-0.2,0.5c0,0.2-0.1,0.4-0.2,0.5l0,0.1l-0.1,0.1c-0.2,0.7-0.3,1.3-0.6,1.9
			l0.1,0.2c0,0,0,0.1,0,0.1c0.1,0,0.2-0.1,0.3-0.3c0.1-0.2,0.1-0.4,0-0.6c0.2-0.1,0.3-0.3,0.3-0.6c0-0.3,0.1-0.6,0.1-0.9
			c0.1,0.1,0.2,0.2,0.1,0.3c0,0.1,0,0.2,0.1,0.3c0-0.3,0-0.5,0.1-0.6c0.1-0.1,0.2-0.3,0.2-0.5l-0.2-0.3c0-0.1,0.1-0.1,0.1,0
			c0,0.1,0.1,0.2,0.2,0.3c0-0.2,0.1-0.5,0.1-0.7c0-0.2,0.1-0.4,0.2-0.6C336.2,96.6,336.2,96.5,336.1,96.4z M337.1,96.2
			c0-0.1,0-0.1,0-0.2c-0.1,0-0.1,0.1-0.1,0.1c0,0,0,0.1,0,0.1C337,96.2,337,96.2,337.1,96.2z M336.9,96.7c0.1-0.1,0.1-0.3,0-0.6
			c-0.1,0-0.1,0.1-0.1,0.2c0,0.1,0,0.1-0.1-0.1c0,0.2,0,0.4-0.1,0.6c0,0.2,0,0.5,0.1,0.8c0-0.2,0-0.3,0.1-0.3c0.1,0,0.1,0,0.2,0
			C336.8,97.1,336.7,96.8,336.9,96.7z M339.9,94.5c-0.1,0.1-0.1,0.1-0.1,0.2C340,94.7,340,94.6,339.9,94.5z M334,99.6
			c0-0.2,0-0.5,0.1-0.7c-0.1-0.1-0.2,0-0.2,0.1c0,0.1,0,0.2,0,0.4c0,0,0,0.1,0.1,0.2c0,0.1,0,0.1-0.1,0.1c-0.1,0-0.1,0-0.1,0
			c0,0,0,0.1,0.1,0.2c0.1,0.1,0,0.1-0.2-0.1c0.1,0.2,0.1,0.4,0.1,0.4c0,0.1,0.1,0.2,0.1,0.3c0.1-0.1,0.1-0.2,0-0.4
			C334,100,334,99.8,334,99.6z M339.2,96.3l-0.1,0l0.1,0.1C339.2,96.4,339.2,96.4,339.2,96.3z M334.3,99.9c0,0.1,0,0.2,0,0.2
			c0,0,0,0.1,0.1,0.3C334.5,100.2,334.4,100.1,334.3,99.9z M333.8,101.1c0-0.1,0-0.3,0.1-0.4c-0.1-0.1-0.2,0-0.2,0.1
			c0,0.2-0.1,0.3-0.1,0.4C333.7,101.3,333.8,101.2,333.8,101.1z M334.2,100.4c-0.1,0.1-0.1,0.1,0,0.2
			C334.4,100.7,334.4,100.6,334.2,100.4z M333,101.3c-0.1,0-0.1,0-0.1,0.1c0,0.1,0,0.2,0.1,0.2C333,101.3,333,101.2,333,101.3z
			 M333.9,101.7c0.1,0,0.1-0.2-0.1-0.6c0,0.2,0,0.4,0,0.4c-0.1,0-0.1,0.2-0.1,0.4c-0.1-0.2-0.2-0.3-0.1-0.3c0,0,0,0,0-0.1
			c-0.1,0.1,0,0.3,0.2,0.8l-0.1,0l0-0.1c-0.1,0,0,0.2,0.2,0.5c-0.1,0-0.1,0-0.2-0.1c0-0.1-0.1-0.1-0.1,0c-0.1,0.2-0.2,0.5-0.3,0.9
			c-0.1,0.4-0.1,0.7-0.3,1c0.1,0,0.1-0.1,0.2-0.3c0.1-0.2,0.1-0.3,0.2-0.4l0.1-0.1l0,0.1c0.1-0.2,0.2-0.3,0.3-0.6
			c0-0.2,0.1-0.4,0.3-0.7l0-0.1c0-0.1,0-0.1-0.1-0.2C333.8,101.8,333.8,101.7,333.9,101.7z M334.1,100.9c-0.1,0,0,0.1,0.1,0.3
			C334.1,101.2,334.1,101.1,334.1,100.9z M334.4,102c0-0.1,0-0.2,0-0.3l0-0.1c0,0.1-0.1,0.1-0.1,0.2c0,0.1,0,0.2,0.1,0.4
			C334.4,102.1,334.4,102,334.4,102z M334.5,102.9c-0.1-0.1-0.1-0.1-0.2,0c0,0.1,0,0.2,0.1,0.3C334.4,103.2,334.5,103,334.5,102.9z
			 M334.1,103.8c0-0.1,0-0.2,0-0.2l-0.1,0c-0.1,0.1-0.1,0.2,0.1,0.5C334.2,104,334.2,103.9,334.1,103.8z M336.5,102
			c-0.1,0.1-0.1,0.2,0,0.3C336.6,102.2,336.6,102.1,336.5,102z M336.1,102.7c0-0.1,0-0.2,0.1-0.4c-0.1,0.1-0.2,0.1-0.2,0.2
			c-0.1,0.1-0.1,0.2,0,0.4C336.1,102.9,336.2,102.8,336.1,102.7z M335.5,103.2L335.5,103.2c0-0.1-0.1-0.1-0.1-0.1c0,0.1,0,0.1,0,0.3
			c0,0,0.1,0,0.1,0c0,0,0.1,0,0.1,0C335.5,103.3,335.5,103.3,335.5,103.2z M334.1,104.7c0-0.1,0-0.2-0.1-0.5c0,0.1,0,0.2-0.1,0.3
			c0,0,0,0.2,0.1,0.5c0,0,0.1,0,0.1,0C334,104.9,334,104.7,334.1,104.7z M334.3,104.2c0.1,0,0,0-0.1-0.2c0,0.1,0,0.1-0.1,0.1
			C334.2,104.1,334.2,104.1,334.3,104.2C334.2,104.2,334.3,104.2,334.3,104.2z M336.2,103.5c0,0,0-0.1-0.1-0.2
			C336.2,103.4,336.2,103.4,336.2,103.5z M334,105.6l-0.1-0.2c0,0.1-0.1,0.2-0.2,0.3c-0.1,0.1-0.1,0.2,0,0.4c-0.1,0-0.1,0-0.1-0.1
			c0-0.1-0.1-0.1-0.1-0.1c0.1,0.3,0.1,0.4,0,0.4c-0.1,0-0.2,0.1-0.2,0.2l0.4,0.6c0.1-0.2,0.1-0.5,0.2-0.7c0-0.3,0.1-0.5,0.2-0.7
			L334,105.6z M333.3,106.8c-0.2,0-0.2,0.3,0,0.7C333.5,107.5,333.5,107.3,333.3,106.8z"/>
		<path class="st12" d="M372.2,82.8C372.1,82.9,372.1,82.9,372.2,82.8c0.1,0,0.1,0.1,0.1,0.1c0,0,0.2,0.1,0.6,0.1
			c-0.1,0.1-0.2,0.1-0.3,0.1c-0.1,0-0.2,0-0.3,0c0,0.2,0.1,0.3,0.2,0.2c0.1-0.1,0.2-0.1,0.1,0c0,0.2,0,0.3-0.2,0.4
			c-0.2,0.1-0.3,0.1-0.4,0.2c0,0,0.1,0,0.2,0c0.1-0.1,0.2-0.1,0.3-0.2c0.1-0.1,0.2-0.1,0.3-0.1c0.1,0,0.1,0,0.1,0.1
			c-0.1,0.1-0.2,0.2-0.2,0.2c-0.1,0-0.2,0.1-0.2,0.2c0,0.1,0,0.2,0.1,0.1c0.1,0,0.1,0,0,0.1c0.1,0.1,0.1,0.1,0.2,0
			c0,0,0.1,0,0.1,0.1c0,0-0.1,0.1-0.2,0c-0.1,0-0.1,0-0.2,0.1c0,0.1,0.1,0.1,0.1,0.1c0,0,0.1,0,0.1,0.1c-0.3,0.2-0.4,0.4-0.2,0.5
			c-0.1,0.1-0.3,0.2-0.5,0.2c-0.2,0-0.3,0.1-0.4,0.2c0,0.1,0,0.1,0,0.1c0.1,0,0.1,0.1,0.1,0.1c-0.2,0.1-0.3,0.2-0.2,0.3
			c0.1,0.1,0.1,0.2,0.1,0.3c0,0.1-0.1,0.3-0.2,0.4c-0.1,0.1-0.2,0.2-0.3,0.3c-0.2,0.2-0.4,0.3-0.7,0.4c-0.3,0-0.6,0.1-0.9,0.1
			c-0.3,0-0.6,0.1-0.8,0.2c-0.3,0.1-0.5,0.1-0.8,0.1c-0.1,0-0.2,0-0.2,0.1c-0.3-0.1-0.6-0.1-1,0c-0.3,0.1-0.6,0.2-1,0.2
			c-0.6,0.1-0.9,0.2-1.1,0.2c0.1,0,0.2,0,0.2,0.1c0,0.1-0.4,0.2-1.2,0.5c-0.3-0.1-0.5,0-0.7,0.1c-0.2,0.1-0.4,0.2-0.7,0.3
			c-0.1,0.5-0.2,0.9-0.2,1.2c0,0.3-0.1,0.6-0.4,1.1c-0.2,0.1-0.3,0.3-0.5,0.6c-0.1,0.3-0.3,0.6-0.6,0.9c0,0-0.1,0.1-0.2,0.1
			c-0.1,0-0.1,0-0.1,0.1c-0.2,0.3-0.3,0.6-0.3,0.8c0,0.2-0.1,0.5-0.3,0.9c-0.1,0.1-0.2,0.4-0.4,0.8c-0.2,0.4-0.3,0.7-0.4,0.8
			c-0.1,0.2-0.2,0.3-0.3,0.4c0,0.1-0.1,0.3-0.2,0.5l-0.6,0.6c-0.1,0.1-0.1,0.3-0.1,0.5c0,0.2-0.1,0.4-0.1,0.5l-0.3,0.3
			c-0.2,0.4-0.5,1-0.7,1.7c-0.3,0.7-0.5,1.4-0.8,2.1c-0.3,0.7-0.6,1.4-0.9,2.1c-0.3,0.7-0.5,1.3-0.7,1.8c-0.1,0.2-0.2,0.5-0.3,0.8
			c-0.1,0.3-0.2,0.6-0.3,0.8c-0.2,0.6-0.5,1.1-0.6,1.6c-0.2,0.5-0.4,1.1-0.6,1.7c-0.4,1.1-0.9,2.3-1.5,3.5c-0.5,1.2-1,2.4-1.3,3.5
			c-0.1,0-0.2,0-0.2,0c0,0-0.1,0-0.2-0.1c-0.3,0.4-0.5,0.9-0.7,1.5c-0.2,0.6-0.4,1.1-0.6,1.7c-0.2,0.6-0.5,1.1-0.7,1.5
			c-0.3,0.4-0.6,0.7-1.1,0.9c-0.1,0-0.2,0-0.3,0c-0.1,0.1-0.3,0-0.3-0.2c0,0-0.1,0-0.1,0.1c0,0-0.1,0.1-0.2,0.1
			c-0.1-0.3-0.2-0.3-0.5-0.1c-0.1,0-0.2-0.1-0.2-0.2c-0.1-0.1-0.1-0.1-0.2-0.1c-0.2,0-0.5,0.1-0.7,0.2c-0.2,0.1-0.4,0.2-0.5,0.5
			c-0.5,0-0.7,0-0.7,0.1c0,0.1-0.1,0.3-0.4,0.7c-0.2,0.1-0.4,0.3-0.6,0.4c-0.2,0.1-0.5,0.1-0.8,0c-0.1-0.3-0.1-0.5-0.2-0.6
			c0-0.1,0-0.3,0-0.4c0-0.1,0.1-0.3,0.1-0.5c0.1-0.2,0.2-0.5,0.3-0.9c0.2-1.3,0.6-2.7,1-4.1c0.4-1.4,0.8-2.7,1.2-4
			c0.5-1.8,1.1-3.8,1.8-6c0.7-2.1,1.5-4.3,2.4-6.4c0.9-2.1,1.7-4.3,2.6-6.3c0.9-2.1,1.6-3.9,2.4-5.5c-0.6,0.2-1.3,0.3-2.1,0.2
			c-0.8,0-1.5,0.2-2,0.7c0,0.1-0.1,0.2-0.2,0.2c-0.1,0-0.2,0.1-0.3,0.2c-0.1,0.1-0.1,0.2-0.1,0.2l0,0.1c-0.1,0.1-0.3,0.1-0.4,0
			c-0.2-0.1-0.3-0.1-0.5,0.1c-0.1,0.2-0.3,0.4-0.6,0.4c-0.3,0-0.6,0-0.9-0.2c0,0-0.1,0-0.1-0.1c0-0.1-0.1-0.1-0.1-0.1
			c-0.1,0-0.2-0.1-0.3-0.1c-0.2-0.1-0.3-0.2-0.4-0.1c-0.1,0.1-0.2,0.1-0.3-0.1c-0.3-0.4-0.5-0.8-0.7-1c-0.2-0.2-0.4-0.5-0.5-0.9
			c-0.3-0.3-0.5-0.6-0.5-0.9c-0.3-0.2-0.5-0.4-0.5-0.5c-0.1-0.1-0.2-0.3-0.4-0.8c-0.5-0.2-0.8-0.5-0.8-1c0-0.5,0.1-1.1,0.4-1.6
			c0.4-0.3,0.7-0.6,1-1c0.3-0.4,0.6-0.7,1-0.9c0.2,0.1,0.4,0.1,0.6,0.1c0.2,0,0.4,0,0.6-0.1c0.2,0.1,0.5,0.2,0.7,0.2
			c0.2,0.1,0.4,0,0.6-0.1c0.6-0.1,1.1-0.2,1.6-0.3c0.5-0.1,1-0.2,1.5-0.3c0.2-0.1,0.5-0.1,0.7-0.1c0.2,0,0.5,0,0.7-0.1
			c0.5-0.1,0.9-0.2,1.2-0.3c0.3,0,0.6-0.1,0.8-0.1c0.2,0,0.5-0.1,0.8-0.1c0.3,0,0.7,0,1.2-0.1c0.6-0.1,1.3-0.2,1.9-0.2
			c0.6-0.1,1.2-0.1,1.9-0.2c0.2-0.1,0.4-0.2,0.6-0.2c0.2,0,0.4,0,0.6-0.1c0.7-0.1,1.2-0.2,1.5-0.2c0.3,0,0.6-0.1,0.9-0.1
			c0.3,0,0.6-0.1,0.9-0.1c0.3,0,0.9-0.1,1.6-0.2c0.1,0,0.1-0.1,0.1,0c0,0,0,0.1,0.1,0.1c0.2-0.1,0.4-0.1,0.6-0.1
			c0.2,0,0.5,0,0.8-0.1c0.3,0,0.5-0.1,0.6-0.1c0.1,0,0.2,0,0.3,0c0.1,0,0.2,0,0.3,0c0.1,0,0.3,0,0.5,0c0.6,0,1.1-0.1,1.4-0.1
			c0.3,0,0.6,0,0.9,0c0.3,0,0.5,0,0.9,0c0.3,0,0.8,0,1.4,0c0.3,0,0.4,0,0.5,0s0.2,0.1,0.5,0.2c0.1,0.1,0.3,0.1,0.4,0.3
			c0.2,0.1,0.2,0.3,0.1,0.4c0,0,0,0.1,0,0.2c0,0.1,0,0.1,0,0.2c0,0-0.1,0-0.2,0c-0.1,0-0.2,0-0.2,0l0,0.2L372.2,82.8
			c0-0.1,0-0.1-0.1-0.1c0.1,0.1,0.2,0.1,0.2,0.1C372.4,82.8,372.3,82.8,372.2,82.8z M371.9,79.5C371.9,79.5,371.9,79.5,371.9,79.5
			c-0.1-0.1-0.1-0.1-0.1-0.1l0,0.1L371.9,79.5z"/>
		<g>
			<path class="st12" d="M209.4,85.4c0.2,0.2,0.2,0.5,0.2,0.8l0.2,0c-0.1,0.2-0.1,0.3-0.1,0.3c0,0,0.1,0.1,0.2,0.2
				c0,0.1,0,0.1,0,0.1c0,0,0,0.1-0.1,0.2c0.8,1.8,1.5,3.6,2,5.3c0.5,1.7,1,3.5,1.5,5.4c-0.1,0.8,0,1.4,0.3,2
				c0.2,0.6,0.4,1.2,0.3,1.8c0,0.2-0.1,0.4-0.1,0.6c0,0.2,0,0.3,0.1,0.5c0,0.2,0,0.4,0,0.5c0,0.1,0.1,0.3,0.2,0.4
				c0.1-0.1,0.1-0.2,0-0.4c-0.1-0.1-0.1-0.3,0-0.4c0.1,0.1,0.1,0.2,0.1,0.3c0,0.1,0,0.2,0,0.3c0.7-0.8,1.4-1.6,2.1-2.4
				c0.6-0.8,1.4-1.6,2.1-2.4c0.6-0.9,1.2-1.6,1.9-2.3c0.7-0.7,1.3-1.5,1.9-2.2c0.3-0.2,0.5-0.5,0.7-0.8c0.2-0.3,0.4-0.5,0.6-0.8
				c0.1-0.2,0.2-0.2,0.3-0.2c0.3-0.4,0.7-0.9,1.1-1.3c0.4-0.4,0.8-0.9,1.3-1.3c0.3-0.4,0.6-0.8,0.9-1.3c0.3-0.5,0.6-1,1-1.3
				c0.1-0.3,0.2-0.6,0.3-0.7c0.2-0.1,0.3-0.3,0.3-0.7c0.2-0.1,0.3-0.2,0.5-0.3c0.2-0.1,0.4-0.2,0.6-0.3c0.4-0.2,0.7-0.4,1-0.4
				c0.3,0,0.5,0.1,0.7,0.3c0.1,0.2,0.3,0.5,0.4,0.8c0,0.2,0.1,0.4,0.2,0.5c0.1,0.1,0.2,0.2,0.3,0.4c0.1,0.4,0.3,1,0.4,1.8
				c0.1,0.8,0.2,1.4,0.3,2c0,0.2,0,0.4,0,0.8c0,0.1,0,0.3,0.1,0.6c0,0.6,0,1.1,0,1.5c0,0.4-0.1,0.8-0.2,1.3c-0.3,0.6-0.5,1-0.9,1.4
				c-0.3,0.3-0.7,0.6-1,0.9c-0.2,0.3-0.5,0.6-0.8,0.8c-0.3,0.3-0.6,0.5-0.8,0.8c-0.1,0.1-0.2,0.2-0.3,0.3c-0.1,0.1-0.2,0.2-0.4,0.3
				c-0.3,0.4-0.6,0.7-1,1.1c-0.4,0.3-0.8,0.8-1.1,1.3c-0.3,0.1-0.6,0.4-0.8,0.8c-0.2,0.4-0.5,0.6-0.9,0.8c0,0.1,0,0.2-0.1,0.2
				c-0.1,0-0.1,0-0.1,0.1c-1.4,1.7-2.8,3.4-4.2,5.2c-1.4,1.7-2.8,3.4-4.3,4.9c0,0.1-0.1,0.2-0.1,0.2c0,0-0.1,0.1,0,0.2
				c-0.6,0.7-1,1.1-1.1,1.2c-0.1,0.1-0.2,0.2-0.2,0.2c0,0-0.1,0.1-0.2,0.2c-0.1,0.1-0.5,0.5-1.1,1.2c-0.2,0.4-0.4,0.7-0.7,1
				c-0.3,0.3-0.5,0.5-0.8,0.8c-0.1,0-0.1,0-0.1,0.1c0,0.1-0.1,0.1-0.1,0.1l-0.2,0.1c-0.4,0-0.6,0.1-0.7,0.5
				c-0.1,0.3-0.2,0.6-0.4,0.7c-0.2,0.1-0.4,0.3-0.5,0.6c0,0.1,0,0.2,0,0.4l-0.6,0.4c-0.4,0.8-0.8,1.5-1.3,2c-0.5,0.6-1,1.2-1.4,1.8
				c0,0.2,0,0.3,0,0.3c-0.1,0-0.2,0.1-0.2,0.3c0,0.1-0.1,0.3-0.2,0.4c-0.1-0.1-0.1-0.1-0.1,0c0,0.1,0,0.1,0,0.1
				c-0.1,0-0.2,0.1-0.2,0.3c-0.5,0.5-0.8,1.1-1.1,1.8l-0.2,0.1c-0.2,0.4-0.4,0.7-0.6,0.9c-0.2,0.2-0.4,0.5-0.6,0.9
				c-0.4,0.4-0.7,0.8-0.9,1.3c-0.2,0.5-0.6,0.8-1,1c-0.1,0.1-0.1,0.2-0.1,0.2c-0.1-0.1-0.1-0.2-0.1-0.3c0-0.1,0-0.2-0.1-0.3
				c-0.1,0-0.2,0.1-0.2,0.2c-0.1,0.1-0.1,0.1-0.2,0.2c0.3-0.4,0.7-1,1-1.9c-0.3,0.4-0.7,0.8-1,1.4c-0.3,0.5-0.7,0.9-1.2,1.1
				c0-0.2,0.1-0.3,0.2-0.4s0.1-0.2,0.2-0.4c-0.2,0.2-0.4,0.5-0.6,0.9c-0.2,0.4-0.4,0.8-0.6,1.2c-0.2,0-0.3,0.1-0.4,0.2
				c-0.1,0.1-0.1,0.3-0.3,0.4c-0.1-0.2,0-0.3,0-0.5c0.1-0.1,0.2-0.3,0.2-0.5c-0.1,0-0.2,0.2-0.3,0.5c-0.1,0-0.2,0.1-0.3,0.3
				c-0.1,0.2-0.2,0.3-0.4,0.3c0-0.2,0.1-0.3,0.2-0.5c0.1-0.2,0.1-0.3,0-0.5c0.1-0.2,0.2-0.3,0.3-0.3c0.1,0,0.1-0.1,0-0.3
				c-0.1,0-0.1,0.1-0.2,0.3c-0.1,0.1-0.1,0.1-0.2,0c0,0.3-0.2,0.6-0.4,0.8c-0.1,0-0.1-0.1-0.1-0.1c0-0.1,0-0.1-0.1,0
				c-0.2,0.2-0.4,0.4-0.5,0.7c-0.1,0.3-0.3,0.4-0.5,0.4c-0.1,0-0.1,0.1-0.1,0.2c0,0.1,0,0.2-0.1,0.1c-0.1,0-0.1-0.1-0.1-0.2
				c0-0.1,0-0.2-0.1-0.3c-0.3,0.2-0.6,0.1-0.8-0.1c-0.2-0.2-0.4-0.4-0.6-0.5c-0.1-0.9,0-1.7,0.4-2.4c0.4-0.7,0.7-1.3,1-1.9
				c0.1-0.1,0.1-0.2,0.1-0.3c1.1-2,2.3-3.8,3.4-5.5c1.2-1.7,2.3-3.5,3.3-5.3c0.1,0.1,0.1,0.1,0.1-0.1c0-0.1,0.1-0.1,0.1-0.1
				c0.2-0.3,0.3-0.5,0.4-0.6c0.2-0.4,0.3-0.7,0.5-0.9c0.2-0.2,0.4-0.5,0.6-0.8c0.8-1.1,1.4-2,1.8-2.5c0.4-0.5,0.7-1,0.9-1.4
				c0.3-0.4,0.6-0.9,0.9-1.4c0.3-0.5,1-1.3,1.8-2.5c-0.2-0.6-0.5-1.3-0.8-1.9c-0.3-0.6-0.6-1.3-0.8-2c-0.3-0.7-0.5-1.4-0.7-2.2
				c-0.2-0.7-0.4-1.4-0.6-2.1c-0.7-2.5-1.4-4.9-2.3-7.3c-0.8-2.4-1.4-4.9-1.8-7.5c-0.1-0.1-0.1-0.3-0.1-0.5c0-0.2,0-0.4-0.1-0.7
				c0-0.1-0.1-0.2-0.1-0.4c0-0.1-0.1-0.2,0-0.4c0-0.1,0-0.2,0.1-0.3c0.1-0.2,0.2-0.3,0.4-0.5c0.1-0.2,0.3-0.3,0.4-0.4
				c0.1-0.1,0.2-0.2,0.2-0.3c0-0.1,0-0.2,0-0.3c0-0.1,0-0.2,0-0.3c0.1-0.3,0.2-0.5,0.4-0.6c0.2,0.1,0.4,0.1,0.7,0.1
				c0.3,0,0.7,0,1-0.1c0.4-0.1,0.7-0.1,1-0.1c0.3,0,0.6,0,0.8,0.1c0,0.1,0,0.2,0.1,0.2c0.1,0,0.1,0,0,0c0.3,0.1,0.7,0.3,1,0.7
				c0.3,0.3,0.6,0.7,0.8,1c-0.1,0.2-0.2,0.2-0.2,0.2c-0.1,0-0.2-0.1-0.3-0.1l0,0.3c0-0.2,0-0.3-0.1-0.3c-0.2,0.2-0.1,0.3,0.1,0.4
				c0.2,0.1,0.3,0.3,0.3,0.6c0.1,0,0.1,0,0-0.1c-0.1-0.1,0-0.1,0.1-0.2c0.1,0.1,0.1,0.2,0.2,0.4c0,0.2,0,0.4-0.1,0.5
				c0,0.2,0,0.3,0.2,0.3l0.1-0.1c0,0.2-0.1,0.3-0.1,0.3c0.1,0,0.2,0.1,0.2,0.2c0,0.1,0.1,0.2,0.3,0.2c0-0.1,0-0.2-0.1-0.4
				C209.5,85.7,209.4,85.6,209.4,85.4z M199.7,131.5l-0.8,1.1c0.3-0.1,0.4-0.3,0.5-0.4C199.5,131.9,199.6,131.7,199.7,131.5z
				 M199.9,130.2c0,0.1,0.1,0.1,0.1,0l0-0.2c0.1,0,0.2-0.1,0.2-0.3c0-0.2,0-0.4,0.1-0.5c0.1-0.1,0.2-0.2,0.3-0.3
				c0.1-0.1,0.2-0.1,0.3-0.1c0-0.1,0.1-0.3,0.4-0.5c0-0.1,0-0.2,0-0.4c0-0.1,0.1-0.3,0.2-0.3c0,0.1-0.1,0.2-0.1,0.2
				c-0.1,0-0.1,0.1,0,0.3c0.2-0.1,0.2-0.2,0.2-0.4c0-0.2,0-0.4,0.2-0.4c0,0.1,0,0.2-0.1,0.2c0,0,0,0-0.1,0.2
				c0.2-0.1,0.4-0.2,0.6-0.4c0.1-0.2,0.3-0.4,0.5-0.5c-0.3,0.4-0.6,0.9-0.9,1.4c-0.3,0.5-0.6,0.9-1,1.3c0,0.2-0.2,0.3-0.3,0.3
				c0,0.2-0.1,0.4-0.2,0.5c-0.1,0.1-0.1,0.3-0.1,0.5c-0.1,0.1-0.1,0.2-0.2,0.2c-0.1,0-0.1,0.1,0,0.3c0.2-0.1,0.3-0.2,0.4-0.3
				c0.1-0.2,0.2-0.3,0.2-0.5c0.1-0.3,0.3-0.5,0.4-0.6c0.1-0.1,0.2-0.4,0.3-0.6c0.9-0.9,1.7-2.1,2.4-3.5c0.1,0,0.2-0.1,0.2-0.1
				c0-0.1,0.1-0.1,0.2-0.1c0-0.3,0.1-0.4,0.2-0.4c0.2-0.4,0.4-0.7,0.6-0.9c0.2-0.2,0.4-0.6,0.4-1.1c0.1,0,0.2-0.1,0.3-0.1
				c0.1,0,0.2-0.1,0.2-0.3c0.2-0.1,0.3-0.3,0.3-0.6c-0.1,0-0.2,0-0.4,0.1c-0.2,0.1-0.3,0.2-0.4,0.2c0-0.2,0.1-0.3,0.3-0.5
				c0.2-0.2,0.2-0.4,0-0.6c-0.9,1.5-1.9,2.9-2.9,4.3c-1,1.4-2,2.9-2.9,4.4c0,0.2-0.1,0.3-0.2,0.4c-0.1,0.1-0.2,0.3-0.2,0.4
				c0.1,0,0.2,0,0.2-0.2C199.7,130.4,199.8,130.3,199.9,130.2z M200.6,127.3c0.3-0.3,0.5-0.7,0.6-1c0.2-0.3,0.4-0.7,0.6-1
				c0.4-0.7,0.9-1.3,1.4-1.8c0.5-0.6,0.9-1.2,1.3-1.9c-0.2,0.1-0.3,0.2-0.4,0.5c-0.1,0.2-0.3,0.4-0.5,0.4c-0.2,0.5-0.4,0.9-0.7,1.2
				c-0.3,0.3-0.5,0.6-0.7,1.1c-0.3,0.2-0.5,0.5-0.6,0.8c-0.2,0.3-0.4,0.6-0.7,0.8c-0.1,0.3-0.1,0.4-0.2,0.5c-0.1,0-0.1,0.1-0.3,0.3
				c0-0.1-0.1-0.1-0.1-0.1c0,0.1-0.1,0.1-0.2,0.1l-0.1,0.1l0,0.3c0.1,0,0.2-0.1,0.3-0.1C200.4,127.1,200.5,127.1,200.6,127.3z
				 M201.6,129.5c-0.1,0.3-0.3,0.5-0.5,0.8c-0.2,0.2-0.4,0.5-0.5,0.8C201.1,130.6,201.4,130.1,201.6,129.5z M202.6,129.3
				c0.2-0.1,0.3-0.3,0.6-0.6c0.2-0.3,0.3-0.6,0.3-0.9c0,0.1-0.1,0.2-0.2,0.2c-0.1,0-0.1,0.1-0.1,0.3c-0.1-0.1-0.1-0.1-0.1,0.1
				c-0.2,0.4-0.4,0.8-0.7,1.1c-0.3,0.3-0.5,0.6-0.6,1.1c0.1-0.2,0.3-0.4,0.4-0.6C202.3,129.8,202.5,129.5,202.6,129.3z M202.2,130.7
				c-0.1,0.1-0.2,0.3-0.4,0.4c-0.1,0.1-0.2,0.3-0.2,0.5c0.1-0.1,0.2-0.2,0.3-0.4C202.2,131.1,202.2,130.9,202.2,130.7z M203.3,126.7
				c-0.2,0.4-0.4,0.8-0.6,1.1c-0.2,0.3-0.4,0.6-0.5,0.9c0.2-0.3,0.4-0.6,0.7-0.8C203.1,127.6,203.3,127.2,203.3,126.7z M203.9,120.8
				c0-0.1,0-0.2,0.1-0.2c0.1,0,0.1-0.1,0.1-0.2c-0.4,0.2-0.7,0.6-0.8,1.1c0.1-0.1,0.2-0.2,0.2-0.3
				C203.6,120.9,203.7,120.8,203.9,120.8z M207,122.6c0,0.2,0,0.3,0,0.3c0.2-0.3,0.4-0.6,0.7-0.8c0.3-0.2,0.5-0.6,0.6-1l0.1,0.2
				c0.3-0.3,0.6-0.6,0.7-1c-0.1,0-0.1-0.1-0.1-0.1c0,0,0-0.1-0.1-0.1c-0.3,0.2-0.5,0.5-0.8,0.9c-0.3,0.4-0.5,0.7-0.8,1
				c0-0.2,0-0.2-0.1-0.2c-0.1,0.1-0.1,0-0.2-0.2c-0.2,0.4-0.5,0.8-0.8,1c-0.3,0.3-0.6,0.6-0.9,1c-0.2,0.2-0.3,0.5-0.4,1l-0.2,0.1
				c-0.3,0.3-0.5,0.7-0.7,1c-0.2,0.3-0.4,0.7-0.5,1.1c0.6-0.7,1.2-1.5,1.7-2.2C205.7,124,206.3,123.3,207,122.6z M204.6,126.9
				c-0.1,0.1-0.2,0.2-0.3,0.3c-0.1,0.1-0.1,0.3-0.2,0.5c0.1,0,0.2-0.1,0.4-0.3c0.2-0.2,0.2-0.4,0.1-0.7c0,0,0.1,0,0.1-0.1
				c0-0.1,0.1-0.1,0.2-0.1c0.1,0.1,0.1,0.2,0,0.2c0.2-0.4,0.4-0.7,0.7-1c0.3-0.3,0.5-0.6,0.7-1.1c-0.2,0.1-0.4,0.2-0.5,0.5
				c-0.1,0.3-0.3,0.5-0.6,0.5l0,0.3c-0.2-0.2-0.2-0.2-0.2-0.2c-0.2,0.4-0.5,0.8-0.8,1.1c-0.3,0.3-0.5,0.7-0.6,1.1
				c0.2-0.1,0.4-0.3,0.5-0.6C204.3,127,204.4,126.9,204.6,126.9z M206.4,119.9c-0.1,0.2-0.3,0.5-0.5,0.8c-0.2,0.3-0.2,0.5,0,0.7
				c0.1-0.1,0.2-0.4,0.3-1c0.2-0.2,0.4-0.5,0.5-0.7c0.2-0.2,0.3-0.5,0.5-0.7c0.1-0.1,0.2-0.1,0.3-0.2c0.1,0,0.1-0.1,0.2-0.3
				c-0.2,0.2-0.5,0.4-0.7,0.6C206.8,119.4,206.6,119.6,206.4,119.9z"/>
		</g>
	</g>
</g>
<g id="box">
</g>
<g id="postcard">
</g>
<g id="sticker">
</g>
<g id="preview">
</g>
</svg>
