<?xml version="1.0" encoding="UTF-8"?> <!-- Generator: Adobe Illustrator 25.0.1, SVG Export Plug-In . SVG Version: 6.00 Build 0) --> <svg xmlns="http://www.w3.org/2000/svg" xmlns:xlink="http://www.w3.org/1999/xlink" version="1.1" id="Layer_1" x="0px" y="0px" viewBox="0 0 1324.29 216" style="enable-background:new 0 0 1324.29 216;" xml:space="preserve"> <style type="text/css"> .st0{enable-background:new ;} .st1{fill:#3B3B3B;} .st2{fill:url(#Path_456_1_);} .st3{fill:#FFFFFF;} .st4{fill:#343434;} </style> <g> <g class="st0"> <path class="st1" d="M386.36,93.25c0,21.52-2.95,36.97-9.37,47.04l18.23,13.89l-11.98,14.41l-21.18-15.97 c-4.17,1.56-9.03,2.26-14.41,2.26c-25.34,0-37.67-18.4-37.67-61.96c0-42.35,14.41-59.36,38.53-59.36 C374.21,33.54,386.36,52.46,386.36,93.25z M331.51,92.73c0,27.95,4.34,44.43,16.66,44.43c13.02,0,16.66-15.27,16.66-44.43 c0-27.25-3.99-41.48-16.66-41.48S331.51,66.52,331.51,92.73z"></path> <path class="st1" d="M464.29,126.4c0,13.02,0,21.7,0.17,26.38h-19.79c-0.52-2.78-0.69-6.77-0.69-9.89 c-3.99,8.33-10.59,11.45-20.13,11.45c-12.67,0-22.39-6.25-22.39-26.9V62.87h20.66v59.88c0,8.85,1.91,13.89,9.55,13.89 c7.81,0,11.98-4.34,11.98-18.57v-55.2h20.66V126.4z"></path> <path class="st1" d="M541.53,133.17c0,4.51,0.35,15.62,0.69,19.61h-18.75c-0.35-1.74-0.87-5.73-0.87-8.33 c-3.47,5.73-9.37,9.89-20.31,9.89c-17.18,0-23.95-13.71-23.95-26.56c0-18.4,12.67-29.68,35.41-29.68c3.12,0,5.38,0,7.46,0.17 v-9.72c0-5.21-0.69-11.46-9.72-11.46c-8.68,0-9.55,5.73-10.07,11.63h-19.79c0.35-13.19,6.6-27.25,30.72-27.25 c19.27,0,29.16,8.68,29.16,25.86V133.17z M521.74,113.38c-2.26-0.35-3.99-0.35-6.77-0.35c-11.8,0-16.14,5.55-16.14,12.84 c0,5.38,2.6,11.63,10.41,11.63c10.59,0,12.5-7.98,12.5-21.18V113.38z"></path> <path class="st1" d="M560.1,93.42c0-14.75,0-24.13-0.17-30.55h19.79c0.17,1.56,0.52,5.38,0.52,14.93 c3.3-10.24,11.28-16.32,23.43-16.32v23.26c-14.58-0.35-22.91,3.82-22.91,20.83v47.21H560.1V93.42z"></path> <path class="st1" d="M635.42,101.23c6.25-11.28,14.58-25.69,22.04-38.36h22.74c-7.12,11.28-14.06,21.7-21.7,32.98l23.09,56.93 h-23.43l-13.71-40.27c-2.43,3.47-6.77,9.89-9.03,13.19v27.08h-20.66V29.55h20.66V101.23z"></path> <path class="st1" d="M794.41,93.25c0,42.87-11.63,61.62-38.71,61.62c-25.34,0-37.67-18.4-37.67-61.96 c0-42.35,14.41-59.36,38.53-59.36C782.26,33.54,794.41,52.46,794.41,93.25z M739.56,92.73c0,27.95,4.34,44.43,16.66,44.43 c13.02,0,16.66-15.27,16.66-44.43c0-27.25-3.99-41.48-16.66-41.48S739.56,66.52,739.56,92.73z"></path> <path class="st1" d="M810.37,29.55h20.66V71.9c3.12-5.55,9.03-10.41,19.96-10.41c18.4,0,26.21,16.14,26.21,43.91 c0,28.47-6.94,48.95-28.99,48.95c-11.63,0-15.45-5.73-17.88-10.24c0,2.08-0.17,6.07-0.35,8.68H810.2 c0.17-5.9,0.17-16.14,0.17-25.34V29.55z M843.87,79.01c-10.07,0-13.54,7.29-13.54,29.33c0,21,2.95,28.47,12.67,28.47 c9.89,0,13.37-9.37,13.37-31.07C856.37,88.39,853.94,79.01,843.87,79.01z"></path> <path class="st1" d="M906.53,125.53c0,6.25,3.12,13.02,11.63,13.02c6.77,0,10.07-3.65,10.07-9.55c0-6.25-2.78-9.72-13.36-13.71 c-21.18-7.81-26.56-15.27-26.56-28.29c0-12.15,7.81-25.69,29.16-25.69c23.61,0,29.33,16.14,29.33,27.95h-19.79 c0-3.3-0.35-12.15-10.07-12.15c-5.38,0-8.33,3.47-8.33,8.33c0,5.73,3.12,8.33,13.89,12.32c19.09,7.12,26.21,14.23,26.21,28.81 c0,17.71-11.11,27.77-31.42,27.77c-21.52,0-31.07-12.84-31.07-28.81H906.53z"></path> <path class="st1" d="M1022.12,122.41c-0.35,7.12-2.08,31.94-31.76,31.94c-25.69,0-32.11-20.65-32.11-47.21 c0-23.78,7.98-45.82,33.33-45.82c29.33,0,30.38,25.34,30.55,30.9h-21c-0.17-3.65-0.52-13.89-9.72-13.89 c-9.2,0-12.15,10.24-12.15,28.99c0,19.26,2.78,29.85,11.8,29.85c9.72,0,10.41-9.72,10.93-14.75H1022.12z"></path> <path class="st1" d="M1097.27,126.4c0,13.02,0,21.7,0.17,26.38h-19.79c-0.52-2.78-0.69-6.77-0.69-9.89 c-3.99,8.33-10.59,11.45-20.13,11.45c-12.67,0-22.39-6.25-22.39-26.9V62.87h20.66v59.88c0,8.85,1.91,13.89,9.55,13.89 c7.81,0,11.98-4.34,11.98-18.57v-55.2h20.65V126.4z"></path> <path class="st1" d="M1113.59,93.42c0-14.75,0-24.13-0.17-30.55h19.79c0.17,1.56,0.52,5.38,0.52,14.93 c3.3-10.24,11.28-16.32,23.43-16.32v23.26c-14.58-0.35-22.91,3.82-22.91,20.83v47.21h-20.65V93.42z"></path> <path class="st1" d="M1168.26,62.87h20.66v89.91h-20.66V62.87z M1168.43,50.03V29.55h20.65v20.48H1168.43z"></path> <path class="st1" d="M1199.5,62.87h11.8V40.48h20.65v22.39h13.89v17.01h-13.89v49.29c0,5.21,1.04,8.16,7.46,8.16 c2.08,0,3.47,0,5.21-0.35v15.1c-3.82,1.74-9.55,1.91-12.67,1.91c-14.41,0-20.65-5.38-20.65-21.52V79.88h-11.8V62.87z"></path> <path class="st1" d="M1275.34,62.87c6.6,28.99,12.84,53.46,13.89,64.22h0.17c2.08-12.67,7.98-38.88,14.06-64.22h20.83l-25.86,93.9 c-7.64,28.12-17.7,29.68-30.2,29.68c-2.26,0-5.55-0.17-8.16-0.69v-17.53c1.22,0.17,4.51,0.35,6.6,0.35 c7.81,0,10.59-3.99,13.02-14.58l-27.08-91.13H1275.34z"></path> </g> <g id="Layer_1_1_" transform="translate(524 171.429)"> <linearGradient id="Path_456_1_" gradientUnits="userSpaceOnUse" x1="-824.0318" y1="431.7118" x2="-822.3729" y2="431.7118" gradientTransform="matrix(81.7166 0 0 -81.3396 66853.2578 35051.9453)"> <stop offset="0" style="stop-color:#9F1D21"></stop> <stop offset="1" style="stop-color:#CC3627"></stop> </linearGradient> <path id="Path_456" class="st2" d="M-348.24-63.43c0.03,15.01-4.96,29.6-14.16,41.46l-0.23,0.3c-0.05,0.07-0.11,0.15-0.17,0.21 c-3.33,4.22-7.14,8.03-11.37,11.35c-0.37,0.29-0.74,0.57-1.11,0.85c-3.75,2.84-7.79,5.28-12.05,7.27l-0.8,0.38 c-1.42,0.64-2.87,1.24-4.34,1.78l0,0c-0.48,0.18-0.94,0.33-1.42,0.52c-1.43,0.52-2.88,0.94-4.35,1.34 c-0.57,0.16-1.14,0.3-1.71,0.44l-1.23,0.29l-0.37,0.08c-36.46,8.44-72.86-14.28-81.29-50.74s14.28-72.86,50.74-81.29 c0.67-0.16,1.32-0.31,1.99-0.45l0.86-0.18c0.48-0.1,0.98-0.19,1.47-0.28c7.88-1.4,15.94-1.4,23.82,0c0.54,0.1,1.08,0.2,1.62,0.31 c0.58,0.12,1.16,0.24,1.73,0.38C-369.95-122.28-348.24-94.93-348.24-63.43z"></path> <path id="Path_457" class="st3" d="M-372.4-63.81c-0.56-5.9-21.33-24.93-43.42-25.11h-0.41c-21.99,0.2-42.71,19.22-43.37,25.11 l-0.05,0.26l0.05,0.6c0.65,5.85,21.38,24.87,43.42,25.01h0.35c22.09-0.15,42.86-19.16,43.47-25.37L-372.4-63.81z M-441.19-54.88 c-3.52-2.46-6.75-5.32-9.61-8.52c2.98-3.48,13.02-13.11,26.49-16.34c-2.64,1.66-4.81,3.97-6.31,6.71 c-1.57,2.92-2.38,6.18-2.37,9.48c-0.12,6.92,3.56,13.34,9.58,16.74C-429.81-48.27-435.87-51.02-441.19-54.88z M-408.77-61.94 c0.01,0.24-0.01,0.47-0.05,0.71c0,0.16-0.05,0.35-0.05,0.52c-0.05,0.25-0.1,0.45-0.15,0.65c-0.33,1.23-1,2.34-1.92,3.23 c-0.13,0.19-0.31,0.35-0.52,0.46c-0.29,0.28-0.61,0.51-0.96,0.71c-0.11,0.09-0.23,0.15-0.35,0.2c-0.15,0.05-0.3,0.15-0.45,0.2 c-0.33,0.14-0.66,0.26-1,0.35c-0.18,0.06-0.37,0.09-0.56,0.1c-0.17,0.05-0.34,0.08-0.52,0.1c-0.25,0-0.46,0.05-0.71,0.05h-0.15 c-0.2,0-0.46-0.05-0.65-0.05s-0.35-0.05-0.52-0.05c-0.04,0-0.07-0.02-0.1-0.05c-0.18-0.01-0.35-0.04-0.52-0.1 c-0.14-0.03-0.28-0.08-0.41-0.15c-0.21-0.02-0.42-0.09-0.6-0.2c-0.18-0.06-0.36-0.15-0.52-0.25c-0.67-0.32-1.27-0.76-1.77-1.31 c-0.75-0.74-1.34-1.64-1.71-2.62c-0.09-0.19-0.16-0.39-0.2-0.6c-0.05-0.2-0.1-0.46-0.15-0.65c-0.04-0.17-0.06-0.34-0.05-0.52 c-0.04-0.23-0.06-0.47-0.05-0.71v-0.45c0-0.07,0.02-0.14,0.05-0.2v-0.45c0.05-0.15,0.05-0.3,0.1-0.41 c0.01-0.16,0.04-0.31,0.1-0.45c0.14-0.55,0.36-1.07,0.65-1.56c1.28,2.4,3.79,3.88,6.51,3.82c2.67-0.03,5.12-1.49,6.4-3.84 c0.26,0.47,0.45,0.98,0.56,1.51c0.08,0.16,0.14,0.34,0.15,0.52c0.05,0.13,0.06,0.27,0.05,0.41c0.04,0.15,0.06,0.3,0.05,0.45 c0.04,0.2,0.05,0.4,0.05,0.61L-408.77-61.94z M-390.59-55.03c-5.24,3.8-11.17,6.54-17.45,8.07c9.17-5.64,12.04-17.64,6.4-26.81 c-1.46-2.38-3.42-4.41-5.73-5.97c6.12,1.6,11.88,4.34,16.99,8.07c3.37,2.41,6.47,5.18,9.23,8.27c-2.8,3.16-5.98,5.97-9.45,8.37 L-390.59-55.03z"></path> <g transform="matrix(1, 0, 0, 1, -9, -6)"> <path id="Path_458-2" class="st4" d="M-407-165.43c-59.65,0-108,48.35-108,108s48.35,108,108,108s108-48.35,108-108l0,0 C-299-117.08-347.35-165.43-407-165.43z M-343.06-7.98l-0.28,0.35c-0.06,0.09-0.13,0.17-0.2,0.26 c-3.97,5.03-8.52,9.57-13.56,13.53c-0.44,0.34-0.88,0.69-1.33,1.04c-4.48,3.38-9.3,6.28-14.38,8.65 c-0.31,0.16-0.64,0.3-0.96,0.45c-1.7,0.77-3.42,1.48-5.19,2.12l0,0c-0.57,0.21-1.13,0.41-1.7,0.6c-1.71,0.59-3.44,1.12-5.19,1.59 c-0.69,0.18-1.37,0.35-2.08,0.52c-0.48,0.12-0.98,0.23-1.47,0.33l-0.44,0.09c-43.47,10.16-86.94-16.84-97.1-60.31 c-10.16-43.47,16.84-86.94,60.31-97.1c0.11-0.03,0.23-0.05,0.34-0.08c0.78-0.19,1.57-0.36,2.37-0.51l1.04-0.22 c0.58-0.12,1.16-0.23,1.75-0.33c9.4-1.65,19.02-1.64,28.42,0.03c0.64,0.11,1.29,0.24,1.93,0.37c0.64,0.14,1.38,0.29,2.08,0.45 c43.48,10.12,70.52,53.58,60.4,97.06C-330.93-27.77-335.97-17.17-343.06-7.98L-343.06-7.98z"></path> </g> </g> </g> </svg> 