<?xml version="1.0" encoding="UTF-8"?> <svg xmlns="http://www.w3.org/2000/svg" id="Layer_1" data-name="Layer 1" viewBox="0 0 579.16 250.9"><defs><style>.cls-1{fill:#b01116;}.cls-2{fill:#3d3d3d;fill-rule:evenodd;}</style></defs><polygon class="cls-1" points="274.22 131.99 395.04 0 354.56 99.14 378.8 99.14 242.34 250.9 313.48 131.99 274.22 131.99"></polygon><path class="cls-2" d="M579.16,173.77H567.3v-25H545.84v24.85H534V113.45H545.8V138h21.46V113.4h11.9Z"></path><path class="cls-2" d="M0,126.38c.23-1,.4-2,.67-3,1.49-5.2,5.1-7.93,10-9.16a34.94,34.94,0,0,1,11.16-.72c4.25.32,8.49.77,12.72,1.18a7.2,7.2,0,0,1,.86.2c-.1,1-.24,2-.35,3-1.94-.22-3.78-.49-5.63-.62-4.57-.29-9.17-.61-13.75-.7a16.89,16.89,0,0,0-5.1,1C6.16,119,3.68,122.29,3.4,127a28.06,28.06,0,0,0,.46,6.85,8.29,8.29,0,0,0,6.26,6.72c3.44,1,7,1.55,10.45,2.38,2.64.63,5.32,1.2,7.89,2.09,4.95,1.73,7.66,5.46,8.07,10.87a31.84,31.84,0,0,1-.59,9.69c-1.46,6.26-5.35,9.74-11.32,10.9a39.41,39.41,0,0,1-10.68.37c-4.49-.31-8.95-.76-13.58-1.17.09-1.09.16-2.09.29-3.22.94.11,1.83.23,2.73.3,5.31.41,10.59.87,15.88,1.12a17.65,17.65,0,0,0,5.25-.67c5-1.35,7.91-5,8.58-10.51a23.32,23.32,0,0,0-.11-8,8.48,8.48,0,0,0-4.58-6.13c-2.83-1.43-5.89-1.92-8.94-2.54-3.44-.69-6.9-1.27-10.26-2.26-5.4-1.58-8.47-5.41-9-11.29a1.54,1.54,0,0,0-.17-.45Z"></path><path class="cls-2" d="M415,124.06v14h20.45v10.54H415V163h25.54v10.64H403.19v-60.2h37.33v10.61Z"></path><path class="cls-2" d="M505.86,114.74c-.13,3.33-.22,6.49-.35,9.78-1.63-.23-3.18-.43-4.74-.57-4.27-.43-8.53-1-12.82-.59-4.49.44-7,2.5-7.9,7.08A62.61,62.61,0,0,0,479,140a71.22,71.22,0,0,0,.66,15.15c.07.44.17.88.27,1.32,1.19,4.74,3.77,7.14,8.48,7.24,4.13.09,8.29-.29,12.42-.5,1.55-.08,3.1-.34,4.83-.54V172.8c-2.07.34-4.21.77-6.38,1.1a61.07,61.07,0,0,1-13.84.71c-4.47-.4-8.67-1.51-12.08-4.79-2.81-2.73-4.25-6.25-5.16-10.06a60.47,60.47,0,0,1-1.39-12.94c-.13-5.91-.15-11.83,1-17.67a37,37,0,0,1,2.4-7.72c2.54-5.49,7.2-7.84,12.77-8.67,6.5-1,12.89-.08,19.26,1.15C503.41,114.16,504.59,114.45,505.86,114.74Z"></path><path class="cls-2" d="M361.62,173.67H349.88V124.26h-1.17c-4.4,0-8.83,0-13.24,0-.85,0-1.08-.24-1.05-1.09.05-3.17,0-6.36,0-9.64H376.9v10.73H361.62Z"></path><path class="cls-2" d="M209.5,117.57v58.77h-3V114.43c2.28,0,4.57,0,6.9,0,.24,0,.55.55.73.89q8.55,17.72,17.07,35.47,5,10.47,10.09,21c.84,1.75.92,1.81,3,1.42V114.48h3v62h-2.81c-1.11,0-2.23-.09-3.35,0a1.46,1.46,0,0,1-1.58-1c-4.19-8.86-8.49-17.72-12.77-26.56q-7.25-15-14.44-30C211.57,117.26,211.57,117.26,209.5,117.57Z"></path><path class="cls-2" d="M298.65,148.73H286v-3h15.81v3.51q0,12.33,0,24.66c0,.58.05,1.07-.75,1.21-6.3,1-12.58,2.09-18.95,2.07-4.55,0-8.88-1-12.64-3.79s-5.93-7.14-7.09-11.84a67.92,67.92,0,0,1-1.61-18.22,65.35,65.35,0,0,1,1.39-13.16c1-4.26,2.55-8.24,5.67-11.32a18.18,18.18,0,0,1,11.23-5c6.35-.73,12.57.29,18.79,1.28,1.32.2,2.61.5,3.93.76-.08,1-.14,2-.2,2.84-4-.57-7.89-1.24-11.81-1.69a39.22,39.22,0,0,0-11.6.07c-6.51,1.21-10.46,5.31-12.34,11.78a50.44,50.44,0,0,0-1.73,13.33,75,75,0,0,0,.93,16.39,29.94,29.94,0,0,0,1.48,5.38c2.35,6.26,7,9.35,13.26,10,5.42.54,10.76-.17,16.07-1,1-.15,1.89-.32,2.86-.49Z"></path><path class="cls-2" d="M90.6,176.44c.92-3.15,1.77-6.08,2.64-9q7.67-25.91,15.27-51.8c.29-1,.67-1.27,1.64-1.24,2.26.09,4.56.08,6.83,0a1.15,1.15,0,0,1,1.35,1Q127,145,135.76,174.52c.15.57.33,1.14.54,1.88a18.65,18.65,0,0,1-2.71,0c-.27-.05-.58-.6-.69-1q-2.49-8.4-4.88-16.86c-.27-.93-.63-1.16-1.53-1.14q-13.08,0-26.15,0c-.85,0-1.17.2-1.4,1-1.6,5.65-3.27,11.24-4.87,16.86-.24.87-.56,1.26-1.46,1.15A14.86,14.86,0,0,0,90.6,176.44Zm9.64-22.2h26.45c-3.65-12.33-7.24-24.56-10.86-36.75h-4.72C107.49,129.73,103.89,141.94,100.24,154.24Z"></path><path class="cls-2" d="M49.07,114.48H83.86v2.92H52.19v25.74H78.74v3.09H52.19v27.12H83.86v3H49.06C49.06,155.73,49.07,135.16,49.07,114.48Z"></path><path class="cls-2" d="M146.58,114.48h3v58.87h29v3h-32Z"></path><path class="cls-2" d="M187.68,114.48h3v61.84h-3Z"></path></svg> 