<svg id="Layer_1" data-name="Layer 1" xmlns="http://www.w3.org/2000/svg" viewBox="0 0 300 300"><defs><style>.cls-1{fill:#8c907e;}.cls-2{fill:#fff;}</style></defs><circle class="cls-1" cx="150" cy="150" r="150"/><path class="cls-2" d="M184.36,237.74c9.95,0,18-9.61,18-21.43V82.46c0-8.81,5.9-17.83,14.39-20.2H189.46c-9.76,0-17.7,9.42-17.7,21v134h0c-.12,9-6.17,18-14.86,20.46Z"/><path class="cls-2" d="M110.67,237.74c10,0,18-9.61,18-21.43V82.46c0-8.81,5.9-17.83,14.39-20.2H115.77c-9.76,0-17.7,9.42-17.7,21v134h0c-.12,9-6.17,18-14.86,20.46Z"/><polygon class="cls-2" points="165.61 159.54 165.61 170.67 134.84 197.46 134.84 186.33 165.61 159.54"/><polygon class="cls-2" points="165.61 102.52 165.61 113.65 134.84 140.44 134.84 129.31 165.61 102.52"/><polygon class="cls-2" points="165.61 131.62 165.61 142.85 134.84 170.18 134.84 158.95 165.61 131.62"/></svg>