<svg id="Layer_1" data-name="Layer 1" xmlns="http://www.w3.org/2000/svg" viewBox="0 0 933.45 467.48"><defs><style>.cls-1{fill:#8c907e;}.cls-2{fill:#fff;}.cls-3{fill:#33433d;}</style></defs><circle class="cls-1" cx="496.99" cy="311.76" r="46.98"/><path class="cls-2" d="M507.75,339.24c3.12,0,5.65-3,5.65-6.72V290.61a6.66,6.66,0,0,1,4.51-6.33h-8.56c-3.06,0-5.54,3-5.54,6.58v42h0a6.82,6.82,0,0,1-4.66,6.41Z"/><path class="cls-2" d="M484.68,339.24c3.11,0,5.65-3,5.65-6.72V290.61a6.64,6.64,0,0,1,4.5-6.33h-8.56c-3.06,0-5.54,3-5.54,6.58v42h0a6.82,6.82,0,0,1-4.66,6.41Z"/><polygon class="cls-2" points="501.88 314.75 501.88 318.23 492.24 326.62 492.24 323.13 501.88 314.75"/><polygon class="cls-2" points="501.88 296.89 501.88 300.37 492.24 308.76 492.24 305.28 501.88 296.89"/><path class="cls-3" d="M307.86,174.8a18.92,18.92,0,0,0,6.05,3.11c-.25-.73-.49-1.53-.73-2.38a12.27,12.27,0,0,1-.55-2.66,27.18,27.18,0,0,1-.19-3.38q0-5.87,4.85-13.28a68,68,0,0,1,13.37-14.55,99.83,99.83,0,0,1,20.23-12.91,98.16,98.16,0,0,1,25.63-8.33q-4,5.49-8.6,12.26c-3.06,4.52-6.13,9.34-9.25,14.47s-6.23,10.44-9.33,15.93-6,11-8.7,16.47a92.87,92.87,0,0,0-14.19,4.22q-6,2.39-8.7,5.12a12.48,12.48,0,0,0-3.11,5.13,18.26,18.26,0,0,0-.92,5.4,7.53,7.53,0,0,0,.74,3.75c.48.86,1.09,1,1.83.37a20.85,20.85,0,0,1,5.95-3.39q4.49-1.92,10.89-3.93a155.29,155.29,0,0,0-5,15.56A52.59,52.59,0,0,0,326.17,225q0,9.71,3.12,14.28t7.14,4.58q3.66,0,4.3-1.74a2.36,2.36,0,0,0-.27-2.65c-.13-.13-.37-.13-.74,0a2.18,2.18,0,0,1-1.19,0,2,2,0,0,1-1.1-1,7,7,0,0,1-.45-3q-.19-8.79,4.3-20.23a195.84,195.84,0,0,1,11.44-23.9,201.82,201.82,0,0,1,20-3,121.54,121.54,0,0,1,19.31-.45,142.17,142.17,0,0,0-7.41,19.49A62.89,62.89,0,0,0,381.83,225q0,9.71,3,14.28t7.23,4.58c2.45,0,3.88-.58,4.31-1.74a2.36,2.36,0,0,0-.28-2.65c-.12-.13-.36-.13-.73,0a2.18,2.18,0,0,1-1.19,0,1.93,1.93,0,0,1-1.1-1,7,7,0,0,1-.46-3q-.18-9.89,4.49-21.33a166.44,166.44,0,0,1,11.62-23,29.61,29.61,0,0,1,4.13,2.1,19,19,0,0,1,3.38,2.66,4.14,4.14,0,0,1,1.28,3c0,1.16.31,1.44.92.83a4.5,4.5,0,0,0,.91-2.11,15.69,15.69,0,0,0,.37-3.66,15.49,15.49,0,0,0-.55-4.12,7.29,7.29,0,0,0-1.83-3.3,22.63,22.63,0,0,0-3.85-3.11q6.22-9.51,12.73-18.12T438,149.9q5.31-6.78,8.69-11.17t3.39-5.49c0-.86-.61-1.84-1.83-2.93a22.91,22.91,0,0,0-4.3-3,50.26,50.26,0,0,0-4.85-2.38,10.61,10.61,0,0,0-3.3-1c-1,0-2.84,1.46-5.58,4.39a137.63,137.63,0,0,0-9.62,11.81q-5.49,7.41-11.71,17.12t-11.72,20.14a100.16,100.16,0,0,0-17.12-1.92,139.15,139.15,0,0,0-18.22.64q7.14-11.36,14.65-21.88t13.64-18.86q6.13-8.33,10.07-13.73t3.94-6.5c0-.85-.61-1.86-1.83-3A21,21,0,0,0,398,109a51.77,51.77,0,0,0-4.86-2.39,10.47,10.47,0,0,0-3.29-1,104.88,104.88,0,0,0-33.05,5.22,112.28,112.28,0,0,0-28,13.45,79.06,79.06,0,0,0-19.5,18.13Q302,152.27,302,161.61a16.15,16.15,0,0,0,1.82,8.24A18.7,18.7,0,0,0,307.86,174.8Z"/><path class="cls-3" d="M558.32,210.86q3.84-3.47,7.14-6.59l1.5-1.42a52.16,52.16,0,0,0-.58,7.46,25.88,25.88,0,0,0,.27,3.58,12.59,12.59,0,0,0,1.1,3.66,8.44,8.44,0,0,0,2.11,2.84,4.87,4.87,0,0,0,3.29,1.09c1.46,0,3.51-1,6.13-2.93a94.68,94.68,0,0,0,8.06-6.77q4.11-3.84,7.69-7.51c1.47-1.51,2.67-2.71,3.61-3.62,0,.42,0,.83,0,1.24q0,8.43,4.48,14a14.8,14.8,0,0,0,12.18,5.58,31.49,31.49,0,0,0,13.18-3,65.25,65.25,0,0,0,12.27-7.32A78.39,78.39,0,0,0,650.87,202a86.3,86.3,0,0,0,7-8.52,21.11,21.11,0,0,0,1.46-2.47,12.19,12.19,0,0,0,1.19-3c.18-.85,0-1.31-.64-1.37s-1.89.7-3.84,2.28-4.46,3.73-7.14,6a78.82,78.82,0,0,1-8.7,6.51,44.34,44.34,0,0,1-9.8,4.76,20.3,20.3,0,0,1-10.25.82,5.1,5.1,0,0,1-3.94-2.56,8.51,8.51,0,0,1-.82-4.49,17.86,17.86,0,0,1,1.1-4.94,22.1,22.1,0,0,1,1.83-3.94,9.68,9.68,0,0,0,3,3.39,8.51,8.51,0,0,0,5.22,1.56,17.59,17.59,0,0,0,9.61-2.85,33.53,33.53,0,0,0,7.87-6.86,39.87,39.87,0,0,0,5.4-8.14,16.42,16.42,0,0,0,2-6.87q0-7-3.94-10.07a14.43,14.43,0,0,0-9.24-3.11q-5,0-11.72,3.75a59.94,59.94,0,0,0-13,9.89,61.61,61.61,0,0,0-10.62,14c-.35.62-.67,1.24-1,1.86-.58.52-1.63,1.43-3.15,2.72q-3,2.56-6.59,5.31t-6.5,4.76c-1.95,1.34-3,1.83-3.11,1.46a226.57,226.57,0,0,1,12.81-31.58q6.78-13.27,12.36-22.15c2.56-4.07,4.81-7.47,6.76-10.24a8.58,8.58,0,0,1-.26,1.45c-.24.91-.52,1.8-.82,2.65s-.27,1.47.09,1.83.89.37,1.56,0a6.67,6.67,0,0,0,2-1.83,13.07,13.07,0,0,0,1.74-3,9.09,9.09,0,0,0,.73-3.57,6.2,6.2,0,0,0-1-3.08c1.38-1.94,2.06-3.24,2.06-3.88a4.22,4.22,0,0,0-1.37-2.74,16.41,16.41,0,0,0-3.3-2.66,29.48,29.48,0,0,0-3.84-2,8.3,8.3,0,0,0-2.84-.83c-.94,0-2.6,1.44-5,4.28a30.67,30.67,0,0,0-8.95.49c.86-1.1,1.53-2,2-2.57a9.13,9.13,0,0,0,1-1.46,2,2,0,0,0,.28-.82v-.83a4,4,0,0,0-1.56-2.75,22,22,0,0,0-3.66-2.74,22.44,22.44,0,0,0-4.21-2,11,11,0,0,0-3-.73c-1.1,0-2.65,1-4.67,3.08s-5.1,6.1-9.24,12.13c-3.55.49-6.78.85-9.71,1.09s-5.13.36-6.59.36c-2.56,0-4.12-.36-4.67-1.1a2.68,2.68,0,0,1-.36-2.56,19.38,19.38,0,0,1,1.19-2.93,2.13,2.13,0,0,0,0-2.38q-.37-.36-1.56.09a8.06,8.06,0,0,0-2.47,1.65,10.92,10.92,0,0,0-2.29,3.2,10.63,10.63,0,0,0-1,4.78,10.76,10.76,0,0,0,1.47,5.85,10.94,10.94,0,0,0,3.93,3.71,19.16,19.16,0,0,0,5.77,2,35.45,35.45,0,0,0,7,.65h.18q-4.93,8.43-9.79,17.67t-8.61,18.4c-1.8,4.39-3.33,8.69-4.63,12.92l-5.07,4q-3.57,2.83-8,5.95a140.61,140.61,0,0,1,.09-15.48q.45-6.85,3.2-9.61,5.13-5.12,6.14-8.42c.66-2.2.55-3.9-.37-5.12a7,7,0,0,0-4.3-2.47,25,25,0,0,0-5.31-.65,9.57,9.57,0,0,0-3.21.73A14.42,14.42,0,0,0,519.6,161a27.19,27.19,0,0,0-3.75,3.76,21.39,21.39,0,0,0-3.12,5.12,164.55,164.55,0,0,1-10.34,13.55,69.93,69.93,0,0,1-10.34,10.25,6.84,6.84,0,0,0-1.43,1.41l-2.23,1.8q-3.3,2.65-6.32,4.94c-2,1.53-3.39,2.59-4.12,3.21a67.28,67.28,0,0,1,5.67-12.91q3.66-6.49,7.33-12t6.31-9.34q2.65-3.84,2.66-4.76a4.52,4.52,0,0,0-1.19-2.75,13.11,13.11,0,0,0-3-2.65,17,17,0,0,0-4.21-1.93,16.43,16.43,0,0,0-4.76-.73q-1.47,0-4.86,3.39t-7.87,8.6q-4.49,5.22-9.52,11.17t-9.61,11.17a103.15,103.15,0,0,1-8.33,8.6q-3.75,3.39-5.58,3.39c-.86,0-1-.85-.28-2.56a58.5,58.5,0,0,1,3.11-6.41c1.41-2.56,3.05-5.37,4.95-8.42s3.69-5.92,5.4-8.61,3.14-5,4.3-6.86a16,16,0,0,0,1.74-3.2,6.34,6.34,0,0,0-1.37-3.85,15.84,15.84,0,0,0-8.06-5.58,17,17,0,0,0-5-.83c-.74,0-1.77.76-3.12,2.29a53.28,53.28,0,0,0-4.48,6.13q-2.47,3.85-5.13,8.88a112.63,112.63,0,0,0-4.85,10.53,83.45,83.45,0,0,0-3.57,11.08,44.41,44.41,0,0,0-1.37,10.53,15.5,15.5,0,0,0,1.09,6,21.06,21.06,0,0,0,2.47,4.48,13.87,13.87,0,0,0,2.75,2.84,4.24,4.24,0,0,0,2.11,1,15.2,15.2,0,0,0,7.5-2.48,64.31,64.31,0,0,0,8.89-6.41,113.77,113.77,0,0,0,9.33-8.87q4.66-4.95,8.7-10.07-.92,3.66-1.56,7.14a36.22,36.22,0,0,0-.64,6.59,31.06,31.06,0,0,0,.64,7,15.74,15.74,0,0,0,1.56,4.31,7,7,0,0,0,1.83,2.2,3,3,0,0,0,1.65.64q1.83,0,5.77-2.84t8.32-6.5q4.39-3.66,8.43-7.23c2.68-2.38,4.58-4.12,5.67-5.22a18.81,18.81,0,0,0,3-3.61L503,194q4.39-4.4,8.05-8.79c.12,3.54.22,7.39.28,11.54s0,8.18-.09,12.08a62.16,62.16,0,0,1-6.59,2.38,21.43,21.43,0,0,1-6.05.92,10.84,10.84,0,0,1-3.48-.46,14.46,14.46,0,0,1-2.1-.92,5.89,5.89,0,0,1-1.28-.91,1.38,1.38,0,0,0-1-.46c-.36,0-.79.58-1.28,1.74a6.41,6.41,0,0,0-.36,3.75,5.13,5.13,0,0,0-2.84,1.47,5.26,5.26,0,0,0-1.29,2.19,2.61,2.61,0,0,0,.28,2,2.15,2.15,0,0,0,2,.91q1.65,0,3.85,3.48t4.94,7.6a52.73,52.73,0,0,0,6.14,7.6c2.25,2.31,4.66,3.48,7.23,3.48q5.85,0,9.33-2.75a17.94,17.94,0,0,0,5.4-7.32,37.15,37.15,0,0,0,2.57-10.44,112.81,112.81,0,0,0,.64-12.08q3.84-2.94,7.23-5.86c.88-.76,1.7-1.49,2.49-2.21a52.69,52.69,0,0,0-.57,7.52,26,26,0,0,0,.28,3.57,11.51,11.51,0,0,0,1.1,3.57,8.64,8.64,0,0,0,2.1,2.75,4.88,4.88,0,0,0,3.3,1.09,3.24,3.24,0,0,0,1.28-.18,1.67,1.67,0,0,0,.73-.18,28.29,28.29,0,0,0,5.58-3.85Q554.47,214.34,558.32,210.86Zm67.37-30a47.59,47.59,0,0,1,5.22-4.85,27.68,27.68,0,0,1,5.13-3.3,10.5,10.5,0,0,1,4.48-1.19c1.22,0,1.38.73.46,2.2a24.35,24.35,0,0,1-4.48,4.94,47.38,47.38,0,0,1-7.33,5.22,22.47,22.47,0,0,1-8.24,3A47.28,47.28,0,0,1,625.69,180.84Zm-56.75-15.29a215.59,215.59,0,0,1,15.74-25.72c3.18-.37,6.41-.76,9.71-1.19l.13,0q-4.24,6.75-8.83,15.21-5.22,9.61-9.52,19.59a166.53,166.53,0,0,0-5.93,15.92c-.45.38-1.06.86-1.85,1.48l-4.85,3.75-6.14,4.76c-2.19,1.71-4.27,3.29-6.22,4.76Q560.69,181,568.94,165.55Zm-60.78,62a2.28,2.28,0,0,1-2,.73,5.58,5.58,0,0,1-2.38-1.19,20.21,20.21,0,0,1-2.56-2.47c-.86-1-1.71-2-2.57-3.12h1.65a32.4,32.4,0,0,0,10.25-1.64C509.92,224,509.13,226.55,508.16,227.53Z"/><path class="cls-3" d="M221.89,304.58a23,23,0,0,0-3.84-3.11q6.22-9.51,12.72-18.12T242.58,268q5.31-6.78,8.7-11.17t3.38-5.49c0-.86-.61-1.84-1.83-2.93a22.91,22.91,0,0,0-4.3-3,50.26,50.26,0,0,0-4.85-2.38,10.61,10.61,0,0,0-3.3-1c-1,0-2.83,1.46-5.58,4.39a135.9,135.9,0,0,0-9.61,11.81q-5.49,7.41-11.72,17.12t-11.72,20.14a100,100,0,0,0-17.12-1.92,138.94,138.94,0,0,0-18.21.64q7.14-11.36,14.64-21.88t13.64-18.86q6.13-8.32,10.07-13.73c2.62-3.6,3.94-5.77,3.94-6.5s-.61-1.86-1.83-3a21,21,0,0,0-4.3-3.11,51.77,51.77,0,0,0-4.86-2.39,10.68,10.68,0,0,0-3.29-1,104.92,104.92,0,0,0-33.05,5.22,112.11,112.11,0,0,0-28,13.45,79.06,79.06,0,0,0-19.5,18.13q-7.32,9.89-7.32,19.22a16.15,16.15,0,0,0,1.83,8.24,18.5,18.5,0,0,0,4,4.95,18.76,18.76,0,0,0,6,3.11c-.25-.73-.49-1.53-.73-2.38a13.54,13.54,0,0,1-.56-2.66,29.37,29.37,0,0,1-.18-3.38q0-5.87,4.85-13.28a68,68,0,0,1,13.37-14.55,100.11,100.11,0,0,1,20.23-12.91,98.16,98.16,0,0,1,25.63-8.33q-4,5.49-8.6,12.27t-9.25,14.46q-4.67,7.69-9.34,15.93t-8.69,16.48A92.16,92.16,0,0,0,131,301.84q-6,2.39-8.7,5.12a12.48,12.48,0,0,0-3.11,5.13,18.22,18.22,0,0,0-.91,5.4,7.73,7.73,0,0,0,.73,3.76q.72,1.28,1.83.36a20.7,20.7,0,0,1,6-3.39q4.49-1.92,10.89-3.93a157.91,157.91,0,0,0-5,15.56A52.6,52.6,0,0,0,130.72,343q0,9.71,3.11,14.28t7.14,4.58q3.66,0,4.3-1.74a2.36,2.36,0,0,0-.27-2.65c-.13-.13-.37-.13-.74,0a2,2,0,0,1-1.19,0,2,2,0,0,1-1.1-1,7,7,0,0,1-.45-3q-.2-8.79,4.3-20.23a195,195,0,0,1,11.44-23.89,199,199,0,0,1,20.05-3,121.64,121.64,0,0,1,19.32-.45,141.45,141.45,0,0,0-7.42,19.49A62.89,62.89,0,0,0,186.37,343q0,9.71,3,14.28t7.24,4.58q3.66,0,4.3-1.74a2.36,2.36,0,0,0-.27-2.65c-.13-.13-.37-.13-.74,0a2,2,0,0,1-1.19,0,1.93,1.93,0,0,1-1.1-1,7,7,0,0,1-.45-3q-.19-9.89,4.48-21.33a165.42,165.42,0,0,1,11.63-23,29,29,0,0,1,4.12,2.11,18.87,18.87,0,0,1,3.38,2.65,4.12,4.12,0,0,1,1.28,3c0,1.17.31,1.44.92.83a4.59,4.59,0,0,0,.92-2.11,16.3,16.3,0,0,0,.36-3.66,15.49,15.49,0,0,0-.55-4.12A7.29,7.29,0,0,0,221.89,304.58Z"/><path class="cls-3" d="M475.19,245.45a22.3,22.3,0,0,0-7.6-2.66,28.83,28.83,0,0,0-10.44.28c.86-1.1,1.53-2,2-2.57a9.33,9.33,0,0,0,1-1.46,2.16,2.16,0,0,0,.27-.82v-.83a4,4,0,0,0-1.56-2.75,23,23,0,0,0-3.66-2.74,22.44,22.44,0,0,0-4.21-2,11.07,11.07,0,0,0-3-.73c-1.1,0-2.65,1-4.67,3.08s-5.1,6.1-9.25,12.13q-5.31.73-9.7,1.09c-2.93.25-5.12.36-6.59.36-2.56,0-4.12-.36-4.67-1.1a2.68,2.68,0,0,1-.36-2.56,20.4,20.4,0,0,1,1.18-2.93,2.09,2.09,0,0,0,0-2.38c-.24-.24-.76-.21-1.55.09a7.94,7.94,0,0,0-2.47,1.65,11.06,11.06,0,0,0-2.29,3.2,10.49,10.49,0,0,0-1,4.78,10.76,10.76,0,0,0,1.47,5.85,10.94,10.94,0,0,0,3.93,3.71,19.16,19.16,0,0,0,5.77,2,35.37,35.37,0,0,0,7,.65h.18q-4.95,8.43-9.79,17.67t-8.61,18.4c-1.58,3.87-2.95,7.66-4.14,11.4-.17.16-.35.32-.53.5a47.58,47.58,0,0,1-3.75,3.12c-1.89,1.46-3.94,3.08-6.13,4.84s-4.31,3.42-6.32,4.95-3.39,2.59-4.12,3.2A61.12,61.12,0,0,1,387,310.17q3.66-6.5,7.33-12t6.31-9.34q2.65-3.84,2.66-4.76a4.52,4.52,0,0,0-1.19-2.75,15.13,15.13,0,0,0-7.24-4.76,16,16,0,0,0-4.76-.73v-.18a19.46,19.46,0,0,0-4.75.64c-1.72.43-3.42.89-5.13,1.37,2.2-5.37,2.74-9.55,1.65-12.54s-3.79-4.49-8.06-4.49a16.56,16.56,0,0,0-7.51,1.65,19.62,19.62,0,0,0-10.8,17.39c0,2.81.8,4.92,2.38,6.32a14,14,0,0,0,5.86,3c-1.46,2.08-3,4.21-4.58,6.41s-3.26,4.3-5,6.32c-1.2,1.37-2.39,2.66-3.56,3.91a10.89,10.89,0,0,0-1.29,1.12l-3.76,3q-2.83,2.29-6.13,4.85l-6.32,5q-3,2.37-4.11,3.29A59.55,59.55,0,0,1,334.49,310q3.66-6.5,7.32-12t6.32-9.34q2.65-3.84,2.65-4.94a4.49,4.49,0,0,0-1.19-2.75,13.14,13.14,0,0,0-3-2.65,16.79,16.79,0,0,0-4.21-1.92,16,16,0,0,0-4.76-.73c-.73,0-1.74.64-3,1.92a34.16,34.16,0,0,0-4.12,5.22,17.06,17.06,0,0,0-3.2-4.85,7.45,7.45,0,0,0-5.77-2.29A31.77,31.77,0,0,0,305,280.33,56.38,56.38,0,0,0,291.1,292a61.21,61.21,0,0,0-9.71,15.1c-.71,1.6-1.31,3.16-1.82,4.69L278.1,313a78.82,78.82,0,0,1-8.7,6.51,44.27,44.27,0,0,1-9.79,4.76,20.35,20.35,0,0,1-10.26.82,5.1,5.1,0,0,1-3.93-2.56,8.41,8.41,0,0,1-.83-4.49,17.86,17.86,0,0,1,1.1-4.94,22.1,22.1,0,0,1,1.83-3.94,9.78,9.78,0,0,0,3,3.39,8.51,8.51,0,0,0,5.22,1.56,17.69,17.69,0,0,0,9.61-2.84,34.05,34.05,0,0,0,7.88-6.87,40.71,40.71,0,0,0,5.4-8.14,16.53,16.53,0,0,0,2-6.87q0-7-3.94-10.07a14.41,14.41,0,0,0-9.24-3.11q-5,0-11.72,3.75a59.94,59.94,0,0,0-13,9.89,61.61,61.61,0,0,0-10.62,14A32.68,32.68,0,0,0,227.75,320q0,8.43,4.48,14a14.77,14.77,0,0,0,12.18,5.58,31.3,31.3,0,0,0,13.18-3,65.25,65.25,0,0,0,12.27-7.32,81,81,0,0,0,7.88-6.8,19,19,0,0,0,4,12.2,12.81,12.81,0,0,0,10.43,4.94,9.18,9.18,0,0,0,5.31-2.19,45.29,45.29,0,0,0,6.05-5.59q3.1-3.37,6.31-7.6t5.95-8.24a44.11,44.11,0,0,0-1.09,9.53,31.12,31.12,0,0,0,.64,7,15.57,15.57,0,0,0,1.55,4.31,6.48,6.48,0,0,0,1.92,2.2,3.46,3.46,0,0,0,1.74.63q1.65,0,5.59-2.83t8.33-6.5q4.39-3.66,8.42-7.33c2.68-2.44,4.58-4.21,5.68-5.3a17.89,17.89,0,0,0,1.57-1.57q6.45-6.12,11.7-11.89a134.49,134.49,0,0,0,11.81-14.74l4.57-.55,1.84-.37q-1.65,3.48-3.76,8.52c-1.4,3.35-2.78,6.77-4.11,10.25a107.05,107.05,0,0,0-3.39,10.16,31.37,31.37,0,0,0-1.38,8.06,31.73,31.73,0,0,0,.64,7,15.87,15.87,0,0,0,1.56,4.31,7.08,7.08,0,0,0,1.83,2.2,3,3,0,0,0,1.65.63q1.83,0,5.77-2.83t8.32-6.5q4.4-3.66,8.34-7.24,2-1.82,3.41-3.14a54.65,54.65,0,0,0-.76,8.73,24.37,24.37,0,0,0,.28,3.57,11.5,11.5,0,0,0,1.09,3.57,8.69,8.69,0,0,0,2.11,2.75,4.87,4.87,0,0,0,3.29,1.09,3.17,3.17,0,0,0,1.28-.18,1.68,1.68,0,0,0,.74-.18,28.59,28.59,0,0,0,5.58-3.85q3.57-2.93,7.42-6.4t7.14-6.6c2.19-2.07,3.78-3.6,4.76-4.57a17.23,17.23,0,0,0,4-5.4,12.32,12.32,0,0,0,1.28-4.86c0-1.34-.4-2.16-1.19-2.47s-1.93.28-3.39,1.74c-.37.37-1.22,1.07-2.56,2.11l-4.85,3.75-6.14,4.76c-2.2,1.71-4.27,3.29-6.22,4.76q9.51-23.07,17.76-38.54a215.59,215.59,0,0,1,15.74-25.72c3.18-.37,6.41-.76,9.71-1.19l9-1.19c2.68-.37,4.91-.7,6.68-1s2.77-.46,3-.46c1,0,1.49.34,1.56,1a6.84,6.84,0,0,1-.28,2.38c-.24.91-.52,1.8-.82,2.65s-.28,1.47.09,1.83.88.37,1.56,0a6.67,6.67,0,0,0,2-1.83,13.07,13.07,0,0,0,1.74-3,9.27,9.27,0,0,0,.73-3.57,7.22,7.22,0,0,0-1.55-4A15.17,15.17,0,0,0,475.19,245.45ZM254.85,298.91a46.64,46.64,0,0,1,5.21-4.85,27.68,27.68,0,0,1,5.13-3.3,10.53,10.53,0,0,1,4.48-1.19c1.22,0,1.38.74.46,2.2a23.85,23.85,0,0,1-4.49,4.94,46.79,46.79,0,0,1-7.32,5.22,22.29,22.29,0,0,1-8.24,3A46.47,46.47,0,0,1,254.85,298.91Zm72.68-11.72c-.12.13-.86,1.07-2.19,2.84s-3.09,4-5.22,6.59-4.46,5.43-7,8.42-4.92,5.77-7.23,8.33-4.4,4.7-6.23,6.41-3.11,2.56-3.84,2.56c-1.23,0-1.72-.88-1.47-2.65a22.83,22.83,0,0,1,2.38-6.69,67.69,67.69,0,0,1,5.31-8.69,72.23,72.23,0,0,1,7.23-8.7,45.37,45.37,0,0,1,8.15-6.68,15.41,15.41,0,0,1,8.24-2.65,11.09,11.09,0,0,1,2.38.18A2.69,2.69,0,0,1,327.53,287.19Zm44.22-14.1a19.54,19.54,0,0,1-2.11,6.05,4.79,4.79,0,0,1-3.48-1.74,3.75,3.75,0,0,1-.64-2.84,4.8,4.8,0,0,1,1.56-2.66,4.19,4.19,0,0,1,2.93-1.19C371.35,270.71,371.93,271.51,371.75,273.09Z"/><path class="cls-3" d="M661.26,304.58a23,23,0,0,0-3.84-3.11q6.21-9.51,12.72-18.12T682,268q5.29-6.78,8.7-11.17c2.25-2.93,3.39-4.76,3.39-5.49s-.62-1.84-1.84-2.93a23.24,23.24,0,0,0-4.3-3A49.28,49.28,0,0,0,683,243a10.5,10.5,0,0,0-3.29-1q-1.47,0-5.59,4.39a141.72,141.72,0,0,0-9.61,11.81q-5.49,7.41-11.71,17.12t-11.72,20.14A100.16,100.16,0,0,0,624,293.51a139.15,139.15,0,0,0-18.22.64q7.15-11.36,14.65-21.88t13.64-18.86q6.13-8.32,10.07-13.73t3.94-6.5c0-.85-.61-1.86-1.83-3a21,21,0,0,0-4.3-3.11,51.77,51.77,0,0,0-4.86-2.39,10.76,10.76,0,0,0-3.29-1,104.88,104.88,0,0,0-33,5.22,112.28,112.28,0,0,0-28,13.45,79.06,79.06,0,0,0-19.5,18.13q-7.32,9.89-7.32,19.22a16.15,16.15,0,0,0,1.83,8.24,18.5,18.5,0,0,0,4,4.95,18.76,18.76,0,0,0,6,3.11c-.25-.73-.49-1.53-.73-2.38a12.9,12.9,0,0,1-.55-2.66,27.18,27.18,0,0,1-.19-3.38q0-5.87,4.85-13.28a68,68,0,0,1,13.37-14.55,99.83,99.83,0,0,1,20.23-12.91,98.16,98.16,0,0,1,25.63-8.33q-4,5.49-8.6,12.27c-3.06,4.51-6.13,9.33-9.25,14.46s-6.23,10.44-9.33,15.93-6,11-8.7,16.48a92.16,92.16,0,0,0-14.19,4.21q-6,2.39-8.7,5.12a12.48,12.48,0,0,0-3.11,5.13,18.26,18.26,0,0,0-.92,5.4,7.71,7.71,0,0,0,.74,3.76c.48.85,1.1,1,1.83.36a20.85,20.85,0,0,1,5.95-3.39q4.49-1.92,10.89-3.93a155.29,155.29,0,0,0-5,15.56A52.65,52.65,0,0,0,570.08,343q0,9.71,3.12,14.28t7.14,4.58q3.66,0,4.3-1.74a2.36,2.36,0,0,0-.27-2.65c-.13-.13-.37-.13-.74,0a2,2,0,0,1-1.19,0,1.92,1.92,0,0,1-1.09-1,6.8,6.8,0,0,1-.46-3q-.2-8.79,4.3-20.23a195,195,0,0,1,11.44-23.89,199,199,0,0,1,20-3,121.54,121.54,0,0,1,19.31-.45,142.66,142.66,0,0,0-7.41,19.49A62.89,62.89,0,0,0,625.74,343q0,9.71,3,14.28t7.23,4.58c2.45,0,3.88-.58,4.31-1.74a2.36,2.36,0,0,0-.28-2.65c-.12-.13-.36-.13-.73,0a2,2,0,0,1-1.19,0,2,2,0,0,1-1.1-1,7,7,0,0,1-.46-3q-.18-9.89,4.49-21.33a166.44,166.44,0,0,1,11.62-23,28.6,28.6,0,0,1,4.13,2.11,18.52,18.52,0,0,1,3.38,2.65,4.16,4.16,0,0,1,1.29,3c0,1.17.3,1.44.91.83a4.5,4.5,0,0,0,.91-2.11,15.69,15.69,0,0,0,.37-3.66,15.49,15.49,0,0,0-.55-4.12A7.29,7.29,0,0,0,661.26,304.58Z"/><path class="cls-3" d="M769.37,267.32a13.08,13.08,0,0,0,2.84,2.48,30.89,30.89,0,0,0,4,2c3.53-6.1,6.47-10.4,8.78-12.91a40.67,40.67,0,0,1,5.41-5.12l2.56-1.84c.42-.29.52-1.3.27-3s-1.37-3.09-3.38-4.49-5.1-1.86-9.25-1.37a8.24,8.24,0,0,0-4.3,2.84,39.54,39.54,0,0,0-4.4,5.76,36.48,36.48,0,0,0-3.38,6.68,10.62,10.62,0,0,0-.92,5.41A7.15,7.15,0,0,0,769.37,267.32Z"/><path class="cls-3" d="M826.67,305q-1.18-.45-3.38,1.74c-.61.61-1.87,1.65-3.75,3.12s-3.94,3.08-6.14,4.84-4.3,3.42-6.32,4.95-3.38,2.59-4.12,3.2a60.66,60.66,0,0,1,5.5-12.72q3.66-6.5,7.32-12t6.32-9.34c1.76-2.56,2.65-4.15,2.65-4.76a4.52,4.52,0,0,0-1.19-2.75,14.71,14.71,0,0,0-3-2.74,14.94,14.94,0,0,0-4.21-2,16.1,16.1,0,0,0-4.76-.73v-.18a19.6,19.6,0,0,0-4.76.64q-2.56.65-5.13,1.37,3.3-8.06,1.65-12.54t-8.06-4.49a16.54,16.54,0,0,0-7.5,1.65A19.61,19.61,0,0,0,777,279.68q0,4.21,2.39,6.32a13.94,13.94,0,0,0,5.85,3c-1.46,2.08-3,4.21-4.57,6.41s-3.27,4.3-5,6.32q-1.65,1.88-3.27,3.61a9.17,9.17,0,0,0-1.76,1.42q-.91.92-3.66,3.12l-6,4.84c-2.2,1.78-4.31,3.42-6.32,4.95s-3.45,2.59-4.3,3.2A79.33,79.33,0,0,1,755.82,310q3.57-6.68,7-12.26t6-9.52q2.57-3.93,2.57-5c0-1.83-1.26-3.5-3.76-5a16,16,0,0,0-8.51-2.29q-2,0-5.77,5a89.61,89.61,0,0,0-7.6,12.53,112.93,112.93,0,0,0-5.23,12,9.49,9.49,0,0,0-1.73,1.41l-3.75,3c-1.9,1.53-3.94,3.15-6.14,4.85s-4.3,3.36-6.31,5-3.39,2.68-4.12,3.29A59.55,59.55,0,0,1,723.87,310q3.66-6.5,7.33-12t6.31-9.34q2.65-3.84,2.66-4.94A4.51,4.51,0,0,0,739,281a13.29,13.29,0,0,0-3-2.65,17,17,0,0,0-4.22-1.92,16,16,0,0,0-4.76-.73c-.73,0-1.74.64-3,1.92a34.79,34.79,0,0,0-4.12,5.22,17.06,17.06,0,0,0-3.2-4.85,7.45,7.45,0,0,0-5.77-2.29,31.77,31.77,0,0,0-16.48,4.67A56.56,56.56,0,0,0,680.48,292a61.21,61.21,0,0,0-9.71,15.1,37.16,37.16,0,0,0-3.66,15.11,19.11,19.11,0,0,0,4,12.45,12.83,12.83,0,0,0,10.44,4.94,9.23,9.23,0,0,0,5.31-2.19,45.87,45.87,0,0,0,6-5.59q3.11-3.37,6.32-7.6t6-8.24a43.53,43.53,0,0,0-1.1,9.53,31.12,31.12,0,0,0,.64,7,15.9,15.9,0,0,0,1.55,4.31,6.39,6.39,0,0,0,1.93,2.2,3.4,3.4,0,0,0,1.74.63q1.63,0,5.58-2.83t8.33-6.5q4.39-3.66,8.42-7.33c1.84-1.67,3.3-3,4.4-4.07a42.87,42.87,0,0,0-.55,6.64,26.74,26.74,0,0,0,.92,8,12.07,12.07,0,0,0,2.1,4.21,4.7,4.7,0,0,0,2.38,1.65,9.14,9.14,0,0,0,1.93.27c1.22,0,3-.94,5.49-2.83s5-4.06,7.78-6.5,5.37-4.86,7.87-7.24,4.3-4.11,5.4-5.21a19.77,19.77,0,0,0,1.89-2q6.26-6,11.38-11.59a134.49,134.49,0,0,0,11.81-14.74l4.58-.55,1.83-.37q-1.65,3.48-3.75,8.52t-4.12,10.25a107.05,107.05,0,0,0-3.39,10.16,31.37,31.37,0,0,0-1.38,8.06,31.05,31.05,0,0,0,.65,7,15.57,15.57,0,0,0,1.55,4.31,7.08,7.08,0,0,0,1.83,2.2,3,3,0,0,0,1.65.63q1.83,0,5.77-2.83t8.33-6.5Q813,326.56,817,323c2.62-2.38,4.49-4.11,5.58-5.21a17.07,17.07,0,0,0,4-5.4,12.15,12.15,0,0,0,1.28-4.86C827.86,306.17,827.47,305.35,826.67,305ZM716.91,287.19c-.12.13-.85,1.07-2.2,2.84s-3.08,4-5.21,6.59-4.46,5.43-7,8.42-4.91,5.77-7.23,8.33-4.4,4.7-6.23,6.41-3.11,2.56-3.84,2.56c-1.22,0-1.71-.88-1.47-2.65a23.13,23.13,0,0,1,2.38-6.69,70,70,0,0,1,5.31-8.69,71.38,71.38,0,0,1,7.24-8.7,45,45,0,0,1,8.14-6.68,15.44,15.44,0,0,1,8.24-2.65,11.09,11.09,0,0,1,2.38.18A2.91,2.91,0,0,1,716.91,287.19Zm76.26-14.1a19.28,19.28,0,0,1-2.11,6.05,4.79,4.79,0,0,1-3.48-1.74,3.75,3.75,0,0,1-.64-2.84,4.85,4.85,0,0,1,1.56-2.66,4.19,4.19,0,0,1,2.93-1.19C792.77,270.71,793.35,271.51,793.17,273.09Z"/><polygon class="cls-2" points="492.24 318.08 501.88 309.52 501.88 306 492.24 314.56 492.24 318.08"/></svg>