<svg id="Layer_1" data-name="Layer 1" xmlns="http://www.w3.org/2000/svg" viewBox="0 0 1200 247.63"><defs><style>.cls-1{fill:#33433d;}.cls-2{fill:#8c907e;}.cls-3{fill:#fff;}</style></defs><path class="cls-1" d="M322.28,133.55A19.37,19.37,0,0,0,319.1,131q5.14-7.86,10.51-15t9.75-12.7q4.38-5.59,7.18-9.22c1.86-2.42,2.8-3.93,2.8-4.53a3.64,3.64,0,0,0-1.52-2.42,19.42,19.42,0,0,0-3.55-2.5,43.18,43.18,0,0,0-4-2,8.66,8.66,0,0,0-2.73-.84q-1.2,0-4.61,3.63A112.61,112.61,0,0,0,325,95.24q-4.53,6.12-9.68,14.13T305.65,126a82.63,82.63,0,0,0-14.14-1.59,116.72,116.72,0,0,0-15,.53q5.91-9.37,12.1-18.07T299.83,91.3L308.15,80c2.16-3,3.24-4.77,3.24-5.37a3.86,3.86,0,0,0-1.51-2.49,17.12,17.12,0,0,0-3.55-2.57,43.34,43.34,0,0,0-4-2,8.84,8.84,0,0,0-2.73-.83,86.35,86.35,0,0,0-27.28,4.31,92.57,92.57,0,0,0-23.13,11.11,65.15,65.15,0,0,0-16.1,15q-6,8.16-6,15.88a13.33,13.33,0,0,0,1.51,6.8,15.31,15.31,0,0,0,3.32,4.08,15.51,15.51,0,0,0,5,2.57c-.2-.6-.4-1.26-.6-2a10.33,10.33,0,0,1-.46-2.19,24.15,24.15,0,0,1-.15-2.8q0-4.83,4-10.95a56.18,56.18,0,0,1,11-12,83,83,0,0,1,16.7-10.66A81,81,0,0,1,288.57,79q-3.33,4.53-7.11,10.12t-7.63,11.94q-3.85,6.36-7.71,13.15t-7.18,13.61a76.7,76.7,0,0,0-11.71,3.48,21.64,21.64,0,0,0-7.19,4.23,10.28,10.28,0,0,0-2.57,4.23,15.14,15.14,0,0,0-.75,4.46,6.4,6.4,0,0,0,.6,3.1c.41.71.91.81,1.51.3a17.29,17.29,0,0,1,4.92-2.8q3.7-1.58,9-3.25a132.39,132.39,0,0,0-4.15,12.85A43.32,43.32,0,0,0,247,165.3q0,8,2.57,11.79t5.9,3.78c2,0,3.19-.48,3.55-1.44a2,2,0,0,0-.23-2.19c-.1-.1-.3-.1-.61,0a1.64,1.64,0,0,1-1,0,1.58,1.58,0,0,1-.9-.83,5.59,5.59,0,0,1-.38-2.5q-.15-7.24,3.55-16.7a161.17,161.17,0,0,1,9.45-19.72,159.06,159.06,0,0,1,16.55-2.5,101.5,101.5,0,0,1,15.95-.38,117.27,117.27,0,0,0-6.12,16.1A51.62,51.62,0,0,0,293,165.3q0,8,2.5,11.79t6,3.78c2,0,3.2-.48,3.55-1.44a1.94,1.94,0,0,0-.23-2.19q-.15-.15-.6,0a1.64,1.64,0,0,1-1,0,1.57,1.57,0,0,1-.91-.83,5.59,5.59,0,0,1-.38-2.5,44.62,44.62,0,0,1,3.7-17.61,138.6,138.6,0,0,1,9.6-19,25.36,25.36,0,0,1,3.41,1.74,16.27,16.27,0,0,1,2.79,2.19,3.45,3.45,0,0,1,1.06,2.5c0,1,.25,1.18.76.68a3.75,3.75,0,0,0,.75-1.74,13.47,13.47,0,0,0,.3-3,12.9,12.9,0,0,0-.45-3.4A6.06,6.06,0,0,0,322.28,133.55Z"/><path class="cls-1" d="M522.11,137.26a10.19,10.19,0,0,0,1-2.5c.15-.7,0-1.08-.53-1.13s-1.56.58-3.17,1.89-3.68,3.07-5.9,5a65.39,65.39,0,0,1-7.18,5.36,35.77,35.77,0,0,1-8.09,3.93,16.66,16.66,0,0,1-8.46.68,4.19,4.19,0,0,1-3.25-2.11,7,7,0,0,1-.68-3.71,14.71,14.71,0,0,1,.91-4.08,17.63,17.63,0,0,1,1.51-3.25,8,8,0,0,0,2.49,2.8,7,7,0,0,0,4.31,1.28,14.61,14.61,0,0,0,7.94-2.34,28.18,28.18,0,0,0,6.5-5.67,32.83,32.83,0,0,0,4.45-6.72,13.63,13.63,0,0,0,1.67-5.67c0-3.83-1.09-6.6-3.25-8.32a12,12,0,0,0-7.64-2.56q-4.07,0-9.67,3.09a49.47,49.47,0,0,0-10.73,8.17A50.93,50.93,0,0,0,475.55,133c-.28.51-.55,1-.8,1.53-.48.43-1.34,1.18-2.6,2.25-1.66,1.41-3.48,2.87-5.44,4.38s-3.76,2.83-5.37,3.93-2.47,1.51-2.57,1.21a186.83,186.83,0,0,1,10.58-26.07q5.59-11,10.21-18.29,3.17-5,5.57-8.45a6.51,6.51,0,0,1-.21,1.19c-.2.75-.43,1.49-.68,2.19s-.23,1.21.07,1.51.74.31,1.29,0a5.69,5.69,0,0,0,1.67-1.51,10.62,10.62,0,0,0,1.43-2.49,7.6,7.6,0,0,0,.61-3,5.09,5.09,0,0,0-.8-2.54c1.14-1.61,1.7-2.67,1.7-3.2a3.49,3.49,0,0,0-1.13-2.27,12.79,12.79,0,0,0-2.72-2.19,24.31,24.31,0,0,0-3.18-1.67,6.87,6.87,0,0,0-2.34-.68c-.78,0-2.16,1.19-4.12,3.55a25.16,25.16,0,0,0-7.37.38c.7-.91,1.26-1.61,1.66-2.11a8,8,0,0,0,.83-1.21,1.61,1.61,0,0,0,.23-.68v-.68a3.34,3.34,0,0,0-1.28-2.27,18.74,18.74,0,0,0-3-2.27,18.94,18.94,0,0,0-3.48-1.66,8.92,8.92,0,0,0-2.5-.6c-.9,0-2.19.84-3.85,2.54a85,85,0,0,0-7.64,10q-4.38.59-8,.89c-2.42.2-4.23.3-5.44.3-2.11,0-3.4-.3-3.85-.91a2.2,2.2,0,0,1-.31-2.11,16.44,16.44,0,0,1,1-2.42,1.75,1.75,0,0,0,0-2c-.21-.2-.64-.17-1.29.08a6.7,6.7,0,0,0-2,1.36,9,9,0,0,0-1.89,2.64,10,10,0,0,0,.38,8.78,8.94,8.94,0,0,0,3.25,3.06,15.91,15.91,0,0,0,4.76,1.69,29.48,29.48,0,0,0,5.75.53h.15q-4.08,7-8.09,14.59t-7.1,15.19q-2.24,5.44-3.83,10.67c-1.22,1-2.61,2.06-4.18,3.32q-3,2.34-6.58,4.91a119.09,119.09,0,0,1,.07-12.77c.26-3.79,1.14-6.43,2.65-7.94q4.23-4.23,5.07-7t-.31-4.24a5.79,5.79,0,0,0-3.55-2,20.9,20.9,0,0,0-4.38-.53,7.87,7.87,0,0,0-2.65.61,11.54,11.54,0,0,0-3.17,1.89,21.6,21.6,0,0,0-3.1,3.1A17.35,17.35,0,0,0,401,119.8,136.09,136.09,0,0,1,392.49,131a58.54,58.54,0,0,1-8.54,8.47,5.66,5.66,0,0,0-1.18,1.16l-1.84,1.49q-2.73,2.19-5.22,4.08c-1.66,1.26-2.8,2.14-3.4,2.64A56,56,0,0,1,377,138.16q3-5.35,6-9.9t5.22-7.71q2.19-3.17,2.19-3.93a3.7,3.7,0,0,0-1-2.26,10.54,10.54,0,0,0-2.5-2.19,14.18,14.18,0,0,0-7.4-2.2c-.81,0-2.14.94-4,2.8s-4,4.23-6.5,7.1-5.09,5.95-7.86,9.22-5.42,6.35-7.94,9.23a85.35,85.35,0,0,1-6.88,7.1q-3.09,2.79-4.61,2.79c-.7,0-.78-.7-.22-2.11a47.76,47.76,0,0,1,2.57-5.29c1.16-2.11,2.52-4.44,4.08-6.95s3.05-4.89,4.46-7.11,2.59-4.1,3.55-5.67a13.11,13.11,0,0,0,1.44-2.64,5.26,5.26,0,0,0-1.13-3.18,13.67,13.67,0,0,0-2.8-2.72,13.48,13.48,0,0,0-3.86-1.89,14.1,14.1,0,0,0-4.15-.68c-.61,0-1.46.63-2.57,1.89a42.6,42.6,0,0,0-3.71,5.07c-1.36,2.11-2.77,4.56-4.23,7.33a90.89,90.89,0,0,0-4,8.69,67.61,67.61,0,0,0-2.95,9.15,36.25,36.25,0,0,0-1.14,8.69,12.82,12.82,0,0,0,.91,4.91,16.84,16.84,0,0,0,2,3.7,11.38,11.38,0,0,0,2.27,2.35,3.45,3.45,0,0,0,1.74.83,12.62,12.62,0,0,0,6.2-2,52.53,52.53,0,0,0,7.32-5.3,92.94,92.94,0,0,0,7.72-7.32c2.56-2.73,5-5.5,7.17-8.32-.5,2-.93,4-1.28,5.9a30.22,30.22,0,0,0-.53,5.44,26,26,0,0,0,.53,5.74,12.79,12.79,0,0,0,1.28,3.55,5.71,5.71,0,0,0,1.52,1.82,2.45,2.45,0,0,0,1.36.53c1,0,2.59-.78,4.76-2.35s4.46-3.35,6.88-5.36,4.73-4,6.95-6,3.78-3.4,4.69-4.31a15.59,15.59,0,0,0,2.54-3c.61-.6,1.24-1.2,1.84-1.8q3.63-3.63,6.65-7.25c.1,2.92.17,6.09.23,9.52s0,6.75-.08,10a50.52,50.52,0,0,1-5.44,2,17.49,17.49,0,0,1-5,.76,8.8,8.8,0,0,1-2.87-.38,10.54,10.54,0,0,1-1.74-.76,4.61,4.61,0,0,1-1.06-.75,1.16,1.16,0,0,0-.83-.38c-.3,0-.65.48-1.06,1.43a5.43,5.43,0,0,0-.3,3.11,4.25,4.25,0,0,0-3.4,3,2.08,2.08,0,0,0,.23,1.66,1.76,1.76,0,0,0,1.66.76c.9,0,2,.95,3.17,2.87s2.57,4,4.08,6.27a42.9,42.9,0,0,0,5.07,6.27,8.26,8.26,0,0,0,6,2.88,12.13,12.13,0,0,0,7.71-2.27,14.9,14.9,0,0,0,4.46-6,30.7,30.7,0,0,0,2.11-8.61,90,90,0,0,0,.53-10q3.18-2.42,6-4.84c.73-.62,1.4-1.23,2.06-1.82a42.55,42.55,0,0,0-.47,6.21,19.71,19.71,0,0,0,.23,2.94,9.38,9.38,0,0,0,.9,2.95,7.08,7.08,0,0,0,1.74,2.27,4,4,0,0,0,2.72.91,2.46,2.46,0,0,0,1.06-.16,1.21,1.21,0,0,0,.6-.15,23.42,23.42,0,0,0,4.61-3.17q3-2.41,6.12-5.29t5.9-5.45c.45-.41.86-.81,1.24-1.17a43.62,43.62,0,0,0-.48,6.17,19.71,19.71,0,0,0,.23,2.94,10.6,10.6,0,0,0,.9,3,7.23,7.23,0,0,0,1.74,2.34,4.06,4.06,0,0,0,2.72.91q1.81,0,5.07-2.42a78.88,78.88,0,0,0,6.65-5.6q3.39-3.16,6.35-6.2c1.21-1.24,2.2-2.24,3-3,0,.34,0,.68,0,1a17.9,17.9,0,0,0,3.71,11.57,12.21,12.21,0,0,0,10.05,4.61,25.78,25.78,0,0,0,10.88-2.5,53.44,53.44,0,0,0,10.13-6.05,63.94,63.94,0,0,0,8.39-7.55,68.5,68.5,0,0,0,5.82-7A18.15,18.15,0,0,0,522.11,137.26Zm-27.82-8.39a40.77,40.77,0,0,1,4.31-4,22.73,22.73,0,0,1,4.24-2.72,8.71,8.71,0,0,1,3.7-1c1,0,1.13.6.38,1.81a19.76,19.76,0,0,1-3.71,4.08,38.36,38.36,0,0,1-6,4.31,18.58,18.58,0,0,1-6.81,2.5A38.6,38.6,0,0,1,494.29,128.87Zm-97,38.55a1.85,1.85,0,0,1-1.66.6,4.48,4.48,0,0,1-2-1,16.69,16.69,0,0,1-2.12-2c-.7-.81-1.41-1.67-2.11-2.57h1.36a26.49,26.49,0,0,0,8.46-1.37Q398.46,166.21,397.25,167.42Zm56.16-44.67a133.26,133.26,0,0,0-4.9,13.14c-.38.31-.87.71-1.53,1.22l-4,3.09-5.06,3.94q-2.73,2.12-5.14,3.93,7.86-19,14.66-31.83a178.83,178.83,0,0,1,13-21.23c2.62-.31,5.29-.63,8-1l.11,0q-3.49,5.58-7.29,12.56Q457,114.51,453.41,122.75Z"/><path class="cls-1" d="M528.3,142.63c-5.59,0-8.46,3.78-8.46,7.55,0,2.72,1.51,4.54,2.42,4.69,5.29,1.36,9.67,2.87,9.67,8.16,0,5.74-5.29,9.83-12.09,13l2,4.38c8.77-2.57,19.35-9.82,19.35-21.76C541.15,147.62,533.74,142.63,528.3,142.63Z"/><path class="cls-1" d="M643,133.55a19.37,19.37,0,0,0-3.18-2.57q5.13-7.86,10.51-15t9.75-12.7q4.38-5.59,7.18-9.22t2.79-4.53a3.62,3.62,0,0,0-1.51-2.42,19.42,19.42,0,0,0-3.55-2.5,42.11,42.11,0,0,0-4-2,8.63,8.63,0,0,0-2.72-.84c-.81,0-2.34,1.21-4.61,3.63a112.46,112.46,0,0,0-7.94,9.76q-4.53,6.12-9.67,14.13T626.41,126a82.74,82.74,0,0,0-14.14-1.59,116.65,116.65,0,0,0-15,.53q5.89-9.37,12.09-18.07T620.59,91.3q5.05-6.87,8.31-11.33c2.17-3,3.25-4.77,3.25-5.37a3.86,3.86,0,0,0-1.51-2.49,17.12,17.12,0,0,0-3.55-2.57,42.26,42.26,0,0,0-4-2,8.8,8.8,0,0,0-2.72-.83,86.46,86.46,0,0,0-27.29,4.31A92.67,92.67,0,0,0,570,82.16a65,65,0,0,0-16.1,15q-6,8.16-6.05,15.88a13.33,13.33,0,0,0,1.52,6.8,13.29,13.29,0,0,0,8.31,6.65c-.21-.6-.41-1.26-.61-2a11,11,0,0,1-.45-2.19,24.15,24.15,0,0,1-.15-2.8q0-4.83,4-10.95a56,56,0,0,1,11-12,82.73,82.73,0,0,1,16.7-10.66A80.92,80.92,0,0,1,609.32,79q-3.32,4.53-7.1,10.12t-7.63,11.94q-3.86,6.36-7.71,13.15t-7.18,13.61A76.85,76.85,0,0,0,568,131.29a21.58,21.58,0,0,0-7.18,4.23,10.28,10.28,0,0,0-2.57,4.23,15.14,15.14,0,0,0-.75,4.46,6.4,6.4,0,0,0,.6,3.1c.4.71.91.81,1.51.3a17.2,17.2,0,0,1,4.91-2.8c2.48-1.05,5.47-2.14,9-3.25a132.59,132.59,0,0,0-4.16,12.85,43.27,43.27,0,0,0-1.58,10.89q0,8,2.56,11.79c1.72,2.52,3.68,3.78,5.9,3.78,2,0,3.2-.48,3.55-1.44a2,2,0,0,0-.22-2.19c-.1-.1-.31-.1-.61,0a1.64,1.64,0,0,1-1,0,1.6,1.6,0,0,1-.91-.83,5.77,5.77,0,0,1-.37-2.5q-.16-7.24,3.55-16.7a161,161,0,0,1,9.44-19.72,159.65,159.65,0,0,1,16.56-2.5,101.37,101.37,0,0,1,15.94-.38,118.58,118.58,0,0,0-6.12,16.1,51.94,51.94,0,0,0-2.34,14.59q0,8,2.49,11.79t6,3.78c2,0,3.2-.48,3.56-1.44a2,2,0,0,0-.23-2.19q-.15-.15-.6,0a1.67,1.67,0,0,1-1,0,1.63,1.63,0,0,1-.91-.83,5.77,5.77,0,0,1-.37-2.5,44.62,44.62,0,0,1,3.7-17.61,137.47,137.47,0,0,1,9.6-19,25.23,25.23,0,0,1,3.4,1.74,16,16,0,0,1,2.8,2.19,3.45,3.45,0,0,1,1.06,2.5c0,1,.25,1.18.75.68a3.74,3.74,0,0,0,.76-1.74,13.47,13.47,0,0,0,.3-3,12.9,12.9,0,0,0-.45-3.4A6.06,6.06,0,0,0,643,133.55Z"/><path class="cls-1" d="M855.94,88.05a12.27,12.27,0,0,0-3.78-3.32,18.16,18.16,0,0,0-6.27-2.19,23.89,23.89,0,0,0-8.62.22c.71-.91,1.27-1.61,1.67-2.11a8,8,0,0,0,.83-1.21,1.77,1.77,0,0,0,.23-.68v-.68a3.32,3.32,0,0,0-1.29-2.27,19.17,19.17,0,0,0-6.5-3.93,9,9,0,0,0-2.49-.6c-.91,0-2.19.84-3.86,2.54a85.24,85.24,0,0,0-7.63,10c-2.93.39-5.59.69-8,.89s-4.23.3-5.44.3c-2.12,0-3.4-.3-3.86-.91a2.23,2.23,0,0,1-.3-2.11,16.37,16.37,0,0,1,1-2.42,1.75,1.75,0,0,0,0-2c-.2-.2-.63-.17-1.28.08a6.62,6.62,0,0,0-2.05,1.36,9.17,9.17,0,0,0-1.88,2.64,8.7,8.7,0,0,0-.83,3.94,8.4,8.4,0,0,0,4.46,7.9,15.81,15.81,0,0,0,4.76,1.69,29.37,29.37,0,0,0,5.74.53h.15q-4.08,7-8.08,14.59t-7.11,15.19c-1.31,3.19-2.44,6.33-3.42,9.42-.14.12-.28.26-.43.41-.51.5-1.54,1.36-3.1,2.57s-3.25,2.54-5.07,4-3.55,2.83-5.21,4.08-2.8,2.15-3.4,2.65a50.39,50.39,0,0,1,4.53-10.51q3-5.35,6-9.9t5.21-7.71c1.46-2.11,2.2-3.42,2.2-3.93a3.66,3.66,0,0,0-1-2.26,12,12,0,0,0-2.49-2.27,12.76,12.76,0,0,0-3.48-1.67,13.4,13.4,0,0,0-3.93-.6v-.15a16.4,16.4,0,0,0-3.93.53c-1.41.35-2.82.73-4.23,1.13q2.72-6.64,1.36-10.35c-.91-2.47-3.12-3.7-6.65-3.7a13.63,13.63,0,0,0-6.2,1.36A16.16,16.16,0,0,0,753.38,113a6.6,6.6,0,0,0,2,5.21,11.49,11.49,0,0,0,4.84,2.49c-1.21,1.72-2.48,3.48-3.78,5.3s-2.7,3.55-4.16,5.21c-1,1.13-2,2.2-2.94,3.23a9,9,0,0,0-1.07.93l-3.1,2.49q-2.34,1.89-5.06,4T734.86,146q-2.49,2-3.4,2.72A49.53,49.53,0,0,1,736,138c2-3.57,4-6.88,6-9.9s3.76-5.59,5.22-7.71,2.19-3.47,2.19-4.08a3.75,3.75,0,0,0-1-2.27,11,11,0,0,0-2.5-2.19,14.2,14.2,0,0,0-3.47-1.59,13.45,13.45,0,0,0-3.93-.6c-.61,0-1.44.53-2.5,1.59a28.91,28.91,0,0,0-3.4,4.31,14.27,14.27,0,0,0-2.64-4,6.18,6.18,0,0,0-4.77-1.89,26.28,26.28,0,0,0-13.6,3.86,46.33,46.33,0,0,0-11.49,9.59,50.94,50.94,0,0,0-8,12.47,38.63,38.63,0,0,0-1.51,3.88l-1.21,1a65.39,65.39,0,0,1-7.18,5.36,35.77,35.77,0,0,1-8.09,3.93,16.66,16.66,0,0,1-8.46.68,4.19,4.19,0,0,1-3.25-2.11,7,7,0,0,1-.68-3.71,14.71,14.71,0,0,1,.91-4.08,18.37,18.37,0,0,1,1.5-3.25,8.11,8.11,0,0,0,2.5,2.8,7,7,0,0,0,4.31,1.28,14.64,14.64,0,0,0,7.94-2.34,28.18,28.18,0,0,0,6.5-5.67,32.83,32.83,0,0,0,4.45-6.72,13.63,13.63,0,0,0,1.67-5.67c0-3.83-1.09-6.6-3.25-8.32a12,12,0,0,0-7.64-2.56q-4.08,0-9.67,3.09a49.47,49.47,0,0,0-10.73,8.17A50.93,50.93,0,0,0,651.5,133a27,27,0,0,0-3.63,13.3,17.89,17.89,0,0,0,3.7,11.57,12.23,12.23,0,0,0,10.06,4.61,25.85,25.85,0,0,0,10.88-2.5,53.75,53.75,0,0,0,10.13-6.05,65.07,65.07,0,0,0,6.5-5.61,15.66,15.66,0,0,0,3.32,10.07,10.62,10.62,0,0,0,8.62,4.09,7.57,7.57,0,0,0,4.38-1.82,37.46,37.46,0,0,0,5-4.61q2.56-2.79,5.22-6.27c1.76-2.32,3.4-4.58,4.91-6.8a35.89,35.89,0,0,0-.91,7.86,26.06,26.06,0,0,0,.53,5.74,12.91,12.91,0,0,0,1.28,3.55,5.43,5.43,0,0,0,1.59,1.82,2.84,2.84,0,0,0,1.44.53q1.35,0,4.61-2.35t6.88-5.36q3.63-3,7-6.05t4.69-4.38a15.7,15.7,0,0,0,1.29-1.29q5.33-5.06,9.67-9.82A111.14,111.14,0,0,0,768.35,121c1.71-.2,3-.35,3.78-.46l1.51-.3q-1.36,2.88-3.1,7t-3.4,8.46c-1.11,2.88-2,5.67-2.8,8.4a26.23,26.23,0,0,0-1.13,6.65,25.47,25.47,0,0,0,.53,5.74,12.91,12.91,0,0,0,1.28,3.55,5.81,5.81,0,0,0,1.51,1.82,2.5,2.5,0,0,0,1.36.53q1.51,0,4.77-2.35t6.88-5.36q3.62-3,6.87-6l2.82-2.59a45.36,45.36,0,0,0-.63,7.2,21.14,21.14,0,0,0,.23,2.94,9.39,9.39,0,0,0,.91,2.95,7.2,7.2,0,0,0,1.73,2.27,4.08,4.08,0,0,0,2.72.91,2.4,2.4,0,0,0,1.06-.16,1.28,1.28,0,0,0,.61-.15,23.72,23.72,0,0,0,4.61-3.17q2.94-2.41,6.12-5.29t5.9-5.45q2.71-2.57,3.93-3.77a14,14,0,0,0,3.32-4.46,10,10,0,0,0,1.06-4c0-1.1-.33-1.79-1-2s-1.59.23-2.8,1.44c-.3.3-1,.88-2.12,1.74l-4,3.09c-1.57,1.21-3.25,2.53-5.06,3.94s-3.53,2.72-5.15,3.93q7.86-19,14.67-31.83a176.23,176.23,0,0,1,13-21.23c2.62-.31,5.29-.63,8-1l7.41-1c2.21-.3,4.05-.57,5.51-.83s2.3-.38,2.5-.38c.8,0,1.23.28,1.28.84a5.76,5.76,0,0,1-.22,2c-.21.75-.43,1.49-.69,2.19s-.22,1.21.08,1.51.73.31,1.29,0a5.55,5.55,0,0,0,1.66-1.51,10.62,10.62,0,0,0,1.43-2.49,7.43,7.43,0,0,0,.61-3A5.9,5.9,0,0,0,855.94,88.05Zm-185.7,40.82a39.82,39.82,0,0,1,4.31-4,22.73,22.73,0,0,1,4.24-2.72,8.67,8.67,0,0,1,3.7-1c1,0,1.13.6.37,1.81a19.66,19.66,0,0,1-3.7,4.08,38.36,38.36,0,0,1-6,4.31,18.64,18.64,0,0,1-6.81,2.5A38.6,38.6,0,0,1,670.24,128.87Zm60-9.68c-.1.1-.7.89-1.81,2.35s-2.55,3.27-4.31,5.44-3.68,4.49-5.74,7-4.06,4.77-6,6.88-3.62,3.88-5.13,5.29-2.57,2.11-3.18,2.11c-1,0-1.41-.72-1.21-2.19a18.88,18.88,0,0,1,2-5.51,55.51,55.51,0,0,1,4.38-7.18,59.21,59.21,0,0,1,6-7.18,37.08,37.08,0,0,1,6.73-5.52,12.71,12.71,0,0,1,6.8-2.19,9,9,0,0,1,2,.15A2.35,2.35,0,0,1,730.25,119.19Zm36.51-11.64a15.83,15.83,0,0,1-1.74,5,3.92,3.92,0,0,1-2.87-1.43,3.07,3.07,0,0,1-.53-2.35,4,4,0,0,1,1.28-2.19,3.5,3.5,0,0,1,2.42-1C766.43,105.59,766.91,106.24,766.76,107.55Z"/><path class="cls-1" d="M997.35,133.55a19.73,19.73,0,0,0-3.17-2.57q5.13-7.86,10.5-15t9.75-12.7q4.38-5.59,7.18-9.22t2.8-4.53a3.66,3.66,0,0,0-1.51-2.42,19.42,19.42,0,0,0-3.55-2.5,43.31,43.31,0,0,0-4-2,8.63,8.63,0,0,0-2.72-.84c-.81,0-2.34,1.21-4.61,3.63a112.46,112.46,0,0,0-7.94,9.76q-4.53,6.12-9.67,14.13T980.72,126a82.51,82.51,0,0,0-14.13-1.59,116.65,116.65,0,0,0-15,.53q5.9-9.37,12.09-18.07T974.9,91.3Q980,84.43,983.22,80c2.16-3,3.25-4.77,3.25-5.37A3.9,3.9,0,0,0,985,72.11a17.19,17.19,0,0,0-3.56-2.57,42.13,42.13,0,0,0-4-2,8.8,8.8,0,0,0-2.72-.83,86.41,86.41,0,0,0-27.29,4.31,92.57,92.57,0,0,0-23.13,11.11,64.92,64.92,0,0,0-16.09,15q-6.06,8.16-6,15.88a13.33,13.33,0,0,0,1.51,6.8,13.35,13.35,0,0,0,8.31,6.65c-.2-.6-.4-1.26-.6-2a11,11,0,0,1-.46-2.19,24.27,24.27,0,0,1-.14-2.8q0-4.83,4-10.95a56.18,56.18,0,0,1,11-12,83.1,83.1,0,0,1,16.71-10.66A80.92,80.92,0,0,1,963.64,79q-3.33,4.53-7.1,10.12t-7.64,11.94q-3.85,6.36-7.71,13.15T934,127.81a76.7,76.7,0,0,0-11.71,3.48,21.47,21.47,0,0,0-7.18,4.23,10.18,10.18,0,0,0-2.57,4.23,14.85,14.85,0,0,0-.76,4.46,6.27,6.27,0,0,0,.61,3.1c.4.71.9.81,1.51.3a17.05,17.05,0,0,1,4.91-2.8q3.7-1.58,9-3.25a129.89,129.89,0,0,0-4.16,12.85,43.32,43.32,0,0,0-1.59,10.89q0,8,2.57,11.79t5.9,3.78c2,0,3.19-.48,3.55-1.44a2,2,0,0,0-.23-2.19q-.15-.15-.6,0a1.64,1.64,0,0,1-1,0,1.57,1.57,0,0,1-.91-.83,5.59,5.59,0,0,1-.38-2.5q-.15-7.24,3.55-16.7A161.17,161.17,0,0,1,944,137.49a159.46,159.46,0,0,1,16.55-2.5,101.5,101.5,0,0,1,16-.38,117.27,117.27,0,0,0-6.12,16.1A51.94,51.94,0,0,0,968,165.3q0,8,2.49,11.79t6,3.78c2,0,3.2-.48,3.55-1.44a1.94,1.94,0,0,0-.23-2.19c-.09-.1-.3-.1-.6,0a1.64,1.64,0,0,1-1,0,1.6,1.6,0,0,1-.91-.83,5.74,5.74,0,0,1-.38-2.5,44.64,44.64,0,0,1,3.71-17.61,136.37,136.37,0,0,1,9.6-19,25.84,25.84,0,0,1,3.4,1.74,16.27,16.27,0,0,1,2.79,2.19,3.41,3.41,0,0,1,1.06,2.5c0,1,.25,1.18.76.68a3.75,3.75,0,0,0,.75-1.74,14,14,0,0,0-.15-6.42A6.06,6.06,0,0,0,997.35,133.55Z"/><path class="cls-1" d="M1086.61,102.79a10.63,10.63,0,0,0,2.35,2,25.07,25.07,0,0,0,3.32,1.67,63.74,63.74,0,0,1,7.26-10.66,32.69,32.69,0,0,1,4.46-4.23l2.11-1.52c.36-.24.43-1.08.23-2.49s-1.13-2.54-2.8-3.7-4.2-1.54-7.63-1.14a6.94,6.94,0,0,0-3.55,2.35,33.34,33.34,0,0,0-3.63,4.76,30.11,30.11,0,0,0-2.8,5.51,8.83,8.83,0,0,0-.75,4.47A6,6,0,0,0,1086.61,102.79Z"/><path class="cls-1" d="M1133.92,133.93q-1-.37-2.79,1.44c-.51.5-1.54,1.36-3.1,2.57s-3.25,2.54-5.07,4-3.55,2.83-5.21,4.08-2.8,2.15-3.4,2.65a50.93,50.93,0,0,1,4.53-10.51q3-5.35,6-9.9t5.21-7.71q2.2-3.17,2.2-3.93a3.66,3.66,0,0,0-1-2.26,12,12,0,0,0-2.49-2.27,12.76,12.76,0,0,0-3.48-1.67,13.4,13.4,0,0,0-3.93-.6v-.15a16.4,16.4,0,0,0-3.93.53c-1.41.35-2.82.73-4.23,1.13q2.71-6.64,1.36-10.35c-.91-2.47-3.12-3.7-6.65-3.7a13.63,13.63,0,0,0-6.2,1.36,16.16,16.16,0,0,0-8.92,14.36,6.6,6.6,0,0,0,2,5.21,11.55,11.55,0,0,0,4.84,2.49c-1.21,1.72-2.47,3.48-3.78,5.3s-2.7,3.55-4.16,5.21c-.91,1-1.81,2-2.71,3a6.71,6.71,0,0,0-1.44,1.17c-.51.5-1.52,1.36-3,2.57l-5,4c-1.81,1.46-3.55,2.83-5.21,4.08s-2.85,2.15-3.55,2.65a64.34,64.34,0,0,1,4.61-10.66q2.94-5.5,5.74-10.13t4.91-7.86c1.42-2.16,2.12-3.55,2.12-4.15,0-1.51-1-2.9-3.1-4.16a13.24,13.24,0,0,0-7-1.89c-1.11,0-2.69,1.39-4.76,4.16a73.47,73.47,0,0,0-6.27,10.35,89.49,89.49,0,0,0-4.32,9.88,7.19,7.19,0,0,0-1.43,1.16l-3.1,2.49q-2.34,1.89-5.06,4t-5.22,4.08q-2.49,2-3.4,2.72a49.53,49.53,0,0,1,4.54-10.66c2-3.57,4-6.88,6-9.9s3.75-5.59,5.21-7.71,2.19-3.47,2.19-4.08a3.75,3.75,0,0,0-1-2.27,11,11,0,0,0-2.5-2.19,14.2,14.2,0,0,0-3.47-1.59,13.45,13.45,0,0,0-3.93-.6c-.61,0-1.44.53-2.5,1.59a28.91,28.91,0,0,0-3.4,4.31,14.27,14.27,0,0,0-2.64-4,6.16,6.16,0,0,0-4.77-1.89,26.28,26.28,0,0,0-13.6,3.86,46.33,46.33,0,0,0-11.49,9.59,50.94,50.94,0,0,0-8,12.47,30.61,30.61,0,0,0-3,12.48,15.7,15.7,0,0,0,3.32,10.27,10.62,10.62,0,0,0,8.62,4.09,7.57,7.57,0,0,0,4.38-1.82,37.46,37.46,0,0,0,5-4.61q2.57-2.79,5.22-6.27c1.76-2.32,3.4-4.58,4.91-6.8a35.89,35.89,0,0,0-.91,7.86,26.06,26.06,0,0,0,.53,5.74,12.57,12.57,0,0,0,1.29,3.55,5.31,5.31,0,0,0,1.58,1.82,2.84,2.84,0,0,0,1.44.53q1.35,0,4.61-2.35t6.88-5.36q3.63-3,7-6.05,2.28-2.07,3.63-3.36a35,35,0,0,0-.45,5.48,22.49,22.49,0,0,0,.75,6.57,10.19,10.19,0,0,0,1.74,3.48,3.86,3.86,0,0,0,2,1.36,7.45,7.45,0,0,0,1.59.23q1.5,0,4.53-2.35c2-1.56,4.16-3.35,6.42-5.36s4.44-4,6.5-6,3.55-3.4,4.46-4.31a16.17,16.17,0,0,0,1.56-1.69q5.16-4.92,9.4-9.57a111.14,111.14,0,0,0,9.75-12.17c1.71-.2,3-.35,3.78-.46l1.51-.3q-1.37,2.88-3.1,7t-3.4,8.46c-1.11,2.88-2,5.67-2.8,8.4a24.09,24.09,0,0,0-.6,12.39,12.91,12.91,0,0,0,1.28,3.55,5.81,5.81,0,0,0,1.51,1.82,2.5,2.5,0,0,0,1.36.53q1.52,0,4.77-2.35t6.88-5.36q3.62-3,6.87-6c2.17-2,3.71-3.4,4.61-4.31a14.24,14.24,0,0,0,3.33-4.46,10.19,10.19,0,0,0,1.06-4C1134.91,134.87,1134.58,134.18,1133.92,133.93Zm-90.62-14.74c-.1.1-.7.89-1.81,2.35s-2.55,3.27-4.31,5.44-3.68,4.49-5.74,7-4.06,4.77-6,6.88-3.63,3.88-5.14,5.29-2.57,2.11-3.18,2.11c-1,0-1.41-.72-1.21-2.19a18.88,18.88,0,0,1,2-5.51,55.51,55.51,0,0,1,4.38-7.18,59.21,59.21,0,0,1,6-7.18,37.08,37.08,0,0,1,6.73-5.52,12.73,12.73,0,0,1,6.8-2.19,9.15,9.15,0,0,1,2,.15A2.67,2.67,0,0,1,1043.3,119.19Zm63-11.64a15.83,15.83,0,0,1-1.74,5,3.92,3.92,0,0,1-2.87-1.43,3.07,3.07,0,0,1-.53-2.35,4,4,0,0,1,1.28-2.19,3.5,3.5,0,0,1,2.42-1C1105.93,105.59,1106.41,106.24,1106.26,107.55Z"/><path class="cls-2" d="M865,138.75c-2.31-11.64,13.68-13.74,12.73-18.52A1.5,1.5,0,0,0,876,119c-.52.1-.73.56-1.42.7a1.3,1.3,0,0,1-1.46-1c-.63-3.17,4.26-5.7,6.74-6.19,4.38-.87,9.22.92,10.17,5.71,1.46,7.31-6.74,11-6.4,12.71s4.7,1,5.7,6.05c1.22,6.17-5.44,16.06-21.11,19.17-15.16,3-25.17-3.39-26.8-11.57-1.44-7.26,4.67-9.67,4.44-10.83-.13-.69-2.76-3-3.28-5.69-1.26-6.34,5-12.25,12.19-13.68,3.23-.64,10.41-.69,11.25,3.57a3.66,3.66,0,0,1-2.62,4c-1.73.34-3.53-1.82-6.3-1.27-2.19.44-3.13,2.6-2.72,4.68,1.12,5.64,6.64.59,7.43,4.57,1.37,6.86-6.23,3.57-5.19,8.82,1.15,5.82,7.78,10.85,13.77,9.66,3.86-.77,8.26-4.28,7.38-8.71a3.72,3.72,0,0,0-4.56-2.75c-3.63.72-3,5.09-4.85,5.45S865.27,140.19,865,138.75Z"/><circle class="cls-2" cx="126.09" cy="123.21" r="56.47"/><path class="cls-3" d="M139,156.25c3.74,0,6.79-3.62,6.79-8.07V97.79a8,8,0,0,1,5.42-7.61H141c-3.68,0-6.67,3.55-6.67,7.91v50.45h0a8.19,8.19,0,0,1-5.59,7.71Z"/><path class="cls-3" d="M111.28,156.25c3.75,0,6.8-3.62,6.8-8.07V97.79a8,8,0,0,1,5.41-7.61H113.2c-3.67,0-6.66,3.55-6.66,7.91v50.45h0a8.19,8.19,0,0,1-5.59,7.71Z"/><polygon class="cls-3" points="131.97 126.81 131.97 130.99 120.38 141.08 120.38 136.89 131.97 126.81"/><polygon class="cls-3" points="131.97 105.34 131.97 109.53 120.38 119.61 120.38 115.42 131.97 105.34"/><polygon class="cls-3" points="131.97 116.29 131.97 120.52 120.38 130.81 120.38 126.58 131.97 116.29"/></svg>