<?xml version="1.0" encoding="utf-8"?>
<!-- Generator: Adobe Illustrator 24.2.1, SVG Export Plug-In . SVG Version: 6.00 Build 0)  -->
<svg version="1.1" id="Layer_1" xmlns="http://www.w3.org/2000/svg" xmlns:xlink="http://www.w3.org/1999/xlink" x="0px" y="0px"
	 viewBox="0 0 150 150" style="enable-background:new 0 0 150 150;" xml:space="preserve">
<style type="text/css">
	.st0{fill:#FEFEFA;}
</style>
<g id="Layer_2_1_">
</g>
<g id="Layer_1_1_">
	<g>
		<g>
			<path class="st0" d="M65.5,112.6c-4.1,5.6-10.8,9.2-18.1,9.2c-12.4,0-22.5-10.1-22.5-22.5v-0.1l-1.4-48.7c0-6,2.4-11.6,6.6-15.8
				c4.2-4.2,9.9-6.5,15.9-6.5c6,0,11.7,2.3,15.9,6.5c1.1,1.1,2,2.2,2.8,3.4l5-5.2c-0.9-1.1-1.8-2.2-2.8-3.3
				c-5.6-5.5-13-8.6-20.9-8.6c-7.9,0-15.3,3-20.9,8.6c-5.6,5.5-8.7,12.9-8.7,20.8v0l1.4,48.7c0,16.3,13.3,29.5,29.6,29.5
				c9.3,0,17.7-4.3,23.2-11.2L65.5,112.6z"/>
		</g>
		<g>
			<path class="st0" d="M67.8,45.5L67.8,45.5c-0.2,0.2-0.4,0.4-0.6,0.7C67.4,45.9,67.6,45.7,67.8,45.5z M58.6,55.1
				c-0.5,0.5-1,1-1.5,1.6C57.6,56.1,58.1,55.6,58.6,55.1z"/>
			<path class="st0" d="M121.9,74.7l3.1-3.1c5.6-5.6,8.7-13,8.7-20.9c0-7.9-3.1-15.3-8.7-20.9c-11.5-11.5-30.3-11.5-41.8,0l-5.6,5.5
				l0,0c0,0-1.7,1.7-4.2,4.3c-1.2,1.3-2.7,2.8-4.3,4.5c-0.4,0.4-0.8,0.9-1.3,1.3l0,0c-0.2,0.2-0.4,0.4-0.6,0.7
				c-0.4,0.4-0.8,0.8-1.2,1.3c-0.2,0.2-0.4,0.4-0.6,0.6c-2.4,2.5-4.7,4.9-6.8,7c-0.5,0.5-1,1-1.5,1.6c0,0-0.1,0.1-0.1,0.1
				c-0.3,0.4-0.7,0.7-1,1.1c-1.7,1.8-3.3,3.4-4.7,4.9c-3,3.2-5.3,5.7-6.9,7.4c-0.9,1-1.6,1.8-2.1,2.4c-0.3,0.4-0.5,0.7-0.7,0.9
				c-1.3,1.8-0.8,3.7,0.3,4.8L69,105.4l14.2,14.2c5.6,5.6,13,8.7,20.9,8.7c7.9,0,15.3-3.1,20.9-8.7c11.5-11.5,11.5-30.3,0-41.8
				L121.9,74.7z M120,114.6c-4.2,4.2-9.9,6.6-15.9,6.6s-11.7-2.3-15.9-6.6l-11.4-11.4L49.1,75.5c2.1-2.3,6.7-7.3,16.8-17.8
				c0.2-0.2,0.4-0.4,0.6-0.6c0.2-0.3,0.5-0.5,0.8-0.8c0.2-0.2,0.3-0.3,0.5-0.5c2-2,4.1-4.3,6.5-6.7c0.3-0.3,0.6-0.6,0.9-0.9l0.3-0.3
				c4.1-4.2,7-7.2,7.2-7.5l5.5-5.5c8.8-8.8,23-8.8,31.8,0c4.2,4.2,6.6,9.9,6.6,15.9s-2.3,11.7-6.6,15.9l-8.1,8.1l8.1,8.1
				C128.8,91.5,128.8,105.8,120,114.6z"/>
		</g>
	</g>
</g>
<g id="Layer_3">
</g>
</svg>
