<?xml version="1.0" encoding="utf-8"?>
<!-- Generator: Adobe Illustrator 24.1.2, SVG Export Plug-In . SVG Version: 6.00 Build 0)  -->
<svg version="1.1" xmlns="http://www.w3.org/2000/svg" xmlns:xlink="http://www.w3.org/1999/xlink" x="0px" y="0px"
	 viewBox="0 0 700 150" style="enable-background:new 0 0 700 150;" xml:space="preserve">
<style type="text/css">
	.st0{fill:#BDDBDB;}
</style>
<g id="Layer_2">
</g>
<g id="Layer_1">
	<g>
		<g>
			<g>
				<path class="st0" d="M74.71,112.59c-4.14,5.61-10.79,9.17-18.12,9.17c-12.4,0-22.49-10.09-22.49-22.49v-0.05l-1.44-48.68
					c0.01-5.97,2.35-11.57,6.58-15.76c4.24-4.2,9.89-6.52,15.91-6.52c6.03,0,11.68,2.31,15.91,6.52c1.07,1.06,2.02,2.21,2.84,3.44
					l5-5.18c-0.86-1.15-1.82-2.25-2.85-3.28c-5.58-5.52-12.99-8.57-20.9-8.57c-7.9,0-15.32,3.04-20.89,8.57
					c-5.59,5.54-8.67,12.94-8.67,20.83v0.05l1.44,48.68c0.03,16.28,13.28,29.51,29.56,29.51c9.26,0,17.7-4.32,23.17-11.21
					L74.71,112.59z"/>
			</g>
			<g>
				<path class="st0" d="M77.06,45.49L77.06,45.49c-0.21,0.22-0.42,0.43-0.63,0.65C76.64,45.93,76.85,45.71,77.06,45.49z
					 M67.82,55.08c-0.51,0.53-1,1.05-1.49,1.56C66.82,56.12,67.32,55.6,67.82,55.08z"/>
				<path class="st0" d="M131.17,74.7l3.05-3.05c5.59-5.58,8.66-13.01,8.66-20.9c0-7.9-3.07-15.32-8.66-20.91
					c-11.53-11.53-30.28-11.53-41.81,0l-5.55,5.55l-0.03,0.03c-0.02,0.02-1.65,1.7-4.19,4.31c-1.25,1.28-2.71,2.79-4.31,4.45
					c-0.43,0.44-0.85,0.88-1.27,1.32v0c-0.21,0.22-0.42,0.43-0.63,0.65c-0.42,0.43-0.83,0.85-1.23,1.28
					c-0.2,0.21-0.41,0.42-0.61,0.63c-2.43,2.51-4.69,4.86-6.77,7.03c-0.51,0.53-1,1.05-1.49,1.56c-0.04,0.04-0.08,0.09-0.12,0.13
					c-0.35,0.37-0.7,0.73-1.03,1.08c-1.7,1.78-3.26,3.41-4.67,4.91c-3.01,3.18-5.35,5.69-6.94,7.45c-0.93,1.02-1.6,1.8-2.08,2.37
					c-0.3,0.36-0.52,0.65-0.69,0.89c-1.26,1.83-0.76,3.71,0.29,4.77l27.15,27.15l14.18,14.18c5.58,5.58,13.01,8.66,20.9,8.66
					c7.9,0,15.32-3.08,20.9-8.66c11.53-11.53,11.53-30.28,0-41.81L131.17,74.7z M129.23,114.56c-4.25,4.25-9.9,6.59-15.91,6.59
					s-11.66-2.34-15.91-6.59l-11.45-11.45L58.33,75.47c2.1-2.34,6.7-7.29,16.76-17.75c0.2-0.2,0.39-0.41,0.59-0.61
					c0.25-0.26,0.5-0.52,0.76-0.78c0.15-0.16,0.31-0.32,0.47-0.49c1.97-2.05,4.14-4.29,6.51-6.74c0.31-0.32,0.61-0.63,0.91-0.94
					l0.31-0.32c4.07-4.19,7.01-7.22,7.25-7.46l5.54-5.54c8.77-8.77,23.04-8.77,31.81,0c4.25,4.25,6.59,9.9,6.59,15.91
					c0,6.01-2.34,11.66-6.59,15.9l-8.05,8.05l8.05,8.05C138,91.52,138,105.79,129.23,114.56z"/>
			</g>
		</g>
		<g>
			<g>
				<path class="st0" d="M204.83,62.38l-9.25-14.75l-4.78,4.92l0.06,13.58c0,0.19-0.19,0.39-0.39,0.39h-2.46
					c-0.19,0-0.39-0.19-0.39-0.39l0.13-21.99l-0.13-22.58c0-0.19,0.19-0.39,0.39-0.39h2.46c0.19,0,0.39,0.19,0.39,0.39l-0.13,22.51
					v4.79L205.6,33.4c0.13-0.13,0.39-0.26,0.65-0.26h3.1c0.13,0,0.19,0.19,0.13,0.26l-11.58,11.84l12.8,20.89
					c0.06,0.13,0,0.32-0.19,0.32h-2.91c-0.19,0-0.45-0.13-0.58-0.32L204.83,62.38z"/>
				<path class="st0" d="M220.86,66.46c-0.19,0-0.39-0.19-0.39-0.39l0.13-16.82l-0.13-15.72c0-0.19,0.19-0.39,0.39-0.39h2.46
					c0.19,0,0.39,0.19,0.39,0.39l-0.19,6.15c2.2-4.4,6.4-6.92,10.93-6.92c0.91,0,1.68,0.07,2.39,0.26c0.19,0.06,0.39,0.32,0.39,0.52
					v2.01c0,0.19-0.19,0.32-0.39,0.26c-0.65-0.19-1.49-0.26-2.46-0.26c-4.85,0-9.76,3.23-10.73,10.48l0.06,20.05
					c0,0.19-0.19,0.39-0.39,0.39H220.86z"/>
				<path class="st0" d="M258.2,77.07c-0.06,0.26-0.32,0.39-0.52,0.39h-2.26c-0.19,0-0.32-0.19-0.26-0.39l3.75-10.67l-13-32.86
					c-0.06-0.19,0.07-0.39,0.26-0.39h2.84c0.19,0,0.45,0.13,0.52,0.39l10.99,28.4l9.51-28.4c0.06-0.26,0.32-0.39,0.52-0.39h2.65
					c0.19,0,0.32,0.19,0.26,0.39L258.2,77.07z"/>
				<path class="st0" d="M295,67.11c-8.41,0-13.58-3.82-13.77-12.03c0-0.19,0.19-0.39,0.39-0.39h2.26c0.19,0,0.39,0.19,0.39,0.39
					c0.13,6.6,3.94,9.64,10.8,9.64c5.69,0,9.83-2.59,9.83-7.18c0-10.8-22.96-2.98-22.96-15.91c0-6.02,5.04-9.12,12.16-9.12
					c7.05,0,12.67,3.04,12.93,10.09c0,0.19-0.19,0.39-0.39,0.39h-2.26c-0.19,0-0.39-0.19-0.39-0.39c-0.26-5.5-4.53-7.7-9.89-7.7
					c-5.5,0-9.05,2.2-9.05,6.6c0,9.83,22.95,2.01,22.95,15.85C308,63.48,302.31,67.11,295,67.11z"/>
				<path class="st0" d="M331.71,65.94c0,0.19-0.19,0.45-0.39,0.52c-0.97,0.19-2.39,0.52-3.62,0.52c-4.27,0-7.5-2.2-7.5-9.25V35.8
					h-3.88c-0.19,0-0.39-0.19-0.39-0.39v-1.88c0-0.19,0.19-0.39,0.39-0.39h3.88l-0.06-7.96c0-0.19,0.19-0.39,0.39-0.39h2.52
					c0.19,0,0.39,0.19,0.39,0.39l-0.07,7.96h7.95c0.19,0,0.39,0.19,0.39,0.39v1.88c0,0.19-0.19,0.39-0.39,0.39h-7.95v21.93
					c0,4.98,1.29,6.47,4.59,6.47c1.1,0,2.46-0.13,3.36-0.32c0.19-0.07,0.39,0.06,0.39,0.26V65.94z"/>
				<path class="st0" d="M363.78,66.46c-0.19,0-0.39-0.19-0.39-0.39l0.19-6.4c-2.07,4.59-5.88,7.38-11.25,7.38
					c-8.66,0-13.32-7.5-13.32-17.21c0-9.57,4.72-17.34,13.39-17.34c5.24,0,9.05,2.52,11.12,7.25l-0.13-6.21
					c0-0.19,0.19-0.39,0.39-0.39h2.46c0.19,0,0.39,0.19,0.39,0.39l-0.13,15.65l0.13,16.88c0,0.19-0.19,0.39-0.39,0.39H363.78z
					 M352.98,64.52c6.4,0,10.67-4.85,10.73-14.36s-3.94-15.14-10.67-15.14c-7.44,0-10.8,6.4-10.8,14.49
					C342.24,57.86,345.54,64.52,352.98,64.52z"/>
				<path class="st0" d="M399.67,52.55l0.06,13.52c0,0.19-0.19,0.39-0.39,0.39h-2.52c-0.19,0-0.39-0.19-0.39-0.39l0.13-13.52
					l-0.13-19.02c0-0.19,0.19-0.39,0.39-0.39h2.46c0.19,0,0.39,0.19,0.39,0.39L399.54,40c1.87-3.82,5.3-7.63,10.8-7.63
					c4.79,0,8.21,2.39,9.57,7.63c2-4.08,5.5-7.63,10.8-7.63c6.34,0,10.22,4.2,10.22,13.45v6.73l0.13,13.52
					c0,0.19-0.19,0.39-0.39,0.39h-2.52c-0.19,0-0.39-0.19-0.39-0.39l0.06-13.52v-6.4c0-8.09-3.1-11.06-7.82-11.06
					c-4.4,0-7.37,3.3-9.51,8.67c0.06,0.65,0.06,1.36,0.06,2.07v6.73l0.13,13.52c0,0.19-0.19,0.39-0.39,0.39h-2.52
					c-0.19,0-0.39-0.19-0.39-0.39l0.06-13.52v-6.4c0-8.09-3.1-11.06-7.82-11.06s-7.76,3.82-9.96,9.83V52.55z"/>
				<path class="st0" d="M476.53,66.46c-0.19,0-0.39-0.19-0.39-0.39l0.19-6.4c-2.07,4.59-5.88,7.38-11.25,7.38
					c-8.66,0-13.32-7.5-13.32-17.21c0-9.57,4.72-17.34,13.39-17.34c5.24,0,9.05,2.52,11.12,7.25l-0.13-6.21
					c0-0.19,0.19-0.39,0.39-0.39h2.46c0.19,0,0.39,0.19,0.39,0.39l-0.13,15.65l0.13,16.88c0,0.19-0.19,0.39-0.39,0.39H476.53z
					 M465.73,64.52c6.4,0,10.67-4.85,10.73-14.36s-3.94-15.14-10.67-15.14c-7.44,0-10.8,6.4-10.8,14.49
					C455,57.86,458.3,64.52,465.73,64.52z"/>
				<path class="st0" d="M515.05,66.46c-0.19,0-0.39-0.19-0.39-0.39l0.19-6.4c-2.07,4.59-5.88,7.44-11.25,7.44
					c-8.66,0-13.32-7.57-13.32-17.27c0-9.57,4.72-17.4,13.39-17.4c5.11,0,8.86,2.46,10.99,6.99l-0.07-17.85
					c0-0.19,0.19-0.39,0.39-0.39h2.52c0.19,0,0.39,0.19,0.39,0.39l-0.13,17.79l0.13,26.72c0,0.19-0.19,0.39-0.39,0.39H515.05z
					 M504.25,64.58c6.4,0,10.67-4.85,10.73-14.43c0.06-9.51-3.94-15.27-10.67-15.27c-7.44,0-10.8,6.53-10.8,14.62
					C493.52,57.86,496.82,64.58,504.25,64.58z"/>
				<path class="st0" d="M557.19,54.69c0.19,0,0.39,0.19,0.32,0.39c-1.1,7.44-5.63,12.1-13.64,12.1c-9.89,0-15.06-7.05-15.06-17.27
					s5.69-17.47,14.61-17.47c8.79,0,14.16,6.21,14.29,16.88c0,0.19-0.19,0.39-0.39,0.39l-25.28,0.06c0,9.38,4.01,14.88,11.83,14.88
					c6.14,0,9.51-3.62,10.54-9.57c0.06-0.19,0.26-0.39,0.45-0.39H557.19z M543.48,34.96c-6.66,0-10.54,4.72-11.32,12.16h22.11
					C554.22,40.39,550.53,34.96,543.48,34.96z"/>
				<path class="st0" d="M595.35,66.46c-0.19,0-0.45-0.19-0.52-0.39l-8.34-30.15l-7.63,30.15c0,0.19-0.26,0.39-0.45,0.39h-2.91
					c-0.19,0-0.45-0.19-0.52-0.39l-9.7-32.54c-0.06-0.19,0.06-0.39,0.26-0.39h2.52c0.19,0,0.45,0.19,0.52,0.39l8.34,29.76
					l7.69-29.76c0.06-0.19,0.32-0.39,0.52-0.39h3.04c0.19,0,0.45,0.19,0.52,0.39l8.15,29.56l7.89-29.56
					c0.06-0.19,0.32-0.39,0.52-0.39h2.26c0.19,0,0.32,0.19,0.26,0.39l-8.99,32.54c-0.06,0.19-0.32,0.39-0.52,0.39H595.35z"/>
				<path class="st0" d="M643.78,54.69c0.19,0,0.39,0.19,0.32,0.39c-1.1,7.44-5.63,12.1-13.64,12.1c-9.89,0-15.06-7.05-15.06-17.27
					s5.69-17.47,14.61-17.47c8.79,0,14.16,6.21,14.29,16.88c0,0.19-0.19,0.39-0.39,0.39l-25.28,0.06c0,9.38,4.01,14.88,11.83,14.88
					c6.14,0,9.51-3.62,10.54-9.57c0.06-0.19,0.26-0.39,0.45-0.39H643.78z M630.07,34.96c-6.66,0-10.54,4.72-11.32,12.16h22.11
					C640.8,40.39,637.12,34.96,630.07,34.96z"/>
				<path class="st0" d="M655.77,66.46c-0.19,0-0.39-0.19-0.39-0.39l0.13-22.7l-0.13-21.8c0-0.19,0.19-0.39,0.39-0.39h2.46
					c0.19,0,0.39,0.19,0.39,0.39l-0.13,21.67l0.13,22.83c0,0.19-0.19,0.39-0.39,0.39H655.77z"/>
				<path class="st0" d="M671.57,66.46c-0.19,0-0.39-0.19-0.39-0.39l0.13-22.7l-0.13-21.8c0-0.19,0.19-0.39,0.39-0.39h2.46
					c0.19,0,0.39,0.19,0.39,0.39l-0.13,21.67l0.13,22.83c0,0.19-0.19,0.39-0.39,0.39H671.57z"/>
			</g>
			<g>
				<path class="st0" d="M190.88,100.07h4.49c1.37,0,2.52,0.15,3.46,0.46c0.87,0.29,1.64,0.81,2.32,1.56
					c1.02,1.12,1.74,2.59,2.18,4.39c0.43,1.74,0.65,4.24,0.65,7.5c0,2.98-0.24,5.42-0.72,7.3c-0.47,1.8-1.24,3.18-2.32,4.12
					c-1.32,1.18-3.69,1.77-7.11,1.77h-2.95V100.07z M194.53,123.98c2.22,0,3.71-0.67,4.46-2.02c0.77-1.34,1.16-3.96,1.16-7.85
					c0-4.18-0.37-7.05-1.11-8.62c-0.74-1.57-2.09-2.35-4.06-2.35h-0.46V123.98z"/>
				<path class="st0" d="M211.72,100.07h3.65v27.1h-3.65V100.07z"/>
				<path class="st0" d="M230.24,112.92h6.64v1.05c0,5.28-0.46,8.84-1.39,10.69c-0.91,1.9-2.62,2.84-5.13,2.84
					c-2.59,0-4.43-1.05-5.53-3.16c-1.09-2.11-1.63-5.65-1.63-10.62c0-5.69,0.6-9.47,1.79-11.36c1.12-1.77,2.85-2.65,5.18-2.65
					c1.78,0,3.17,0.43,4.16,1.28c1.01,0.87,1.79,2.29,2.35,4.27l-3.4,1.42c-0.15-0.71-0.32-1.31-0.51-1.8
					c-0.19-0.48-0.39-0.86-0.61-1.13c-0.44-0.55-1.11-0.83-2-0.83c-1.22,0-2.05,0.75-2.49,2.25c-0.45,1.57-0.67,4.38-0.67,8.45
					c0,4.11,0.23,6.89,0.68,8.34c0.46,1.45,1.32,2.18,2.58,2.18c1.16,0,1.97-0.52,2.44-1.55c0.48-1.1,0.72-2.87,0.72-5.3v-0.74
					v-0.54h-3.18V112.92z"/>
				<path class="st0" d="M244.52,100.07h3.65v27.1h-3.65V100.07z"/>
				<path class="st0" d="M254.93,100.07h11.88v3.2h-4.09v23.91h-3.58v-23.91h-4.21V100.07z"/>
				<path class="st0" d="M276.39,100.07h2.84l5.81,27.1h-3.62l-1.02-5.28h-5.37l-1.04,5.28h-3.51L276.39,100.07z M279.88,119.06
					l-0.81-4.32c-0.54-2.94-0.98-6.07-1.32-9.41c-0.16,1.63-0.37,3.27-0.63,4.94c-0.26,1.67-0.56,3.44-0.91,5.31l-0.67,3.48H279.88z
					"/>
				<path class="st0" d="M291.87,100.07h3.65v24.01h5.97v3.09h-9.62V100.07z"/>
				<path class="st0" d="M319.84,100.07h4.49c1.37,0,2.52,0.15,3.46,0.46c0.87,0.29,1.64,0.81,2.32,1.56
					c1.02,1.12,1.74,2.59,2.18,4.39c0.43,1.74,0.65,4.24,0.65,7.5c0,2.98-0.24,5.42-0.72,7.3c-0.47,1.8-1.24,3.18-2.32,4.12
					c-1.32,1.18-3.69,1.77-7.11,1.77h-2.95V100.07z M323.49,123.98c2.22,0,3.71-0.67,4.46-2.02c0.77-1.34,1.16-3.96,1.16-7.85
					c0-4.18-0.37-7.05-1.11-8.62c-0.74-1.57-2.09-2.35-4.06-2.35h-0.46V123.98z"/>
				<path class="st0" d="M340.65,100.07h9.71v3.09h-6.06v8.58h5.37v3.09h-5.37v9.25h6.06v3.09h-9.71V100.07z"/>
				<path class="st0" d="M367.03,100.63v3.56c-1.11-0.8-2.11-1.19-3-1.19c-0.96,0-1.74,0.34-2.35,1.02
					c-0.61,0.64-0.91,1.5-0.91,2.58c0,0.95,0.22,1.76,0.65,2.44c0.22,0.36,0.59,0.83,1.1,1.4c0.51,0.57,1.17,1.26,1.97,2.07
					c1.49,1.51,2.5,2.81,3.04,3.91c0.54,1.07,0.81,2.37,0.81,3.91c0,2.1-0.59,3.82-1.77,5.18c-1.18,1.32-2.7,1.98-4.55,1.98
					c-1.56,0-2.89-0.43-3.99-1.28v-3.62c1.3,0.95,2.48,1.42,3.55,1.42c0.99,0,1.77-0.33,2.33-0.99c0.56-0.66,0.84-1.56,0.84-2.69
					c0-0.98-0.22-1.87-0.65-2.65c-0.22-0.37-0.53-0.81-0.93-1.29c-0.4-0.49-0.9-1.03-1.49-1.62c-0.92-0.91-1.69-1.72-2.3-2.42
					c-0.61-0.7-1.06-1.32-1.35-1.84c-0.56-1.03-0.84-2.33-0.84-3.9c0-2.12,0.55-3.8,1.65-5.04c1.11-1.25,2.6-1.88,4.48-1.88
					C364.61,99.7,365.85,100.01,367.03,100.63z"/>
				<path class="st0" d="M375.61,100.07h3.65v27.1h-3.65V100.07z"/>
				<path class="st0" d="M394.13,112.92h6.64v1.05c0,5.28-0.46,8.84-1.39,10.69c-0.91,1.9-2.62,2.84-5.13,2.84
					c-2.59,0-4.43-1.05-5.53-3.16c-1.09-2.11-1.63-5.65-1.63-10.62c0-5.69,0.6-9.47,1.79-11.36c1.12-1.77,2.85-2.65,5.18-2.65
					c1.78,0,3.16,0.43,4.16,1.28c1.01,0.87,1.79,2.29,2.35,4.27l-3.41,1.42c-0.15-0.71-0.32-1.31-0.51-1.8
					c-0.19-0.48-0.39-0.86-0.61-1.13c-0.44-0.55-1.11-0.83-2-0.83c-1.22,0-2.05,0.75-2.49,2.25c-0.44,1.57-0.67,4.38-0.67,8.45
					c0,4.11,0.23,6.89,0.68,8.34c0.46,1.45,1.32,2.18,2.58,2.18c1.16,0,1.97-0.52,2.44-1.55c0.48-1.1,0.72-2.87,0.72-5.3v-0.74
					v-0.54h-3.18V112.92z"/>
				<path class="st0" d="M408.43,100.07h3.41l3.63,10.81c1.05,3.06,1.98,6.31,2.79,9.78c-0.29-2.1-0.51-3.99-0.65-5.69
					c-0.14-1.7-0.21-3.3-0.21-4.79v-10.11h3.67v27.1h-3.42l-4.09-12.2c-0.37-1.13-0.73-2.3-1.06-3.49
					c-0.33-1.19-0.64-2.44-0.92-3.76c-0.02-0.16-0.06-0.36-0.11-0.6c-0.05-0.23-0.11-0.5-0.18-0.81c0.03,0.3,0.06,0.56,0.09,0.78
					c0.02,0.22,0.04,0.4,0.05,0.55l0.19,2.76l0.19,3.35c0.01,0.19,0.02,0.41,0.03,0.68c0.01,0.27,0.01,0.57,0.01,0.91l0.19,11.81
					h-3.6V100.07z"/>
				<path class="st0" d="M440.33,114.81v-3h4.83v-4.76h3.04v4.76h4.81v3h-4.81v4.79h-3.04v-4.79H440.33z"/>
				<path class="st0" d="M472.28,100.07h3.65v27.1h-3.65V100.07z"/>
				<path class="st0" d="M484.21,100.07h3.65v24.01h5.97v3.09h-9.62V100.07z"/>
				<path class="st0" d="M500.71,100.07h3.65v24.01h5.97v3.09h-9.62V100.07z"/>
				<path class="st0" d="M517.03,100.07h3.58v19.15c0,1.95,0.18,3.25,0.53,3.9c0.36,0.64,1.08,0.96,2.14,0.96
					c1.06,0,1.77-0.28,2.11-0.84c0.35-0.57,0.53-1.74,0.53-3.49v-19.68h3.58v19.68c0,2.95-0.45,4.95-1.35,5.99
					c-1.08,1.18-2.72,1.77-4.93,1.77c-2.43,0-4.15-0.76-5.14-2.28c-0.69-1.04-1.04-3.04-1.04-6V100.07z"/>
				<path class="st0" d="M546.78,100.63v3.56c-1.11-0.8-2.11-1.19-3-1.19c-0.96,0-1.74,0.34-2.35,1.02
					c-0.61,0.64-0.91,1.5-0.91,2.58c0,0.95,0.22,1.76,0.65,2.44c0.22,0.36,0.59,0.83,1.1,1.4c0.51,0.57,1.17,1.26,1.97,2.07
					c1.49,1.51,2.5,2.81,3.04,3.91c0.54,1.07,0.81,2.37,0.81,3.91c0,2.1-0.59,3.82-1.77,5.18c-1.18,1.32-2.7,1.98-4.55,1.98
					c-1.56,0-2.89-0.43-3.99-1.28v-3.62c1.3,0.95,2.48,1.42,3.55,1.42c0.99,0,1.77-0.33,2.33-0.99c0.56-0.66,0.84-1.56,0.84-2.69
					c0-0.98-0.22-1.87-0.65-2.65c-0.22-0.37-0.53-0.81-0.93-1.29c-0.4-0.49-0.9-1.03-1.49-1.62c-0.92-0.91-1.69-1.72-2.3-2.42
					c-0.61-0.7-1.06-1.32-1.35-1.84c-0.56-1.03-0.84-2.33-0.84-3.9c0-2.12,0.55-3.8,1.65-5.04c1.11-1.25,2.6-1.88,4.47-1.88
					C544.35,99.7,545.59,100.01,546.78,100.63z"/>
				<path class="st0" d="M553.63,100.07h11.88v3.2h-4.09v23.91h-3.58v-23.91h-4.21V100.07z"/>
				<path class="st0" d="M572.26,100.07h4.81c1.99,0,3.47,0.47,4.44,1.42c1.23,1.23,1.84,3.11,1.84,5.63c0,1.94-0.32,3.5-0.98,4.68
					c-0.65,1.17-1.58,1.9-2.78,2.18l4.99,13.18h-3.7l-4.97-13.27v13.27h-3.65V100.07z M575.91,112.07c1.42,0,2.42-0.33,3-0.98
					c0.58-0.66,0.88-1.76,0.88-3.32c0-0.84-0.06-1.56-0.18-2.16c-0.12-0.6-0.32-1.08-0.58-1.46c-0.26-0.37-0.6-0.65-1.02-0.83
					c-0.41-0.18-0.91-0.26-1.48-0.26h-0.61V112.07z"/>
				<path class="st0" d="M596.64,100.07h2.84l5.81,27.1h-3.62l-1.02-5.28h-5.37l-1.04,5.28h-3.51L596.64,100.07z M600.13,119.06
					l-0.81-4.32c-0.54-2.94-0.98-6.07-1.32-9.41c-0.16,1.63-0.37,3.27-0.63,4.94c-0.26,1.67-0.56,3.44-0.91,5.31l-0.67,3.48H600.13z
					"/>
				<path class="st0" d="M608.91,100.07h11.88v3.2h-4.09v23.91h-3.58v-23.91h-4.21V100.07z"/>
				<path class="st0" d="M627.55,100.07h3.65v27.1h-3.65V100.07z"/>
				<path class="st0" d="M653.15,114.29c0,4.79-0.53,8.19-1.6,10.2c-1.07,2.01-2.85,3.02-5.35,3.02c-2.63,0-4.49-1.08-5.56-3.25
					c-1.07-2.12-1.6-5.88-1.6-11.29c0-4.82,0.53-8.23,1.58-10.23c1.06-2.01,2.87-3.02,5.41-3.02c2.27,0,3.95,0.78,5.06,2.33
					c0.73,1.04,1.25,2.52,1.58,4.44C652.99,108.27,653.15,110.87,653.15,114.29z M649.32,114.67c0-4.69-0.21-7.81-0.63-9.34
					c-0.42-1.54-1.28-2.32-2.58-2.32c-1.3,0-2.16,0.71-2.6,2.12c-0.42,1.43-0.63,4.29-0.63,8.6c0,3.97,0.22,6.72,0.67,8.25
					c0.46,1.45,1.31,2.18,2.56,2.18c1.23,0,2.07-0.68,2.53-2.04C649.1,120.79,649.32,118.3,649.32,114.67z"/>
				<path class="st0" d="M660.94,100.07h3.41l3.63,10.81c1.05,3.06,1.98,6.31,2.79,9.78c-0.29-2.1-0.51-3.99-0.65-5.69
					c-0.14-1.7-0.21-3.3-0.21-4.79v-10.11h3.67v27.1h-3.42l-4.09-12.2c-0.37-1.13-0.73-2.3-1.06-3.49
					c-0.33-1.19-0.64-2.44-0.92-3.76c-0.02-0.16-0.06-0.36-0.11-0.6c-0.05-0.23-0.11-0.5-0.18-0.81c0.03,0.3,0.06,0.56,0.09,0.78
					c0.02,0.22,0.04,0.4,0.05,0.55l0.19,2.76l0.19,3.35c0.01,0.19,0.02,0.41,0.03,0.68c0.01,0.27,0.01,0.57,0.01,0.91l0.19,11.81
					h-3.6V100.07z"/>
			</g>
		</g>
	</g>
</g>
<g id="Layer_3">
</g>
</svg>
